<?xml version="1.0" encoding="UTF-8" standalone="no"?>
<svg
   xmlns:dc="http://purl.org/dc/elements/1.1/"
   xmlns:cc="http://creativecommons.org/ns#"
   xmlns:rdf="http://www.w3.org/1999/02/22-rdf-syntax-ns#"
   xmlns:svg="http://www.w3.org/2000/svg"
   xmlns="http://www.w3.org/2000/svg"
   xmlns:xlink="http://www.w3.org/1999/xlink"
   xmlns:sodipodi="http://sodipodi.sourceforge.net/DTD/sodipodi-0.dtd"
   xmlns:inkscape="http://www.inkscape.org/namespaces/inkscape"
   inkscape:version="1.1-dev (7fa40cb683, 2020-03-24)"
   sodipodi:docname="box_face.svg"
   id="svg37"
   version="1.1"
   viewBox="0 0 165 165"
   height="165"
   width="165">
  <metadata
     id="metadata41">
    <rdf:RDF>
      <cc:Work
         rdf:about="">
        <dc:format>image/svg+xml</dc:format>
        <dc:type
           rdf:resource="http://purl.org/dc/dcmitype/StillImage" />
        <dc:title>3F5B9455-42C5-4E6E-8563-F0A6A366D8B2</dc:title>
      </cc:Work>
    </rdf:RDF>
  </metadata>
  <sodipodi:namedview
     inkscape:current-layer="svg37"
     inkscape:window-maximized="1"
     inkscape:window-y="27"
     inkscape:window-x="0"
     inkscape:cy="97.287595"
     inkscape:cx="145.36622"
     inkscape:zoom="2.9249125"
     showgrid="false"
     id="namedview39"
     inkscape:window-height="999"
     inkscape:window-width="1920"
     inkscape:pageshadow="2"
     inkscape:pageopacity="0"
     guidetolerance="10"
     gridtolerance="10"
     objecttolerance="10"
     borderopacity="1"
     bordercolor="#666666"
     pagecolor="#000000" />
  <defs
     id="defs8">
    <path
       inkscape:connector-curvature="0"
       id="path-1"
       d="M 105,210 C 47.010101,210 0,162.9899 0,105 0,47.010101 47.010101,0 105,0 c 57.9899,0 105,47.010101 105,105 0,57.9899 -47.0101,105 -105,105 z m 0,-13 c 50.8102,0 92,-41.1898 92,-92 0,-50.810197 -41.1898,-92 -92,-92 -50.810197,0 -92,41.189803 -92,92 0,50.8102 41.189803,92 92,92 z" />
    <circle
       r="79"
       cy="105"
       cx="105"
       id="path-3" />
  </defs>
  <g
     style="fill:none;fill-rule:evenodd;stroke:none;stroke-width:1"
     transform="translate(-18.46209,-23.119004)"
     id="2-container-3-forms">
    <g
       transform="translate(-567,-158)"
       id="26.Dry1__Finish-">
      <g
         transform="translate(567,158)"
         id="Group-28">
        <mask
           fill="white"
           id="mask-2">
          <use
             height="100%"
             width="100%"
             y="0"
             x="0"
             id="use10"
             xlink:href="#path-1" />
        </mask>
        <mask
           fill="white"
           id="mask-4">
          <use
             height="100%"
             width="100%"
             y="0"
             x="0"
             id="use15"
             xlink:href="#path-3" />
        </mask>
        <use
           height="100%"
           width="100%"
           y="0"
           x="0"
           style="fill:#5c5858"
           transform="translate(-3.585178,0.27578234)"
           xlink:href="#path-3"
           id="use18" />
        <g
           mask="url(#mask-4)"
           id="Group-2">
          <g
             id="g25"
             transform="rotate(180,81.5,80.5)">
            <g
               style="opacity:0.7;fill:none;stroke-width:1"
               id="noun_container_180474">
              <g
                 style="fill:#ffffff;fill-rule:nonzero"
                 id="Group">
                <path
                   sodipodi:nodetypes="cccccccscccccsccccccsccccccccccccccccccccccccccccccccccc"
                   inkscape:connector-curvature="0"
                   id="Shape"
                   d="m 108.22529,47.326208 c -0.01,-0.103307 -0.04,-0.201533 -0.0901,-0.292984 -0.05,-0.09653 -0.12007,-0.179517 -0.20345,-0.247258 L 106.78777,45.849433 51.59533,0.66556449 c -0.03669,-0.0220161 -0.07504,-0.0423387 -0.115068,-0.0609677 -0.04336,-0.018629 -0.08338,-0.0406452 -0.128408,-0.0508065 -0.04836,-0.0118548 -0.09839,-0.0101613 -0.148421,-0.0118548 -0.05003,-0.001694 -0.09839,-0.005081 -0.148421,0.001694 -0.04503,0.008468 -0.08672,0.0254032 -0.130076,0.0406452 -0.05336,0.018629 -0.105062,0.0372581 -0.153424,0.0677419 -0.01167,0.006774 -0.02668,0.008468 -0.03669,0.0169355 L 15.714237,25.255886 c -0.03169,0.02032 -0.04669,0.0525 -0.07338,0.07621 -0.04002,0.03556 -0.07838,0.07113 -0.110065,0.116854 -0.03335,0.04573 -0.05336,0.09653 -0.07504,0.147339 -0.01334,0.03387 -0.03669,0.05927 -0.04669,0.09314 l -15.15724731,54.1546 c -0.11506764,0.411532 0.11506765,0.834919 0.51196763,0.965322 L 73.678311,104.91532 c 0.07671,0.022 0.156759,0.0389 0.240141,0.0389 0.0567,0 0.115068,-0.007 0.171768,-0.0186 l 38.53098,-8.765806 c 0.0367,-0.0085 0.0667,-0.03387 0.10173,-0.04572 0.05,-0.01863 0.0984,-0.03557 0.14175,-0.06436 0.0434,-0.0271 0.0784,-0.06266 0.1134,-0.09653 0.0367,-0.03556 0.0717,-0.06774 0.10173,-0.108387 0.03,-0.04064 0.0484,-0.08637 0.07,-0.13379 0.0217,-0.04573 0.0417,-0.08806 0.0534,-0.138871 0.0133,-0.0525 0.0133,-0.105 0.015,-0.159194 0,-0.03726 0.0133,-0.07113 0.01,-0.11008 z M 105.51869,44.809595 70.358026,16.015886 Z M 69.806035,15.563709 54.305256,2.8688708 Z M 53.581498,2.2761289 52.053933,1.0262903 Z M 16.826558,26.399031 50.709809,2.609758 42.311539,60.884755 2.0228558,79.288545 Z M 73.958476,103.34032 4.1977539,79.844029 73.678311,104.91532 110.89185,94.936931 Z M 42.860195,60.913546 51.288483,2.4353225 106.70773,47.820724 111.5906,94.662576 Z" />
              </g>
            </g>
            <polygon
               style="opacity:0.7;fill:#ffffff"
               points="111.97808,95.963221 42.860195,60.913546 51.288483,2.4353225 107.22529,47.326208 "
               id="Rectangle" />
            <polygon
               style="opacity:0.4;fill:#ffffff"
               points="42.860195,62 2.0228558,79.288545 15.714237,25.255886 51.709809,1.8688708 "
               id="Rectangle-Copy" />
          </g>
        </g>
      </g>
    </g>
  </g>
</svg>
