<?xml version="1.0" encoding="UTF-8"?>
<svg width="14px" height="20px" viewBox="0 0 14 20" version="1.1" xmlns="http://www.w3.org/2000/svg" xmlns:xlink="http://www.w3.org/1999/xlink">
    <g id="2-container-3-forms" stroke="none" stroke-width="1" fill="none" fill-rule="evenodd" stroke-linecap="round">
        <g id="51.Dry3_Forms_edit-submit-Copy" transform="translate(-384.000000, -297.000000)" stroke="#444444" stroke-width="0.800000012">
            <g id="Group-3-Copy-2" transform="translate(384.000000, 298.000000)">
                <g id="Group-2" transform="translate(4.327273, 5.052632)">
                    <path d="M0.127272727,0.174375 L0.127272727,9.53555921" id="Line"></path>
                    <path d="M2.67272727,0.174375 L2.67272727,9.53555921" id="Line-Copy"></path>
                    <path d="M5.21818182,0.174375 L5.21818182,9.53555921" id="Line-Copy-2"></path>
                </g>
                <path d="M1.28017363,15.3744784 C1.20175915,17.1227185 1.74265721,17.9968386 2.90286781,17.9968386 C4.06307841,17.9968386 6.72021886,17.9968386 10.8742892,17.9968386 C12.1096115,18.0596836 12.7272727,17.1855636 12.7272727,15.3744784 C12.7272727,13.5633933 12.7272727,8.96488295 12.7272727,1.57894737 L1.28017363,1.57894737 L1.28017363,15.3744784 Z" id="Line-Copy-3" stroke-linejoin="round"></path>
                <polyline id="Line-2" stroke-linejoin="round" points="14 1.57894737 8.36998375 1.57894737 8.36998375 0 5.61858984 0 5.61858984 1.57894737 1.27272727 1.57894737 0 1.57894737"></polyline>
            </g>
        </g>
    </g>
</svg>