<svg width="138" height="90" viewBox="0 0 138 90" fill="none" xmlns="http://www.w3.org/2000/svg">
<path d="M107.674 73.209C107.488 73.2052 107.296 73.2681 107.082 73.3574C106.224 73.7144 105.512 74.7268 105.512 75.6134C105.512 76.1676 105.794 76.5357 106.207 76.6524L110.741 79.6644L113.289 76.7553L108.214 73.4168L108.189 73.3871C108.042 73.2884 107.873 73.2132 107.674 73.209V73.209Z" fill="url(#paint0_linear)" stroke="black" stroke-width="0.287801" stroke-linecap="round" stroke-linejoin="round"/>
<path d="M111.838 79.6343C112.696 79.2771 113.391 78.2684 113.391 77.3813C113.391 76.4942 112.696 76.0646 111.838 76.4217C110.98 76.7789 110.284 77.7876 110.284 78.6747C110.284 79.5619 110.98 79.9915 111.838 79.6343Z" fill="#555753" stroke="black" stroke-width="0.2977" stroke-linecap="round" stroke-linejoin="round"/>
<path d="M95.8087 64.0596C94.8161 62.2054 93.132 61.3287 92.0472 62.1013C90.9623 62.874 90.8875 65.0035 91.8801 66.8578C92.8727 68.712 94.5568 69.5887 95.6417 68.816C96.7265 68.0433 96.8013 65.9138 95.8087 64.0596Z" fill="#CC0000"/>
<path fill-rule="evenodd" clip-rule="evenodd" d="M92.9484 61.8198C92.6225 61.817 92.3164 61.9063 92.0453 62.0993L90.2075 63.3188L93.5509 70.2168L95.8669 68.6162C96.7295 67.7218 96.7295 65.7699 95.8118 64.0556C95.0678 62.6657 93.9263 61.8276 92.9484 61.8198H92.9484Z" fill="url(#paint1_linear)" stroke="black" stroke-width="0.123163"/>
<path d="M93.8413 65.3695C92.8487 63.5153 91.1646 62.6386 90.0798 63.4113C88.9949 64.184 88.9201 66.3135 89.9127 68.1677C90.9053 70.0219 92.5894 70.8986 93.6743 70.126C94.7591 69.3533 94.8339 67.2237 93.8413 65.3695Z" fill="#555753" stroke="black" stroke-width="0.123232" stroke-linejoin="bevel"/>
<path d="M92.9483 65.8408C92.4059 64.8276 91.4857 64.3486 90.893 64.7708C90.3002 65.193 90.2593 66.3565 90.8017 67.3697C91.3441 68.3828 92.2643 68.8618 92.857 68.4396C93.4498 68.0175 93.4906 66.8539 92.9483 65.8408Z" fill="#D3D7CF"/>
<path d="M101.039 67.9632C100.046 66.109 98.3622 65.2322 97.2774 66.0049C96.1925 66.7776 96.1177 68.9071 97.1103 70.7613C98.1029 72.6155 99.787 73.4923 100.872 72.7196C101.957 71.9469 102.032 69.8174 101.039 67.9632Z" fill="#CC0000"/>
<path fill-rule="evenodd" clip-rule="evenodd" d="M98.1786 65.7234C97.8526 65.7205 97.5466 65.8098 97.2755 66.0029L95.4377 67.2224L98.7811 74.1204L101.097 72.5197C101.96 71.6254 101.96 69.6735 101.042 67.9592C100.298 66.5693 99.1565 65.7312 98.1786 65.7234H98.1786Z" fill="url(#paint2_linear)" stroke="black" stroke-width="0.123163"/>
<path d="M99.0715 69.2731C98.0789 67.4189 96.3948 66.5422 95.31 67.3148C94.2251 68.0875 94.1503 70.217 95.1429 72.0713C96.1355 73.9255 97.8196 74.8022 98.9045 74.0295C99.9893 73.2568 100.064 71.1273 99.0715 69.2731Z" fill="#555753" stroke="black" stroke-width="0.123232" stroke-linejoin="bevel"/>
<path d="M98.1785 69.7444C97.6361 68.7313 96.7159 68.2522 96.1232 68.6744C95.5304 69.0966 95.4895 70.2602 96.0319 71.2733C96.5743 72.2864 97.4944 72.7655 98.0872 72.3433C98.68 71.9211 98.7208 70.7575 98.1785 69.7444Z" fill="#D3D7CF"/>
<path fill-rule="evenodd" clip-rule="evenodd" d="M101.765 53.2916L89.1294 61.7062L114.4 78.5354L127.035 70.1208L101.765 53.2916Z" fill="#555753" stroke="black" stroke-width="0.287801" stroke-linecap="round" stroke-linejoin="bevel"/>
<path fill-rule="evenodd" clip-rule="evenodd" d="M90.1588 60.7245L115.429 77.5537V60.7245L90.1588 43.8953V60.7245Z" fill="#D3D7CF" stroke="black" stroke-width="0.287801" stroke-linejoin="bevel"/>
<path fill-rule="evenodd" clip-rule="evenodd" d="M127.962 69.0204L115.326 77.435V60.6058L127.962 52.1912V69.0204Z" fill="#888A85" stroke="black" stroke-width="0.287801" stroke-linecap="round" stroke-linejoin="bevel"/>
<path fill-rule="evenodd" clip-rule="evenodd" d="M102.691 35.3619L90.0558 43.7765L115.326 60.6057L127.962 52.1911L102.691 35.3619Z" fill="#EEEEEC" stroke="black" stroke-width="0.287801" stroke-linecap="round" stroke-linejoin="bevel"/>
<path d="M119.815 81.3939C118.823 79.5397 117.139 78.6629 116.054 79.4356C114.969 80.2083 114.894 82.3378 115.887 84.192C116.879 86.0462 118.563 86.923 119.648 86.1503C120.733 85.3776 120.808 83.2481 119.815 81.3939Z" fill="#CC0000"/>
<path fill-rule="evenodd" clip-rule="evenodd" d="M116.955 79.1542C116.629 79.1513 116.323 79.2406 116.052 79.4337L114.214 80.6532L117.557 87.5511L119.873 85.9505C120.736 85.0562 120.736 83.1042 119.818 81.39C119.074 80.0001 117.933 79.162 116.955 79.1542H116.955Z" fill="url(#paint3_linear)" stroke="black" stroke-width="0.123163"/>
<path d="M117.848 82.7039C116.855 80.8496 115.171 79.9729 114.086 80.7456C113.001 81.5183 112.927 83.6478 113.919 85.502C114.912 87.3562 116.596 88.2329 117.681 87.4602C118.766 86.6876 118.84 84.5581 117.848 82.7039Z" fill="#555753" stroke="black" stroke-width="0.123232" stroke-linejoin="bevel"/>
<path d="M116.955 83.1751C116.412 82.1619 115.492 81.6829 114.899 82.1051C114.307 82.5273 114.266 83.6908 114.808 84.704C115.351 85.7171 116.271 86.1961 116.864 85.7739C117.456 85.3517 117.497 84.1882 116.955 83.1751Z" fill="#D3D7CF"/>
<path fill-rule="evenodd" clip-rule="evenodd" d="M118.731 82.4256C119.471 83.809 119.729 85.3016 119.528 86.4924L124.47 89.7874V72.9562L116.26 67.6129L116.315 78.0323C116.672 79.0808 116.655 80.3458 118.731 82.4256Z" fill="#888A85" stroke="black" stroke-width="0.287801" stroke-linejoin="bevel"/>
<path fill-rule="evenodd" clip-rule="evenodd" d="M137.111 81.3607V64.5315L124.476 72.9461V89.7753L137.111 81.3607Z" fill="#555753" stroke="black" stroke-width="0.287801" stroke-linejoin="bevel"/>
<path fill-rule="evenodd" clip-rule="evenodd" d="M137.148 70.8853L137.111 64.5315L124.476 72.9461L124.512 79.2999L137.148 70.8853Z" fill="#729FCF" stroke="black" stroke-width="0.287801" stroke-linejoin="bevel"/>
<path fill-rule="evenodd" clip-rule="evenodd" d="M123.645 73.5921L117.302 69.4955L117.379 74.3218L123.568 79.2101L123.645 73.5921Z" fill="#729FCF" stroke="black" stroke-width="0.287801"/>
<path fill-rule="evenodd" clip-rule="evenodd" d="M129.005 59.2695L116.369 67.6841L124.437 73.0568L137.072 64.6422L129.005 59.2695Z" fill="#D3D7CF" stroke="black" stroke-width="0.287801" stroke-linejoin="bevel"/>
<path d="M126.936 87.4385C127.794 87.0813 128.49 86.0726 128.49 85.1855C128.49 84.2984 127.794 83.8688 126.936 84.2259C126.078 84.5831 125.383 85.5918 125.383 86.4789C125.383 87.3661 126.078 87.7957 126.936 87.4385Z" fill="#D3D7CF"/>
<path d="M126.936 86.9116C127.513 86.6716 127.98 85.9937 127.98 85.3975C127.98 84.8014 127.513 84.5126 126.936 84.7527C126.36 84.9927 125.892 85.6706 125.892 86.2668C125.892 86.863 126.36 87.1517 126.936 86.9116Z" fill="#EEEEEC"/>
<path d="M126.533 85.9473C126.724 85.8676 126.88 85.6423 126.88 85.4441C126.88 85.246 126.724 85.15 126.533 85.2298C126.341 85.3096 126.186 85.5349 126.186 85.733C126.186 85.9312 126.341 86.0271 126.533 85.9473Z" fill="white"/>
<path d="M135.307 81.7106C136.165 81.3534 136.861 80.3447 136.861 79.4576C136.861 78.5705 136.165 78.1409 135.307 78.498C134.449 78.8552 133.754 79.8639 133.754 80.751C133.754 81.6381 134.449 82.0677 135.307 81.7106Z" fill="#D3D7CF"/>
<path d="M135.307 81.1837C135.884 80.9437 136.351 80.2658 136.351 79.6696C136.351 79.0735 135.884 78.7847 135.307 79.0248C134.731 79.2648 134.263 79.9427 134.263 80.5389C134.263 81.1351 134.731 81.4238 135.307 81.1837Z" fill="#EEEEEC"/>
<path d="M134.904 80.2195C135.096 80.1397 135.251 79.9144 135.251 79.7162C135.251 79.5181 135.096 79.4221 134.904 79.5019C134.712 79.5817 134.557 79.807 134.557 80.0051C134.557 80.2033 134.712 80.2992 134.904 80.2195Z" fill="white"/>
<path d="M125.914 83.8983C126.294 83.7402 126.602 83.2935 126.602 82.9008C126.602 82.508 126.294 82.3178 125.914 82.4759C125.534 82.6341 125.226 83.0807 125.226 83.4735C125.226 83.8663 125.534 84.0565 125.914 83.8983Z" fill="#D3D7CF"/>
<path d="M125.914 83.6649C126.169 83.5586 126.376 83.2585 126.376 82.9945C126.376 82.7305 126.169 82.6027 125.914 82.709C125.659 82.8153 125.452 83.1154 125.452 83.3794C125.452 83.6433 125.659 83.7712 125.914 83.6649Z" fill="#F57900"/>
<path d="M125.735 83.2379C125.82 83.2026 125.889 83.1029 125.889 83.0151C125.889 82.9274 125.82 82.8849 125.735 82.9202C125.651 82.9556 125.582 83.0553 125.582 83.143C125.582 83.2308 125.651 83.2733 125.735 83.2379Z" fill="white"/>
<path d="M135.935 77.8901C136.315 77.7319 136.623 77.2853 136.623 76.8925C136.623 76.4997 136.315 76.3095 135.935 76.4677C135.556 76.6258 135.248 77.0724 135.248 77.4652C135.248 77.858 135.556 78.0482 135.935 77.8901Z" fill="#D3D7CF"/>
<path d="M135.935 77.6567C136.191 77.5504 136.398 77.2502 136.398 76.9863C136.398 76.7223 136.191 76.5945 135.935 76.7007C135.68 76.807 135.473 77.1072 135.473 77.3711C135.473 77.6351 135.68 77.7629 135.935 77.6567Z" fill="#F57900"/>
<path d="M135.757 77.2297C135.842 77.1944 135.91 77.0947 135.91 77.0069C135.91 76.9192 135.842 76.8767 135.757 76.9121C135.672 76.9474 135.603 77.0471 135.603 77.1349C135.603 77.2226 135.672 77.2651 135.757 77.2297Z" fill="white"/>
<path fill-rule="evenodd" clip-rule="evenodd" d="M128.164 76.4603L128.903 76.0315L133.107 67.7567L131.719 68.6811L128.164 76.4603Z" fill="white"/>
<path fill-rule="evenodd" clip-rule="evenodd" d="M129.78 75.4477L130.519 75.0188L134.723 66.744L133.335 67.6684L129.78 75.4477Z" fill="white"/>
<path d="M91.0447 61.122V44.4368" stroke="black" stroke-width="0.287801"/>
<path fill-rule="evenodd" clip-rule="evenodd" d="M91.2519 61.3859V44.7007V61.3859Z" fill="#EEEEEC"/>
<path d="M91.2519 61.3859V44.7007" stroke="#EEEEEC" stroke-width="0.287801"/>
<path d="M93.3646 62.8432V46.1579" stroke="black" stroke-width="0.287801"/>
<path fill-rule="evenodd" clip-rule="evenodd" d="M93.5718 63.1071V46.4218V63.1071Z" fill="#EEEEEC"/>
<path d="M93.5718 63.1071V46.4218" stroke="#EEEEEC" stroke-width="0.287801"/>
<path d="M96.0989 64.4804V47.7952" stroke="black" stroke-width="0.287801"/>
<path fill-rule="evenodd" clip-rule="evenodd" d="M96.306 64.7443V48.0591V64.7443Z" fill="#EEEEEC"/>
<path d="M96.306 64.7443V48.0591" stroke="#EEEEEC" stroke-width="0.287801"/>
<path d="M98.4187 66.1177V49.4324" stroke="black" stroke-width="0.287801"/>
<path fill-rule="evenodd" clip-rule="evenodd" d="M98.6259 66.3816V49.6964V66.3816Z" fill="#EEEEEC"/>
<path d="M98.6259 66.3816V49.6964" stroke="#EEEEEC" stroke-width="0.287801"/>
<path d="M100.739 67.839V51.1537" stroke="black" stroke-width="0.287801"/>
<path fill-rule="evenodd" clip-rule="evenodd" d="M100.946 68.1028V51.4176V68.1028Z" fill="#EEEEEC"/>
<path d="M100.946 68.1028V51.4176" stroke="#EEEEEC" stroke-width="0.287801"/>
<path d="M103.473 69.4761V52.7908" stroke="black" stroke-width="0.287801"/>
<path fill-rule="evenodd" clip-rule="evenodd" d="M103.68 69.74V53.0547V69.74Z" fill="#EEEEEC"/>
<path d="M103.68 69.74V53.0547" stroke="#EEEEEC" stroke-width="0.287801"/>
<path d="M106 71.2813V54.5961" stroke="black" stroke-width="0.287801"/>
<path fill-rule="evenodd" clip-rule="evenodd" d="M106.207 71.5452V54.86V71.5452Z" fill="#EEEEEC"/>
<path d="M106.207 71.5452V54.86" stroke="#EEEEEC" stroke-width="0.287801"/>
<path d="M108.32 73.0025V56.3172" stroke="black" stroke-width="0.287801"/>
<path fill-rule="evenodd" clip-rule="evenodd" d="M108.527 73.2663V56.5811V73.2663Z" fill="#EEEEEC"/>
<path d="M108.527 73.2663V56.5811" stroke="#EEEEEC" stroke-width="0.287801"/>
<path d="M111.054 74.6398V57.9545" stroke="black" stroke-width="0.287801"/>
<path fill-rule="evenodd" clip-rule="evenodd" d="M111.261 74.9037V58.2184V74.9037Z" fill="#EEEEEC"/>
<path d="M111.261 74.9037V58.2184" stroke="#EEEEEC" stroke-width="0.287801"/>
<path d="M113.581 76.2771V59.5918" stroke="black" stroke-width="0.287801"/>
<path fill-rule="evenodd" clip-rule="evenodd" d="M113.788 76.541V59.8557V76.541Z" fill="#EEEEEC"/>
<path d="M113.788 76.541V59.8557" stroke="#EEEEEC" stroke-width="0.287801"/>
<path opacity="0.422387" d="M23.8141 55.8523C5.50361 48.2442 -6.72105 33.8624 -3.49048 23.7297C-0.259909 13.5971 17.2025 11.5505 35.513 19.1586C53.8234 26.7667 66.0481 41.1484 62.8175 51.2811C59.587 61.4138 42.1245 63.4604 23.8141 55.8523Z" fill="white" fill-opacity="0.223121"/>
<path fill-rule="evenodd" clip-rule="evenodd" d="M10.2678 16.3787L12.0768 17.6225L-0.878018 26.1741L-2.78461 24.8678L10.2678 16.3787Z" fill="#B3B4B3"/>
<path fill-rule="evenodd" clip-rule="evenodd" d="M-0.776348 7.99548L45.3647 38.4933V56.9999L-0.776348 26.1741V7.99548Z" fill="#4F4F4F"/>
<path fill-rule="evenodd" clip-rule="evenodd" d="M-2.70687 24.8267L45.3647 56.9999L44.9463 57.3058L-3.207 25.143L-2.70687 24.8267Z" fill="#B3B4B3"/>
<path fill-rule="evenodd" clip-rule="evenodd" d="M-3.207 25.143L44.9722 57.2983V59.5681L-3.207 27.4915V25.143Z" fill="#747571"/>
<path fill-rule="evenodd" clip-rule="evenodd" d="M-2.70689 26.0581L44.5083 57.3934V58.6663L-2.70689 27.322V26.0581Z" fill="#D7DBCD"/>
<path fill-rule="evenodd" clip-rule="evenodd" d="M56.9164 30.8528L45.3646 38.4933L-0.77636 7.99547L10.8143 0.385132L56.9164 30.8528Z" fill="#8C8C8C"/>
<path fill-rule="evenodd" clip-rule="evenodd" d="M45.3647 59.3446L44.972 59.5681V57.2983L45.3647 57.0104V59.3446Z" fill="#484948"/>
<path fill-rule="evenodd" clip-rule="evenodd" d="M57.2346 51.5945L56.9164 51.8047V49.3727L57.2346 49.1794V51.5945Z" fill="#484948"/>
<path fill-rule="evenodd" clip-rule="evenodd" d="M3.27448 30.0107L2.41135 29.444V30.7146L3.27448 31.2836V30.0107Z" fill="#EE9E40"/>
<path fill-rule="evenodd" clip-rule="evenodd" d="M7.09985 32.5489L6.23673 31.9822V33.2529L7.09985 33.8219V32.5489Z" fill="#EE9E40"/>
<path fill-rule="evenodd" clip-rule="evenodd" d="M10.9252 35.0872L10.0621 34.5205V35.7911L10.9252 36.3601V35.0872Z" fill="#EE9E40"/>
<path fill-rule="evenodd" clip-rule="evenodd" d="M14.7505 37.6255L13.8874 37.0588V38.3294L14.7505 38.8984V37.6255Z" fill="#EE9E40"/>
<path fill-rule="evenodd" clip-rule="evenodd" d="M18.3773 40.0528L17.5141 39.4861V40.7567L18.3773 41.3257V40.0528Z" fill="#EE9E40"/>
<path fill-rule="evenodd" clip-rule="evenodd" d="M22.2003 42.5757L21.3372 42.009V43.2796L22.2003 43.8486V42.5757Z" fill="#EE9E40"/>
<path fill-rule="evenodd" clip-rule="evenodd" d="M26.0237 45.1155L25.1605 44.5488V45.8195L26.0237 46.3885V45.1155Z" fill="#EE9E40"/>
<path fill-rule="evenodd" clip-rule="evenodd" d="M29.7454 47.5909L28.8823 47.0242V48.2949L29.7454 48.8638V47.5909Z" fill="#EE9E40"/>
<path fill-rule="evenodd" clip-rule="evenodd" d="M33.3728 49.9846L32.5096 49.4178V50.6885L33.3728 51.2575V49.9846Z" fill="#EE9E40"/>
<path fill-rule="evenodd" clip-rule="evenodd" d="M37.1924 52.534L36.3292 51.9673V53.2379L37.1924 53.8069V52.534Z" fill="#EE9E40"/>
<path fill-rule="evenodd" clip-rule="evenodd" d="M41.0158 55.0755L40.1527 54.5088V55.7794L41.0158 56.3484V55.0755Z" fill="#EE9E40"/>
<path fill-rule="evenodd" clip-rule="evenodd" d="M44.5083 57.3934L43.6452 56.8267V58.0973L44.5083 58.6663V57.3934Z" fill="#EE9E40"/>
<path fill-rule="evenodd" clip-rule="evenodd" d="M0.417492 25.202L0.447205 12.3185L0.0350292 12.0508L0.00422439 25.4078L0.0222321 25.3981L0.417492 25.202Z" fill="#333333"/>
<path fill-rule="evenodd" clip-rule="evenodd" d="M0.428364 25.208L1.49839 25.8732L1.49721 26.4167L0.0248124 25.4128L0.428364 25.208Z" fill="#404040"/>
<path fill-rule="evenodd" clip-rule="evenodd" d="M0.404508 25.204L1.49022 25.8725L1.51889 13.0373L0.433282 12.323L0.404508 25.204Z" fill="#575757"/>
<path fill-rule="evenodd" clip-rule="evenodd" d="M2.8834 26.7894L2.91312 13.9059L2.50094 13.6382L2.47014 26.9952L2.48814 26.9855L2.8834 26.7894Z" fill="#333333"/>
<path fill-rule="evenodd" clip-rule="evenodd" d="M2.89416 26.7954L3.9639 27.461L3.96273 28.0047L2.49073 27.0003L2.89416 26.7954Z" fill="#404040"/>
<path fill-rule="evenodd" clip-rule="evenodd" d="M2.87042 26.7914L3.95613 27.4599L3.9848 14.6247L2.89919 13.9104L2.87042 26.7914Z" fill="#575757"/>
<path fill-rule="evenodd" clip-rule="evenodd" d="M5.58259 28.5613L5.61231 15.6778L5.20013 15.4102L5.16932 28.7671L5.18733 28.7574L5.58259 28.5613Z" fill="#333333"/>
<path fill-rule="evenodd" clip-rule="evenodd" d="M5.59335 28.5673L6.66309 29.2329L6.66192 29.7766L5.18991 28.7722L5.59335 28.5673Z" fill="#404040"/>
<path fill-rule="evenodd" clip-rule="evenodd" d="M5.56961 28.5633L6.65532 29.2319L6.68399 16.3966L5.59838 15.6823L5.56961 28.5633Z" fill="#575757"/>
<path fill-rule="evenodd" clip-rule="evenodd" d="M8.27644 30.3331L8.30615 17.4496L7.89398 17.1819L7.86317 30.5389L7.88118 30.5292L8.27644 30.3331Z" fill="#333333"/>
<path fill-rule="evenodd" clip-rule="evenodd" d="M8.2872 30.3391L9.35694 31.0047L9.35577 31.5484L7.88376 30.544L8.2872 30.3391Z" fill="#404040"/>
<path fill-rule="evenodd" clip-rule="evenodd" d="M8.26345 30.3351L9.34917 31.0036L9.37784 18.1684L8.29223 17.4541L8.26345 30.3351Z" fill="#575757"/>
<path fill-rule="evenodd" clip-rule="evenodd" d="M11.4237 32.3857L11.4534 19.5022L11.0412 19.2346L11.0104 32.5915L11.0284 32.5818L11.4237 32.3857Z" fill="#333333"/>
<path fill-rule="evenodd" clip-rule="evenodd" d="M11.4344 32.3917L12.5042 33.0573L12.503 33.601L11.031 32.5966L11.4344 32.3917Z" fill="#404040"/>
<path fill-rule="evenodd" clip-rule="evenodd" d="M11.4107 32.3877L12.4964 33.0563L12.5251 20.221L11.4395 19.5067L11.4107 32.3877Z" fill="#575757"/>
<path fill-rule="evenodd" clip-rule="evenodd" d="M14.7132 34.6193L14.7429 21.7358L14.3307 21.4681L14.2999 34.8251L14.3179 34.8154L14.7132 34.6193Z" fill="#333333"/>
<path fill-rule="evenodd" clip-rule="evenodd" d="M14.724 34.6253L15.7937 35.2909L15.7925 35.8346L14.3205 34.8302L14.724 34.6253Z" fill="#404040"/>
<path fill-rule="evenodd" clip-rule="evenodd" d="M14.7002 34.6213L15.7859 35.2898L15.8146 22.4546L14.729 21.7403L14.7002 34.6213Z" fill="#575757"/>
<path fill-rule="evenodd" clip-rule="evenodd" d="M17.8605 36.6719L17.8902 23.7884L17.478 23.5207L17.4472 36.8777L17.4652 36.868L17.8605 36.6719Z" fill="#333333"/>
<path fill-rule="evenodd" clip-rule="evenodd" d="M17.8712 36.6779L18.9409 37.3435L18.9398 37.8872L17.4678 36.8828L17.8712 36.6779Z" fill="#404040"/>
<path fill-rule="evenodd" clip-rule="evenodd" d="M17.8475 36.6739L18.9332 37.3425L18.9619 24.5072L17.8762 23.7929L17.8475 36.6739Z" fill="#575757"/>
<path fill-rule="evenodd" clip-rule="evenodd" d="M21.0077 38.7245L21.0374 25.8409L20.6253 25.5733L20.5945 38.9303L20.6125 38.9205L21.0077 38.7245Z" fill="#333333"/>
<path fill-rule="evenodd" clip-rule="evenodd" d="M21.0185 38.7305L22.0882 39.3961L22.0871 39.9399L20.6151 38.9355L21.0185 38.7305Z" fill="#404040"/>
<path fill-rule="evenodd" clip-rule="evenodd" d="M20.9947 38.7265L22.0805 39.395L22.1091 26.5598L21.0235 25.8454L20.9947 38.7265Z" fill="#575757"/>
<path fill-rule="evenodd" clip-rule="evenodd" d="M24.3026 40.9582L24.3323 28.0746L23.9201 27.807L23.8893 41.164L23.9073 41.1542L24.3026 40.9582Z" fill="#333333"/>
<path fill-rule="evenodd" clip-rule="evenodd" d="M24.3133 40.9642L25.3831 41.6297L25.3819 42.1735L23.9099 41.1691L24.3133 40.9642Z" fill="#404040"/>
<path fill-rule="evenodd" clip-rule="evenodd" d="M24.2896 40.9602L25.3753 41.6287L25.404 28.7935L24.3184 28.0791L24.2896 40.9602Z" fill="#575757"/>
<path fill-rule="evenodd" clip-rule="evenodd" d="M27.4498 43.0108L27.4796 30.1273L27.0674 29.8596L27.0366 43.2166L27.0546 43.2068L27.4498 43.0108Z" fill="#333333"/>
<path fill-rule="evenodd" clip-rule="evenodd" d="M27.4606 43.0168L28.5303 43.6823L28.5292 44.2261L27.0572 43.2217L27.4606 43.0168Z" fill="#404040"/>
<path fill-rule="evenodd" clip-rule="evenodd" d="M27.4369 43.0128L28.5226 43.6813L28.5512 30.8461L27.4656 30.1318L27.4369 43.0128Z" fill="#575757"/>
<path fill-rule="evenodd" clip-rule="evenodd" d="M30.5971 45.0634L30.6268 32.1799L30.2146 31.9122L30.1838 45.2692L30.2018 45.2594L30.5971 45.0634Z" fill="#333333"/>
<path fill-rule="evenodd" clip-rule="evenodd" d="M30.6078 45.0694L31.6776 45.735L31.6764 46.2787L30.2044 45.2743L30.6078 45.0694Z" fill="#404040"/>
<path fill-rule="evenodd" clip-rule="evenodd" d="M30.5841 45.0654L31.6698 45.7339L31.6985 32.8987L30.6129 32.1844L30.5841 45.0654Z" fill="#575757"/>
<path fill-rule="evenodd" clip-rule="evenodd" d="M33.8919 47.2971L33.9217 34.4135L33.5095 34.1459L33.4787 47.5028L33.4967 47.4931L33.8919 47.2971Z" fill="#333333"/>
<path fill-rule="evenodd" clip-rule="evenodd" d="M33.9027 47.303L34.9724 47.9686L34.9713 48.5124L33.4993 47.508L33.9027 47.303Z" fill="#404040"/>
<path fill-rule="evenodd" clip-rule="evenodd" d="M33.879 47.299L34.9647 47.9676L34.9933 35.1323L33.9077 34.418L33.879 47.299Z" fill="#575757"/>
<path fill-rule="evenodd" clip-rule="evenodd" d="M37.0392 49.4372L37.0689 36.5536L36.6568 36.286L36.626 49.643L36.644 49.6332L37.0392 49.4372Z" fill="#333333"/>
<path fill-rule="evenodd" clip-rule="evenodd" d="M37.05 49.4432L38.1197 50.1087L38.1186 50.6525L36.6465 49.6481L37.05 49.4432Z" fill="#404040"/>
<path fill-rule="evenodd" clip-rule="evenodd" d="M37.0262 49.4392L38.112 50.1077L38.1406 37.2725L37.055 36.5581L37.0262 49.4392Z" fill="#575757"/>
<path fill-rule="evenodd" clip-rule="evenodd" d="M40.1811 51.4896L40.2108 38.6061L39.7987 38.3384L39.7679 51.6954L39.7859 51.6857L40.1811 51.4896Z" fill="#333333"/>
<path fill-rule="evenodd" clip-rule="evenodd" d="M40.1919 51.4957L41.2616 52.1612L41.2605 52.705L39.7885 51.7006L40.1919 51.4957Z" fill="#404040"/>
<path fill-rule="evenodd" clip-rule="evenodd" d="M40.1681 51.4916L41.2539 52.1601L41.2825 39.3249L40.1969 38.6106L40.1681 51.4916Z" fill="#575757"/>
<path fill-rule="evenodd" clip-rule="evenodd" d="M43.476 53.6358L43.5057 40.7523L43.0935 40.4846L43.0627 53.8416L43.0807 53.8318L43.476 53.6358Z" fill="#333333"/>
<path fill-rule="evenodd" clip-rule="evenodd" d="M43.4867 53.6418L44.5564 54.3073L44.5553 54.8511L43.0833 53.8467L43.4867 53.6418Z" fill="#404040"/>
<path fill-rule="evenodd" clip-rule="evenodd" d="M43.463 53.6378L44.5487 54.3063L44.5774 41.4711L43.4917 40.7568L43.463 53.6378Z" fill="#575757"/>
<path fill-rule="evenodd" clip-rule="evenodd" d="M12.4784 2.2844L11.1827 1.46375L1.1193 8.12506L2.51691 8.97491L12.4784 2.2844Z" fill="#757575"/>
<path fill-rule="evenodd" clip-rule="evenodd" d="M12.2631 2.4499L11.1398 1.81769L11.1462 1.47535L12.464 2.31694L12.2631 2.4499Z" fill="#666666"/>
<path fill-rule="evenodd" clip-rule="evenodd" d="M11.1622 1.45836L1.11867 8.0798L1.35779 8.20397L11.1557 1.79006L11.1622 1.45836Z" fill="#626262"/>
<path fill-rule="evenodd" clip-rule="evenodd" d="M15.6917 4.38504L14.396 3.5644L4.33259 10.2257L5.7302 11.0756L15.6917 4.38504Z" fill="#757575"/>
<path fill-rule="evenodd" clip-rule="evenodd" d="M15.4764 4.55055L14.3531 3.91833L14.3595 3.576L15.6773 4.41759L15.4764 4.55055Z" fill="#666666"/>
<path fill-rule="evenodd" clip-rule="evenodd" d="M14.3754 3.55901L4.33196 10.1804L4.57108 10.3046L14.369 3.8907L14.3754 3.55901Z" fill="#626262"/>
<path fill-rule="evenodd" clip-rule="evenodd" d="M19.058 6.66074L17.7623 5.84009L7.69892 12.5014L9.09653 13.3513L19.058 6.66074Z" fill="#757575"/>
<path fill-rule="evenodd" clip-rule="evenodd" d="M18.8427 6.82624L17.7194 6.19403L17.7258 5.85169L19.0436 6.69328L18.8427 6.82624Z" fill="#666666"/>
<path fill-rule="evenodd" clip-rule="evenodd" d="M17.7418 5.8347L7.69829 12.4561L7.93741 12.5803L17.7353 6.1664L17.7418 5.8347Z" fill="#626262"/>
<path fill-rule="evenodd" clip-rule="evenodd" d="M22.8068 9.11149L21.5111 8.29084L11.4478 14.9521L12.8454 15.802L22.8068 9.11149Z" fill="#757575"/>
<path fill-rule="evenodd" clip-rule="evenodd" d="M22.5916 9.27699L21.4683 8.64477L21.4747 8.30244L22.7924 9.14403L22.5916 9.27699Z" fill="#666666"/>
<path fill-rule="evenodd" clip-rule="evenodd" d="M21.4906 8.28545L11.4471 14.9069L11.6863 15.0311L21.4842 8.61715L21.4906 8.28545Z" fill="#626262"/>
<path fill-rule="evenodd" clip-rule="evenodd" d="M26.4027 11.5622L25.107 10.7416L15.0436 17.4029L16.4412 18.2527L26.4027 11.5622Z" fill="#757575"/>
<path fill-rule="evenodd" clip-rule="evenodd" d="M26.1874 11.7277L25.0641 11.0955L25.0705 10.7532L26.3883 11.5948L26.1874 11.7277Z" fill="#666666"/>
<path fill-rule="evenodd" clip-rule="evenodd" d="M25.0865 10.7362L15.043 17.3576L15.2821 17.4818L25.08 11.0679L25.0865 10.7362Z" fill="#626262"/>
<path fill-rule="evenodd" clip-rule="evenodd" d="M30.2281 14.1005L28.9324 13.2799L18.869 19.9412L20.2666 20.791L30.2281 14.1005Z" fill="#757575"/>
<path fill-rule="evenodd" clip-rule="evenodd" d="M30.0128 14.266L28.8895 13.6338L28.8959 13.2914L30.2136 14.133L30.0128 14.266Z" fill="#666666"/>
<path fill-rule="evenodd" clip-rule="evenodd" d="M28.9118 13.2745L18.8683 19.8959L19.1075 20.0201L28.9054 13.6062L28.9118 13.2745Z" fill="#626262"/>
<path fill-rule="evenodd" clip-rule="evenodd" d="M34.6655 17.0764L33.3698 16.2557L23.3064 22.917L24.704 23.7669L34.6655 17.0764Z" fill="#757575"/>
<path fill-rule="evenodd" clip-rule="evenodd" d="M34.4502 17.2419L33.3269 16.6097L33.3333 16.2673L34.651 17.1089L34.4502 17.2419Z" fill="#666666"/>
<path fill-rule="evenodd" clip-rule="evenodd" d="M33.3492 16.2504L23.3057 22.8718L23.5449 22.996L33.3428 16.5821L33.3492 16.2504Z" fill="#626262"/>
<path fill-rule="evenodd" clip-rule="evenodd" d="M38.6439 19.6147L37.3482 18.794L27.2848 25.4553L28.6824 26.3052L38.6439 19.6147Z" fill="#757575"/>
<path fill-rule="evenodd" clip-rule="evenodd" d="M38.4286 19.7802L37.3053 19.1479L37.3117 18.8056L38.6294 19.6472L38.4286 19.7802Z" fill="#666666"/>
<path fill-rule="evenodd" clip-rule="evenodd" d="M37.3276 18.7886L27.2841 25.4101L27.5233 25.5342L37.3212 19.1203L37.3276 18.7886Z" fill="#626262"/>
<path fill-rule="evenodd" clip-rule="evenodd" d="M42.9283 22.4156L41.6326 21.5949L31.5692 28.2562L32.9668 29.1061L42.9283 22.4156Z" fill="#757575"/>
<path fill-rule="evenodd" clip-rule="evenodd" d="M42.713 22.5811L41.5896 21.9488L41.5961 21.6065L42.9138 22.4481L42.713 22.5811Z" fill="#666666"/>
<path fill-rule="evenodd" clip-rule="evenodd" d="M41.612 21.5895L31.5685 28.211L31.8076 28.3351L41.6056 21.9212L41.612 21.5895Z" fill="#626262"/>
<path fill-rule="evenodd" clip-rule="evenodd" d="M46.9831 25.1289L45.6874 24.3082L35.624 30.9695L37.0216 31.8194L46.9831 25.1289Z" fill="#757575"/>
<path fill-rule="evenodd" clip-rule="evenodd" d="M46.7678 25.2944L45.6445 24.6622L45.6509 24.3198L46.9687 25.1614L46.7678 25.2944Z" fill="#666666"/>
<path fill-rule="evenodd" clip-rule="evenodd" d="M45.6669 24.3028L35.6234 30.9243L35.8625 31.0485L45.6605 24.6345L45.6669 24.3028Z" fill="#626262"/>
<path fill-rule="evenodd" clip-rule="evenodd" d="M51.038 27.7547L49.7423 26.934L39.6789 33.5953L41.0765 34.4452L51.038 27.7547Z" fill="#757575"/>
<path fill-rule="evenodd" clip-rule="evenodd" d="M50.8227 27.9202L49.6994 27.288L49.7058 26.9456L51.0236 27.7872L50.8227 27.9202Z" fill="#666666"/>
<path fill-rule="evenodd" clip-rule="evenodd" d="M49.7218 26.9286L39.6783 33.5501L39.9174 33.6742L49.7153 27.2603L49.7218 26.9286Z" fill="#626262"/>
<path fill-rule="evenodd" clip-rule="evenodd" d="M55.1694 30.5555L53.8737 29.7348L43.8103 36.3961L45.2079 37.246L55.1694 30.5555Z" fill="#757575"/>
<path fill-rule="evenodd" clip-rule="evenodd" d="M54.9541 30.721L53.8308 30.0888L53.8372 29.7465L55.155 30.5881L54.9541 30.721Z" fill="#666666"/>
<path fill-rule="evenodd" clip-rule="evenodd" d="M53.8532 29.7295L43.8097 36.3509L44.0488 36.4751L53.8467 30.0612L53.8532 29.7295Z" fill="#626262"/>
<path fill-rule="evenodd" clip-rule="evenodd" d="M56.9164 30.8528V51.8047L45.3647 59.3446L45.3319 38.4933L56.9164 30.8528Z" fill="#666666"/>
<path fill-rule="evenodd" clip-rule="evenodd" d="M56.9164 49.3727L57.2346 49.1793L56.9164 48.9973V49.3727Z" fill="#B3B4B3"/>
<path fill-rule="evenodd" clip-rule="evenodd" d="M50.8519 41.8472V43.3259L46.3607 46.2244V44.7472L50.8519 41.8472Z" fill="#575757"/>
<path fill-rule="evenodd" clip-rule="evenodd" d="M50.6653 43.2188L46.3607 45.971V46.2244L50.8519 43.3259L50.6653 43.2188Z" fill="#333333"/>
<path fill-rule="evenodd" clip-rule="evenodd" d="M50.8519 41.8472L50.6577 41.9889V43.2188L50.8519 43.3259V41.8472Z" fill="#404040"/>
<path fill-rule="evenodd" clip-rule="evenodd" d="M55.5953 38.8712V40.35L51.4426 43.0436V41.5664L55.5953 38.8712Z" fill="#575757"/>
<path fill-rule="evenodd" clip-rule="evenodd" d="M55.4086 40.2428L51.456 42.7565V43.01L55.5952 40.35L55.4086 40.2428Z" fill="#333333"/>
<path fill-rule="evenodd" clip-rule="evenodd" d="M55.5953 38.8712L55.4012 39.0129V40.2428L55.5953 40.35V38.8712Z" fill="#404040"/>
<path fill-rule="evenodd" clip-rule="evenodd" d="M55.5953 45.7859V47.2646L51.4426 49.9583V48.4811L55.5953 45.7859Z" fill="#575757"/>
<path fill-rule="evenodd" clip-rule="evenodd" d="M55.4086 47.1575L51.4558 49.6897V49.9431L55.5952 47.2646L55.4086 47.1575Z" fill="#333333"/>
<path fill-rule="evenodd" clip-rule="evenodd" d="M55.5953 45.7859L55.4012 45.9276V47.1575L55.5953 47.2646V45.7859Z" fill="#404040"/>
<path fill-rule="evenodd" clip-rule="evenodd" d="M50.8519 48.8493V50.3281L46.3607 53.2266V51.7493L50.8519 48.8493Z" fill="#575757"/>
<path fill-rule="evenodd" clip-rule="evenodd" d="M50.6653 50.2209L46.3607 52.9731V53.2266L50.8519 50.3281L50.6653 50.2209Z" fill="#333333"/>
<path fill-rule="evenodd" clip-rule="evenodd" d="M50.8519 48.8493L50.6577 48.991V50.2209L50.8519 50.3281V48.8493Z" fill="#404040"/>
<path fill-rule="evenodd" clip-rule="evenodd" d="M55.9664 34.3018V49.2828L45.9669 55.9145V40.8224L55.9664 34.3018Z" stroke="#4D4D4D" stroke-width="0.106448"/>
<path d="M51.1464 37.4089V52.4635" stroke="#4D4D4D" stroke-width="0.106448"/>
<path fill-rule="evenodd" clip-rule="evenodd" d="M47.3211 55.3316V56.245L47.4475 56.3287V55.4089L47.3211 55.3316Z" fill="#7A7A7A"/>
<path fill-rule="evenodd" clip-rule="evenodd" d="M47.4475 56.3289L48.5769 55.596V54.6746L47.4475 55.409V56.3289Z" fill="#ABABAB"/>
<path fill-rule="evenodd" clip-rule="evenodd" d="M47.4483 55.4089L48.5778 54.6745L48.4461 54.5641L47.3211 55.3316L47.4483 55.4089Z" fill="#969696"/>
<path fill-rule="evenodd" clip-rule="evenodd" d="M47.3211 38.614V39.5274L47.4475 39.6111V38.6913L47.3211 38.614Z" fill="#7A7A7A"/>
<path fill-rule="evenodd" clip-rule="evenodd" d="M47.4475 39.6121L48.5769 38.8792V37.9578L47.4475 38.6922V39.6121Z" fill="#ABABAB"/>
<path fill-rule="evenodd" clip-rule="evenodd" d="M47.4483 38.6913L48.5778 37.9569L48.4461 37.8466L47.3211 38.614L47.4483 38.6913Z" fill="#969696"/>
<path fill-rule="evenodd" clip-rule="evenodd" d="M48.2575 37.3593V56.8624L48.0097 57.015V37.5216L48.2575 37.3593Z" fill="#E6E6E6"/>
<path fill-rule="evenodd" clip-rule="evenodd" d="M47.8567 37.4587V56.9138L48.0097 57.0149V37.5215L47.8567 37.4587Z" fill="#C7C7C7"/>
<path fill-rule="evenodd" clip-rule="evenodd" d="M48.0097 37.5215L48.2574 37.3591L48.1145 37.3076L47.8567 37.4587L48.0097 37.5215Z" fill="#B3B3B3"/>
<path fill-rule="evenodd" clip-rule="evenodd" d="M49.2338 54.0187V54.9321L49.3601 55.0158V54.096L49.2338 54.0187Z" fill="#7A7A7A"/>
<path fill-rule="evenodd" clip-rule="evenodd" d="M49.3601 55.0159L50.4896 54.283V53.3617L49.3601 54.0961V55.0159Z" fill="#ABABAB"/>
<path fill-rule="evenodd" clip-rule="evenodd" d="M49.361 54.096L50.4904 53.3615L50.3588 53.2512L49.2338 54.0187L49.361 54.096Z" fill="#969696"/>
<path fill-rule="evenodd" clip-rule="evenodd" d="M49.2338 37.3011V38.2145L49.3601 38.2982V37.3784L49.2338 37.3011Z" fill="#7A7A7A"/>
<path fill-rule="evenodd" clip-rule="evenodd" d="M49.3601 38.2982L50.4896 37.5653V36.6439L49.3601 37.3783V38.2982Z" fill="#ABABAB"/>
<path fill-rule="evenodd" clip-rule="evenodd" d="M49.361 37.3784L50.4904 36.6439L50.3588 36.5336L49.2338 37.3011L49.361 37.3784Z" fill="#969696"/>
<path fill-rule="evenodd" clip-rule="evenodd" d="M50.1701 35.9588V55.462L49.9223 55.6146V36.1212L50.1701 35.9588Z" fill="#E6E6E6"/>
<path fill-rule="evenodd" clip-rule="evenodd" d="M49.7693 36.0583V55.5134L49.9223 55.6144V36.1211L49.7693 36.0583Z" fill="#C7C7C7"/>
<path fill-rule="evenodd" clip-rule="evenodd" d="M49.9223 36.121L50.1701 35.9586L50.0272 35.9072L49.7693 36.0583L49.9223 36.121Z" fill="#B3B3B3"/>
<path fill-rule="evenodd" clip-rule="evenodd" d="M45.5614 41.6774V42.1809L45.6878 42.2646V41.7547L45.5614 41.6774Z" fill="#7A7A7A"/>
<path fill-rule="evenodd" clip-rule="evenodd" d="M45.6878 42.2648L46.8172 41.5319V41.0205L45.6878 41.7549V42.2648Z" fill="#ABABAB"/>
<path fill-rule="evenodd" clip-rule="evenodd" d="M45.6887 41.7547L46.8181 41.0203L46.6864 40.91L45.5614 41.6774L45.6887 41.7547Z" fill="#969696"/>
<path fill-rule="evenodd" clip-rule="evenodd" d="M45.5614 54.9815V55.485L45.6878 55.5686V55.0588L45.5614 54.9815Z" fill="#7A7A7A"/>
<path fill-rule="evenodd" clip-rule="evenodd" d="M45.6878 55.5688L46.8172 54.8359V54.3245L45.6878 55.059V55.5688Z" fill="#ABABAB"/>
<path fill-rule="evenodd" clip-rule="evenodd" d="M45.6887 55.0588L46.8181 54.3244L46.6864 54.2141L45.5614 54.9815L45.6887 55.0588Z" fill="#969696"/>
<path fill-rule="evenodd" clip-rule="evenodd" d="M49.9257 51.9599L49.7693 51.907C49.212 52.3585 48.8733 52.6643 48.7532 52.8246C48.6749 52.9238 48.6896 52.9865 48.7975 53.0129" fill="#D8D8D8"/>
<path fill-rule="evenodd" clip-rule="evenodd" d="M49.9231 51.9611C49.1468 52.5606 48.7587 52.9032 48.7587 52.9886C48.7587 53.074 49.1479 52.9763 49.9264 52.6955L49.9231 51.9611Z" fill="#E6E6E6"/>
<path d="M49.5016 51.807V53.2074" stroke="#979797" stroke-width="0.0532238"/>
<path fill-rule="evenodd" clip-rule="evenodd" d="M51.376 52.6183V53.5317L51.5024 53.6154V52.6956L51.376 52.6183Z" fill="#7A7A7A"/>
<path fill-rule="evenodd" clip-rule="evenodd" d="M51.5023 53.6155L52.6318 52.8826V51.9613L51.5023 52.6957V53.6155Z" fill="#ABABAB"/>
<path fill-rule="evenodd" clip-rule="evenodd" d="M51.5032 52.6956L52.6326 51.9611L52.501 51.8508L51.376 52.6183L51.5032 52.6956Z" fill="#969696"/>
<path fill-rule="evenodd" clip-rule="evenodd" d="M51.376 35.9006V36.814L51.5024 36.8977V35.9779L51.376 35.9006Z" fill="#7A7A7A"/>
<path fill-rule="evenodd" clip-rule="evenodd" d="M51.5023 36.8977L52.6318 36.1648V35.2435L51.5023 35.9779V36.8977Z" fill="#ABABAB"/>
<path fill-rule="evenodd" clip-rule="evenodd" d="M51.5032 35.9779L52.6326 35.2435L52.501 35.1332L51.376 35.9006L51.5032 35.9779Z" fill="#969696"/>
<path fill-rule="evenodd" clip-rule="evenodd" d="M52.3123 34.5584V54.0616L52.0645 54.2142V34.7208L52.3123 34.5584Z" fill="#E6E6E6"/>
<path fill-rule="evenodd" clip-rule="evenodd" d="M51.9115 34.6579V54.113L52.0646 54.2141V34.7207L51.9115 34.6579Z" fill="#C7C7C7"/>
<path fill-rule="evenodd" clip-rule="evenodd" d="M52.0646 34.7206L52.3123 34.5583L52.1694 34.5068L51.9115 34.6579L52.0646 34.7206Z" fill="#B3B3B3"/>
<path fill-rule="evenodd" clip-rule="evenodd" d="M53.2886 51.3929V52.3063L53.415 52.39V51.4702L53.2886 51.3929Z" fill="#7A7A7A"/>
<path fill-rule="evenodd" clip-rule="evenodd" d="M53.415 52.3901L54.5444 51.6572V50.7359L53.415 51.4703V52.3901Z" fill="#ABABAB"/>
<path fill-rule="evenodd" clip-rule="evenodd" d="M53.4159 51.4702L54.5453 50.7357L54.4136 50.6254L53.2886 51.3929L53.4159 51.4702Z" fill="#969696"/>
<path fill-rule="evenodd" clip-rule="evenodd" d="M53.2886 34.6753V35.5887L53.415 35.6724V34.7526L53.2886 34.6753Z" fill="#7A7A7A"/>
<path fill-rule="evenodd" clip-rule="evenodd" d="M53.415 35.6724L54.5444 34.9395V34.0181L53.415 34.7526V35.6724Z" fill="#ABABAB"/>
<path fill-rule="evenodd" clip-rule="evenodd" d="M53.4159 34.7526L54.5453 34.0181L54.4136 33.9078L53.2886 34.6753L53.4159 34.7526Z" fill="#969696"/>
<path fill-rule="evenodd" clip-rule="evenodd" d="M54.225 33.333V52.8362L53.9772 52.9888V33.4954L54.225 33.333Z" fill="#E6E6E6"/>
<path fill-rule="evenodd" clip-rule="evenodd" d="M53.8242 33.4325V52.8876L53.9772 52.9887V33.4953L53.8242 33.4325Z" fill="#C7C7C7"/>
<path fill-rule="evenodd" clip-rule="evenodd" d="M53.9772 33.4953L54.225 33.3329L54.082 33.2814L53.8242 33.4325L53.9772 33.4953Z" fill="#B3B3B3"/>
<path fill-rule="evenodd" clip-rule="evenodd" d="M55.2014 35.463V35.9665L55.3277 36.0502V35.5403L55.2014 35.463Z" fill="#7A7A7A"/>
<path fill-rule="evenodd" clip-rule="evenodd" d="M55.3277 36.0503L56.4572 35.3174V34.806L55.3277 35.5405V36.0503Z" fill="#ABABAB"/>
<path fill-rule="evenodd" clip-rule="evenodd" d="M55.3286 35.5403L56.458 34.8059L56.3263 34.6956L55.2014 35.463L55.3286 35.5403Z" fill="#969696"/>
<path fill-rule="evenodd" clip-rule="evenodd" d="M55.2014 48.7671V49.2706L55.3277 49.3542V48.8444L55.2014 48.7671Z" fill="#7A7A7A"/>
<path fill-rule="evenodd" clip-rule="evenodd" d="M55.3277 49.3544L56.4572 48.6215V48.1101L55.3277 48.8445V49.3544Z" fill="#ABABAB"/>
<path fill-rule="evenodd" clip-rule="evenodd" d="M55.3286 48.8444L56.458 48.1099L56.3263 47.9996L55.2014 48.7671L55.3286 48.8444Z" fill="#969696"/>
<path fill-rule="evenodd" clip-rule="evenodd" d="M53.9772 49.3629L53.8242 49.3125C53.2632 49.764 52.9227 50.0699 52.8025 50.2302C52.7242 50.3293 52.739 50.3921 52.8469 50.4185L53.9772 49.3629Z" fill="#D8D8D8"/>
<path fill-rule="evenodd" clip-rule="evenodd" d="M53.9792 49.3625C53.1992 49.9638 52.8092 50.3072 52.8092 50.3926C52.8092 50.478 53.2003 50.3795 53.9826 50.097L53.9792 49.3625Z" fill="#E6E6E6"/>
<path d="M53.5182 49.3124V50.5378" stroke="#979797" stroke-width="0.0532238"/>
<path fill-rule="evenodd" clip-rule="evenodd" d="M53.368 46.7396C53.4079 46.6313 53.3813 46.5664 53.2884 46.545C53.1386 46.5199 52.8131 46.5642 52.312 46.678V46.798L53.368 46.7396Z" fill="#D8D8D8"/>
<path fill-rule="evenodd" clip-rule="evenodd" d="M52.3123 46.798C53.0334 46.5365 53.3976 46.4932 53.405 46.6681C53.405 46.7872 53.0337 47.0624 52.2911 47.4935L52.3123 46.798Z" fill="#E6E6E6"/>
<path d="M52.6326 46.2244L52.6749 47.5315" stroke="#979797" stroke-width="0.0532238"/>
<path opacity="0.2" d="M80.2429 61.8956C81.7243 63.052 87.0807 58.9553 86.6037 58.2694C85.5659 56.7507 79.0377 60.9628 80.2429 61.8956Z" fill="black"/>
<path d="M82.3938 60.4933C82.4273 60.6714 82.444 60.9853 82.3687 61.1053C82.2934 61.2161 81.8833 61.5552 81.7577 61.6695C81.5987 61.8168 81.3142 62.0324 81.0129 62.0443C80.7116 62.0562 80.2261 61.7812 80.268 61.5382C80.2931 61.4125 80.7785 61.0544 80.9877 60.8761C81.1802 60.7234 81.4732 60.261 81.4732 60.261L82.3938 60.4933Z" fill="#2D3134"/>
<path opacity="0.4" d="M80.268 61.5401C80.268 61.531 80.2763 61.5136 80.2847 61.5054C80.3517 61.7234 80.7534 61.9333 81.0212 61.9177C81.3141 61.9049 81.6071 61.6908 81.7661 61.544C81.8916 61.43 82.3101 61.0928 82.3771 60.9814C82.4022 60.9476 82.4105 60.8936 82.4189 60.8305C82.4189 60.9495 82.4022 61.0482 82.3687 61.1085C82.2934 61.219 81.8833 61.5572 81.7577 61.6711C81.5987 61.8179 81.3141 62.033 81.0128 62.0448C80.7115 62.0567 80.2261 61.7825 80.268 61.5401Z" fill="black"/>
<path d="M86.0262 57.6629C86.1936 57.8472 86.4028 58.312 86.3609 58.491C86.3191 58.6701 85.8086 58.8789 85.683 58.9842C85.5575 59.0895 85.0302 59.5354 84.8628 59.6176C84.6703 59.7153 84.4527 59.7366 84.2769 59.5422C84.1263 59.3689 84.302 59.0212 84.4025 58.9038C84.5197 58.7792 84.7875 58.5797 84.9046 58.354C85.0218 58.1283 85.1474 57.729 85.1474 57.729L86.0262 57.6629Z" fill="#2D3134"/>
<path opacity="0.4" d="M84.2435 59.4294C84.4192 59.6233 84.6368 59.5929 84.8293 59.5046C84.9967 59.4226 85.524 58.9687 85.6495 58.8728C85.7751 58.7678 86.2856 58.5687 86.3275 58.3809C86.3358 58.3452 86.3358 58.2994 86.3275 58.2526C86.3526 58.3471 86.3693 58.4406 86.3526 58.4937C86.3107 58.6724 85.8002 58.8806 85.6747 58.9857C85.5491 59.0907 85.0218 59.5354 84.8544 59.6174C84.6619 59.7149 84.4443 59.7362 84.2686 59.5422C84.2267 59.5008 84.21 59.4439 84.21 59.3797C84.2184 59.399 84.2267 59.4183 84.2435 59.4294Z" fill="black"/>
<path d="M83.3145 50.3827L81.4481 50.503C81.4481 50.503 81.5736 51.5219 82.0925 52.5208C82.6114 53.5197 83.6827 54.9684 83.8752 55.239C84.0677 55.5097 84.7122 57.1865 84.7791 57.3784C84.8879 57.6857 84.9465 58.1624 84.9967 58.1957C85.5324 58.6343 86.3191 58.1428 86.3107 57.9852C86.3024 57.8736 85.6663 55.7093 85.1139 54.7066C84.8126 54.1563 84.21 52.9912 84.051 52.1805C83.8919 51.3699 83.3145 50.3827 83.3145 50.3827Z" fill="#06547A"/>
<path opacity="0.2" d="M83.3145 50.3827L81.4481 50.503C81.4481 50.503 81.5736 51.5219 82.0925 52.5208C82.6114 53.5197 83.6827 54.9684 83.8752 55.239C84.0677 55.5097 84.7122 57.1865 84.7791 57.3784C84.8879 57.6857 84.9465 58.1624 84.9967 58.1957C85.5324 58.6343 86.3191 58.1428 86.3107 57.9852C86.3024 57.8736 85.6663 55.7093 85.1139 54.7066C84.8126 54.1563 84.21 52.9912 84.051 52.1805C83.8919 51.3699 83.3145 50.3827 83.3145 50.3827Z" fill="black"/>
<path d="M83.9756 50.2384C83.9756 50.2384 84.2435 50.7404 84.2853 51.1334C84.4025 52.1452 84.0342 53.9985 83.7915 54.7198C83.5488 55.441 83.3396 56.2215 83.3145 56.7549C83.2893 57.2882 83.1052 58.238 82.9797 58.8617C82.7537 59.9638 82.5277 60.7332 82.4943 60.8588C82.4608 60.9845 81.9084 60.8847 81.6992 60.8147C81.4816 60.7437 81.2054 60.6199 81.197 60.545C81.1886 60.4701 81.4564 59.3356 81.582 58.6935C81.6992 58.0597 81.9251 56.4213 81.9251 55.8666C81.9251 55.3119 81.8665 53.6227 81.9 52.7297C81.9335 51.8275 82.2181 50.4269 82.2181 50.4269L83.9756 50.2384Z" fill="#06547A"/>
<path d="M80.4939 45.3066C80.427 45.5203 80.1592 47.5925 80.1006 47.7334C80.042 47.8835 78.5606 49.0342 78.5355 49.142C78.5104 49.2498 79.1214 49.6234 79.272 49.5391C79.4059 49.4713 79.883 49.1934 80.3182 48.8831C80.4521 48.7968 80.9375 48.3078 80.971 48.2194C81.0045 48.131 81.0129 46.9792 81.0296 46.8612C81.0463 46.7432 80.4939 45.3066 80.4939 45.3066Z" fill="#3399CC"/>
<path d="M82.2599 51.2216C82.2599 51.2216 83.2224 45.0284 83.0132 44.8845C82.7956 44.7397 82.0591 44.4989 81.7243 44.4423C81.3895 44.3858 80.8371 44.7204 80.8371 44.7204L81.3979 51.1237L82.2599 51.2216Z" fill="#3399CC"/>
<path d="M83.0132 44.8786C83.0132 44.8786 83.5906 45.3135 83.8166 45.7085C84.051 46.1136 84.2518 46.7366 84.2518 47.4937C84.2518 48.2508 84.2937 50.1853 84.3104 50.5842C84.3355 50.9841 83.6241 51.1618 83.1638 51.2481C82.7035 51.3343 82.0423 51.3054 81.8749 51.1941C81.7075 51.0828 81.6489 50.0697 81.5736 49.2763C81.5318 48.8468 81.515 47.6354 81.6657 47.0431C81.9168 46.0652 83.0132 44.8786 83.0132 44.8786Z" fill="#99CC33"/>
<path d="M81.2305 44.5854C81.2305 44.5854 81.3142 46.3623 81.4481 47.1271C81.5904 47.8836 81.6489 50.6386 81.5904 50.8817C81.5318 51.1157 81.5234 51.2165 81.3309 51.2316C81.1384 51.2467 81.0631 51.0716 81.0463 50.9216C81.0296 50.7346 80.9627 49.3205 80.9627 49.0059C80.9627 48.6913 80.8873 47.8221 80.7869 47.5238C80.6948 47.2172 80.3182 45.6013 80.3852 45.3868C80.4521 45.1723 80.745 44.6042 81.2305 44.5854Z" fill="#99CC33"/>
<path d="M82.7956 44.8019C82.7956 44.8019 82.5696 44.6749 82.5528 44.4886C82.5361 44.3023 83.0466 43.6502 82.6198 42.9472C82.193 42.2442 81.13 42.2435 80.9459 42.8773C80.7618 43.511 80.745 44.7631 80.8873 44.9083C81.0631 45.0942 81.3811 45.0657 81.3811 45.0657C81.3811 45.0657 81.4899 45.3823 81.4648 45.5454C81.4313 45.7906 81.6322 45.8318 81.741 45.8349C81.9 45.8437 82.6533 45.6156 82.7956 44.8019Z" fill="#FBD7C7"/>
<path d="M82.6198 44.3311L82.4859 44.4078C82.4859 44.4078 82.8374 43.9329 82.603 43.7962C82.3687 43.6594 82.2599 43.9687 82.2599 43.9687C82.2599 43.9687 82.0841 43.6181 81.8163 43.5602C81.5485 43.5024 80.812 43.2354 80.8371 42.9809C80.8455 42.8808 81.1384 42.05 82.0088 42.3138C82.8792 42.5776 82.9043 43.3707 82.8541 43.6775C82.8039 43.9843 82.6198 44.3311 82.6198 44.3311Z" fill="#762C07"/>
<path d="M79.113 51.8492L75.7652 49.6152V45.9699L79.113 44.5585L82.4608 46.7925V50.4378L79.113 51.8492Z" fill="#FFCC00"/>
<path opacity="0.11" d="M82.4608 46.7635L79.113 48.1798V51.8444L82.4608 50.4282V46.7635Z" fill="black"/>
<path opacity="0.3" d="M77.8492 47.3397V49.1135L77.029 48.5672V46.8025L80.3768 45.3937L81.197 45.9309L77.8492 47.3397Z" fill="black"/>
<path opacity="0.29" d="M75.7652 46.0012L79.113 48.2472V51.9119L75.7652 49.6659V46.0012Z" fill="black"/>
<path d="M81.5904 51.3135C81.5904 51.3135 80.9124 51.7587 80.5191 51.6961C80.1257 51.6336 79.8412 51.5375 79.9165 51.5003C79.9918 51.463 80.2345 51.3714 80.4689 51.2971C80.7032 51.2229 80.8706 51.0587 80.879 51.0139C80.8873 50.9692 80.3266 50.9061 80.3182 50.7862C80.3098 50.6664 80.6865 50.6904 80.7785 50.6733C80.8706 50.6563 81.0631 50.6139 81.2388 50.6702C81.4481 50.7395 81.5736 50.7902 81.6992 50.7769L81.5904 51.3135Z" fill="#FBD7C7"/>
<path d="M83.9505 45.9428C84.1765 46.0329 84.3188 47.4875 84.3523 47.9339C84.3858 48.3804 84.4862 49.7288 84.4276 49.8881C84.2853 50.2869 81.7494 51.3088 81.674 51.3463C81.5903 51.383 81.1551 50.6881 81.1719 50.5609C81.1886 50.4338 82.511 49.7907 82.7035 49.665C82.896 49.5393 83.3647 49.3342 83.3647 49.3342C83.3647 49.3342 83.1805 48.1146 83.0634 47.6311C82.9546 47.1485 82.9378 47.0359 82.9378 46.7962C82.9378 46.5656 83.3814 45.7215 83.9505 45.9428Z" fill="#3399CC"/>
<path d="M53.7967 65.708C64.204 65.708 72.6408 56.4562 72.6408 45.0434C72.6408 33.6306 64.204 24.3787 53.7967 24.3787C43.3894 24.3787 34.9526 33.6306 34.9526 45.0434C34.9526 56.4562 43.3894 65.708 53.7967 65.708Z" fill="#444444"/>
<mask id="mask0" mask-type="alpha" maskUnits="userSpaceOnUse" x="35" y="24" width="37" height="42">
<path d="M53.4177 65.6346C63.5807 65.6346 71.8195 56.3992 71.8195 45.0067C71.8195 33.6142 63.5807 24.3787 53.4177 24.3787C43.2548 24.3787 35.016 33.6142 35.016 45.0067C35.016 56.3992 43.2548 65.6346 53.4177 65.6346Z" fill="white"/>
</mask>
<g mask="url(#mask0)">
<path fill-rule="evenodd" clip-rule="evenodd" d="M63.4165 52.3674L56.9581 48.2504L51.0493 61.572" fill="#D8D8D8"/>
<path fill-rule="evenodd" clip-rule="evenodd" d="M57.6177 48.6683L57.6281 35.3688L63.4281 33.4703V52.3734L57.6177 48.6683Z" fill="#757D7F"/>
<path fill-rule="evenodd" clip-rule="evenodd" d="M-0.725802 8.58872L51.0947 42.191L51.0683 61.3839L-0.756408 27.6806L-0.725802 8.58872Z" fill="#A2ACAE"/>
<path fill-rule="evenodd" clip-rule="evenodd" d="M-2.3172 24.2219L51.0736 58.8766L51.0696 61.3797L-2.77136 24.5348L-2.3172 24.2219Z" fill="#B3B4B3"/>
<path fill-rule="evenodd" clip-rule="evenodd" d="M-2.77053 24.5347L50.6521 59.0782L50.6479 61.637L-2.77446 26.9749L-2.77053 24.5347Z" fill="#80817D"/>
<path fill-rule="evenodd" clip-rule="evenodd" d="M63.447 33.3003L51.0322 42.126L-0.737811 8.59799L12.6891 3.39078L63.447 33.3003Z" fill="#EFF4F4"/>
<path fill-rule="evenodd" clip-rule="evenodd" d="M51.0694 61.5851L50.6424 61.8427L50.6466 59.2653L51.0736 59.0707L51.0694 61.5851Z" fill="#484948"/>
<path fill-rule="evenodd" clip-rule="evenodd" d="M63.753 52.1852L63.4259 52.4371L63.4304 49.7589L63.7573 49.626L63.753 52.1852Z" fill="#484948"/>
<path fill-rule="evenodd" clip-rule="evenodd" d="M48.8487 58.734L47.9136 58.1285L47.9115 59.4406L48.8466 60.0452L48.8487 58.734Z" fill="#EE9E40"/>
<path fill-rule="evenodd" clip-rule="evenodd" d="M45.3891 56.4643L44.4539 55.8546L44.4518 57.1693L45.387 57.7775L45.3891 56.4643Z" fill="#EE9E40"/>
<path fill-rule="evenodd" clip-rule="evenodd" d="M41.8631 54.1509L40.928 53.5411L40.9258 54.8621L41.861 55.4698L41.8631 54.1509Z" fill="#EE9E40"/>
<path fill-rule="evenodd" clip-rule="evenodd" d="M38.4395 51.8979L37.4615 51.2733L37.4594 52.5946L38.4373 53.219L38.4395 51.8979Z" fill="#EE9E40"/>
<path fill-rule="evenodd" clip-rule="evenodd" d="M34.2186 46.242L35.3904 46.9487L35.3886 47.5292L33.7763 46.4622L34.2186 46.242Z" fill="white"/>
<path fill-rule="evenodd" clip-rule="evenodd" d="M34.1759 46.2342L35.3778 46.9467L35.4219 33.1863L34.2202 32.4247L34.1759 46.2342Z" fill="#98A1A4"/>
<path fill-rule="evenodd" clip-rule="evenodd" d="M37.4231 48.895L37.4432 48.8845L37.8844 48.673L37.934 34.8585L37.4744 34.5728L37.4231 48.895Z" fill="#828C8D"/>
<path fill-rule="evenodd" clip-rule="evenodd" d="M37.9053 48.6855L39.0771 49.3922L39.0753 49.9728L37.463 48.9058L37.9053 48.6855Z" fill="white"/>
<path fill-rule="evenodd" clip-rule="evenodd" d="M37.8626 48.6777L39.0645 49.3902L39.1086 35.6298L37.9068 34.8683L37.8626 48.6777Z" fill="#98A1A4"/>
<path fill-rule="evenodd" clip-rule="evenodd" d="M40.9423 51.1507L40.9624 51.1402L41.4036 50.9287L41.4532 37.1141L40.9936 36.8284L40.9423 51.1507Z" fill="#828C8D"/>
<path fill-rule="evenodd" clip-rule="evenodd" d="M41.4245 50.9412L42.5962 51.6479L42.5944 52.2285L40.9821 51.1615L41.4245 50.9412Z" fill="white"/>
<path fill-rule="evenodd" clip-rule="evenodd" d="M41.3817 50.9334L42.5836 51.6459L42.6277 37.8855L41.426 37.1239L41.3817 50.9334Z" fill="#98A1A4"/>
<path fill-rule="evenodd" clip-rule="evenodd" d="M44.4614 53.594L44.4815 53.5835L44.9228 53.372L44.9723 39.5574L44.5128 39.2717L44.4614 53.594Z" fill="#828C8D"/>
<path fill-rule="evenodd" clip-rule="evenodd" d="M44.9437 53.3846L46.1154 54.0913L46.1136 54.6718L44.5013 53.6048L44.9437 53.3846Z" fill="white"/>
<path fill-rule="evenodd" clip-rule="evenodd" d="M44.9009 53.3768L46.1028 54.0893L46.1469 40.3289L44.9452 39.5673L44.9009 53.3768Z" fill="#98A1A4"/>
<path fill-rule="evenodd" clip-rule="evenodd" d="M48.1482 56.0376L48.1683 56.0271L48.6095 55.8156L48.6591 42.001L48.1996 41.7153L48.1482 56.0376Z" fill="#828C8D"/>
<path fill-rule="evenodd" clip-rule="evenodd" d="M48.6304 55.8281L49.8022 56.5348L49.8004 57.1153L48.1881 56.0483L48.6304 55.8281Z" fill="white"/>
<path fill-rule="evenodd" clip-rule="evenodd" d="M48.5878 55.8203L49.7897 56.5328L49.8338 42.7724L48.632 42.0108L48.5878 55.8203Z" fill="#98A1A4"/>
<path fill-rule="evenodd" clip-rule="evenodd" d="M63.4485 49.7495L63.7521 49.6254L63.449 49.4831L63.4485 49.7495Z" fill="#B3B4B3"/>
<path fill-rule="evenodd" clip-rule="evenodd" d="M57.6787 37.6101L57.6477 56.6882L51.0201 61.5866L51.0513 42.3304L57.6787 37.6101Z" fill="#828C8D"/>
<path fill-rule="evenodd" clip-rule="evenodd" d="M63.4348 33.5157L63.3922 52.3966L68.3625 56.2411L68.3846 37.196L63.4348 33.5157Z" fill="#828C8D"/>
<path fill-rule="evenodd" clip-rule="evenodd" d="M57.3049 43.288V44.8736L52.389 48.2657V46.6534L57.3049 43.288Z" fill="#757D7F"/>
<path fill-rule="evenodd" clip-rule="evenodd" d="M57.1007 44.7587L52.389 47.994V48.2657L57.3049 44.8736L57.1007 44.7587Z" fill="#A2ACAE"/>
<path fill-rule="evenodd" clip-rule="evenodd" d="M57.305 43.288L57.0924 43.4399V44.7587L57.305 44.8736V43.288Z" fill="#A2ACAE"/>
<path fill-rule="evenodd" clip-rule="evenodd" d="M57.3049 50.9174V52.503L52.389 55.8951V54.2828L57.3049 50.9174Z" fill="#757D7F"/>
<path fill-rule="evenodd" clip-rule="evenodd" d="M57.1007 52.388L52.389 55.6233V55.8951L57.3049 52.5029L57.1007 52.388Z" fill="#A2ACAE"/>
<path fill-rule="evenodd" clip-rule="evenodd" d="M57.305 50.9174L57.0924 51.0693V52.388L57.305 52.503V50.9174Z" fill="#A2ACAE"/>
<path fill-rule="evenodd" clip-rule="evenodd" d="M57.6171 38.9044V55.1454L51.9581 59.265V43.0599L57.6171 38.9044Z" stroke="#4D4D4D" stroke-width="0.0675227"/>
<path fill-rule="evenodd" clip-rule="evenodd" d="M53.9459 41.0384C53.9459 52.464 53.9459 58.2943 53.9459 58.5291C53.9459 58.8814 54.2668 58.8814 54.276 58.3902C54.2821 58.0627 54.2821 52.2083 54.276 40.827C54.2327 40.6916 54.162 40.6546 54.0638 40.716C53.9656 40.7775 53.9263 40.8849 53.9459 41.0384Z" fill="white"/>
<path fill-rule="evenodd" clip-rule="evenodd" d="M54.045 49.9889L52.3112 51.251C52.226 51.3208 52.1835 51.3982 52.1835 51.4832C52.1835 51.5682 52.226 51.5937 52.3112 51.5598L54.045 50.3018V49.9889Z" fill="white"/>
<path d="M53.8634 50.0904L52.3163 51.2227C52.2042 51.3135 52.1923 51.4045 52.1977 51.4744" stroke="#CBCBCB" stroke-width="0.0422017" stroke-linecap="round"/>
<path fill-rule="evenodd" clip-rule="evenodd" d="M53.7127 42.9636L54.318 42.5539C54.3574 42.5273 54.409 42.5407 54.4333 42.5838C54.4414 42.5983 54.4457 42.615 54.4457 42.632V43.5804C54.4457 43.6126 54.4304 43.6424 54.4053 43.659L53.8 44.0604C53.7604 44.0867 53.7089 44.0728 53.685 44.0294C53.6771 44.015 53.6729 43.9986 53.6729 43.9819V43.0417C53.6729 43.0099 53.688 42.9803 53.7127 42.9636Z" fill="white"/>
<path d="M53.6962 43.9909V43.0405C53.6962 43.0182 53.7067 42.9975 53.7239 42.9858L53.9521 42.8311C54.0902 42.8373 54.1863 42.8277 54.2403 42.8023C54.2943 42.7769 54.3181 42.7073 54.3117 42.5934L54.3363 42.5717" stroke="#CBCBCB" stroke-width="0.0422017" stroke-linecap="round"/>
<path fill-rule="evenodd" clip-rule="evenodd" d="M53.665 43.9985C53.6638 44.0102 53.6686 44.0243 53.6794 44.0409C53.6902 44.0576 53.7093 44.0687 53.7369 44.0743C53.7311 44.061 53.7276 44.0484 53.7263 44.0364C53.725 44.0245 53.725 44.0118 53.7263 43.9985H53.665Z" fill="#CBCBCB"/>
<path fill-rule="evenodd" clip-rule="evenodd" d="M54.3218 42.5433C54.3514 42.5264 54.3782 42.5264 54.4021 42.5433C54.438 42.5685 54.4485 42.6179 54.4485 42.6303C54.4485 42.6427 54.4473 42.602 54.4093 42.5836C54.3954 42.5763 54.379 42.5807 54.3601 42.5967L54.3218 42.5433Z" fill="#CBCBCB"/>
<path fill-rule="evenodd" clip-rule="evenodd" d="M53.7146 55.9181L54.3199 55.5084C54.3592 55.4818 54.4108 55.4951 54.4351 55.5383C54.4433 55.5528 54.4476 55.5695 54.4476 55.5865V56.5349C54.4476 56.567 54.4323 56.5968 54.4072 56.6135L53.8019 57.0149C53.7623 57.0411 53.7108 57.0272 53.6869 56.9838C53.679 56.9695 53.6748 56.9531 53.6748 56.9363V55.9962C53.6748 55.9644 53.6899 55.9348 53.7146 55.9181Z" fill="white"/>
<path opacity="0.499256" d="M53.6954 56.9429V55.9925C53.6954 55.9702 53.7059 55.9496 53.7232 55.9379L53.9513 55.7832C54.0894 55.7893 54.1855 55.7797 54.2396 55.7543C54.2936 55.7289 54.3151 55.6891 54.3042 55.6348C54.3014 55.6017 54.3 55.5852 54.3 55.5852C54.3 55.5852 54.2994 55.573 54.298 55.5487L54.3356 55.5237" stroke="#979797" stroke-width="0.0422017" stroke-linecap="round"/>
<path fill-rule="evenodd" clip-rule="evenodd" d="M53.6749 56.95C53.6745 56.9603 53.6797 56.9739 53.6904 56.9907C53.7011 57.0075 53.7166 57.0194 53.7367 57.0265C53.7248 57.0124 53.7182 56.9993 53.717 56.9872C53.7157 56.9751 53.7149 56.9627 53.7147 56.95H53.6749Z" fill="#CBCBCB"/>
<path fill-rule="evenodd" clip-rule="evenodd" d="M54.3286 55.5025C54.3585 55.49 54.3854 55.4922 54.4093 55.509C54.4452 55.5343 54.4485 55.5763 54.4485 55.5817C54.4485 55.587 54.4473 55.5534 54.4093 55.535C54.3954 55.5277 54.3744 55.5311 54.3463 55.5451L54.3286 55.5025Z" fill="#CBCBCB"/>
<path fill-rule="evenodd" clip-rule="evenodd" d="M53.8042 41.5044L54.3625 41.1198C54.3868 41.103 54.4016 41.0736 54.4016 41.042V40.7588C54.4016 40.7081 54.3642 40.667 54.3179 40.667C54.3022 40.667 54.2867 40.6719 54.2734 40.6811L53.7151 41.0658C53.6907 41.0826 53.6759 41.1119 53.6759 41.1435V41.4266C53.6759 41.4773 53.7134 41.5184 53.7596 41.5184C53.7754 41.5184 53.7908 41.5136 53.8042 41.5044Z" fill="white"/>
<path opacity="0.499256" d="M53.6933 41.4333V41.1408C53.6933 41.1186 53.7037 41.0981 53.7208 41.0863L53.9477 40.9303C54.0844 40.958 54.1797 40.9592 54.2337 40.9338C54.2877 40.9084 54.2984 40.8455 54.2657 40.745C54.2641 40.7418 54.2619 40.7382 54.2592 40.7344C54.255 40.7285 54.254 40.7247 54.254 40.7247C54.254 40.7247 54.2531 40.7234 54.2514 40.7209L54.2924 40.6933" stroke="#979797" stroke-width="0.0422017" stroke-linecap="round"/>
<path fill-rule="evenodd" clip-rule="evenodd" d="M53.6748 41.4375C53.6757 41.4549 53.6815 41.472 53.6922 41.4888C53.703 41.5056 53.7222 41.5159 53.7498 41.5196C53.7384 41.5108 53.7297 41.4994 53.7238 41.4855C53.7179 41.4717 53.715 41.4557 53.7149 41.4375H53.6748Z" fill="#CBCBCB"/>
<path fill-rule="evenodd" clip-rule="evenodd" d="M54.283 40.6744C54.3101 40.6614 54.3359 40.6632 54.3603 40.6799C54.3848 40.6966 54.398 40.7166 54.3999 40.7401C54.3978 40.7292 54.3838 40.7176 54.3579 40.7055C54.3438 40.6983 54.3248 40.702 54.3011 40.7166L54.283 40.6744Z" fill="#CBCBCB"/>
<path fill-rule="evenodd" clip-rule="evenodd" d="M53.8031 58.585L54.3614 58.2004C54.3858 58.1836 54.4006 58.1542 54.4006 58.1227V57.8394C54.4006 57.7887 54.3631 57.7476 54.3168 57.7476C54.3011 57.7476 54.2856 57.7525 54.2723 57.7617L53.714 58.1464C53.6896 58.1632 53.6748 58.1926 53.6748 58.2241V58.5073C53.6748 58.558 53.7123 58.5991 53.7586 58.5991C53.7743 58.5991 53.7897 58.5942 53.8031 58.585Z" fill="white"/>
<path opacity="0.499256" d="M53.6951 58.5142V58.2217C53.6951 58.1996 53.7055 58.179 53.7226 58.1672L53.9495 58.0112C54.0861 58.0389 54.1814 58.0401 54.2355 58.0147C54.2895 57.9893 54.309 57.9092 54.2941 57.7742" stroke="#979797" stroke-width="0.0422017" stroke-linecap="round"/>
<path fill-rule="evenodd" clip-rule="evenodd" d="M53.6748 58.5184C53.6757 58.5359 53.6815 58.553 53.6922 58.5697C53.703 58.5865 53.7222 58.5968 53.7498 58.6006C53.7384 58.5917 53.7297 58.5804 53.7238 58.5665C53.7179 58.5526 53.715 58.5366 53.7149 58.5184H53.6748Z" fill="#CBCBCB"/>
<path fill-rule="evenodd" clip-rule="evenodd" d="M54.2848 57.7553C54.3119 57.7423 54.3377 57.7442 54.3621 57.7608C54.3866 57.7775 54.3998 57.7976 54.4017 57.821C54.3996 57.8101 54.3856 57.7986 54.3597 57.7864C54.3456 57.7792 54.3266 57.7829 54.3029 57.7975L54.2848 57.7553Z" fill="#CBCBCB"/>
<path fill-rule="evenodd" clip-rule="evenodd" d="M53.8953 49.9054L53.7604 50.014C53.7067 50.0572 53.6749 50.1259 53.6749 50.199V50.7224C53.6749 50.7478 53.6937 50.7684 53.7168 50.7684C53.7253 50.7684 53.7336 50.7655 53.7406 50.7602L53.9079 50.633C53.9418 50.6073 53.962 50.565 53.962 50.5199V49.9424C53.962 49.917 53.9432 49.8965 53.9201 49.8965C53.9112 49.8965 53.9025 49.8996 53.8953 49.9054V49.9054Z" fill="white"/>
<path fill-rule="evenodd" clip-rule="evenodd" d="M53.8205 50.4852C53.846 50.4852 53.8568 50.4168 53.8568 50.365C53.8568 50.3131 53.8391 50.2604 53.8135 50.2604C53.788 50.2604 53.7752 50.333 53.7752 50.3849C53.7752 50.4367 53.7949 50.4852 53.8205 50.4852Z" fill="#E6E6E6"/>
<path fill-rule="evenodd" clip-rule="evenodd" d="M53.1731 50.3309C53.1731 50.2603 53.112 50.2098 53.0245 50.2458C52.9661 50.2697 52.9327 50.3438 52.9243 50.468V51.3442C52.9522 51.4073 53.0036 51.4249 53.0785 51.3969C53.1534 51.369 53.185 51.2994 53.1731 51.1882C53.1731 50.6637 53.1731 50.3779 53.1731 50.3309Z" fill="white"/>
<path fill-rule="evenodd" clip-rule="evenodd" d="M53.0643 50.5486C53.0426 50.5486 53.0335 50.5202 53.0335 50.503C53.0335 50.4858 53.0418 50.4481 53.0639 50.4481C53.086 50.4481 53.095 50.4792 53.095 50.503C53.095 50.5268 53.086 50.5486 53.0643 50.5486Z" fill="#E6E6E6"/>
<path fill-rule="evenodd" clip-rule="evenodd" d="M53.0643 51.2994C53.0426 51.2994 53.0335 51.271 53.0335 51.2538C53.0335 51.2366 53.0418 51.1989 53.0639 51.1989C53.086 51.1989 53.095 51.23 53.095 51.2538C53.095 51.2776 53.086 51.2994 53.0643 51.2994Z" fill="#E6E6E6"/>
<path d="M52.9534 51.3752C52.9442 51.3647 52.9386 51.3546 52.935 51.3473C52.9328 51.343 52.9297 51.3301 52.9257 51.3088L52.9257 51.3088C52.9246 51.3034 52.9243 51.2979 52.9245 51.2923L52.9325 51.1225C52.9963 51.0731 53.0273 51.0123 53.0253 50.9399C53.0233 50.8675 52.9924 50.8189 52.9326 50.7942L52.9327 50.4559" stroke="#CBCBCB" stroke-width="0.0424809" stroke-linecap="round"/>
<path fill-rule="evenodd" clip-rule="evenodd" d="M52.9216 50.4532C52.9242 50.3968 52.9344 50.3512 52.9523 50.3164C52.9701 50.2816 52.9964 50.2572 53.0312 50.2432C53.0038 50.2622 52.9822 50.2909 52.9663 50.3292C52.9505 50.3675 52.9428 50.4096 52.9433 50.4557L52.9216 50.4532Z" fill="#CBCBCB"/>
<path fill-rule="evenodd" clip-rule="evenodd" d="M52.948 51.3849C52.9534 51.3891 52.9615 51.394 52.9721 51.3997C52.9828 51.4053 52.9951 51.4081 53.0091 51.4081C52.9973 51.4024 52.9882 51.3966 52.9818 51.3908C52.9753 51.3849 52.9687 51.3775 52.9618 51.3687L52.948 51.3849Z" fill="#CBCBCB"/>
<path fill-rule="evenodd" clip-rule="evenodd" d="M53.8256 49.6367C53.7594 49.6652 53.7425 49.7298 53.7749 49.8305C53.799 49.9055 53.849 49.9303 53.9249 49.905L54.5554 49.4957C54.616 49.4416 54.6285 49.3708 54.593 49.2833C54.5574 49.1958 54.495 49.1864 54.4057 49.2549L53.8256 49.6367Z" fill="white"/>
<path fill-rule="evenodd" clip-rule="evenodd" d="M53.9368 49.7502C53.9562 49.7845 53.944 49.8129 53.9317 49.8214C53.9194 49.8299 53.885 49.8356 53.8652 49.8006C53.8455 49.7656 53.8597 49.736 53.8768 49.7242C53.8938 49.7124 53.9174 49.7158 53.9368 49.7502Z" fill="#F2F2F2"/>
<path fill-rule="evenodd" clip-rule="evenodd" d="M54.5352 49.3591C54.5546 49.3934 54.5424 49.4218 54.53 49.4303C54.5177 49.4388 54.4833 49.4444 54.4636 49.4095C54.4438 49.3745 54.4581 49.3449 54.4751 49.3331C54.4921 49.3213 54.5158 49.3247 54.5352 49.3591Z" fill="#F2F2F2"/>
<path d="M53.7131 49.7712C53.7163 49.7569 53.7209 49.7463 53.7245 49.739C53.7267 49.7346 53.7349 49.7248 53.7492 49.7093L53.7492 49.7093C53.7525 49.7058 53.7561 49.7028 53.7599 49.7002L53.9496 49.574C54.0932 49.5818 54.1867 49.5731 54.23 49.5478C54.2733 49.5226 54.2927 49.4651 54.2883 49.3754V49.3433L54.4015 49.2642" stroke="#CBCBCB" stroke-width="0.0422017" stroke-linecap="round"/>
<path fill-rule="evenodd" clip-rule="evenodd" d="M53.7031 49.7694C53.6986 49.7944 53.7001 49.8172 53.7077 49.8379C53.7191 49.8691 53.7442 49.8691 53.7442 49.8691C53.7442 49.8691 53.7308 49.8534 53.7249 49.8307C53.7211 49.8155 53.7211 49.7942 53.7249 49.7667L53.7031 49.7694Z" fill="#CBCBCB"/>
<path fill-rule="evenodd" clip-rule="evenodd" d="M54.3942 49.2564C54.4314 49.2337 54.4602 49.2319 54.4808 49.2511C54.5115 49.2799 54.5074 49.3311 54.5032 49.3461C54.4989 49.361 54.5232 49.2875 54.4766 49.2617C54.4611 49.2532 54.4361 49.2596 54.4015 49.281L54.3942 49.2564Z" fill="#CBCBCB"/>
<path fill-rule="evenodd" clip-rule="evenodd" d="M53.6749 50.2573L53.6409 50.228V50.1682C53.6473 50.1202 53.6643 50.0835 53.6918 50.0581C53.7193 50.0327 53.785 49.9768 53.8889 49.8905C53.8986 49.8831 53.9076 49.8818 53.9161 49.8865C53.9288 49.8935 53.9463 49.9062 53.9486 49.9089C53.9508 49.9116 53.9374 49.9032 53.9285 49.9014C53.9197 49.8995 53.9107 49.9064 53.9073 49.9089C53.9039 49.9114 53.7502 50.0395 53.7181 50.0727C53.686 50.1059 53.6749 50.1704 53.6749 50.1864C53.6749 50.1971 53.6749 50.2207 53.6749 50.2573V50.2573Z" fill="#CBCBCB"/>
<path fill-rule="evenodd" clip-rule="evenodd" d="M53.929 58.2065C53.8818 58.2065 53.7896 58.2496 53.7896 58.3649C53.7896 58.4801 53.9483 58.4514 53.9882 58.4128C54.0064 58.3952 54.0082 58.3318 54.006 58.3012C54.0025 58.2517 53.9581 58.2065 53.929 58.2065Z" fill="#D8D8D8"/>
<path fill-rule="evenodd" clip-rule="evenodd" d="M54.2923 58.0338C54.2923 58.0338 54.3475 57.9353 54.358 58.0159C54.3685 58.0966 54.316 58.2415 54.3012 58.1899C54.2864 58.1384 54.2923 58.0338 54.2923 58.0338L54.2923 58.0338Z" fill="#D8D8D8"/>
<path fill-rule="evenodd" clip-rule="evenodd" d="M52.1793 51.4778L52.2213 51.4745C52.2226 51.5049 52.2289 51.5265 52.24 51.5392C52.2512 51.5519 52.2714 51.5606 52.3008 51.5653C52.2562 51.5779 52.2253 51.5779 52.2079 51.5653C52.1906 51.5527 52.1811 51.5236 52.1793 51.4778Z" fill="#CBCBCB"/>
<path fill-rule="evenodd" clip-rule="evenodd" d="M53.7134 50.7683C53.6916 50.7683 53.6776 50.7671 53.6717 50.7647C53.6657 50.7622 53.6578 50.7533 53.6479 50.7381V50.5906L53.6742 50.5693V50.7286C53.6765 50.7414 53.6814 50.7512 53.689 50.758C53.6965 50.7648 53.7047 50.7683 53.7134 50.7683V50.7683Z" fill="#CBCBCB"/>
<path fill-rule="evenodd" clip-rule="evenodd" d="M56.2924 39.3502C56.2924 50.7758 56.2924 56.6061 56.2924 56.8409C56.2924 57.1932 56.6133 57.1932 56.6224 56.702C56.6286 56.3745 56.6286 50.5201 56.6224 39.1388C56.5792 39.0034 56.5085 38.9664 56.4103 39.0278C56.3121 39.0893 56.2728 39.1967 56.2924 39.3502Z" fill="white"/>
<path fill-rule="evenodd" clip-rule="evenodd" d="M56.3898 48.3006L54.656 49.5627C54.5708 49.6325 54.5283 49.7099 54.5283 49.7949C54.5283 49.8799 54.5708 49.9054 54.656 49.8715L56.3898 48.6135V48.3006Z" fill="white"/>
<path d="M56.2103 48.4021L54.6632 49.5344C54.5511 49.6252 54.5392 49.7163 54.5446 49.7861" stroke="#CBCBCB" stroke-width="0.0422017" stroke-linecap="round"/>
<path fill-rule="evenodd" clip-rule="evenodd" d="M56.0573 41.2762L56.6626 40.8665C56.7019 40.8398 56.7535 40.8532 56.7778 40.8964C56.786 40.9109 56.7903 40.9276 56.7903 40.9446V41.893C56.7903 41.9251 56.775 41.9549 56.7499 41.9716L56.1446 42.373C56.105 42.3992 56.0535 42.3853 56.0296 42.3419C56.0217 42.3276 56.0175 42.3112 56.0175 42.2944V41.3543C56.0175 41.3225 56.0326 41.2929 56.0573 41.2762Z" fill="white"/>
<path d="M56.041 42.3016V41.3512C56.041 41.329 56.0515 41.3083 56.0688 41.2966L56.2969 41.1419C56.435 41.148 56.5311 41.1384 56.5851 41.113C56.6392 41.0876 56.663 41.018 56.6565 40.9041L56.6812 40.8824" stroke="#CBCBCB" stroke-width="0.0422017" stroke-linecap="round"/>
<path fill-rule="evenodd" clip-rule="evenodd" d="M56.0099 42.3092C56.0086 42.3209 56.0134 42.335 56.0242 42.3516C56.035 42.3682 56.0542 42.3793 56.0817 42.385C56.076 42.3717 56.0724 42.359 56.0712 42.3471C56.0699 42.3351 56.0699 42.3225 56.0712 42.3092H56.0099Z" fill="#CBCBCB"/>
<path fill-rule="evenodd" clip-rule="evenodd" d="M56.6666 40.8539C56.6962 40.8371 56.723 40.8371 56.7469 40.8539C56.7828 40.8792 56.7933 40.9285 56.7933 40.9409C56.7933 40.9534 56.7921 40.9127 56.7541 40.8943C56.7402 40.887 56.7238 40.8914 56.7049 40.9073L56.6666 40.8539Z" fill="#CBCBCB"/>
<path fill-rule="evenodd" clip-rule="evenodd" d="M56.0593 54.2288L56.6646 53.8191C56.704 53.7924 56.7555 53.8058 56.7798 53.849C56.788 53.8635 56.7923 53.8801 56.7923 53.8972V54.8456C56.7923 54.8777 56.777 54.9075 56.7519 54.9241L56.1466 55.3256C56.107 55.3518 56.0555 55.3379 56.0316 55.2945C56.0237 55.2802 56.0195 55.2638 56.0195 55.247V54.3069C56.0195 54.2751 56.0346 54.2455 56.0593 54.2288Z" fill="white"/>
<path opacity="0.499256" d="M56.0401 55.2536V54.3032C56.0401 54.281 56.0506 54.2603 56.0679 54.2486L56.296 54.0939C56.4341 54.1 56.5302 54.0904 56.5842 54.065C56.6383 54.0397 56.6598 53.9998 56.6488 53.9455C56.6461 53.9125 56.6447 53.8959 56.6447 53.8959C56.6447 53.8959 56.644 53.8837 56.6427 53.8594L56.6802 53.8344" stroke="#979797" stroke-width="0.0422017" stroke-linecap="round"/>
<path fill-rule="evenodd" clip-rule="evenodd" d="M56.0195 55.2606C56.0192 55.271 56.0244 55.2846 56.0351 55.3014C56.0458 55.3182 56.0613 55.3301 56.0815 55.3372C56.0695 55.323 56.0629 55.3099 56.0617 55.2979C56.0604 55.2858 56.0597 55.2734 56.0594 55.2606H56.0195Z" fill="#CBCBCB"/>
<path fill-rule="evenodd" clip-rule="evenodd" d="M56.6734 53.8132C56.7032 53.8007 56.7301 53.8028 56.754 53.8197C56.7899 53.8449 56.7932 53.8869 56.7932 53.8923C56.7932 53.8977 56.792 53.864 56.754 53.8457C56.7402 53.8384 56.7192 53.8418 56.6911 53.8558L56.6734 53.8132Z" fill="#CBCBCB"/>
<path fill-rule="evenodd" clip-rule="evenodd" d="M56.1478 39.8149L56.7061 39.4303C56.7305 39.4135 56.7453 39.3841 56.7453 39.3525V39.0693C56.7453 39.0186 56.7078 38.9775 56.6616 38.9775C56.6458 38.9775 56.6304 38.9824 56.617 38.9916L56.0588 39.3763C56.0344 39.3931 56.0196 39.4224 56.0196 39.454V39.7371C56.0196 39.7878 56.0571 39.8289 56.1033 39.8289C56.1191 39.8289 56.1345 39.8241 56.1478 39.8149Z" fill="white"/>
<path opacity="0.499256" d="M56.0403 39.7443V39.4517C56.0403 39.4296 56.0507 39.409 56.0678 39.3973L56.2947 39.2413C56.4313 39.269 56.5267 39.2701 56.5807 39.2448C56.6347 39.2194 56.6454 39.1565 56.6126 39.056C56.6111 39.0528 56.6089 39.0492 56.6061 39.0453C56.602 39.0395 56.601 39.0357 56.601 39.0357C56.601 39.0357 56.6001 39.0344 56.5984 39.0319L56.6393 39.0043" stroke="#979797" stroke-width="0.0422017" stroke-linecap="round"/>
<path fill-rule="evenodd" clip-rule="evenodd" d="M56.0196 39.7492C56.0205 39.7668 56.0263 39.7841 56.0371 39.801C56.048 39.818 56.0673 39.8284 56.0952 39.8322C56.0836 39.8232 56.0749 39.8118 56.069 39.7978C56.063 39.7838 56.06 39.7676 56.06 39.7492H56.0196Z" fill="#CBCBCB"/>
<path fill-rule="evenodd" clip-rule="evenodd" d="M56.6295 38.9853C56.6566 38.9723 56.6823 38.9741 56.7068 38.9908C56.7312 39.0075 56.7444 39.0276 56.7464 39.051C56.7443 39.0401 56.7303 39.0286 56.7044 39.0164C56.6902 39.0092 56.6713 39.0129 56.6476 39.0275L56.6295 38.9853Z" fill="#CBCBCB"/>
<path fill-rule="evenodd" clip-rule="evenodd" d="M56.1478 56.8957L56.7061 56.5111C56.7305 56.4943 56.7453 56.4649 56.7453 56.4333V56.1501C56.7453 56.0994 56.7078 56.0583 56.6616 56.0583C56.6458 56.0583 56.6304 56.0632 56.617 56.0724L56.0588 56.4571C56.0344 56.4739 56.0196 56.5032 56.0196 56.5348V56.8179C56.0196 56.8686 56.0571 56.9097 56.1033 56.9097C56.1191 56.9097 56.1345 56.9049 56.1478 56.8957Z" fill="white"/>
<path opacity="0.499256" d="M56.0398 56.8249V56.5324C56.0398 56.5102 56.0502 56.4897 56.0673 56.4779L56.2942 56.3219C56.4308 56.3496 56.5262 56.3508 56.5802 56.3254C56.6342 56.3 56.6538 56.2199 56.6389 56.0849" stroke="#979797" stroke-width="0.0422017" stroke-linecap="round"/>
<path fill-rule="evenodd" clip-rule="evenodd" d="M56.0196 56.8291C56.0205 56.8467 56.0263 56.864 56.0371 56.8809C56.048 56.8979 56.0673 56.9083 56.0952 56.9121C56.0836 56.9031 56.0749 56.8917 56.069 56.8777C56.063 56.8637 56.06 56.8475 56.06 56.8291H56.0196Z" fill="#CBCBCB"/>
<path fill-rule="evenodd" clip-rule="evenodd" d="M56.6295 56.066C56.6566 56.053 56.6823 56.0548 56.7068 56.0715C56.7312 56.0882 56.7444 56.1083 56.7464 56.1317C56.7443 56.1208 56.7303 56.1092 56.7044 56.0971C56.6902 56.0899 56.6713 56.0936 56.6476 56.1082L56.6295 56.066Z" fill="#CBCBCB"/>
<path fill-rule="evenodd" clip-rule="evenodd" d="M56.2401 48.216L56.1052 48.3246C56.0515 48.3678 56.0197 48.4365 56.0197 48.5096V49.0331C56.0197 49.0584 56.0385 49.079 56.0616 49.079C56.0701 49.079 56.0784 49.0761 56.0854 49.0708L56.2527 48.9437C56.2865 48.9179 56.3067 48.8756 56.3067 48.8305V48.253C56.3067 48.2276 56.288 48.2071 56.2649 48.2071C56.256 48.2071 56.2473 48.2102 56.2401 48.216V48.216Z" fill="white"/>
<path fill-rule="evenodd" clip-rule="evenodd" d="M56.1653 48.796C56.1909 48.796 56.2017 48.7275 56.2017 48.6757C56.2017 48.6239 56.1839 48.5711 56.1584 48.5711C56.1328 48.5711 56.1201 48.6438 56.1201 48.6956C56.1201 48.7474 56.1398 48.796 56.1653 48.796Z" fill="#E6E6E6"/>
<path fill-rule="evenodd" clip-rule="evenodd" d="M55.5179 48.6416C55.5179 48.5711 55.4568 48.5206 55.3692 48.5565C55.3109 48.5805 55.2775 48.6545 55.269 48.7787V49.6549C55.297 49.718 55.3484 49.7356 55.4233 49.7076C55.4982 49.6797 55.5297 49.6101 55.5179 49.499C55.5179 48.9744 55.5179 48.6886 55.5179 48.6416Z" fill="white"/>
<path fill-rule="evenodd" clip-rule="evenodd" d="M55.4091 48.8593C55.3874 48.8593 55.3783 48.8309 55.3783 48.8137C55.3783 48.7965 55.3866 48.7587 55.4087 48.7587C55.4308 48.7587 55.4398 48.7899 55.4398 48.8137C55.4398 48.8375 55.4308 48.8593 55.4091 48.8593Z" fill="#E6E6E6"/>
<path fill-rule="evenodd" clip-rule="evenodd" d="M55.4091 49.6102C55.3874 49.6102 55.3783 49.5818 55.3783 49.5646C55.3783 49.5473 55.3866 49.5096 55.4087 49.5096C55.4308 49.5096 55.4398 49.5407 55.4398 49.5646C55.4398 49.5884 55.4308 49.6102 55.4091 49.6102Z" fill="#E6E6E6"/>
<path d="M55.2982 49.686C55.289 49.6754 55.2833 49.6653 55.2797 49.658C55.2776 49.6537 55.2745 49.6409 55.2704 49.6195L55.2704 49.6195C55.2694 49.6141 55.269 49.6086 55.2693 49.6031L55.2773 49.4332C55.3411 49.3839 55.372 49.323 55.3701 49.2506C55.3681 49.1782 55.3372 49.1297 55.2774 49.1049L55.2774 48.7666" stroke="#CBCBCB" stroke-width="0.0424809" stroke-linecap="round"/>
<path fill-rule="evenodd" clip-rule="evenodd" d="M55.2663 48.764C55.2689 48.7076 55.2791 48.662 55.297 48.6272C55.3148 48.5924 55.3411 48.568 55.376 48.554C55.3485 48.573 55.3269 48.6017 55.311 48.64C55.2952 48.6782 55.2875 48.7204 55.288 48.7665L55.2663 48.764Z" fill="#CBCBCB"/>
<path fill-rule="evenodd" clip-rule="evenodd" d="M55.2928 49.6957C55.2982 49.6999 55.3063 49.7048 55.3169 49.7105C55.3276 49.7161 55.3399 49.7189 55.3539 49.7189C55.3421 49.7132 55.3329 49.7074 55.3265 49.7016C55.3201 49.6957 55.3135 49.6883 55.3066 49.6794L55.2928 49.6957Z" fill="#CBCBCB"/>
<path fill-rule="evenodd" clip-rule="evenodd" d="M56.1703 47.9474C56.1041 47.9759 56.0872 48.0405 56.1196 48.1413C56.1437 48.2162 56.1937 48.241 56.2696 48.2157L56.9001 47.8064C56.9607 47.7523 56.9732 47.6815 56.9377 47.594C56.9022 47.5066 56.8397 47.4971 56.7504 47.5656L56.1703 47.9474Z" fill="white"/>
<path fill-rule="evenodd" clip-rule="evenodd" d="M56.2815 48.0609C56.3009 48.0952 56.2887 48.1236 56.2764 48.1321C56.2641 48.1407 56.2297 48.1463 56.21 48.1113C56.1902 48.0764 56.2045 48.0467 56.2215 48.0349C56.2385 48.0231 56.2622 48.0265 56.2815 48.0609Z" fill="#F2F2F2"/>
<path fill-rule="evenodd" clip-rule="evenodd" d="M56.8799 47.6697C56.8993 47.704 56.8871 47.7324 56.8748 47.7409C56.8625 47.7494 56.8281 47.755 56.8083 47.7201C56.7886 47.6851 56.8028 47.6555 56.8198 47.6437C56.8369 47.6319 56.8605 47.6354 56.8799 47.6697Z" fill="#F2F2F2"/>
<path d="M56.0579 48.0819C56.061 48.0676 56.0656 48.0569 56.0693 48.0497C56.0715 48.0453 56.0797 48.0354 56.094 48.02L56.094 48.02C56.0972 48.0165 56.1008 48.0134 56.1047 48.0108L56.2944 47.8847C56.438 47.8925 56.5315 47.8838 56.5748 47.8585C56.6181 47.8332 56.6375 47.7758 56.6331 47.6861V47.654L56.7463 47.5749" stroke="#CBCBCB" stroke-width="0.0422017" stroke-linecap="round"/>
<path fill-rule="evenodd" clip-rule="evenodd" d="M56.0478 48.08C56.0433 48.105 56.0449 48.1279 56.0525 48.1486C56.0639 48.1797 56.0889 48.1797 56.0889 48.1797C56.0889 48.1797 56.0755 48.1641 56.0697 48.1413C56.0658 48.1262 56.0658 48.1049 56.0697 48.0774L56.0478 48.08Z" fill="#CBCBCB"/>
<path fill-rule="evenodd" clip-rule="evenodd" d="M56.739 47.5671C56.7762 47.5443 56.805 47.5426 56.8255 47.5618C56.8563 47.5906 56.8522 47.6418 56.8479 47.6568C56.8437 47.6717 56.8679 47.5982 56.8213 47.5724C56.8059 47.5638 56.7808 47.5702 56.7463 47.5917L56.739 47.5671Z" fill="#CBCBCB"/>
<path fill-rule="evenodd" clip-rule="evenodd" d="M56.0197 48.568L55.9857 48.5387V48.4789C55.9921 48.4309 56.0091 48.3942 56.0366 48.3688C56.0641 48.3434 56.1298 48.2875 56.2337 48.2011C56.2433 48.1938 56.2524 48.1924 56.2609 48.1971C56.2735 48.2042 56.2911 48.2169 56.2933 48.2196C56.2956 48.2223 56.2822 48.2139 56.2733 48.212C56.2644 48.2102 56.2555 48.2171 56.252 48.2196C56.2486 48.2221 56.095 48.3502 56.0629 48.3834C56.0308 48.4165 56.0197 48.4811 56.0197 48.4971C56.0197 48.5078 56.0197 48.5314 56.0197 48.568V48.568Z" fill="#CBCBCB"/>
<path fill-rule="evenodd" clip-rule="evenodd" d="M56.2737 56.5172C56.2266 56.5172 56.1344 56.5603 56.1344 56.6756C56.1344 56.7908 56.2931 56.7621 56.333 56.7235C56.3511 56.7059 56.353 56.6425 56.3508 56.6119C56.3473 56.5623 56.3029 56.5172 56.2737 56.5172Z" fill="#D8D8D8"/>
<path fill-rule="evenodd" clip-rule="evenodd" d="M56.6371 56.3445C56.6371 56.3445 56.6923 56.246 56.7028 56.3266C56.7133 56.4072 56.6608 56.5521 56.646 56.5006C56.6312 56.449 56.6371 56.3445 56.6371 56.3445L56.6371 56.3445Z" fill="#D8D8D8"/>
<path fill-rule="evenodd" clip-rule="evenodd" d="M54.524 49.7895L54.5661 49.7861C54.5674 49.8166 54.5737 49.8381 54.5848 49.8509C54.596 49.8636 54.6162 49.8723 54.6456 49.877C54.601 49.8896 54.57 49.8896 54.5527 49.877C54.5354 49.8644 54.5259 49.8352 54.524 49.7895Z" fill="#CBCBCB"/>
<path fill-rule="evenodd" clip-rule="evenodd" d="M56.0583 49.079C56.0364 49.079 56.0225 49.0778 56.0165 49.0754C56.0106 49.0729 56.0026 49.064 55.9927 49.0488V48.9014L56.019 48.88V49.0393C56.0213 49.0521 56.0263 49.0619 56.0338 49.0687C56.0414 49.0755 56.0496 49.079 56.0583 49.079V49.079Z" fill="#CBCBCB"/>
</g>
<path d="M53.8601 65.708C64.2675 65.708 72.7043 56.4562 72.7043 45.0434C72.7043 33.6306 64.2675 24.3787 53.8601 24.3787C43.4528 24.3787 35.016 33.6306 35.016 45.0434C35.016 56.4562 43.4528 65.708 53.8601 65.708Z" stroke="white" stroke-width="0.135045"/>
<defs>
<linearGradient id="paint0_linear" x1="109.051" y1="75.7346" x2="107.849" y2="77.2059" gradientUnits="userSpaceOnUse">
<stop stop-color="#D3D7CF"/>
<stop offset="1" stop-color="#888A85"/>
</linearGradient>
<linearGradient id="paint1_linear" x1="92.9484" y1="61.8193" x2="96.6329" y2="66.491" gradientUnits="userSpaceOnUse">
<stop stop-color="#D3D7CF"/>
<stop offset="1"/>
</linearGradient>
<linearGradient id="paint2_linear" x1="98.1786" y1="65.7228" x2="101.863" y2="70.3945" gradientUnits="userSpaceOnUse">
<stop stop-color="#D3D7CF"/>
<stop offset="1"/>
</linearGradient>
<linearGradient id="paint3_linear" x1="116.955" y1="79.1536" x2="120.639" y2="83.8253" gradientUnits="userSpaceOnUse">
<stop stop-color="#D3D7CF"/>
<stop offset="1"/>
</linearGradient>
</defs>
</svg>
