<svg width="144" height="87" viewBox="0 0 144 87" fill="none" xmlns="http://www.w3.org/2000/svg">
<path d="M114.684 70.721C114.502 70.7174 114.314 70.7785 114.104 70.8652C113.263 71.2119 112.565 72.195 112.565 73.0561C112.565 73.5942 112.841 73.9517 113.246 74.0651L117.69 76.99L120.187 74.1649L115.214 70.9228L115.188 70.8941C115.045 70.7982 114.879 70.7252 114.684 70.7211V70.721Z" fill="url(#paint0_linear)" stroke="black" stroke-width="0.287801" stroke-linecap="round" stroke-linejoin="round"/>
<path d="M118.765 76.9608C119.606 76.614 120.288 75.6344 120.288 74.7729C120.288 73.9114 119.606 73.4942 118.765 73.8411C117.924 74.1879 117.242 75.1675 117.242 76.029C117.242 76.8905 117.924 77.3077 118.765 76.9608Z" fill="#555753" stroke="black" stroke-width="0.2977" stroke-linecap="round" stroke-linejoin="round"/>
<path d="M103.055 61.8358C102.082 60.0351 100.432 59.1837 99.3683 59.9341C98.3051 60.6845 98.2318 62.7525 99.2046 64.5531C100.177 66.3538 101.828 67.2052 102.891 66.4549C103.955 65.7045 104.028 63.6365 103.055 61.8358Z" fill="#CC0000"/>
<path fill-rule="evenodd" clip-rule="evenodd" d="M100.252 59.6607C99.9322 59.6579 99.6322 59.7447 99.3665 59.9321L97.5652 61.1164L100.842 67.8152L103.112 66.2608C103.957 65.3923 103.957 63.4967 103.058 61.832C102.329 60.4822 101.21 59.6683 100.252 59.6607H100.252Z" fill="url(#paint1_linear)" stroke="black" stroke-width="0.123163"/>
<path d="M101.127 63.1079C100.154 61.3072 98.5034 60.4558 97.4401 61.2062C96.3769 61.9565 96.3036 64.0246 97.2764 65.8252C98.2492 67.6259 99.8998 68.4773 100.963 67.727C102.026 66.9766 102.1 64.9086 101.127 63.1079Z" fill="#555753" stroke="black" stroke-width="0.123232" stroke-linejoin="bevel"/>
<path d="M100.251 63.5656C99.7199 62.5817 98.8181 62.1165 98.2371 62.5265C97.6561 62.9365 97.6161 64.0664 98.1476 65.0503C98.6792 66.0342 99.5811 66.4994 100.162 66.0894C100.743 65.6794 100.783 64.5494 100.251 63.5656Z" fill="#D3D7CF"/>
<path d="M108.181 65.6266C107.208 63.826 105.558 62.9746 104.494 63.7249C103.431 64.4753 103.358 66.5433 104.331 68.344C105.303 70.1446 106.954 70.9961 108.017 70.2457C109.081 69.4953 109.154 67.4273 108.181 65.6266Z" fill="#CC0000"/>
<path fill-rule="evenodd" clip-rule="evenodd" d="M105.378 63.4515C105.058 63.4488 104.758 63.5355 104.493 63.723L102.691 64.9073L105.968 71.6061L108.238 70.0516C109.083 69.1831 109.083 67.2876 108.184 65.6228C107.455 64.273 106.336 63.4591 105.378 63.4515H105.378Z" fill="url(#paint2_linear)" stroke="black" stroke-width="0.123163"/>
<path d="M106.253 66.8988C105.28 65.0981 103.629 64.2467 102.566 64.9971C101.503 65.7474 101.43 67.8155 102.402 69.6161C103.375 71.4168 105.026 72.2682 106.089 71.5179C107.152 70.7675 107.226 68.6995 106.253 66.8988Z" fill="#555753" stroke="black" stroke-width="0.123232" stroke-linejoin="bevel"/>
<path d="M105.378 67.3565C104.846 66.3726 103.944 65.9074 103.363 66.3174C102.782 66.7274 102.742 67.8573 103.274 68.8412C103.805 69.8251 104.707 70.2903 105.288 69.8803C105.869 69.4703 105.909 68.3403 105.378 67.3565Z" fill="#D3D7CF"/>
<path fill-rule="evenodd" clip-rule="evenodd" d="M108.892 51.3788L96.5086 59.5504L121.276 75.8936L133.66 67.722L108.892 51.3788Z" fill="#555753" stroke="black" stroke-width="0.287801" stroke-linecap="round" stroke-linejoin="bevel"/>
<path fill-rule="evenodd" clip-rule="evenodd" d="M97.5175 58.5971L122.285 74.9403V58.5971L97.5175 42.2538V58.5971Z" fill="#D3D7CF" stroke="black" stroke-width="0.287801" stroke-linejoin="bevel"/>
<path fill-rule="evenodd" clip-rule="evenodd" d="M134.568 66.6534L122.184 74.825V58.4817L134.568 50.3101V66.6534Z" fill="#888A85" stroke="black" stroke-width="0.287801" stroke-linecap="round" stroke-linejoin="bevel"/>
<path fill-rule="evenodd" clip-rule="evenodd" d="M109.8 33.9669L97.4166 42.1385L122.184 58.4817L134.568 50.3101L109.8 33.9669Z" fill="#EEEEEC" stroke="black" stroke-width="0.287801" stroke-linecap="round" stroke-linejoin="bevel"/>
<path d="M126.583 78.6697C125.611 76.869 123.96 76.0176 122.897 76.7679C121.834 77.5183 121.76 79.5863 122.733 81.387C123.706 83.1877 125.356 84.0391 126.42 83.2887C127.483 82.5384 127.556 80.4703 126.583 78.6697Z" fill="#CC0000"/>
<path fill-rule="evenodd" clip-rule="evenodd" d="M123.78 76.4946C123.461 76.4918 123.161 76.5785 122.895 76.766L121.094 77.9503L124.371 84.6491L126.64 83.0947C127.486 82.2261 127.486 80.3306 126.586 78.6658C125.857 77.316 124.738 76.5021 123.78 76.4946H123.78Z" fill="url(#paint3_linear)" stroke="black" stroke-width="0.123163"/>
<path d="M124.655 79.9418C123.682 78.1411 122.032 77.2897 120.969 78.04C119.905 78.7904 119.832 80.8584 120.805 82.6591C121.778 84.4598 123.428 85.3112 124.491 84.5608C125.555 83.8105 125.628 81.7424 124.655 79.9418Z" fill="#555753" stroke="black" stroke-width="0.123232" stroke-linejoin="bevel"/>
<path d="M123.78 80.3994C123.248 79.4155 122.346 78.9503 121.766 79.3603C121.185 79.7703 121.145 80.9003 121.676 81.8841C122.208 82.868 123.11 83.3332 123.69 82.9232C124.271 82.5132 124.311 81.3832 123.78 80.3994Z" fill="#D3D7CF"/>
<path fill-rule="evenodd" clip-rule="evenodd" d="M125.52 79.6715C126.246 81.015 126.499 82.4645 126.302 83.6209L131.145 86.8208V70.4755L123.099 65.2866L123.153 75.4051C123.502 76.4233 123.486 77.6518 125.52 79.6715Z" fill="#888A85" stroke="black" stroke-width="0.287801" stroke-linejoin="bevel"/>
<path fill-rule="evenodd" clip-rule="evenodd" d="M143.535 78.6374V62.2941L131.151 70.4657V86.809L143.535 78.6374Z" fill="#555753" stroke="black" stroke-width="0.287801" stroke-linejoin="bevel"/>
<path fill-rule="evenodd" clip-rule="evenodd" d="M143.571 68.4645L143.535 62.2941L131.151 70.4657L131.187 76.636L143.571 68.4645Z" fill="#729FCF" stroke="black" stroke-width="0.287801" stroke-linejoin="bevel"/>
<path fill-rule="evenodd" clip-rule="evenodd" d="M130.337 71.0931L124.12 67.1148L124.196 71.8017L130.262 76.5489L130.337 71.0931Z" fill="#729FCF" stroke="black" stroke-width="0.287801"/>
<path fill-rule="evenodd" clip-rule="evenodd" d="M135.59 57.1841L123.206 65.3558L131.113 70.5733L143.497 62.4017L135.59 57.1841Z" fill="#D3D7CF" stroke="black" stroke-width="0.287801" stroke-linejoin="bevel"/>
<path d="M133.563 84.5397C134.404 84.1928 135.085 83.2132 135.085 82.3517C135.085 81.4902 134.404 81.073 133.563 81.4199C132.722 81.7668 132.04 82.7464 132.04 83.6079C132.04 84.4694 132.722 84.8866 133.563 84.5397Z" fill="#D3D7CF"/>
<path d="M133.563 84.028C134.128 83.7949 134.586 83.1366 134.586 82.5577C134.586 81.9787 134.128 81.6983 133.563 81.9314C132.997 82.1645 132.539 82.8229 132.539 83.4018C132.539 83.9808 132.997 84.2611 133.563 84.028Z" fill="#EEEEEC"/>
<path d="M133.167 83.0916C133.355 83.0142 133.507 82.7954 133.507 82.6029C133.507 82.4105 133.355 82.3173 133.167 82.3948C132.979 82.4723 132.827 82.6911 132.827 82.8835C132.827 83.0759 132.979 83.1691 133.167 83.0916Z" fill="white"/>
<path d="M141.767 78.9771C142.608 78.6302 143.29 77.6507 143.29 76.7892C143.29 75.9277 142.608 75.5105 141.767 75.8574C140.926 76.2042 140.244 77.1838 140.244 78.0453C140.244 78.9068 140.926 79.324 141.767 78.9771Z" fill="#D3D7CF"/>
<path d="M141.767 78.4655C142.332 78.2324 142.79 77.5741 142.79 76.9951C142.79 76.4161 142.332 76.1358 141.767 76.3689C141.202 76.602 140.744 77.2603 140.744 77.8393C140.744 78.4182 141.202 78.6986 141.767 78.4655Z" fill="#EEEEEC"/>
<path d="M141.372 77.5291C141.56 77.4516 141.712 77.2328 141.712 77.0404C141.712 76.848 141.56 76.7548 141.372 76.8323C141.184 76.9097 141.032 77.1285 141.032 77.3209C141.032 77.5134 141.184 77.6066 141.372 77.5291Z" fill="white"/>
<path d="M132.561 81.1016C132.933 80.948 133.235 80.5143 133.235 80.1328C133.235 79.7514 132.933 79.5667 132.561 79.7203C132.189 79.8738 131.887 80.3076 131.887 80.689C131.887 81.0705 132.189 81.2552 132.561 81.1016Z" fill="#D3D7CF"/>
<path d="M132.561 80.8751C132.811 80.7719 133.014 80.4804 133.014 80.2241C133.014 79.9677 132.811 79.8436 132.561 79.9468C132.311 80.05 132.108 80.3415 132.108 80.5978C132.108 80.8542 132.311 80.9783 132.561 80.8751Z" fill="#F57900"/>
<path d="M132.386 80.4605C132.469 80.4262 132.536 80.3293 132.536 80.2441C132.536 80.1589 132.469 80.1176 132.386 80.1519C132.303 80.1862 132.235 80.2831 132.235 80.3683C132.235 80.4535 132.303 80.4948 132.386 80.4605Z" fill="white"/>
<path d="M142.383 75.2668C142.755 75.1132 143.057 74.6795 143.057 74.2981C143.057 73.9166 142.755 73.7319 142.383 73.8855C142.01 74.0391 141.708 74.4728 141.708 74.8542C141.708 75.2357 142.01 75.4204 142.383 75.2668Z" fill="#D3D7CF"/>
<path d="M142.383 75.0403C142.633 74.9371 142.836 74.6456 142.836 74.3893C142.836 74.1329 142.633 74.0088 142.383 74.112C142.132 74.2152 141.93 74.5067 141.93 74.763C141.93 75.0194 142.132 75.1435 142.383 75.0403Z" fill="#F57900"/>
<path d="M142.208 74.6257C142.291 74.5914 142.358 74.4945 142.358 74.4093C142.358 74.3241 142.291 74.2829 142.208 74.3172C142.124 74.3515 142.057 74.4483 142.057 74.5335C142.057 74.6187 142.124 74.66 142.208 74.6257Z" fill="white"/>
<path fill-rule="evenodd" clip-rule="evenodd" d="M134.766 73.8785L135.491 73.462L139.611 65.4261L138.251 66.3239L134.766 73.8785Z" fill="white"/>
<path fill-rule="evenodd" clip-rule="evenodd" d="M136.35 72.8951L137.074 72.4786L141.194 64.4427L139.834 65.3405L136.35 72.8951Z" fill="white"/>
<path d="M98.3858 58.9831V42.7797" stroke="black" stroke-width="0.287801"/>
<path fill-rule="evenodd" clip-rule="evenodd" d="M98.5888 59.2394V43.0359V59.2394Z" fill="#EEEEEC"/>
<path d="M98.5888 59.2394V43.0359" stroke="#EEEEEC" stroke-width="0.287801"/>
<path d="M100.659 60.6546V44.4511" stroke="black" stroke-width="0.287801"/>
<path fill-rule="evenodd" clip-rule="evenodd" d="M100.862 60.9108V44.7074V60.9108Z" fill="#EEEEEC"/>
<path d="M100.862 60.9108V44.7074" stroke="#EEEEEC" stroke-width="0.287801"/>
<path d="M103.339 62.2446V46.0411" stroke="black" stroke-width="0.287801"/>
<path fill-rule="evenodd" clip-rule="evenodd" d="M103.542 62.5008V46.2974V62.5008Z" fill="#EEEEEC"/>
<path d="M103.542 62.5008V46.2974" stroke="#EEEEEC" stroke-width="0.287801"/>
<path d="M105.613 63.8346V47.6311" stroke="black" stroke-width="0.287801"/>
<path fill-rule="evenodd" clip-rule="evenodd" d="M105.816 64.0908V47.8874V64.0908Z" fill="#EEEEEC"/>
<path d="M105.816 64.0908V47.8874" stroke="#EEEEEC" stroke-width="0.287801"/>
<path d="M107.887 65.5061V49.3026" stroke="black" stroke-width="0.287801"/>
<path fill-rule="evenodd" clip-rule="evenodd" d="M108.09 65.7623V49.5589V65.7623Z" fill="#EEEEEC"/>
<path d="M108.09 65.7623V49.5589" stroke="#EEEEEC" stroke-width="0.287801"/>
<path d="M110.566 67.096V50.8925" stroke="black" stroke-width="0.287801"/>
<path fill-rule="evenodd" clip-rule="evenodd" d="M110.77 67.3523V51.1488V67.3523Z" fill="#EEEEEC"/>
<path d="M110.77 67.3523V51.1488" stroke="#EEEEEC" stroke-width="0.287801"/>
<path d="M113.043 68.8491V52.6456" stroke="black" stroke-width="0.287801"/>
<path fill-rule="evenodd" clip-rule="evenodd" d="M113.246 69.1054V52.9019V69.1054Z" fill="#EEEEEC"/>
<path d="M113.246 69.1054V52.9019" stroke="#EEEEEC" stroke-width="0.287801"/>
<path d="M115.317 70.5205V54.317" stroke="black" stroke-width="0.287801"/>
<path fill-rule="evenodd" clip-rule="evenodd" d="M115.52 70.7767V54.5733V70.7767Z" fill="#EEEEEC"/>
<path d="M115.52 70.7767V54.5733" stroke="#EEEEEC" stroke-width="0.287801"/>
<path d="M117.997 72.1105V55.907" stroke="black" stroke-width="0.287801"/>
<path fill-rule="evenodd" clip-rule="evenodd" d="M118.2 72.3668V56.1633V72.3668Z" fill="#EEEEEC"/>
<path d="M118.2 72.3668V56.1633" stroke="#EEEEEC" stroke-width="0.287801"/>
<path d="M120.473 73.7005V57.4971" stroke="black" stroke-width="0.287801"/>
<path fill-rule="evenodd" clip-rule="evenodd" d="M120.677 73.9568V57.7534V73.9568Z" fill="#EEEEEC"/>
<path d="M120.677 73.9568V57.7534" stroke="#EEEEEC" stroke-width="0.287801"/>
<path opacity="0.422387" d="M32.4938 53.8655C14.548 46.4771 2.56671 32.5106 5.73296 22.6705C8.8992 12.8304 26.0139 10.8429 43.9598 18.2313C61.9057 25.6198 73.8869 39.5862 70.7207 49.4263C67.5544 59.2664 50.4397 61.2539 32.4938 53.8655Z" fill="white" fill-opacity="0.223121"/>
<path fill-rule="evenodd" clip-rule="evenodd" d="M19.2173 15.5317L20.9904 16.7396L8.29345 25.0442L6.42482 23.7757L19.2173 15.5317Z" fill="#B3B4B3"/>
<path fill-rule="evenodd" clip-rule="evenodd" d="M8.39309 7.39056L53.6154 37.0078V54.98L8.39309 25.0442V7.39056Z" fill="#4F4F4F"/>
<path fill-rule="evenodd" clip-rule="evenodd" d="M6.50101 23.7358L53.6154 54.98L53.2053 55.277L6.01084 24.043L6.50101 23.7358Z" fill="#B3B4B3"/>
<path fill-rule="evenodd" clip-rule="evenodd" d="M6.01084 24.043L53.2307 55.2698V57.474L6.01084 26.3236V24.043Z" fill="#747571"/>
<path fill-rule="evenodd" clip-rule="evenodd" d="M6.50097 24.9316L52.7761 55.3621V56.5983L6.50097 26.159V24.9316Z" fill="#D7DBCD"/>
<path fill-rule="evenodd" clip-rule="evenodd" d="M64.9371 29.5879L53.6153 37.0078L8.39308 7.39059L19.7529 0L64.9371 29.5879Z" fill="#8C8C8C"/>
<path fill-rule="evenodd" clip-rule="evenodd" d="M53.6154 57.257L53.2305 57.474V55.2698L53.6154 54.9902V57.257Z" fill="#484948"/>
<path fill-rule="evenodd" clip-rule="evenodd" d="M65.2489 49.7307L64.9371 49.9348V47.573L65.2489 47.3853V49.7307Z" fill="#484948"/>
<path fill-rule="evenodd" clip-rule="evenodd" d="M12.3632 28.7701L11.5173 28.2198V29.4537L12.3632 30.0063V28.7701Z" fill="#EE9E40"/>
<path fill-rule="evenodd" clip-rule="evenodd" d="M16.1124 31.2351L15.2665 30.6848V31.9187L16.1124 32.4713V31.2351Z" fill="#EE9E40"/>
<path fill-rule="evenodd" clip-rule="evenodd" d="M19.8616 33.7001L19.0157 33.1497V34.3837L19.8616 34.9362V33.7001Z" fill="#EE9E40"/>
<path fill-rule="evenodd" clip-rule="evenodd" d="M23.6108 36.1651L22.7649 35.6147V36.8487L23.6108 37.4012V36.1651Z" fill="#EE9E40"/>
<path fill-rule="evenodd" clip-rule="evenodd" d="M27.1653 38.5223L26.3193 37.9719V39.2059L27.1653 39.7584V38.5223Z" fill="#EE9E40"/>
<path fill-rule="evenodd" clip-rule="evenodd" d="M30.9122 40.9723L30.0663 40.422V41.6559L30.9122 42.2085V40.9723Z" fill="#EE9E40"/>
<path fill-rule="evenodd" clip-rule="evenodd" d="M34.6594 43.4388L33.8135 42.8885V44.1224L34.6594 44.675V43.4388Z" fill="#EE9E40"/>
<path fill-rule="evenodd" clip-rule="evenodd" d="M38.3071 45.8428L37.4611 45.2924V46.5264L38.3071 47.0789V45.8428Z" fill="#EE9E40"/>
<path fill-rule="evenodd" clip-rule="evenodd" d="M41.8622 48.1672L41.0163 47.6169V48.8508L41.8622 49.4034V48.1672Z" fill="#EE9E40"/>
<path fill-rule="evenodd" clip-rule="evenodd" d="M45.6058 50.6431L44.7598 50.0928V51.3267L45.6058 51.8793V50.6431Z" fill="#EE9E40"/>
<path fill-rule="evenodd" clip-rule="evenodd" d="M49.3531 53.1112L48.5072 52.5609V53.7948L49.3531 54.3473V53.1112Z" fill="#EE9E40"/>
<path fill-rule="evenodd" clip-rule="evenodd" d="M52.7761 55.3622L51.9301 54.8118V56.0458L52.7761 56.5983V55.3622Z" fill="#EE9E40"/>
<path fill-rule="evenodd" clip-rule="evenodd" d="M9.56428 24.1004L9.58994 11.5888L9.18709 11.3287L9.16048 24.3001L9.17808 24.2907L9.56428 24.1004Z" fill="#333333"/>
<path fill-rule="evenodd" clip-rule="evenodd" d="M9.5737 24.1057L10.6224 24.7524L10.6214 25.2804L9.17832 24.3046L9.5737 24.1057Z" fill="#404040"/>
<path fill-rule="evenodd" clip-rule="evenodd" d="M9.55305 24.1022L10.6153 24.7518L10.64 12.2868L9.57786 11.5927L9.55305 24.1022Z" fill="#575757"/>
<path fill-rule="evenodd" clip-rule="evenodd" d="M11.9811 25.642L12.0068 13.1303L11.6039 12.8703L11.5773 25.8417L11.5949 25.8322L11.9811 25.642Z" fill="#333333"/>
<path fill-rule="evenodd" clip-rule="evenodd" d="M11.9904 25.6473L13.0388 26.2943L13.0378 26.8226L11.5951 25.8462L11.9904 25.6473Z" fill="#404040"/>
<path fill-rule="evenodd" clip-rule="evenodd" d="M11.9699 25.6437L13.0321 26.2934L13.0568 13.8284L11.9947 13.1343L11.9699 25.6437Z" fill="#575757"/>
<path fill-rule="evenodd" clip-rule="evenodd" d="M14.6265 27.3628L14.6522 14.8511L14.2493 14.591L14.2227 27.5625L14.2403 27.553L14.6265 27.3628Z" fill="#333333"/>
<path fill-rule="evenodd" clip-rule="evenodd" d="M14.6358 27.368L15.6842 28.0151L15.6832 28.5433L14.2406 27.567L14.6358 27.368Z" fill="#404040"/>
<path fill-rule="evenodd" clip-rule="evenodd" d="M14.6153 27.3645L15.6775 28.0142L15.7022 15.5492L14.6401 14.8551L14.6153 27.3645Z" fill="#575757"/>
<path fill-rule="evenodd" clip-rule="evenodd" d="M17.2667 29.0834L17.2924 16.5717L16.8895 16.3117L16.8629 29.2831L16.8805 29.2736L17.2667 29.0834Z" fill="#333333"/>
<path fill-rule="evenodd" clip-rule="evenodd" d="M17.276 29.0887L18.3244 29.7358L18.3234 30.264L16.8808 29.2877L17.276 29.0887Z" fill="#404040"/>
<path fill-rule="evenodd" clip-rule="evenodd" d="M17.2555 29.0852L18.3177 29.7348L18.3424 17.2698L17.2803 16.5757L17.2555 29.0852Z" fill="#575757"/>
<path fill-rule="evenodd" clip-rule="evenodd" d="M20.3513 31.0767L20.377 18.5651L19.9741 18.305L19.9475 31.2764L19.9651 31.267L20.3513 31.0767Z" fill="#333333"/>
<path fill-rule="evenodd" clip-rule="evenodd" d="M20.3606 31.0821L21.409 31.7291L21.408 32.2574L19.9654 31.281L20.3606 31.0821Z" fill="#404040"/>
<path fill-rule="evenodd" clip-rule="evenodd" d="M20.3401 31.0785L21.4023 31.7282L21.427 19.2632L20.3649 18.5691L20.3401 31.0785Z" fill="#575757"/>
<path fill-rule="evenodd" clip-rule="evenodd" d="M23.5753 33.2458L23.601 20.7341L23.1981 20.4741L23.1715 33.4455L23.1891 33.4361L23.5753 33.2458Z" fill="#333333"/>
<path fill-rule="evenodd" clip-rule="evenodd" d="M23.5846 33.2511L24.633 33.8981L24.632 34.4264L23.1894 33.45L23.5846 33.2511Z" fill="#404040"/>
<path fill-rule="evenodd" clip-rule="evenodd" d="M23.5641 33.2476L24.6263 33.8972L24.651 21.4322L23.5889 20.7381L23.5641 33.2476Z" fill="#575757"/>
<path fill-rule="evenodd" clip-rule="evenodd" d="M26.6599 35.2391L26.6856 22.7274L26.2827 22.4674L26.2561 35.4388L26.2737 35.4293L26.6599 35.2391Z" fill="#333333"/>
<path fill-rule="evenodd" clip-rule="evenodd" d="M26.6692 35.2444L27.7176 35.8914L27.7166 36.4197L26.274 35.4433L26.6692 35.2444Z" fill="#404040"/>
<path fill-rule="evenodd" clip-rule="evenodd" d="M26.6487 35.2409L27.7109 35.8905L27.7356 23.4255L26.6735 22.7314L26.6487 35.2409Z" fill="#575757"/>
<path fill-rule="evenodd" clip-rule="evenodd" d="M29.7445 37.2324L29.7702 24.7208L29.3673 24.4607L29.3407 37.4321L29.3583 37.4227L29.7445 37.2324Z" fill="#333333"/>
<path fill-rule="evenodd" clip-rule="evenodd" d="M29.7538 37.2378L30.8022 37.8848L30.8012 38.4131L29.3586 37.4367L29.7538 37.2378Z" fill="#404040"/>
<path fill-rule="evenodd" clip-rule="evenodd" d="M29.7333 37.2342L30.7955 37.8839L30.8202 25.4189L29.7581 24.7248L29.7333 37.2342Z" fill="#575757"/>
<path fill-rule="evenodd" clip-rule="evenodd" d="M32.9738 39.4016L32.9994 26.89L32.5966 26.6299L32.57 39.6013L32.5876 39.5919L32.9738 39.4016Z" fill="#333333"/>
<path fill-rule="evenodd" clip-rule="evenodd" d="M32.9831 39.407L34.0315 40.054L34.0305 40.5823L32.5878 39.6059L32.9831 39.407Z" fill="#404040"/>
<path fill-rule="evenodd" clip-rule="evenodd" d="M32.9625 39.4034L34.0248 40.0531L34.0495 27.5881L32.9873 26.8939L32.9625 39.4034Z" fill="#575757"/>
<path fill-rule="evenodd" clip-rule="evenodd" d="M36.0584 41.395L36.084 28.8833L35.6812 28.6232L35.6546 41.5947L35.6722 41.5852L36.0584 41.395Z" fill="#333333"/>
<path fill-rule="evenodd" clip-rule="evenodd" d="M36.0677 41.4003L37.1161 42.0473L37.1151 42.5756L35.6724 41.5993L36.0677 41.4003Z" fill="#404040"/>
<path fill-rule="evenodd" clip-rule="evenodd" d="M36.0471 41.3967L37.1093 42.0464L37.1341 29.5814L36.0719 28.8873L36.0471 41.3967Z" fill="#575757"/>
<path fill-rule="evenodd" clip-rule="evenodd" d="M39.143 43.3883L39.1686 30.8766L38.7658 30.6165L38.7392 43.588L38.7568 43.5785L39.143 43.3883Z" fill="#333333"/>
<path fill-rule="evenodd" clip-rule="evenodd" d="M39.1523 43.3936L40.2007 44.0406L40.1996 44.5689L38.757 43.5925L39.1523 43.3936Z" fill="#404040"/>
<path fill-rule="evenodd" clip-rule="evenodd" d="M39.1317 43.39L40.1939 44.0397L40.2187 31.5747L39.1565 30.8806L39.1317 43.39Z" fill="#575757"/>
<path fill-rule="evenodd" clip-rule="evenodd" d="M42.3722 45.5575L42.3979 33.0458L41.995 32.7857L41.9684 45.7572L41.986 45.7477L42.3722 45.5575Z" fill="#333333"/>
<path fill-rule="evenodd" clip-rule="evenodd" d="M42.3815 45.5628L43.4299 46.2098L43.4289 46.7381L41.9862 45.7617L42.3815 45.5628Z" fill="#404040"/>
<path fill-rule="evenodd" clip-rule="evenodd" d="M42.361 45.5592L43.4232 46.2089L43.4479 33.7439L42.3858 33.0498L42.361 45.5592Z" fill="#575757"/>
<path fill-rule="evenodd" clip-rule="evenodd" d="M45.4568 47.6358L45.4825 35.1241L45.0796 34.864L45.053 47.8355L45.0706 47.826L45.4568 47.6358Z" fill="#333333"/>
<path fill-rule="evenodd" clip-rule="evenodd" d="M45.4661 47.6411L46.5145 48.2881L46.5135 48.8164L45.0708 47.84L45.4661 47.6411Z" fill="#404040"/>
<path fill-rule="evenodd" clip-rule="evenodd" d="M45.4456 47.6375L46.5078 48.2872L46.5325 35.8222L45.4704 35.1281L45.4456 47.6375Z" fill="#575757"/>
<path fill-rule="evenodd" clip-rule="evenodd" d="M48.5361 49.629L48.5618 37.1173L48.159 36.8573L48.1323 49.8287L48.1499 49.8192L48.5361 49.629Z" fill="#333333"/>
<path fill-rule="evenodd" clip-rule="evenodd" d="M48.5454 49.6343L49.5938 50.2814L49.5928 50.8096L48.1502 49.8333L48.5454 49.6343Z" fill="#404040"/>
<path fill-rule="evenodd" clip-rule="evenodd" d="M48.5249 49.6307L49.5871 50.2804L49.6118 37.8154L48.5497 37.1213L48.5249 49.6307Z" fill="#575757"/>
<path fill-rule="evenodd" clip-rule="evenodd" d="M51.7654 51.7132L51.7911 39.2015L51.3882 38.9414L51.3616 51.9129L51.3792 51.9034L51.7654 51.7132Z" fill="#333333"/>
<path fill-rule="evenodd" clip-rule="evenodd" d="M51.7747 51.7184L52.8231 52.3655L52.8221 52.8937L51.3794 51.9174L51.7747 51.7184Z" fill="#404040"/>
<path fill-rule="evenodd" clip-rule="evenodd" d="M51.7542 51.7149L52.8164 52.3646L52.8411 39.8996L51.779 39.2055L51.7542 51.7149Z" fill="#575757"/>
<path fill-rule="evenodd" clip-rule="evenodd" d="M21.3824 1.84937L20.1101 1.04688L10.2522 7.51106L11.6246 8.34223L21.3824 1.84937Z" fill="#757575"/>
<path fill-rule="evenodd" clip-rule="evenodd" d="M21.1733 2.0066L20.0723 1.38966L20.0779 1.05709L21.3697 1.87792L21.1733 2.0066Z" fill="#666666"/>
<path fill-rule="evenodd" clip-rule="evenodd" d="M20.092 1.04219L10.2517 7.47148L10.4865 7.59307L20.0863 1.36546L20.092 1.04219Z" fill="#626262"/>
<path fill-rule="evenodd" clip-rule="evenodd" d="M24.5317 3.88935L23.2594 3.08686L13.4015 9.55103L14.7739 10.3822L24.5317 3.88935Z" fill="#757575"/>
<path fill-rule="evenodd" clip-rule="evenodd" d="M24.3226 4.04658L23.2216 3.42964L23.2272 3.09706L24.519 3.91789L24.3226 4.04658Z" fill="#666666"/>
<path fill-rule="evenodd" clip-rule="evenodd" d="M23.2413 3.08217L13.401 9.51146L13.6358 9.63305L23.2356 3.40544L23.2413 3.08217Z" fill="#626262"/>
<path fill-rule="evenodd" clip-rule="evenodd" d="M27.831 6.09937L26.5587 5.29688L16.7008 11.7611L18.0732 12.5922L27.831 6.09937Z" fill="#757575"/>
<path fill-rule="evenodd" clip-rule="evenodd" d="M27.6219 6.2566L26.5209 5.63966L26.5265 5.30708L27.8183 6.12792L27.6219 6.2566Z" fill="#666666"/>
<path fill-rule="evenodd" clip-rule="evenodd" d="M26.5406 5.29219L16.7003 11.7215L16.9351 11.8431L26.5349 5.61546L26.5406 5.29219Z" fill="#626262"/>
<path fill-rule="evenodd" clip-rule="evenodd" d="M31.5052 8.47932L30.2329 7.67683L20.375 14.141L21.7474 14.9722L31.5052 8.47932Z" fill="#757575"/>
<path fill-rule="evenodd" clip-rule="evenodd" d="M31.2961 8.63655L30.1951 8.0196L30.2007 7.68703L31.4925 8.50786L31.2961 8.63655Z" fill="#666666"/>
<path fill-rule="evenodd" clip-rule="evenodd" d="M30.2148 7.67214L20.3745 14.1014L20.6093 14.223L30.2091 7.99541L30.2148 7.67214Z" fill="#626262"/>
<path fill-rule="evenodd" clip-rule="evenodd" d="M35.0294 10.8593L33.7571 10.0568L23.8993 16.521L25.2716 17.3522L35.0294 10.8593Z" fill="#757575"/>
<path fill-rule="evenodd" clip-rule="evenodd" d="M34.8203 11.0166L33.7193 10.3996L33.725 10.067L35.0167 10.8879L34.8203 11.0166Z" fill="#666666"/>
<path fill-rule="evenodd" clip-rule="evenodd" d="M33.739 10.0521L23.8987 16.4814L24.1335 16.603L33.7333 10.3754L33.739 10.0521Z" fill="#626262"/>
<path fill-rule="evenodd" clip-rule="evenodd" d="M38.7786 13.3243L37.5063 12.5218L27.6485 18.986L29.0208 19.8171L38.7786 13.3243Z" fill="#757575"/>
<path fill-rule="evenodd" clip-rule="evenodd" d="M38.5695 13.4815L37.4685 12.8646L37.4742 12.532L38.766 13.3528L38.5695 13.4815Z" fill="#666666"/>
<path fill-rule="evenodd" clip-rule="evenodd" d="M37.4882 12.5171L27.6479 18.9464L27.8827 19.068L37.4825 12.8404L37.4882 12.5171Z" fill="#626262"/>
<path fill-rule="evenodd" clip-rule="evenodd" d="M43.1277 16.2142L41.8554 15.4118L31.9975 21.8759L33.3699 22.7071L43.1277 16.2142Z" fill="#757575"/>
<path fill-rule="evenodd" clip-rule="evenodd" d="M42.9186 16.3715L41.8176 15.7545L41.8232 15.422L43.115 16.2428L42.9186 16.3715Z" fill="#666666"/>
<path fill-rule="evenodd" clip-rule="evenodd" d="M41.8373 15.4071L31.997 21.8363L32.2318 21.9579L41.8316 15.7303L41.8373 15.4071Z" fill="#626262"/>
<path fill-rule="evenodd" clip-rule="evenodd" d="M47.0269 18.6792L45.7545 17.8767L35.8967 24.3409L37.269 25.1721L47.0269 18.6792Z" fill="#757575"/>
<path fill-rule="evenodd" clip-rule="evenodd" d="M46.8178 18.8364L45.7168 18.2195L45.7224 17.8869L47.0142 18.7078L46.8178 18.8364Z" fill="#666666"/>
<path fill-rule="evenodd" clip-rule="evenodd" d="M45.7365 17.872L35.8961 24.3013L36.1309 24.4229L45.7308 18.1953L45.7365 17.872Z" fill="#626262"/>
<path fill-rule="evenodd" clip-rule="evenodd" d="M51.226 21.3992L49.9536 20.5968L40.0958 27.0609L41.4681 27.8921L51.226 21.3992Z" fill="#757575"/>
<path fill-rule="evenodd" clip-rule="evenodd" d="M51.0169 21.5565L49.9159 20.9395L49.9215 20.607L51.2133 21.4278L51.0169 21.5565Z" fill="#666666"/>
<path fill-rule="evenodd" clip-rule="evenodd" d="M49.9356 20.5921L40.0952 27.0213L40.33 27.1429L49.9299 20.9153L49.9356 20.5921Z" fill="#626262"/>
<path fill-rule="evenodd" clip-rule="evenodd" d="M55.2001 24.0342L53.9278 23.2317L44.0699 29.6959L45.4423 30.527L55.2001 24.0342Z" fill="#757575"/>
<path fill-rule="evenodd" clip-rule="evenodd" d="M54.991 24.1914L53.89 23.5745L53.8956 23.2419L55.1874 24.0627L54.991 24.1914Z" fill="#666666"/>
<path fill-rule="evenodd" clip-rule="evenodd" d="M53.9097 23.227L44.0694 29.6563L44.3042 29.7779L53.904 23.5503L53.9097 23.227Z" fill="#626262"/>
<path fill-rule="evenodd" clip-rule="evenodd" d="M59.1742 26.5842L57.9019 25.7817L48.044 32.2459L49.4164 33.077L59.1742 26.5842Z" fill="#757575"/>
<path fill-rule="evenodd" clip-rule="evenodd" d="M58.9651 26.7414L57.8641 26.1245L57.8697 25.7919L59.1615 26.6127L58.9651 26.7414Z" fill="#666666"/>
<path fill-rule="evenodd" clip-rule="evenodd" d="M57.8838 25.777L48.0435 32.2063L48.2783 32.3279L57.8781 26.1003L57.8838 25.777Z" fill="#626262"/>
<path fill-rule="evenodd" clip-rule="evenodd" d="M63.2233 29.3041L61.951 28.5017L52.0932 34.9658L53.4655 35.797L63.2233 29.3041Z" fill="#757575"/>
<path fill-rule="evenodd" clip-rule="evenodd" d="M63.0142 29.4614L61.9132 28.8444L61.9189 28.5119L63.2107 29.3327L63.0142 29.4614Z" fill="#666666"/>
<path fill-rule="evenodd" clip-rule="evenodd" d="M61.9329 28.497L52.0926 34.9263L52.3274 35.0478L61.9272 28.8202L61.9329 28.497Z" fill="#626262"/>
<path fill-rule="evenodd" clip-rule="evenodd" d="M64.9371 29.588V49.9348L53.6154 57.257L53.5833 37.0078L64.9371 29.588Z" fill="#666666"/>
<path fill-rule="evenodd" clip-rule="evenodd" d="M64.9371 47.573L65.2489 47.3853L64.9371 47.2084V47.573Z" fill="#B3B4B3"/>
<path fill-rule="evenodd" clip-rule="evenodd" d="M58.9933 40.2648V41.7008L54.5915 44.5157V43.081L58.9933 40.2648Z" fill="#575757"/>
<path fill-rule="evenodd" clip-rule="evenodd" d="M58.8104 41.5967L54.5915 44.2695V44.5156L58.9933 41.7008L58.8104 41.5967Z" fill="#333333"/>
<path fill-rule="evenodd" clip-rule="evenodd" d="M58.9933 40.2648L58.803 40.4024V41.5967L58.9933 41.7008V40.2648Z" fill="#404040"/>
<path fill-rule="evenodd" clip-rule="evenodd" d="M63.6423 37.3748V38.8109L59.5722 41.4268V39.9922L63.6423 37.3748Z" fill="#575757"/>
<path fill-rule="evenodd" clip-rule="evenodd" d="M63.4595 38.7068L59.5856 41.1479V41.3941L63.6424 38.8109L63.4595 38.7068Z" fill="#333333"/>
<path fill-rule="evenodd" clip-rule="evenodd" d="M63.6423 37.3748L63.452 37.5124V38.7068L63.6423 38.8109V37.3748Z" fill="#404040"/>
<path fill-rule="evenodd" clip-rule="evenodd" d="M63.6423 44.0898V45.5258L59.5722 48.1417V46.7071L63.6423 44.0898Z" fill="#575757"/>
<path fill-rule="evenodd" clip-rule="evenodd" d="M63.4595 45.4218L59.5854 47.8808V48.127L63.6424 45.5258L63.4595 45.4218Z" fill="#333333"/>
<path fill-rule="evenodd" clip-rule="evenodd" d="M63.6423 44.0898L63.452 44.2274V45.4218L63.6423 45.5258V44.0898Z" fill="#404040"/>
<path fill-rule="evenodd" clip-rule="evenodd" d="M58.9933 47.0647V48.5008L54.5915 51.3156V49.881L58.9933 47.0647Z" fill="#575757"/>
<path fill-rule="evenodd" clip-rule="evenodd" d="M58.8104 48.3967L54.5915 51.0694V51.3156L58.9933 48.5007L58.8104 48.3967Z" fill="#333333"/>
<path fill-rule="evenodd" clip-rule="evenodd" d="M58.9933 47.0647L58.803 47.2023V48.3967L58.9933 48.5008V47.0647Z" fill="#404040"/>
<path fill-rule="evenodd" clip-rule="evenodd" d="M64.0059 32.9373V47.4857L54.2056 53.9259V39.2696L64.0059 32.9373Z" stroke="#4D4D4D" stroke-width="0.106448"/>
<path d="M59.282 35.9547V50.5745" stroke="#4D4D4D" stroke-width="0.106448"/>
<path fill-rule="evenodd" clip-rule="evenodd" d="M55.5328 53.3599V54.2469L55.6575 54.3282V53.4349L55.5328 53.3599Z" fill="#7A7A7A"/>
<path fill-rule="evenodd" clip-rule="evenodd" d="M55.6575 54.3282L56.7644 53.6164V52.7217L55.6575 53.4349V54.3282Z" fill="#ABABAB"/>
<path fill-rule="evenodd" clip-rule="evenodd" d="M55.6575 53.4349L56.7644 52.7217L56.6354 52.6146L55.5328 53.3599L55.6575 53.4349Z" fill="#969696"/>
<path fill-rule="evenodd" clip-rule="evenodd" d="M55.5328 37.125V38.012L55.6575 38.0933V37.2L55.5328 37.125Z" fill="#7A7A7A"/>
<path fill-rule="evenodd" clip-rule="evenodd" d="M55.6575 38.0933L56.7644 37.3815V36.4868L55.6575 37.2V38.0933Z" fill="#ABABAB"/>
<path fill-rule="evenodd" clip-rule="evenodd" d="M55.6575 37.2L56.7644 36.4868L56.6354 36.3797L55.5328 37.125L55.6575 37.2Z" fill="#969696"/>
<path fill-rule="evenodd" clip-rule="evenodd" d="M56.4505 35.9069V54.8469L56.2076 54.9951V36.0646L56.4505 35.9069Z" fill="#E6E6E6"/>
<path fill-rule="evenodd" clip-rule="evenodd" d="M56.0577 36.0031V54.8964L56.2076 54.9945V36.064L56.0577 36.0031Z" fill="#C7C7C7"/>
<path fill-rule="evenodd" clip-rule="evenodd" d="M56.2076 36.064L56.4505 35.9063L56.3104 35.8563L56.0577 36.0031L56.2076 36.064Z" fill="#B3B3B3"/>
<path fill-rule="evenodd" clip-rule="evenodd" d="M57.4074 52.0849V52.9719L57.5321 53.0532V52.1599L57.4074 52.0849Z" fill="#7A7A7A"/>
<path fill-rule="evenodd" clip-rule="evenodd" d="M57.5321 53.0532L58.639 52.3415V51.4467L57.5321 52.1599V53.0532Z" fill="#ABABAB"/>
<path fill-rule="evenodd" clip-rule="evenodd" d="M57.5321 52.1599L58.639 51.4467L58.51 51.3396L57.4074 52.0849L57.5321 52.1599Z" fill="#969696"/>
<path fill-rule="evenodd" clip-rule="evenodd" d="M57.4074 35.85V36.7371L57.5321 36.8183V35.9251L57.4074 35.85Z" fill="#7A7A7A"/>
<path fill-rule="evenodd" clip-rule="evenodd" d="M57.5321 36.8183L58.639 36.1066V35.2119L57.5321 35.9251V36.8183Z" fill="#ABABAB"/>
<path fill-rule="evenodd" clip-rule="evenodd" d="M57.5321 35.9251L58.639 35.2119L58.51 35.1047L57.4074 35.85L57.5321 35.9251Z" fill="#969696"/>
<path fill-rule="evenodd" clip-rule="evenodd" d="M58.3251 34.5469V53.4869L58.0823 53.6351V34.7046L58.3251 34.5469Z" fill="#E6E6E6"/>
<path fill-rule="evenodd" clip-rule="evenodd" d="M57.9323 34.6431V53.5364L58.0823 53.6345V34.704L57.9323 34.6431Z" fill="#C7C7C7"/>
<path fill-rule="evenodd" clip-rule="evenodd" d="M58.0823 34.704L58.3251 34.5463L58.185 34.4963L57.9323 34.6431L58.0823 34.704Z" fill="#B3B3B3"/>
<path fill-rule="evenodd" clip-rule="evenodd" d="M53.8082 40.1V40.5889L53.9329 40.6702V40.175L53.8082 40.1Z" fill="#7A7A7A"/>
<path fill-rule="evenodd" clip-rule="evenodd" d="M53.9329 40.6702L55.0398 39.9585V39.4619L53.9329 40.1751V40.6702Z" fill="#ABABAB"/>
<path fill-rule="evenodd" clip-rule="evenodd" d="M53.9329 40.175L55.0398 39.4618L54.9108 39.3547L53.8082 40.1L53.9329 40.175Z" fill="#969696"/>
<path fill-rule="evenodd" clip-rule="evenodd" d="M53.8082 53.0199V53.5088L53.9329 53.5901V53.0949L53.8082 53.0199Z" fill="#7A7A7A"/>
<path fill-rule="evenodd" clip-rule="evenodd" d="M53.9329 53.5901L55.0398 52.8783V52.3817L53.9329 53.0949V53.5901Z" fill="#ABABAB"/>
<path fill-rule="evenodd" clip-rule="evenodd" d="M53.9329 53.0949L55.0398 52.3817L54.9108 52.2746L53.8082 53.0199L53.9329 53.0949Z" fill="#969696"/>
<path fill-rule="evenodd" clip-rule="evenodd" d="M58.0855 50.0863L57.9323 50.0349C57.3861 50.4734 57.0541 50.7704 56.9364 50.9261C56.8596 51.0224 56.8741 51.0833 56.9798 51.1089" fill="#D8D8D8"/>
<path fill-rule="evenodd" clip-rule="evenodd" d="M58.083 50.0867C57.3222 50.6689 56.9418 51.0016 56.9418 51.0845C56.9418 51.1675 57.3233 51.0726 58.0863 50.7999L58.083 50.0867Z" fill="#E6E6E6"/>
<path d="M57.6699 49.9371V51.2971" stroke="#979797" stroke-width="0.0532238"/>
<path fill-rule="evenodd" clip-rule="evenodd" d="M59.507 50.7249V51.6119L59.6317 51.6932V50.7999L59.507 50.7249Z" fill="#7A7A7A"/>
<path fill-rule="evenodd" clip-rule="evenodd" d="M59.6317 51.6931L60.7386 50.9814V50.0867L59.6317 50.7999V51.6931Z" fill="#ABABAB"/>
<path fill-rule="evenodd" clip-rule="evenodd" d="M59.6316 50.7999L60.7386 50.0867L60.6096 49.9796L59.507 50.7248L59.6316 50.7999Z" fill="#969696"/>
<path fill-rule="evenodd" clip-rule="evenodd" d="M59.507 34.49V35.377L59.6317 35.4583V34.565L59.507 34.49Z" fill="#7A7A7A"/>
<path fill-rule="evenodd" clip-rule="evenodd" d="M59.6317 35.4583L60.7386 34.7465V33.8518L59.6317 34.565V35.4583Z" fill="#ABABAB"/>
<path fill-rule="evenodd" clip-rule="evenodd" d="M59.6316 34.565L60.7386 33.8518L60.6096 33.7447L59.507 34.49L59.6316 34.565Z" fill="#969696"/>
<path fill-rule="evenodd" clip-rule="evenodd" d="M60.4247 33.1869V52.1269L60.1818 52.2751V33.3446L60.4247 33.1869Z" fill="#E6E6E6"/>
<path fill-rule="evenodd" clip-rule="evenodd" d="M60.0319 33.2831V52.1764L60.1818 52.2745V33.344L60.0319 33.2831Z" fill="#C7C7C7"/>
<path fill-rule="evenodd" clip-rule="evenodd" d="M60.1818 33.344L60.4247 33.1863L60.2846 33.1364L60.0319 33.2831L60.1818 33.344Z" fill="#B3B3B3"/>
<path fill-rule="evenodd" clip-rule="evenodd" d="M61.3815 49.5349V50.4219L61.5062 50.5032V49.61L61.3815 49.5349Z" fill="#7A7A7A"/>
<path fill-rule="evenodd" clip-rule="evenodd" d="M61.5062 50.5032L62.6132 49.7915V48.8967L61.5062 49.6099V50.5032Z" fill="#ABABAB"/>
<path fill-rule="evenodd" clip-rule="evenodd" d="M61.5062 49.61L62.6132 48.8967L62.4841 48.7896L61.3815 49.5349L61.5062 49.61Z" fill="#969696"/>
<path fill-rule="evenodd" clip-rule="evenodd" d="M61.3815 33.3V34.187L61.5062 34.2683V33.375L61.3815 33.3Z" fill="#7A7A7A"/>
<path fill-rule="evenodd" clip-rule="evenodd" d="M61.5062 34.2683L62.6132 33.5565V32.6618L61.5062 33.375V34.2683Z" fill="#ABABAB"/>
<path fill-rule="evenodd" clip-rule="evenodd" d="M61.5062 33.375L62.6132 32.6618L62.4841 32.5547L61.3815 33.3L61.5062 33.375Z" fill="#969696"/>
<path fill-rule="evenodd" clip-rule="evenodd" d="M62.2992 31.9969V50.9369L62.0564 51.0851V32.1546L62.2992 31.9969Z" fill="#E6E6E6"/>
<path fill-rule="evenodd" clip-rule="evenodd" d="M61.9064 32.0931V50.9864L62.0564 51.0845V32.154L61.9064 32.0931Z" fill="#C7C7C7"/>
<path fill-rule="evenodd" clip-rule="evenodd" d="M62.0564 32.1541L62.2992 31.9963L62.1591 31.9464L61.9064 32.0931L62.0564 32.1541Z" fill="#B3B3B3"/>
<path fill-rule="evenodd" clip-rule="evenodd" d="M63.2562 34.065V34.5539L63.3809 34.6352V34.1401L63.2562 34.065Z" fill="#7A7A7A"/>
<path fill-rule="evenodd" clip-rule="evenodd" d="M63.3809 34.6352L64.4878 33.9234V33.4268L63.3809 34.14V34.6352Z" fill="#ABABAB"/>
<path fill-rule="evenodd" clip-rule="evenodd" d="M63.3809 34.14L64.4878 33.4268L64.3588 33.3197L63.2562 34.065L63.3809 34.14Z" fill="#969696"/>
<path fill-rule="evenodd" clip-rule="evenodd" d="M63.2562 46.9849V47.4738L63.3809 47.555V47.0599L63.2562 46.9849Z" fill="#7A7A7A"/>
<path fill-rule="evenodd" clip-rule="evenodd" d="M63.3809 47.5551L64.4878 46.8434V46.3467L63.3809 47.06V47.5551Z" fill="#ABABAB"/>
<path fill-rule="evenodd" clip-rule="evenodd" d="M63.3809 47.06L64.4878 46.3468L64.3588 46.2396L63.2562 46.9849L63.3809 47.06Z" fill="#969696"/>
<path fill-rule="evenodd" clip-rule="evenodd" d="M62.0564 47.5636L61.9065 47.5146C61.3566 47.953 61.0229 48.2501 60.9051 48.4058C60.8284 48.502 60.8428 48.563 60.9486 48.5886L62.0564 47.5636Z" fill="#D8D8D8"/>
<path fill-rule="evenodd" clip-rule="evenodd" d="M62.0583 47.5636C61.2939 48.1475 60.9117 48.4809 60.9117 48.5639C60.9117 48.6469 61.295 48.5512 62.0616 48.2768L62.0583 47.5636Z" fill="#E6E6E6"/>
<path d="M61.6066 47.5145V48.7045" stroke="#979797" stroke-width="0.0532238"/>
<path fill-rule="evenodd" clip-rule="evenodd" d="M61.4597 45.016C61.4988 44.9107 61.4728 44.8478 61.3817 44.827C61.2349 44.8026 60.9159 44.8456 60.4248 44.9561V45.0727L61.4597 45.016Z" fill="#D8D8D8"/>
<path fill-rule="evenodd" clip-rule="evenodd" d="M60.4246 45.0727C61.1314 44.8187 61.4883 44.7766 61.4956 44.9465C61.4956 45.0622 61.1317 45.3294 60.4039 45.748L60.4246 45.0727Z" fill="#E6E6E6"/>
<path d="M60.7386 44.5157L60.7809 45.7851" stroke="#979797" stroke-width="0.0532238"/>
<path opacity="0.2" d="M88.846 61.2919C86.81 62.055 79.4481 56.7656 80.1038 56.215C81.5302 54.9915 90.5024 60.6788 88.846 61.2919Z" fill="black"/>
<path d="M85.8898 59.4007C85.8438 59.5657 85.8208 59.8668 85.9243 60.0018C86.0278 60.1279 86.5915 60.5576 86.764 60.6993C86.9826 60.8812 87.3737 61.1603 87.7878 61.2453C88.2019 61.3303 88.869 61.1814 88.8115 60.9349C88.777 60.8066 88.1098 60.3401 87.8223 60.1157C87.5577 59.9204 87.1551 59.3994 87.1551 59.3994L85.8898 59.4007Z" fill="#2D3134"/>
<path opacity="0.4" d="M88.8115 60.9366C88.8115 60.9277 88.8 60.9088 88.7885 60.8987C88.6964 61.0944 88.1443 61.2005 87.7762 61.12C87.3736 61.0362 86.971 60.7565 86.7525 60.575C86.5799 60.4335 86.0048 60.0035 85.9127 59.8789C85.8782 59.8399 85.8667 59.7854 85.8552 59.722C85.8552 59.8377 85.8782 59.9378 85.9242 60.0046C86.0278 60.1304 86.5914 60.5592 86.764 60.7007C86.9825 60.8822 87.3736 61.1607 87.7877 61.2457C88.2018 61.3307 88.869 61.1825 88.8115 60.9366Z" fill="black"/>
<path d="M80.8975 55.7698C80.6674 55.9081 80.3799 56.3089 80.4374 56.4931C80.4949 56.6774 81.1966 57.0049 81.3691 57.1378C81.5417 57.2708 82.2663 57.8327 82.4964 57.9534C82.761 58.0954 83.06 58.1692 83.3016 58.023C83.5087 57.8914 83.2671 57.5105 83.1291 57.372C82.968 57.2223 82.5999 56.9631 82.4389 56.7151C82.2778 56.4672 82.1053 56.0484 82.1053 56.0484L80.8975 55.7698Z" fill="#2D3134"/>
<path opacity="0.4" d="M83.3476 57.9214C83.1061 58.0672 82.807 57.9845 82.5424 57.8517C82.3124 57.7312 81.5877 57.1613 81.4151 57.0375C81.2426 56.9048 80.5409 56.5867 80.4834 56.3939C80.4719 56.3571 80.4719 56.3125 80.4834 56.2691C80.4489 56.3549 80.4259 56.4417 80.4489 56.4975C80.5064 56.6813 81.2081 57.0083 81.3806 57.141C81.5532 57.2738 82.2779 57.8347 82.5079 57.9553C82.7725 58.097 83.0715 58.1708 83.3131 58.025C83.3706 57.995 83.3936 57.9438 83.3936 57.8814C83.3821 57.8981 83.3706 57.9148 83.3476 57.9214Z" fill="black"/>
<path d="M84.6244 49.3584L87.1896 49.9305C87.1896 49.9305 87.017 50.8899 86.3038 51.734C85.5907 52.5781 84.1183 53.7245 83.8537 53.9405C83.5892 54.1566 82.7034 55.6288 82.6114 55.7989C82.4619 56.071 82.3813 56.5199 82.3123 56.54C81.5761 56.8356 80.4949 56.1661 80.5064 56.015C80.5179 55.9086 81.3921 53.9607 82.1513 53.1211C82.5654 52.6598 83.3936 51.6747 83.6122 50.9257C83.8307 50.1768 84.6244 49.3584 84.6244 49.3584Z" fill="#06547A"/>
<path opacity="0.2" d="M84.6244 49.3584L87.1896 49.9305C87.1896 49.9305 87.017 50.8899 86.3038 51.734C85.5907 52.5781 84.1183 53.7245 83.8537 53.9405C83.5892 54.1566 82.7034 55.6288 82.6114 55.7989C82.4619 56.071 82.3813 56.5199 82.3123 56.54C81.5761 56.8356 80.4949 56.1661 80.5064 56.015C80.5179 55.9086 81.3921 53.9607 82.1513 53.1211C82.5654 52.6598 83.3936 51.6747 83.6122 50.9257C83.8307 50.1768 84.6244 49.3584 84.6244 49.3584Z" fill="black"/>
<path d="M83.7157 49.0567C83.7157 49.0567 83.3476 49.479 83.2901 49.8506C83.1291 50.8048 83.6352 52.695 83.9688 53.4548C84.3024 54.2146 84.5899 55.0238 84.6244 55.548C84.6589 56.0722 84.912 57.0398 85.0846 57.6762C85.3951 58.8019 85.7057 59.6044 85.7517 59.7346C85.7977 59.8648 86.5569 59.9026 86.8445 59.8856C87.1436 59.8698 87.5232 59.8168 87.5347 59.7461C87.5462 59.6754 87.1781 58.5081 87.0055 57.8537C86.8445 57.2095 86.5339 55.5628 86.5339 55.024C86.5339 54.4852 86.6144 52.8585 86.5684 51.983C86.5224 51.0984 86.1313 49.6684 86.1313 49.6684L83.7157 49.0567Z" fill="#06547A"/>
<path d="M88.5009 45.1138C88.5929 45.3378 88.961 47.4166 89.0416 47.5678C89.1221 47.7279 91.1581 49.2073 91.1926 49.3182C91.2271 49.429 90.3874 49.643 90.1803 49.5243C89.9963 49.4258 89.3406 49.0394 88.7425 48.6318C88.5584 48.5153 87.8913 47.9218 87.8453 47.8277C87.7992 47.7336 87.7877 46.6125 87.7647 46.4938C87.7417 46.375 88.5009 45.1138 88.5009 45.1138Z" fill="#3399CC"/>
<path d="M86.0738 50.4317C86.0738 50.4317 84.751 44.1807 85.0385 44.0919C85.3376 44.0042 86.3499 43.95 86.81 43.9767C87.2701 44.0034 88.0293 44.4632 88.0293 44.4632L87.2586 50.5468L86.0738 50.4317Z" fill="#3399CC"/>
<path d="M85.0385 44.0867C85.0385 44.0867 84.2448 44.3684 83.9343 44.697C83.6122 45.0335 83.3361 45.5897 83.3361 46.3253C83.3361 47.0608 83.2786 48.93 83.2556 49.3135C83.2211 49.6958 84.1988 50.042 84.8315 50.2381C85.4641 50.4341 86.3729 50.5673 86.6029 50.5C86.833 50.4326 86.9135 49.4627 87.017 48.7103C87.0745 48.3032 87.0975 47.1304 86.8905 46.5182C86.5454 45.5069 85.0385 44.0867 85.0385 44.0867Z" fill="#99CC33"/>
<path d="M87.4887 44.2356C87.4887 44.2356 87.3736 45.9411 87.1896 46.6513C86.994 47.3513 86.9135 50.013 86.994 50.2635C87.0745 50.505 87.0861 50.6049 87.3506 50.6666C87.6152 50.7282 87.7187 50.5764 87.7417 50.4349C87.7647 50.2573 87.8567 48.9001 87.8567 48.5945C87.8567 48.2889 87.9603 47.4631 88.0983 47.1978C88.2248 46.9225 88.7425 45.4448 88.6504 45.2201C88.5584 44.9955 88.1558 44.3722 87.4887 44.2356Z" fill="#99CC33"/>
<path d="M85.3376 44.0659C85.3376 44.0659 85.6482 43.9976 85.6712 43.8207C85.6942 43.6437 84.9925 42.8856 85.5791 42.3066C86.1658 41.7276 87.6267 41.9862 87.8797 42.6469C88.1328 43.3076 88.1558 44.5283 87.9602 44.6347C87.7187 44.7724 87.2816 44.6672 87.2816 44.6672C87.2816 44.6672 87.132 44.9483 87.1665 45.1129C87.2126 45.3593 86.9365 45.3503 86.7869 45.3268C86.5684 45.2966 85.5331 44.8913 85.3376 44.0659Z" fill="#FBD7C7"/>
<path d="M85.5792 43.652L85.7632 43.7593C85.7632 43.7593 85.2801 43.212 85.6022 43.1362C85.9242 43.0604 86.0738 43.3876 86.0738 43.3876C86.0738 43.3876 86.3153 43.0896 86.6834 43.0987C87.0515 43.1078 88.0638 43.0279 88.0293 42.7745C88.0178 42.6751 87.6152 41.7962 86.4189 41.8403C85.2226 41.8844 85.1881 42.6492 85.2571 42.9596C85.3261 43.2701 85.5792 43.652 85.5792 43.652Z" fill="#762C07"/>
<path d="M90.3989 51.8107L95 50.4574V46.9113L90.3989 44.7186L85.7977 46.0719V49.6179L90.3989 51.8107Z" fill="#FFCC00"/>
<path opacity="0.11" d="M85.7977 46.0466L90.3989 48.2457V51.8086L85.7977 49.6095V46.0466Z" fill="black"/>
<path opacity="0.3" d="M92.1358 47.7352V49.4609L93.2631 49.1303V47.4134L88.6619 45.2229L87.5347 45.5447L92.1358 47.7352Z" fill="black"/>
<path opacity="0.29" d="M95 46.9388L90.3989 48.3027V51.8657L95 50.5018V46.9388Z" fill="black"/>
<path d="M86.994 50.6823C86.994 50.6823 87.9257 51.2805 88.4664 51.3156C89.007 51.3507 89.3981 51.3267 89.2946 51.2721C89.1911 51.2175 88.8575 51.0692 88.5354 50.9398C88.2133 50.8105 87.9833 50.6101 87.9718 50.5645C87.9603 50.5188 88.7309 50.5943 88.7424 50.4798C88.7539 50.3652 88.2363 50.2968 88.1098 50.2577C87.9833 50.2187 87.7187 50.1305 87.4771 50.1424C87.1896 50.1588 87.017 50.1775 86.8445 50.1339L86.994 50.6823Z" fill="#FBD7C7"/>
<path d="M83.7502 44.8914C83.4396 44.9239 83.2441 46.3025 83.1981 46.7281C83.1521 47.1537 83.014 48.4394 83.0945 48.6085C83.2901 49.0307 86.7755 50.6421 86.879 50.6969C86.994 50.7529 87.5922 50.1839 87.5692 50.0563C87.5462 49.9286 85.7287 48.9813 85.4641 48.8122C85.1996 48.6431 84.5554 48.3295 84.5554 48.3295C84.5554 48.3295 84.8085 47.1894 84.9695 46.7481C85.1191 46.3058 85.1421 46.2005 85.1421 45.9675C85.1421 45.7435 84.5324 44.8151 83.7502 44.8914Z" fill="#3399CC"/>
<path d="M61.8795 63.4367C72.0796 63.4367 80.3484 54.452 80.3484 43.3687C80.3484 32.2855 72.0796 23.3008 61.8795 23.3008C51.6794 23.3008 43.4106 32.2855 43.4106 43.3687C43.4106 54.452 51.6794 63.4367 61.8795 63.4367Z" fill="#444444"/>
<mask id="mask0" mask-type="alpha" maskUnits="userSpaceOnUse" x="43" y="23" width="37" height="41">
<path d="M61.5081 63.3654C71.4687 63.3654 79.5434 54.3966 79.5434 43.3331C79.5434 32.2695 71.4687 23.3008 61.5081 23.3008C51.5475 23.3008 43.4728 32.2695 43.4728 43.3331C43.4728 54.3966 51.5475 63.3654 61.5081 63.3654Z" fill="white"/>
</mask>
<g mask="url(#mask0)">
<path fill-rule="evenodd" clip-rule="evenodd" d="M71.3078 50.4813L64.978 46.4833L59.1869 59.4202" fill="#D8D8D8"/>
<path fill-rule="evenodd" clip-rule="evenodd" d="M65.6245 46.889L65.6346 33.9736L71.3192 32.1299V50.4871L65.6245 46.889Z" fill="#757D7F"/>
<path fill-rule="evenodd" clip-rule="evenodd" d="M8.44247 7.94904L59.2264 40.6104L59.2056 59.2551L8.41759 26.4956L8.44247 7.94904Z" fill="#A2ACAE"/>
<path fill-rule="evenodd" clip-rule="evenodd" d="M6.88285 23.1305L59.2101 56.8195L59.2068 59.2515L6.4379 23.4344L6.88285 23.1305Z" fill="#B3B4B3"/>
<path fill-rule="evenodd" clip-rule="evenodd" d="M6.43862 23.4343L58.7968 57.0151L58.7935 59.5012L6.43543 25.8051L6.43862 23.4343Z" fill="#80817D"/>
<path fill-rule="evenodd" clip-rule="evenodd" d="M71.3354 31.9819L59.1721 40.5529L8.43207 7.95667L21.5882 2.90195L71.3354 31.9819Z" fill="#EFF4F4"/>
<path fill-rule="evenodd" clip-rule="evenodd" d="M59.2066 59.433L58.7886 59.683L58.7921 57.1799L59.21 56.9911L59.2066 59.433Z" fill="#484948"/>
<path fill-rule="evenodd" clip-rule="evenodd" d="M71.6376 50.3045L71.3176 50.549L71.3213 47.948L71.6411 47.8191L71.6376 50.3045Z" fill="#484948"/>
<path fill-rule="evenodd" clip-rule="evenodd" d="M57.0297 56.6642L56.1135 56.0758L56.1118 57.3502L57.028 57.9377L57.0297 56.6642Z" fill="#EE9E40"/>
<path fill-rule="evenodd" clip-rule="evenodd" d="M53.639 54.46L52.7228 53.8675L52.7211 55.1445L53.6373 55.7355L53.639 54.46Z" fill="#EE9E40"/>
<path fill-rule="evenodd" clip-rule="evenodd" d="M50.1833 52.2134L49.267 51.6208L49.2653 52.9039L50.1815 53.4945L50.1833 52.2134Z" fill="#EE9E40"/>
<path fill-rule="evenodd" clip-rule="evenodd" d="M46.8277 50.0255L45.8696 49.4185L45.8678 50.7018L46.826 51.3087L46.8277 50.0255Z" fill="#EE9E40"/>
<path fill-rule="evenodd" clip-rule="evenodd" d="M42.6911 44.532L43.8395 45.2197L43.838 45.7839L42.2579 44.7458L42.6911 44.532Z" fill="white"/>
<path fill-rule="evenodd" clip-rule="evenodd" d="M42.6545 44.5251L43.8288 45.2179L43.8655 31.8541L42.6913 31.1137L42.6545 44.5251Z" fill="#98A1A4"/>
<path fill-rule="evenodd" clip-rule="evenodd" d="M45.8366 47.1092L45.8562 47.099L46.2863 46.8939L46.3281 33.4779L45.8799 33.2002L45.8366 47.1092Z" fill="#828C8D"/>
<path fill-rule="evenodd" clip-rule="evenodd" d="M46.3044 46.9049L47.4528 47.5926L47.4513 48.1568L45.8711 47.1187L46.3044 46.9049Z" fill="white"/>
<path fill-rule="evenodd" clip-rule="evenodd" d="M46.2678 46.8981L47.4421 47.5909L47.4788 34.2271L46.3046 33.4866L46.2678 46.8981Z" fill="#98A1A4"/>
<path fill-rule="evenodd" clip-rule="evenodd" d="M49.2856 49.2997L49.3052 49.2895L49.7354 49.0845L49.7772 35.6685L49.329 35.3907L49.2856 49.2997Z" fill="#828C8D"/>
<path fill-rule="evenodd" clip-rule="evenodd" d="M49.7534 49.0956L50.9018 49.7832L50.9003 50.3474L49.3202 49.3093L49.7534 49.0956Z" fill="white"/>
<path fill-rule="evenodd" clip-rule="evenodd" d="M49.7168 49.0886L50.8912 49.7814L50.9278 36.4177L49.7536 35.6772L49.7168 49.0886Z" fill="#98A1A4"/>
<path fill-rule="evenodd" clip-rule="evenodd" d="M52.7348 51.6725L52.7544 51.6623L53.1845 51.4572L53.2263 38.0412L52.7781 37.7635L52.7348 51.6725Z" fill="#828C8D"/>
<path fill-rule="evenodd" clip-rule="evenodd" d="M53.2025 51.4684L54.3509 52.156L54.3494 52.7202L52.7693 51.6821L53.2025 51.4684Z" fill="white"/>
<path fill-rule="evenodd" clip-rule="evenodd" d="M53.166 51.4615L54.3403 52.1543L54.377 38.7905L53.2028 38.05L53.166 51.4615Z" fill="#98A1A4"/>
<path fill-rule="evenodd" clip-rule="evenodd" d="M56.3481 54.0455L56.3677 54.0353L56.7979 53.8303L56.8397 40.4143L56.3915 40.1365L56.3481 54.0455Z" fill="#828C8D"/>
<path fill-rule="evenodd" clip-rule="evenodd" d="M56.8159 53.8413L57.9643 54.5289L57.9628 55.0932L56.3827 54.055L56.8159 53.8413Z" fill="white"/>
<path fill-rule="evenodd" clip-rule="evenodd" d="M56.7795 53.8344L57.9538 54.5272L57.9904 41.1634L56.8162 40.423L56.7795 53.8344Z" fill="#98A1A4"/>
<path fill-rule="evenodd" clip-rule="evenodd" d="M71.3393 47.9391L71.6367 47.8185L71.3396 47.6802L71.3393 47.9391Z" fill="#B3B4B3"/>
<path fill-rule="evenodd" clip-rule="evenodd" d="M65.6784 36.1501L65.6532 54.6793L59.164 59.4344L59.1894 40.7322L65.6784 36.1501Z" fill="#828C8D"/>
<path fill-rule="evenodd" clip-rule="evenodd" d="M71.3252 32.1722L71.2885 50.5093L76.1559 54.2449L76.1725 35.7483L71.3252 32.1722Z" fill="#828C8D"/>
<path fill-rule="evenodd" clip-rule="evenodd" d="M65.3179 41.6641V43.2039L60.4998 46.4981V44.9323L65.3179 41.6641Z" fill="#757D7F"/>
<path fill-rule="evenodd" clip-rule="evenodd" d="M65.1177 43.0923L60.4998 46.2342V46.4981L65.3179 43.2039L65.1177 43.0923Z" fill="#A2ACAE"/>
<path fill-rule="evenodd" clip-rule="evenodd" d="M65.3179 41.6641L65.1096 41.8116V43.0923L65.3179 43.2039V41.6641Z" fill="#A2ACAE"/>
<path fill-rule="evenodd" clip-rule="evenodd" d="M65.3179 49.0732V50.613L60.4998 53.9072V52.3414L65.3179 49.0732Z" fill="#757D7F"/>
<path fill-rule="evenodd" clip-rule="evenodd" d="M65.1177 50.5013L60.4998 53.6432V53.9072L65.3179 50.6129L65.1177 50.5013Z" fill="#A2ACAE"/>
<path fill-rule="evenodd" clip-rule="evenodd" d="M65.3179 49.0732L65.1096 49.2207V50.5014L65.3179 50.613V49.0732Z" fill="#A2ACAE"/>
<path fill-rule="evenodd" clip-rule="evenodd" d="M65.6238 37.4071V53.1792L60.0775 57.1798V41.4426L65.6238 37.4071Z" stroke="#4D4D4D" stroke-width="0.0675227"/>
<path fill-rule="evenodd" clip-rule="evenodd" d="M62.0257 39.48C62.0257 50.5757 62.0257 56.2376 62.0257 56.4657C62.0257 56.8078 62.3402 56.8078 62.3492 56.3308C62.3552 56.0127 62.3552 50.3274 62.3492 39.2748C62.3068 39.1432 62.2375 39.1073 62.1412 39.167C62.045 39.2266 62.0065 39.331 62.0257 39.48Z" fill="white"/>
<path fill-rule="evenodd" clip-rule="evenodd" d="M62.1229 48.1715L60.4236 49.3972C60.3402 49.465 60.2985 49.5401 60.2985 49.6227C60.2985 49.7052 60.3402 49.73 60.4236 49.697L62.1229 48.4754V48.1715Z" fill="white"/>
<path d="M61.9452 48.2701L60.4288 49.3698C60.319 49.4579 60.3074 49.5463 60.3127 49.6142" stroke="#CBCBCB" stroke-width="0.0422017" stroke-linecap="round"/>
<path fill-rule="evenodd" clip-rule="evenodd" d="M61.7973 41.3494L62.3906 40.9515C62.4292 40.9257 62.4797 40.9387 62.5035 40.9806C62.5115 40.9946 62.5158 41.0109 62.5158 41.0274V41.9484C62.5158 41.9796 62.5007 42.0086 62.4762 42.0247L61.8829 42.4145C61.8441 42.44 61.7937 42.4265 61.7702 42.3844C61.7625 42.3705 61.7584 42.3545 61.7584 42.3383V41.4253C61.7584 41.3944 61.7731 41.3656 61.7973 41.3494Z" fill="white"/>
<path d="M61.7816 42.3467V41.4238C61.7816 41.4022 61.7919 41.3821 61.8088 41.3707L62.0323 41.2205C62.1678 41.2265 62.2619 41.2171 62.3149 41.1925C62.3678 41.1678 62.3911 41.1002 62.3848 40.9896L62.409 40.9685" stroke="#CBCBCB" stroke-width="0.0422017" stroke-linecap="round"/>
<path fill-rule="evenodd" clip-rule="evenodd" d="M61.7504 42.3542C61.7492 42.3656 61.7539 42.3794 61.7645 42.3957C61.7751 42.4119 61.7939 42.4228 61.8208 42.4283C61.8152 42.4153 61.8117 42.4029 61.8105 42.3913C61.8092 42.3796 61.8092 42.3672 61.8105 42.3542H61.7504Z" fill="#CBCBCB"/>
<path fill-rule="evenodd" clip-rule="evenodd" d="M62.3941 40.941C62.4233 40.9245 62.4498 40.9245 62.4734 40.941C62.5088 40.9657 62.5191 41.014 62.5191 41.0261C62.5191 41.0383 62.518 40.9985 62.4805 40.9805C62.4668 40.9734 62.4506 40.9776 62.4319 40.9933L62.3941 40.941Z" fill="#CBCBCB"/>
<path fill-rule="evenodd" clip-rule="evenodd" d="M61.799 53.9295L62.3923 53.5316C62.4308 53.5057 62.4814 53.5188 62.5052 53.5607C62.5132 53.5747 62.5174 53.5909 62.5174 53.6075V54.5285C62.5174 54.5597 62.5024 54.5886 62.4778 54.6048L61.8846 54.9946C61.8458 55.0201 61.7954 55.0066 61.7719 54.9645C61.7642 54.9505 61.7601 54.9346 61.7601 54.9183V54.0054C61.7601 53.9744 61.7748 53.9457 61.799 53.9295Z" fill="white"/>
<path opacity="0.499256" d="M61.7806 54.9255V54.0026C61.7806 53.981 61.7909 53.9609 61.8079 53.9495L62.0314 53.7993C62.1668 53.8053 62.261 53.7959 62.314 53.7713C62.3669 53.7466 62.388 53.7079 62.3773 53.6552C62.3746 53.6231 62.3732 53.607 62.3732 53.607C62.3732 53.607 62.3726 53.5952 62.3712 53.5716L62.4081 53.5473" stroke="#979797" stroke-width="0.0422017" stroke-linecap="round"/>
<path fill-rule="evenodd" clip-rule="evenodd" d="M61.7601 54.9315C61.7597 54.9417 61.7648 54.955 61.7753 54.9714C61.7858 54.9878 61.801 54.9995 61.8207 55.0064C61.8091 54.9926 61.8026 54.9798 61.8013 54.968C61.8001 54.9562 61.7994 54.944 61.7992 54.9315H61.7601Z" fill="#CBCBCB"/>
<path fill-rule="evenodd" clip-rule="evenodd" d="M62.4008 53.5259C62.4303 53.5137 62.4568 53.5158 62.4804 53.5323C62.5158 53.557 62.519 53.5981 62.519 53.6034C62.519 53.6087 62.5179 53.5757 62.4804 53.5577C62.4667 53.5506 62.446 53.5539 62.4183 53.5677L62.4008 53.5259Z" fill="#CBCBCB"/>
<path fill-rule="evenodd" clip-rule="evenodd" d="M61.8869 39.9321L62.434 39.5586C62.4579 39.5423 62.4724 39.5138 62.4724 39.4831V39.2081C62.4724 39.1588 62.4357 39.1189 62.3904 39.1189C62.3749 39.1189 62.3598 39.1236 62.3467 39.1326L61.7996 39.5062C61.7757 39.5225 61.7612 39.551 61.7612 39.5817V39.8566C61.7612 39.9058 61.7979 39.9458 61.8432 39.9458C61.8587 39.9458 61.8738 39.941 61.8869 39.9321Z" fill="white"/>
<path opacity="0.499256" d="M61.7786 39.8638V39.5797C61.7786 39.5582 61.7887 39.5382 61.8055 39.5268L62.0279 39.3753C62.1618 39.4022 62.2552 39.4033 62.3082 39.3787C62.3611 39.354 62.3716 39.2929 62.3395 39.1954C62.338 39.1922 62.3358 39.1888 62.3331 39.185C62.3291 39.1794 62.3281 39.1757 62.3281 39.1757C62.3281 39.1757 62.3272 39.1744 62.3255 39.172L62.3657 39.1451" stroke="#979797" stroke-width="0.0422017" stroke-linecap="round"/>
<path fill-rule="evenodd" clip-rule="evenodd" d="M61.7601 39.8671C61.7609 39.8841 61.7667 39.9008 61.7772 39.9173C61.7878 39.9337 61.8068 39.9437 61.834 39.9474C61.8227 39.9388 61.8142 39.9276 61.8084 39.9141C61.8026 39.9005 61.7997 39.8848 61.7996 39.8671H61.7601Z" fill="#CBCBCB"/>
<path fill-rule="evenodd" clip-rule="evenodd" d="M62.3561 39.126C62.3829 39.1133 62.4083 39.1151 62.4324 39.1314C62.4565 39.1478 62.4696 39.1674 62.4715 39.1903C62.4694 39.1797 62.4556 39.1684 62.43 39.1565C62.4161 39.1494 62.3974 39.1531 62.374 39.1674L62.3561 39.126Z" fill="#CBCBCB"/>
<path fill-rule="evenodd" clip-rule="evenodd" d="M61.8858 56.5195L62.4329 56.146C62.4568 56.1296 62.4713 56.1011 62.4713 56.0705V55.7954C62.4713 55.7462 62.4346 55.7062 62.3893 55.7062C62.3738 55.7062 62.3587 55.711 62.3456 55.7199L61.7985 56.0935C61.7746 56.1098 61.7601 56.1383 61.7601 56.169V56.444C61.7601 56.4932 61.7968 56.5331 61.8421 56.5331C61.8576 56.5331 61.8727 56.5284 61.8858 56.5195Z" fill="white"/>
<path opacity="0.499256" d="M61.7803 56.4515V56.1674C61.7803 56.1459 61.7905 56.1259 61.8073 56.1145L62.0296 55.963C62.1636 55.9899 62.257 55.991 62.3099 55.9664C62.3629 55.9417 62.382 55.8639 62.3674 55.7328" stroke="#979797" stroke-width="0.0422017" stroke-linecap="round"/>
<path fill-rule="evenodd" clip-rule="evenodd" d="M61.7601 56.4548C61.7609 56.4718 61.7667 56.4885 61.7772 56.505C61.7878 56.5214 61.8068 56.5315 61.834 56.5352C61.8227 56.5265 61.8142 56.5154 61.8084 56.5018C61.8026 56.4882 61.7997 56.4726 61.7996 56.4548H61.7601Z" fill="#CBCBCB"/>
<path fill-rule="evenodd" clip-rule="evenodd" d="M62.3579 55.7137C62.3846 55.701 62.41 55.7028 62.4342 55.7192C62.4583 55.7355 62.4713 55.7551 62.4732 55.778C62.4712 55.7673 62.4573 55.7561 62.4318 55.7442C62.4178 55.7371 62.3991 55.7408 62.3757 55.755L62.3579 55.7137Z" fill="#CBCBCB"/>
<path fill-rule="evenodd" clip-rule="evenodd" d="M61.9762 48.0904L61.8439 48.1959C61.7912 48.2379 61.7601 48.3046 61.7601 48.3756V48.8839C61.7601 48.9085 61.7785 48.9285 61.8012 48.9285C61.8095 48.9285 61.8177 48.9257 61.8245 48.9205L61.9885 48.7971C62.0217 48.7721 62.0415 48.731 62.0415 48.6872V48.1264C62.0415 48.1017 62.0231 48.0818 62.0004 48.0818C61.9917 48.0818 61.9832 48.0848 61.9762 48.0904V48.0904Z" fill="white"/>
<path fill-rule="evenodd" clip-rule="evenodd" d="M61.9031 48.6535C61.9283 48.6535 61.939 48.5871 61.939 48.5367C61.939 48.4864 61.9214 48.4352 61.8962 48.4352C61.871 48.4352 61.8585 48.5057 61.8585 48.5561C61.8585 48.6064 61.8779 48.6535 61.9031 48.6535Z" fill="#E6E6E6"/>
<path fill-rule="evenodd" clip-rule="evenodd" d="M61.2683 48.5037C61.2683 48.4352 61.2085 48.3861 61.1227 48.421C61.0655 48.4443 61.0327 48.5162 61.0245 48.6368V49.4878C61.0518 49.549 61.1022 49.5661 61.1756 49.5389C61.249 49.5118 61.2799 49.4442 61.2683 49.3363C61.2683 48.8269 61.2683 48.5493 61.2683 48.5037Z" fill="white"/>
<path fill-rule="evenodd" clip-rule="evenodd" d="M61.1617 48.7159C61.1404 48.7159 61.1316 48.6881 61.1316 48.6712C61.1316 48.6544 61.1397 48.6174 61.1613 48.6174C61.183 48.6174 61.1918 48.6479 61.1918 48.6712C61.1918 48.6945 61.183 48.7159 61.1617 48.7159Z" fill="#E6E6E6"/>
<path fill-rule="evenodd" clip-rule="evenodd" d="M61.1617 49.4451C61.1404 49.4451 61.1316 49.4173 61.1316 49.4004C61.1316 49.3835 61.1397 49.3466 61.1613 49.3466C61.183 49.3466 61.1918 49.3771 61.1918 49.4004C61.1918 49.4237 61.183 49.4451 61.1617 49.4451Z" fill="#E6E6E6"/>
<path d="M61.053 49.5179C61.044 49.5076 61.0385 49.4979 61.0349 49.4908C61.0328 49.4865 61.0298 49.4741 61.0258 49.4534L61.0258 49.4534C61.0248 49.4481 61.0244 49.4427 61.0247 49.4374L61.0325 49.2724C61.0951 49.2245 61.1254 49.1654 61.1234 49.0951C61.1215 49.0248 61.0912 48.9776 61.0326 48.9536L61.0327 48.625" stroke="#CBCBCB" stroke-width="0.0424809" stroke-linecap="round"/>
<path fill-rule="evenodd" clip-rule="evenodd" d="M61.0218 48.6227C61.0244 48.568 61.0345 48.5237 61.0521 48.4899C61.0696 48.4561 61.0956 48.4324 61.13 48.4188C61.1029 48.4372 61.0816 48.4651 61.066 48.5023C61.0503 48.5395 61.0427 48.5804 61.0432 48.6252L61.0218 48.6227Z" fill="#CBCBCB"/>
<path fill-rule="evenodd" clip-rule="evenodd" d="M61.0477 49.5272C61.053 49.5313 61.0609 49.5361 61.0713 49.5416C61.0818 49.5471 61.0938 49.5498 61.1076 49.5498C61.096 49.5443 61.087 49.5386 61.0808 49.5329C61.0745 49.5273 61.068 49.5201 61.0612 49.5115L61.0477 49.5272Z" fill="#CBCBCB"/>
<path fill-rule="evenodd" clip-rule="evenodd" d="M61.9087 47.8291C61.8438 47.8566 61.8274 47.9194 61.8593 48.0174C61.8831 48.0903 61.9322 48.1145 62.0066 48.0901L62.6245 47.6936C62.6839 47.6411 62.696 47.5723 62.661 47.4872C62.626 47.4021 62.5647 47.3928 62.4772 47.4592L61.9087 47.8291Z" fill="white"/>
<path fill-rule="evenodd" clip-rule="evenodd" d="M62.0181 47.9397C62.0373 47.9735 62.0253 48.0014 62.013 48.0098C62.0008 48.0182 61.9667 48.0236 61.9471 47.9892C61.9274 47.9547 61.9415 47.9256 61.9584 47.914C61.9753 47.9025 61.9988 47.9059 62.0181 47.9397Z" fill="#F2F2F2"/>
<path fill-rule="evenodd" clip-rule="evenodd" d="M62.6045 47.5599C62.6238 47.5937 62.6117 47.6216 62.5995 47.63C62.5873 47.6383 62.5532 47.6438 62.5335 47.6093C62.5139 47.5749 62.528 47.5458 62.5448 47.5342C62.5617 47.5227 62.5852 47.5261 62.6045 47.5599Z" fill="#F2F2F2"/>
<path d="M61.7978 47.96C61.8009 47.9461 61.8054 47.9358 61.809 47.9287C61.8111 47.9245 61.8192 47.9149 61.8332 47.8999L61.8332 47.8999C61.8364 47.8965 61.8399 47.8935 61.8437 47.891L62.0296 47.7685C62.1704 47.7761 62.262 47.7676 62.3044 47.7431C62.3468 47.7185 62.3659 47.6627 62.3615 47.5756V47.5444L62.4725 47.4677" stroke="#CBCBCB" stroke-width="0.0422017" stroke-linecap="round"/>
<path fill-rule="evenodd" clip-rule="evenodd" d="M61.7878 47.9582C61.7833 47.9826 61.7848 48.005 61.7924 48.0253C61.8039 48.0557 61.8289 48.0557 61.8289 48.0557C61.8289 48.0557 61.8155 48.0404 61.8097 48.0181C61.8058 48.0033 61.8058 47.9825 61.8097 47.9556L61.7878 47.9582Z" fill="#CBCBCB"/>
<path fill-rule="evenodd" clip-rule="evenodd" d="M62.4651 47.4609C62.5018 47.4389 62.5303 47.4372 62.5505 47.4558C62.5809 47.4837 62.5768 47.5333 62.5726 47.5479C62.5685 47.5624 62.5924 47.4911 62.5464 47.4661C62.5311 47.4578 62.5064 47.464 62.4724 47.4848L62.4651 47.4609Z" fill="#CBCBCB"/>
<path fill-rule="evenodd" clip-rule="evenodd" d="M61.7602 48.4322L61.7268 48.4037V48.3456C61.7331 48.2991 61.7497 48.2634 61.7767 48.2388C61.8037 48.2141 61.8681 48.1598 61.9699 48.076C61.9793 48.0688 61.9882 48.0675 61.9965 48.072C62.0089 48.0789 62.0261 48.0912 62.0283 48.0938C62.0305 48.0965 62.0174 48.0883 62.0087 48.0865C62 48.0847 61.9912 48.0914 61.9879 48.0938C61.9845 48.0963 61.8339 48.2207 61.8024 48.2529C61.771 48.2851 61.7602 48.3478 61.7602 48.3634C61.7602 48.3737 61.7602 48.3967 61.7602 48.4322V48.4322Z" fill="#CBCBCB"/>
<path fill-rule="evenodd" clip-rule="evenodd" d="M62.0091 56.1518C61.9628 56.1518 61.8725 56.1937 61.8725 56.3056C61.8725 56.4175 62.028 56.3897 62.0671 56.3522C62.0849 56.3351 62.0868 56.2735 62.0846 56.2438C62.0812 56.1957 62.0376 56.1518 62.0091 56.1518Z" fill="#D8D8D8"/>
<path fill-rule="evenodd" clip-rule="evenodd" d="M62.3648 55.9843C62.3648 55.9843 62.4194 55.8885 62.4296 55.9668C62.4399 56.0451 62.3879 56.1861 62.3734 56.136C62.3589 56.0859 62.3648 55.9843 62.3648 55.9843L62.3648 55.9843Z" fill="#D8D8D8"/>
<path fill-rule="evenodd" clip-rule="evenodd" d="M60.2943 49.6175L60.3357 49.6143C60.337 49.644 60.3432 49.6651 60.3542 49.6776C60.3652 49.6901 60.3852 49.6986 60.4142 49.7032C60.3702 49.7155 60.3396 49.7155 60.3226 49.7032C60.3055 49.6908 60.296 49.6623 60.2943 49.6175Z" fill="#CBCBCB"/>
<path fill-rule="evenodd" clip-rule="evenodd" d="M61.7978 48.9284C61.7764 48.9284 61.7628 48.9272 61.757 48.9248C61.7511 48.9224 61.7433 48.9138 61.7336 48.899V48.7559L61.7594 48.7351V48.8898C61.7617 48.9023 61.7665 48.9118 61.7739 48.9184C61.7813 48.925 61.7893 48.9284 61.7978 48.9284V48.9284Z" fill="#CBCBCB"/>
<path fill-rule="evenodd" clip-rule="evenodd" d="M64.3255 37.8403C64.3255 48.936 64.3255 54.5979 64.3255 54.8259C64.3255 55.168 64.64 55.168 64.649 54.691C64.655 54.373 64.655 48.6876 64.649 37.635C64.6066 37.5035 64.5373 37.4675 64.441 37.5272C64.3448 37.5869 64.3063 37.6912 64.3255 37.8403Z" fill="white"/>
<path fill-rule="evenodd" clip-rule="evenodd" d="M64.4211 46.532L62.7217 47.7577C62.6383 47.8254 62.5966 47.9006 62.5966 47.9831C62.5966 48.0657 62.6383 48.0905 62.7217 48.0575L64.4211 46.8358V46.532Z" fill="white"/>
<path d="M64.2454 46.6306L62.7291 47.7303C62.6192 47.8184 62.6076 47.9068 62.6129 47.9747" stroke="#CBCBCB" stroke-width="0.0422017" stroke-linecap="round"/>
<path fill-rule="evenodd" clip-rule="evenodd" d="M64.0952 39.7107L64.6885 39.3129C64.727 39.287 64.7776 39.3 64.8014 39.3419C64.8094 39.356 64.8136 39.3722 64.8136 39.3887V40.3097C64.8136 40.341 64.7986 40.3699 64.774 40.386L64.1807 40.7759C64.1419 40.8013 64.0915 40.7878 64.0681 40.7457C64.0603 40.7318 64.0562 40.7158 64.0562 40.6996V39.7866C64.0562 39.7557 64.071 39.727 64.0952 39.7107Z" fill="white"/>
<path d="M64.0797 40.7062V39.7832C64.0797 39.7616 64.09 39.7415 64.1069 39.7302L64.3305 39.5799C64.4659 39.5859 64.5601 39.5766 64.613 39.5519C64.666 39.5273 64.6893 39.4596 64.683 39.3491L64.7071 39.3279" stroke="#CBCBCB" stroke-width="0.0422017" stroke-linecap="round"/>
<path fill-rule="evenodd" clip-rule="evenodd" d="M64.0486 40.7136C64.0474 40.725 64.0521 40.7388 64.0627 40.7551C64.0733 40.7713 64.092 40.7822 64.119 40.7877C64.1134 40.7747 64.1099 40.7623 64.1087 40.7506C64.1074 40.7389 64.1074 40.7266 64.1087 40.7136H64.0486Z" fill="#CBCBCB"/>
<path fill-rule="evenodd" clip-rule="evenodd" d="M64.6923 39.3004C64.7215 39.284 64.7479 39.284 64.7715 39.3004C64.8069 39.3252 64.8172 39.3734 64.8172 39.3856C64.8172 39.3977 64.8161 39.3579 64.7786 39.3399C64.7649 39.3328 64.7487 39.3371 64.7301 39.3527L64.6923 39.3004Z" fill="#CBCBCB"/>
<path fill-rule="evenodd" clip-rule="evenodd" d="M64.097 52.289L64.6903 51.8911C64.7288 51.8652 64.7794 51.8782 64.8032 51.9201C64.8112 51.9342 64.8154 51.9504 64.8154 51.967V52.888C64.8154 52.9192 64.8004 52.9481 64.7758 52.9643L64.1826 53.3541C64.1438 53.3796 64.0933 53.3661 64.0699 53.324C64.0621 53.3101 64.058 53.2941 64.058 53.2778V52.3649C64.058 52.3339 64.0728 52.3052 64.097 52.289Z" fill="white"/>
<path opacity="0.499256" d="M64.0786 53.2851V52.3622C64.0786 52.3405 64.0889 52.3204 64.1058 52.3091L64.3294 52.1589C64.4648 52.1648 64.559 52.1555 64.6119 52.1308C64.6649 52.1062 64.686 52.0675 64.6753 52.0148C64.6726 51.9827 64.6712 51.9666 64.6712 51.9666C64.6712 51.9666 64.6706 51.9548 64.6692 51.9311L64.706 51.9069" stroke="#979797" stroke-width="0.0422017" stroke-linecap="round"/>
<path fill-rule="evenodd" clip-rule="evenodd" d="M64.0581 53.2911C64.0577 53.3012 64.0628 53.3145 64.0733 53.331C64.0838 53.3474 64.099 53.359 64.1187 53.366C64.107 53.3521 64.1006 53.3393 64.0993 53.3275C64.0981 53.3157 64.0974 53.3036 64.0971 53.2911H64.0581Z" fill="#CBCBCB"/>
<path fill-rule="evenodd" clip-rule="evenodd" d="M64.6989 51.8854C64.7283 51.8732 64.7548 51.8753 64.7784 51.8918C64.8138 51.9165 64.8171 51.9576 64.8171 51.9629C64.8171 51.9682 64.8159 51.9352 64.7784 51.9172C64.7648 51.9101 64.744 51.9134 64.7163 51.9272L64.6989 51.8854Z" fill="#CBCBCB"/>
<path fill-rule="evenodd" clip-rule="evenodd" d="M64.1838 38.2919L64.731 37.9183C64.7549 37.902 64.7694 37.8735 64.7694 37.8429V37.5678C64.7694 37.5186 64.7326 37.4786 64.6873 37.4786C64.6719 37.4786 64.6567 37.4834 64.6437 37.4923L64.0965 37.8659C64.0726 37.8822 64.0581 37.9107 64.0581 37.9414V38.2164C64.0581 38.2656 64.0948 38.3055 64.1402 38.3055C64.1556 38.3055 64.1707 38.3008 64.1838 38.2919Z" fill="white"/>
<path opacity="0.499256" d="M64.0788 38.223V37.9389C64.0788 37.9174 64.089 37.8974 64.1057 37.886L64.3281 37.7345C64.462 37.7614 64.5555 37.7625 64.6084 37.7379C64.6614 37.7132 64.6718 37.6521 64.6397 37.5546C64.6382 37.5514 64.6361 37.548 64.6334 37.5442C64.6293 37.5386 64.6283 37.5348 64.6283 37.5348C64.6283 37.5348 64.6274 37.5336 64.6258 37.5311L64.6659 37.5043" stroke="#979797" stroke-width="0.0422017" stroke-linecap="round"/>
<path fill-rule="evenodd" clip-rule="evenodd" d="M64.0581 38.2275C64.059 38.2448 64.0648 38.2617 64.0754 38.2783C64.0861 38.2948 64.1052 38.305 64.1327 38.3088C64.1213 38.3 64.1127 38.2888 64.1068 38.2751C64.101 38.2613 64.098 38.2455 64.098 38.2275H64.0581Z" fill="#CBCBCB"/>
<path fill-rule="evenodd" clip-rule="evenodd" d="M64.6559 37.4862C64.6826 37.4735 64.708 37.4753 64.7321 37.4917C64.7563 37.508 64.7693 37.5276 64.7712 37.5506C64.7691 37.5399 64.7553 37.5286 64.7298 37.5167C64.7158 37.5097 64.6971 37.5133 64.6737 37.5276L64.6559 37.4862Z" fill="#CBCBCB"/>
<path fill-rule="evenodd" clip-rule="evenodd" d="M64.1838 54.8789L64.731 54.5054C64.7549 54.4891 64.7694 54.4606 64.7694 54.43V54.1549C64.7694 54.1057 64.7326 54.0657 64.6873 54.0657C64.6719 54.0657 64.6567 54.0705 64.6437 54.0794L64.0965 54.453C64.0726 54.4693 64.0581 54.4978 64.0581 54.5285V54.8035C64.0581 54.8527 64.0948 54.8926 64.1402 54.8926C64.1556 54.8926 64.1707 54.8879 64.1838 54.8789Z" fill="white"/>
<path opacity="0.499256" d="M64.0784 54.811V54.5269C64.0784 54.5054 64.0885 54.4854 64.1053 54.474L64.3277 54.3225C64.4616 54.3494 64.555 54.3505 64.608 54.3259C64.6609 54.3012 64.6801 54.2234 64.6655 54.0923" stroke="#979797" stroke-width="0.0422017" stroke-linecap="round"/>
<path fill-rule="evenodd" clip-rule="evenodd" d="M64.0581 54.8143C64.059 54.8315 64.0648 54.8484 64.0754 54.865C64.0861 54.8816 64.1052 54.8917 64.1327 54.8955C64.1213 54.8867 64.1127 54.8755 64.1068 54.8618C64.101 54.8481 64.098 54.8322 64.098 54.8143H64.0581Z" fill="#CBCBCB"/>
<path fill-rule="evenodd" clip-rule="evenodd" d="M64.6559 54.0732C64.6826 54.0605 64.708 54.0623 64.7321 54.0787C64.7563 54.095 64.7693 54.1146 64.7712 54.1375C64.7691 54.1269 64.7553 54.1156 64.7298 54.1037C64.7158 54.0967 64.6971 54.1003 64.6737 54.1146L64.6559 54.0732Z" fill="#CBCBCB"/>
<path fill-rule="evenodd" clip-rule="evenodd" d="M64.2742 46.4499L64.142 46.5553C64.0893 46.5973 64.0582 46.664 64.0582 46.735V47.2433C64.0582 47.268 64.0766 47.2879 64.0993 47.2879C64.1076 47.2879 64.1158 47.2852 64.1226 47.28L64.2866 47.1565C64.3198 47.1315 64.3395 47.0905 64.3395 47.0466V46.4858C64.3395 46.4612 64.3212 46.4412 64.2985 46.4412C64.2898 46.4412 64.2813 46.4442 64.2742 46.4499V46.4499Z" fill="white"/>
<path fill-rule="evenodd" clip-rule="evenodd" d="M64.2012 47.013C64.2264 47.013 64.2371 46.9466 64.2371 46.8962C64.2371 46.8459 64.2196 46.7947 64.1944 46.7947C64.1691 46.7947 64.1566 46.8652 64.1566 46.9156C64.1566 46.9659 64.176 47.013 64.2012 47.013Z" fill="#E6E6E6"/>
<path fill-rule="evenodd" clip-rule="evenodd" d="M63.5664 46.8631C63.5664 46.7946 63.5065 46.7456 63.4207 46.7805C63.3635 46.8037 63.3308 46.8757 63.3225 46.9962V47.8472C63.3499 47.9085 63.4003 47.9255 63.4737 47.8984C63.5471 47.8712 63.578 47.8037 63.5664 47.6957C63.5664 47.1863 63.5664 46.9088 63.5664 46.8631Z" fill="white"/>
<path fill-rule="evenodd" clip-rule="evenodd" d="M63.4597 47.0753C63.4385 47.0753 63.4296 47.0475 63.4296 47.0307C63.4296 47.0138 63.4377 46.9769 63.4593 46.9769C63.481 46.9769 63.4898 47.0074 63.4898 47.0307C63.4898 47.0539 63.481 47.0753 63.4597 47.0753Z" fill="#E6E6E6"/>
<path fill-rule="evenodd" clip-rule="evenodd" d="M63.4597 47.8045C63.4385 47.8045 63.4296 47.7767 63.4296 47.7598C63.4296 47.743 63.4377 47.7061 63.4593 47.7061C63.481 47.7061 63.4898 47.7365 63.4898 47.7598C63.4898 47.7831 63.481 47.8045 63.4597 47.8045Z" fill="#E6E6E6"/>
<path d="M63.3511 47.8773C63.342 47.867 63.3365 47.8573 63.333 47.8502C63.3309 47.846 63.3278 47.8335 63.3239 47.8128L63.3239 47.8128C63.3228 47.8075 63.3225 47.8022 63.3227 47.7968L63.3306 47.6318C63.3931 47.5839 63.4234 47.5248 63.4215 47.4545C63.4196 47.3842 63.3893 47.3371 63.3306 47.313L63.3307 46.9845" stroke="#CBCBCB" stroke-width="0.0424809" stroke-linecap="round"/>
<path fill-rule="evenodd" clip-rule="evenodd" d="M63.3198 46.9822C63.3224 46.9275 63.3325 46.8832 63.3501 46.8494C63.3677 46.8156 63.3937 46.7919 63.4281 46.7783C63.401 46.7967 63.3797 46.8246 63.364 46.8618C63.3484 46.899 63.3408 46.9399 63.3412 46.9847L63.3198 46.9822Z" fill="#CBCBCB"/>
<path fill-rule="evenodd" clip-rule="evenodd" d="M63.3458 47.8867C63.3512 47.8908 63.3591 47.8956 63.3695 47.9011C63.3799 47.9066 63.392 47.9093 63.4057 47.9093C63.3941 47.9038 63.3852 47.8981 63.3789 47.8924C63.3726 47.8868 63.3661 47.8796 63.3594 47.871L63.3458 47.8867Z" fill="#CBCBCB"/>
<path fill-rule="evenodd" clip-rule="evenodd" d="M64.2068 46.1886C64.1419 46.2161 64.1254 46.2789 64.1574 46.3769C64.1811 46.4498 64.2302 46.4741 64.3047 46.4497L64.9226 46.0532C64.9819 46.0007 64.994 45.9319 64.959 45.8468C64.924 45.7617 64.8627 45.7524 64.7752 45.8188L64.2068 46.1886Z" fill="white"/>
<path fill-rule="evenodd" clip-rule="evenodd" d="M64.3161 46.2992C64.3354 46.3331 64.3233 46.361 64.3111 46.3693C64.2989 46.3777 64.2647 46.3832 64.2451 46.3487C64.2255 46.3143 64.2396 46.2851 64.2564 46.2736C64.2733 46.262 64.2968 46.2654 64.3161 46.2992Z" fill="#F2F2F2"/>
<path fill-rule="evenodd" clip-rule="evenodd" d="M64.9026 45.9193C64.9219 45.9531 64.9098 45.981 64.8975 45.9894C64.8853 45.9978 64.8512 46.0032 64.8316 45.9688C64.8119 45.9344 64.826 45.9052 64.8429 45.8937C64.8598 45.8821 64.8832 45.8855 64.9026 45.9193Z" fill="#F2F2F2"/>
<path d="M64.0959 46.3194C64.099 46.3055 64.1035 46.2952 64.1071 46.2882C64.1092 46.2839 64.1173 46.2743 64.1313 46.2594L64.1313 46.2594C64.1345 46.2559 64.138 46.253 64.1418 46.2504L64.3277 46.1279C64.4685 46.1355 64.5601 46.1271 64.6025 46.1025C64.645 46.078 64.664 46.0222 64.6596 45.9351V45.9039L64.7706 45.8271" stroke="#CBCBCB" stroke-width="0.0422017" stroke-linecap="round"/>
<path fill-rule="evenodd" clip-rule="evenodd" d="M64.0858 46.3176C64.0813 46.342 64.0829 46.3644 64.0905 46.3847C64.1019 46.4151 64.1269 46.4151 64.1269 46.4151C64.1269 46.4151 64.1135 46.3998 64.1077 46.3776C64.1038 46.3627 64.1038 46.3419 64.1077 46.315L64.0858 46.3176Z" fill="#CBCBCB"/>
<path fill-rule="evenodd" clip-rule="evenodd" d="M64.7632 45.8204C64.7999 45.7983 64.8283 45.7966 64.8486 45.8152C64.8789 45.8432 64.8749 45.8928 64.8707 45.9073C64.8665 45.9218 64.8904 45.8505 64.8444 45.8255C64.8292 45.8172 64.8045 45.8234 64.7704 45.8442L64.7632 45.8204Z" fill="#CBCBCB"/>
<path fill-rule="evenodd" clip-rule="evenodd" d="M64.0582 46.7917L64.0248 46.7632V46.7051C64.0311 46.6586 64.0478 46.6229 64.0747 46.5983C64.1017 46.5736 64.1661 46.5193 64.2679 46.4354C64.2774 46.4283 64.2863 46.427 64.2945 46.4315C64.307 46.4384 64.3242 46.4507 64.3264 46.4533C64.3285 46.456 64.3154 46.4478 64.3067 46.446C64.298 46.4442 64.2893 46.4509 64.2859 46.4533C64.2826 46.4558 64.1319 46.5802 64.1005 46.6124C64.069 46.6446 64.0582 46.7073 64.0582 46.7229C64.0582 46.7332 64.0582 46.7562 64.0582 46.7917V46.7917Z" fill="#CBCBCB"/>
<path fill-rule="evenodd" clip-rule="evenodd" d="M64.3072 54.5113C64.2609 54.5113 64.1706 54.5532 64.1706 54.6651C64.1706 54.7771 64.3262 54.7492 64.3652 54.7117C64.383 54.6946 64.3849 54.633 64.3827 54.6033C64.3793 54.5552 64.3357 54.5113 64.3072 54.5113Z" fill="#D8D8D8"/>
<path fill-rule="evenodd" clip-rule="evenodd" d="M64.6629 54.3438C64.6629 54.3438 64.7175 54.248 64.7277 54.3263C64.738 54.4046 64.686 54.5455 64.6715 54.4955C64.657 54.4454 64.6629 54.3438 64.6629 54.3438L64.6629 54.3438Z" fill="#D8D8D8"/>
<path fill-rule="evenodd" clip-rule="evenodd" d="M62.5923 47.9779L62.6338 47.9747C62.6351 48.0044 62.6413 48.0255 62.6523 48.038C62.6633 48.0505 62.6833 48.059 62.7122 48.0636C62.6683 48.0759 62.6377 48.0759 62.6206 48.0636C62.6036 48.0512 62.5941 48.0227 62.5923 47.9779Z" fill="#CBCBCB"/>
<path fill-rule="evenodd" clip-rule="evenodd" d="M64.096 47.288C64.0746 47.288 64.061 47.2868 64.0551 47.2844C64.0493 47.282 64.0415 47.2734 64.0318 47.2586V47.1154L64.0576 47.0947V47.2494C64.0598 47.2618 64.0647 47.2713 64.0721 47.2779C64.0795 47.2845 64.0875 47.2879 64.096 47.288V47.288Z" fill="#CBCBCB"/>
</g>
<path d="M61.9417 63.4367C72.1418 63.4367 80.4106 54.452 80.4106 43.3687C80.4106 32.2855 72.1418 23.3008 61.9417 23.3008C51.7416 23.3008 43.4728 32.2855 43.4728 43.3687C43.4728 54.452 51.7416 63.4367 61.9417 63.4367Z" stroke="white" stroke-width="0.135045"/>
<defs>
<linearGradient id="paint0_linear" x1="116.034" y1="73.1737" x2="114.868" y2="74.6131" gradientUnits="userSpaceOnUse">
<stop stop-color="#D3D7CF"/>
<stop offset="1" stop-color="#888A85"/>
</linearGradient>
<linearGradient id="paint1_linear" x1="100.252" y1="59.6602" x2="103.822" y2="64.2289" gradientUnits="userSpaceOnUse">
<stop stop-color="#D3D7CF"/>
<stop offset="1"/>
</linearGradient>
<linearGradient id="paint2_linear" x1="105.378" y1="63.451" x2="108.948" y2="68.0197" gradientUnits="userSpaceOnUse">
<stop stop-color="#D3D7CF"/>
<stop offset="1"/>
</linearGradient>
<linearGradient id="paint3_linear" x1="123.78" y1="76.494" x2="127.35" y2="81.0627" gradientUnits="userSpaceOnUse">
<stop stop-color="#D3D7CF"/>
<stop offset="1"/>
</linearGradient>
</defs>
</svg>
