<?xml version="1.0" encoding="UTF-8" standalone="no"?>
<svg
   xmlns:dc="http://purl.org/dc/elements/1.1/"
   xmlns:cc="http://creativecommons.org/ns#"
   xmlns:rdf="http://www.w3.org/1999/02/22-rdf-syntax-ns#"
   xmlns:svg="http://www.w3.org/2000/svg"
   xmlns="http://www.w3.org/2000/svg"
   xmlns:sodipodi="http://sodipodi.sourceforge.net/DTD/sodipodi-0.dtd"
   xmlns:inkscape="http://www.inkscape.org/namespaces/inkscape"
   width="82"
   height="105"
   viewBox="0 0 82 105"
   version="1.1"
   id="svg18"
   sodipodi:docname="door_active.svg"
   inkscape:version="0.92.3 (2405546, 2018-03-11)">
  <metadata
     id="metadata24">
    <rdf:RDF>
      <cc:Work
         rdf:about="">
        <dc:format>image/svg+xml</dc:format>
        <dc:type
           rdf:resource="http://purl.org/dc/dcmitype/StillImage" />
        <dc:title>AC41594C-963E-4CBA-AD03-8A3803AB26B5</dc:title>
      </cc:Work>
    </rdf:RDF>
  </metadata>
  <defs
     id="defs22" />
  <sodipodi:namedview
     pagecolor="#000000"
     bordercolor="#666666"
     borderopacity="1"
     objecttolerance="10"
     gridtolerance="10"
     guidetolerance="10"
     inkscape:pageopacity="0"
     inkscape:pageshadow="2"
     inkscape:window-width="1920"
     inkscape:window-height="997"
     id="namedview20"
     showgrid="false"
     inkscape:zoom="10.23243"
     inkscape:cx="24.411381"
     inkscape:cy="69.302972"
     inkscape:window-x="0"
     inkscape:window-y="25"
     inkscape:window-maximized="1"
     inkscape:current-layer="svg18" />
  <g
     id="2-container-3-forms"
     style="fill:none;fill-rule:evenodd;stroke:none;stroke-width:1"
     transform="translate(0.44315334,0.07162107)">
    <g
       id="14.Dry1_HLT_Door_Damfrm_fill-Copy"
       transform="translate(-255,-642)">
      <g
         id="Group-15"
         transform="translate(257,644)">
        <g
           id="Group-14">
          <g
             id="Group-3">
            <circle
               id="Oval"
               cx="39"
               cy="39"
               r="39"
               style="fill:#545961;fill-opacity:0.51819278;stroke:#ffffff;stroke-width:2.39999986" />
            <path
               d="m 34.999943,12.043027 -3.835094,25.885695 c -8.15e-4,0.0089 -0.01059,0.0089 -0.01629,0.01448 -0.0041,0.004 0,0.01207 -0.0057,0.01448 l -18.089852,8.039096 c -0.0049,0.0024 -0.01059,0.0032 -0.01547,0.0032 -0.0033,0 -0.0073,0 -0.01059,-8.05e-4 -0.0041,-8.04e-4 -0.0024,-0.0064 -0.0049,-0.008 -0.0073,-0.004 -0.01629,-0.0056 -0.01955,-0.01287 -0.0024,-0.0056 0.0049,-0.0088 0.0049,-0.01368 -0.0016,-0.0056 -0.0081,-0.008 -0.0073,-0.01287 l 6.786545,-23.585478 c 0.0016,-0.0056 0.0098,-0.0032 0.01303,-0.0072 0.0024,-0.004 -0.0024,-0.01046 0.0024,-0.01368 L 34.939676,12.006822 c 0.0049,-0.004 0.0098,0.0032 0.01547,0.0024 0.0049,-0.0016 0.0065,-0.01126 0.01222,-0.0089 0.0065,8.05e-4 0.0049,0.0097 0.0098,0.01287 0.0057,0.0024 0.01303,-0.0032 0.01629,0.0024 0.0033,0.0048 -0.0033,0.0097 -0.0024,0.01529 0.0016,0.0048 0.0098,0.0064 0.009,0.01207 z"
               id="Shape"
               inkscape:connector-curvature="0"
               style="fill:#ffffff;fill-rule:nonzero" />
            <path
               d="m 62.609098,31.956153 c -0.0048,-0.04848 -0.01913,-0.09458 -0.04303,-0.137493 -0.02391,-0.0453 -0.05738,-0.08424 -0.09722,-0.116034 L 61.922185,31.263128 35.548575,10.059124 c -0.01753,-0.01033 -0.03586,-0.01987 -0.05499,-0.02861 -0.02072,-0.0087 -0.03984,-0.01907 -0.06136,-0.02384 -0.02311,-0.0056 -0.04702,-0.0048 -0.07092,-0.0056 -0.02391,-7.95e-4 -0.04702,-0.00238 -0.07092,7.95e-4 -0.02152,0.004 -0.04144,0.01192 -0.06216,0.01907 -0.0255,0.0087 -0.0502,0.01748 -0.07331,0.03179 -0.0056,0.0032 -0.01275,0.004 -0.01753,0.0079 L 18.40286,21.598934 c -0.01514,0.0095 -0.02231,0.02464 -0.03506,0.03576 -0.01912,0.01669 -0.03745,0.03338 -0.05259,0.05484 -0.01594,0.02146 -0.0255,0.0453 -0.03586,0.06914 -0.0064,0.0159 -0.01753,0.02782 -0.02231,0.04371 l -7.242861,25.41381 c -0.05499,0.193125 0.05498,0.391813 0.244643,0.453009 L 46.100888,58.981721 C 46.137545,58.992052 46.175795,59 46.215639,59 c 0.02709,0 0.05498,-0.0032 0.08208,-0.0087 L 64.70968,54.877659 c 0.01753,-0.004 0.03187,-0.0159 0.04861,-0.02146 0.02391,-0.0087 0.04702,-0.01669 0.06773,-0.0302 0.02072,-0.01272 0.03745,-0.0294 0.05419,-0.0453 0.01753,-0.01669 0.03427,-0.03179 0.04861,-0.05086 0.01434,-0.01907 0.02311,-0.04053 0.03347,-0.06278 0.01036,-0.02146 0.01992,-0.04133 0.0255,-0.06517 0.0064,-0.02464 0.0064,-0.04928 0.0072,-0.07471 0,-0.01748 0.0064,-0.03338 0.0048,-0.05166 z M 61.315758,30.77515 44.514296,17.262763 Z M 44.250528,17.050564 36.843509,11.093097 Z m -7.752866,-6.23563 -0.729944,-0.586528 z M 18.93438,22.135392 35.125431,10.9715 31.112333,38.318943 11.860458,46.955522 Z M 46.234764,58.242601 12.060475,47.151826 31.229474,38.552601 63.883312,54.299037 Z M 31.374507,38.332454 35.401949,10.889641 61.883935,32.18822 64.217206,54.170287 Z"
               id="path8"
               inkscape:connector-curvature="0"
               style="fill:#ffffff;fill-rule:nonzero;stroke:#ffffff;stroke-width:0.79999995" />
            <path
               d="m 27.24084,25.712214 -0.420388,0.119552 0.219816,-1.178544 0.415339,-0.118373 0.766761,-4.203431 c 0.03581,-0.196342 0.201921,-0.332854 0.387865,-0.331395 l 0.07044,0.0072 c 0.189177,0.03717 0.320707,0.209569 0.319302,0.402555 l -0.0069,0.07311 -0.695357,3.811989 0.585313,-0.166816 -0.287814,1.199023 -0.512366,0.145709 -1.304058,7.148922 c 0.155041,0.05177 0.268578,0.201167 0.271937,0.379634 0.0038,0.199792 -0.131824,0.368771 -0.3141,0.406939 l -0.07036,0.008 -0.03345,0.0057 -0.774646,4.246658 c -0.04029,0.220885 -0.245484,0.366047 -0.458308,0.324229 -0.189177,-0.03717 -0.320707,-0.20957 -0.319302,-0.402556 l 0.0069,-0.07311 0.721447,-3.955015 -0.40905,0.06961 c -0.216564,0.0044 -0.395553,-0.174258 -0.399784,-0.399024 -0.0038,-0.199791 0.131825,-0.36877 0.314101,-0.406939 l 0.07036,-0.008 0.578095,-0.09837 z"
               id="Combined-Shape"
               inkscape:connector-curvature="0"
               style="fill:#595f66;fill-rule:nonzero" />
            <path
               d="m 22.132151,26.624994 -0.469766,0.11166 0.341384,-1.270581 0.433252,-0.09873 0.740318,-3.053957 c 0.04714,-0.194457 0.229853,-0.32302 0.427232,-0.312822 l 0.07447,0.01047 c 0.199156,0.04603 0.330826,0.224429 0.320382,0.417151 l -0.01072,0.07271 -0.644765,2.659782 0.523418,-0.119275 -0.303523,1.243287 -0.522475,0.124189 -2.080502,8.582477 0.715887,-0.130378 c 0.230197,-0.0044 0.420454,0.174258 0.424952,0.399023 0.004,0.199791 -0.140124,0.36877 -0.333875,0.406938 l -0.07479,0.008 -0.939349,0.171074 -0.931013,3.840609 c -0.05303,0.218764 -0.27765,0.354131 -0.5017,0.302351 -0.199156,-0.04603 -0.330826,-0.224429 -0.320382,-0.417151 l 0.01072,-0.07271 z"
               id="path11"
               inkscape:connector-curvature="0"
               style="fill:#595f66;fill-rule:nonzero" />
          </g>
        </g>
      </g>
    </g>
  </g>
  <g
     id="door-hs-finished-circle"
     visibility="hidden"
     transform="translate(0.25435565,-0.93030953)">
    <ellipse
       cy="42.103722"
       cx="40.924564"
       id="green-elipse-seals"
       style="opacity:1;fill:#4e5359;fill-opacity:0.66666669;stroke:#7ed321;stroke-width:3.05643177"
       rx="39.160946"
       ry="38.885483" />
    <polyline
       points="663 485.597519 667.3505 490 681 478"
       id="tick-icon-seals"
       transform="matrix(0.99355096,0,0,0.96921712,-625.30192,-426.41444)"
       style="opacity:1;fill:#000000;fill-opacity:0.04102562;stroke:#ffffff;stroke-width:5;stroke-linecap:round;stroke-linejoin:round" />
  </g>
  <text
     y="-4.3190632"
     x="-438.98322"
     style="font-weight:bold;font-size:12px;font-family:Inter-Bold, Inter;letter-spacing:0.00375;opacity:0.5;fill:#ffffff"
     id="Door-Text"
     font-size="12"
     font-weight="bold"
     letter-spacing="0.00375">
    <tspan
       x="22.016729"
       y="103.68095"
       id="tspan74">DOOR</tspan>
  </text>
</svg>
