<?xml version="1.0" encoding="UTF-8" standalone="no"?>
<svg
   xmlns:dc="http://purl.org/dc/elements/1.1/"
   xmlns:cc="http://creativecommons.org/ns#"
   xmlns:rdf="http://www.w3.org/1999/02/22-rdf-syntax-ns#"
   xmlns:svg="http://www.w3.org/2000/svg"
   xmlns="http://www.w3.org/2000/svg"
   xmlns:sodipodi="http://sodipodi.sourceforge.net/DTD/sodipodi-0.dtd"
   xmlns:inkscape="http://www.inkscape.org/namespaces/inkscape"
   width="82"
   height="105"
   viewBox="0 0 82 105"
   version="1.1"
   id="svg18"
   sodipodi:docname="door_inactive.svg"
   inkscape:version="0.92.3 (2405546, 2018-03-11)">
  <metadata
     id="metadata24">
    <rdf:RDF>
      <cc:Work
         rdf:about="">
        <dc:format>image/svg+xml</dc:format>
        <dc:type
           rdf:resource="http://purl.org/dc/dcmitype/StillImage" />
        <dc:title>1A56AA54-5529-4FEE-A8C4-7BCF5129B315 Screen_No_17</dc:title>
      </cc:Work>
    </rdf:RDF>
  </metadata>
  <defs
     id="defs22" />
  <sodipodi:namedview
     pagecolor="#000000"
     bordercolor="#666666"
     borderopacity="1"
     objecttolerance="10"
     gridtolerance="10"
     guidetolerance="10"
     inkscape:pageopacity="0"
     inkscape:pageshadow="2"
     inkscape:window-width="1920"
     inkscape:window-height="997"
     id="namedview20"
     showgrid="false"
     inkscape:zoom="5.3645536"
     inkscape:cx="57.712579"
     inkscape:cy="69.560098"
     inkscape:window-x="0"
     inkscape:window-y="25"
     inkscape:window-maximized="1"
     inkscape:current-layer="svg18" />
  <!-- Generator: sketchtool 52.5 (67469) - http://www.bohemiancoding.com/sketch -->
  <title
     id="title2">1A56AA54-5529-4FEE-A8C4-7BCF5129B315 Screen_No_17</title>
  <desc
     id="desc4">Created with sketchtool.</desc>
  <g
     id="Health-survey"
     style="fill:none;fill-rule:evenodd;stroke:none;stroke-width:1"
     transform="translate(1.9406472,1.7665979)">
    <g
       id="All-inactive-states"
       transform="translate(-257,-644)">
      <g
         id="Group-3-Copy-2"
         transform="translate(257,644)">
        <g
           id="Group-3-Copy">
          <circle
             id="Oval"
             cx="39"
             cy="39"
             r="39"
             style="fill:#b3b6ba;fill-opacity:1" />
          <g
             id="Group-17"
             transform="translate(11,10)"
             style="fill-rule:nonzero">
            <path
               d="m 23.679911,1.7707267 c 8.15e-4,-0.00563 -0.0073,-0.00724 -0.009,-0.012068 -8.15e-4,-0.00563 0.0057,-0.010459 0.0024,-0.015286 -0.0033,-0.00563 -0.01059,0 -0.01629,-0.00241 -0.0049,-0.00322 -0.0033,-0.012068 -0.0098,-0.012873 -0.0057,-0.00241 -0.0073,0.00724 -0.01222,0.00885 -0.0057,8.045e-4 -0.01059,-0.00644 -0.01547,-0.00241 L 8.2270555,12.292611 c -0.00489,0.0032 0,0.0097 -0.00244,0.01368 -0.00326,0.004 -0.011402,0.0016 -0.013031,0.0072 L 1.307618,36.37367 c -8.144e-4,0.0048 0.0057,0.0072 0.00733,0.01287 0,0.0048 -0.00733,0.008 -0.00489,0.01368 0.00326,0.0072 0.012216,0.0088 0.019546,0.01287 0.00244,0.0016 8.144e-4,0.0072 0.00489,0.008 0.00326,8.04e-4 0.00733,8.04e-4 0.010587,8.04e-4 0.00489,0 0.010587,-8.04e-4 0.015474,-0.0032 l 18.461137,-8.38973 c 0.0057,-0.0024 0.0016,-0.01046 0.0057,-0.01448 0.0057,-0.0056 0.01547,-0.0056 0.01629,-0.01448 z"
               id="Shape"
               inkscape:connector-curvature="0"
               style="fill:#9d9fa1" />
            <path
               d="m 51.609098,21.956153 c -0.0048,-0.04848 -0.01913,-0.09458 -0.04303,-0.137493 -0.02391,-0.0453 -0.05738,-0.08424 -0.09722,-0.116034 L 50.922185,21.263128 24.548575,0.05912401 c -0.01753,-0.01033179 -0.03586,-0.01986882 -0.05498,-0.0286111 -0.02072,-0.0087423 -0.03984,-0.01907407 -0.06136,-0.02384259 -0.02311,-0.00556326 -0.04702,-0.00476851 -0.07092,-0.00556326 -0.02391,-7.9475729e-4 -0.04702,-0.00238426 -0.07092,7.9475e-4 -0.02152,0.00397376 -0.04144,0.01192129 -0.06216,0.01907406 -0.0255,0.0087423 -0.0502,0.01748457 -0.07331,0.03179012 -0.0056,0.003179 -0.01275,0.0039738 -0.01753,0.0079475 L 7.4028598,11.598934 c -0.015141,0.0095 -0.022313,0.02464 -0.035063,0.03576 -0.019125,0.01669 -0.037454,0.03338 -0.052594,0.05484 -0.015938,0.02146 -0.0255,0.0453 -0.03586,0.06914 -0.00638,0.0159 -0.017531,0.02782 -0.022313,0.04371 l -7.24286148,25.41381 c -0.05498486,0.193125 0.05498487,0.391813 0.24464281,0.453009 L 35.100888,48.981721 C 35.137545,48.992052 35.175795,49 35.215639,49 c 0.02709,0 0.05498,-0.0032 0.08208,-0.0087 L 53.70968,44.877659 c 0.01753,-0.004 0.03187,-0.0159 0.04861,-0.02146 0.02391,-0.0087 0.04702,-0.01669 0.06773,-0.0302 0.02072,-0.01272 0.03745,-0.0294 0.05419,-0.0453 0.01753,-0.01669 0.03427,-0.03179 0.04861,-0.05086 0.01434,-0.01907 0.02311,-0.04053 0.03347,-0.06278 0.01036,-0.02146 0.01992,-0.04133 0.0255,-0.06517 0.0064,-0.02464 0.0064,-0.04928 0.0072,-0.07471 0,-0.01748 0.0064,-0.03338 0.0048,-0.05166 z M 50.315758,20.77515 33.514296,7.2627632 Z M 33.250528,7.0505642 25.843509,1.0930974 Z M 25.497662,0.8149339 24.767718,0.22840635 Z M 7.9343802,12.135393 24.125431,0.9715002 20.112333,28.318943 0.86045772,36.955522 Z M 35.234764,48.242601 1.0604751,37.151826 20.229474,28.552601 52.883312,44.299037 Z M 20.374507,28.332454 24.401949,0.88964066 50.883935,22.18822 53.217206,44.170287 Z"
               id="path8"
               inkscape:connector-curvature="0"
               style="fill:#000000" />
            <path
               d="m 16.24084,15.712214 -0.420388,0.119552 0.219816,-1.178544 0.415339,-0.118373 0.766761,-4.203431 c 0.03581,-0.196342 0.201921,-0.3328535 0.387865,-0.331395 l 0.07044,0.0072 c 0.189177,0.03717 0.320707,0.209569 0.319302,0.402555 l -0.0069,0.07311 -0.695357,3.811989 0.585313,-0.166816 -0.287814,1.199023 -0.512366,0.145709 -1.304057,7.148922 c 0.155041,0.05177 0.268577,0.201167 0.271936,0.379634 0.0038,0.199792 -0.131824,0.368771 -0.3141,0.406939 l -0.07036,0.008 -0.03345,0.0057 -0.774646,4.246658 c -0.04029,0.220885 -0.245484,0.366047 -0.458308,0.324229 -0.189177,-0.03717 -0.320707,-0.20957 -0.319302,-0.402556 l 0.0069,-0.07311 0.721447,-3.955015 -0.40905,0.06961 c -0.216564,0.0044 -0.395553,-0.174258 -0.399784,-0.399024 -0.0038,-0.199791 0.131825,-0.36877 0.314101,-0.406939 l 0.07036,-0.008 0.578095,-0.09837 z"
               id="Combined-Shape"
               inkscape:connector-curvature="0"
               style="fill:#595f66" />
            <path
               d="m 11.132151,16.624994 -0.469766,0.11166 0.341384,-1.270581 0.433252,-0.09873 0.740318,-3.053957 c 0.04714,-0.194457 0.229853,-0.32302 0.427232,-0.312822 l 0.07447,0.01047 c 0.199156,0.04603 0.330826,0.224429 0.320382,0.417151 l -0.01072,0.07271 -0.644765,2.659782 0.523418,-0.119275 -0.303523,1.243287 -0.522475,0.124189 -2.0805015,8.582477 0.7158865,-0.130378 c 0.230197,-0.0044 0.420454,0.174258 0.424952,0.399023 0.004,0.199791 -0.140124,0.36877 -0.333875,0.406938 l -0.07479,0.008 -0.9393492,0.171074 -0.9310125,3.840609 c -0.053031,0.218764 -0.27765,0.354131 -0.5017003,0.302351 -0.1991559,-0.04603 -0.3308258,-0.224429 -0.3203816,-0.417151 l 0.010724,-0.07271 z"
               id="path11"
               inkscape:connector-curvature="0"
               style="fill:#595f66" />
          </g>
        </g>
      </g>
    </g>
  </g>
  <text
     y="-4.4537783"
     x="3.1601167"
     style="font-weight:bold;font-size:12px;font-family:Inter-Bold, Inter;letter-spacing:0.00375;opacity:0.5;fill:#ffffff"
     id="Door"
     font-size="12"
     font-weight="bold"
     letter-spacing="0.00375">
    <tspan
       x="24.160116"
       y="103.54622"
       id="tspan61">DOOR</tspan>
  </text>
</svg>
