<?xml version="1.0" encoding="UTF-8" standalone="no"?>
<svg
   xmlns:dc="http://purl.org/dc/elements/1.1/"
   xmlns:cc="http://creativecommons.org/ns#"
   xmlns:rdf="http://www.w3.org/1999/02/22-rdf-syntax-ns#"
   xmlns:svg="http://www.w3.org/2000/svg"
   xmlns="http://www.w3.org/2000/svg"
   xmlns:sodipodi="http://sodipodi.sourceforge.net/DTD/sodipodi-0.dtd"
   xmlns:inkscape="http://www.inkscape.org/namespaces/inkscape"
   width="82"
   height="105"
   viewBox="0 0 82 105"
   version="1.1"
   id="svg14"
   sodipodi:docname="front_active.svg"
   inkscape:version="0.92.3 (2405546, 2018-03-11)">
  <metadata
     id="metadata20">
    <rdf:RDF>
      <cc:Work
         rdf:about="">
        <dc:format>image/svg+xml</dc:format>
        <dc:type
           rdf:resource="http://purl.org/dc/dcmitype/StillImage" />
        <dc:title>EF7303B3-1905-453B-8EAE-C23F1664E3E4</dc:title>
      </cc:Work>
    </rdf:RDF>
  </metadata>
  <defs
     id="defs18" />
  <sodipodi:namedview
     pagecolor="#000000"
     bordercolor="#666666"
     borderopacity="1"
     objecttolerance="10"
     gridtolerance="10"
     guidetolerance="10"
     inkscape:pageopacity="0"
     inkscape:pageshadow="2"
     inkscape:window-width="1920"
     inkscape:window-height="997"
     id="namedview16"
     showgrid="false"
     inkscape:zoom="14.470841"
     inkscape:cx="39.930836"
     inkscape:cy="55.305727"
     inkscape:window-x="0"
     inkscape:window-y="25"
     inkscape:window-maximized="1"
     inkscape:current-layer="svg14" />
  <g
     id="Health-survey"
     style="fill:none;fill-rule:evenodd;stroke:none;stroke-width:1"
     transform="translate(0.26700025,0.21796681)">
    <g
       id="all-active-sides"
       transform="translate(-471,-642)">
      <g
         id="Group-11"
         transform="translate(473,644)">
        <g
           id="Group-6">
          <circle
             id="Oval"
             cx="39"
             cy="39"
             r="39"
             style="fill:#4a4f5a;fill-opacity:1;stroke:#ffffff;stroke-width:3" />
          <g
             id="Group-8"
             transform="translate(16,15)"
             style="fill:#ffffff;fill-rule:nonzero">
            <path
               d="m 44.992222,18.808073 c -0.0048,-0.04871 -0.01925,-0.09502 -0.04331,-0.138136 -0.02406,-0.04551 -0.05774,-0.08464 -0.09784,-0.116578 L 44.300921,18.111803 C 32.695839,6.0377999 26.885278,5.323165e-4 26.869239,0 26.853199,-5.323165e-4 18.064646,2.800251 0.50357812,8.4023498 c -0.0152375,0.00958 -0.0224552,0.024753 -0.0352868,0.035931 -0.0192473,0.016768 -0.0376927,0.033536 -0.0529302,0.055095 -0.0160395,0.021559 -0.0256631,0.045513 -0.0360888,0.069467 -0.006416,0.01597 -0.0176434,0.027947 -0.0224552,0.043916 L 0.01425944,32.291207 c -0.05533613,0.194029 0.05533613,0.393648 0.24620567,0.455131 L 28.378552,45.960207 c 0.03689,0.01038 0.07539,0.01836 0.115484,0.01836 0.02727,0 0.05534,-0.0032 0.0826,-0.0088 L 46.91734,41.684762 c 0.02881,-0.0051 0.05035,-0.01759 0.06464,-0.03734 0.02144,-0.02963 0.0075,-0.05448 0.01796,-0.07684 0.007,-0.01491 -0.662291,-7.602414 -2.007724,-22.762528 z M 0.97451228,8.7637451 26.311502,1.2061234 V 27.276696 L 0.61604595,32.204731 Z M 28.605138,45.738618 1.188985,32.774837 26.569289,27.660784 46.306655,41.481535 Z M 26.744757,27.20094 26.869239,0.87745469 44.566302,19.043993 46.678771,41.03603 Z"
               id="Shape"
               transform="rotate(180,23.5,22.989286)"
               inkscape:connector-curvature="0" />
          </g>
        </g>
        <polygon
           id="Rectangle-Copy-5"
           points="61.811015,51.993102 37.032383,59.324397 37.032383,34.036128 62.134025,29.041406 "
           style="fill:#ffffff" />
      </g>
    </g>
  </g>
  <g
     id="front-hs-finished-circle"
     visibility="hidden"
     transform="matrix(1.0009888,0,0,1.0029709,-0.07952145,-0.36555822)"
     style="visibility:hidden">
    <ellipse
       cy="41.476292"
       cx="41.310581"
       id="green-elipse-seals"
       style="opacity:1;fill:#4e5359;fill-opacity:0.66666669;stroke:#7ed321;stroke-width:3.06100535"
       rx="39.111961"
       ry="39.050804" />
    <polyline
       points="663 485.597519 667.3505 490 681 478"
       id="tick-icon-seals"
       transform="matrix(0.9600548,0,0,1.0095515,-602.11973,-446.62843)"
       style="opacity:1;fill:#000000;fill-opacity:0.01025642;stroke:#ffffff;stroke-width:5;stroke-linecap:round;stroke-linejoin:round" />
  </g>
  <text
     y="-5.0398412"
     x="-440.51642"
     style="font-weight:bold;font-size:12px;font-family:Inter-Bold, Inter;letter-spacing:0.00375;opacity:0.5;fill:#ffffff"
     id="Front-Text"
     font-size="12"
     font-weight="bold"
     letter-spacing="0.00375">
    <tspan
       x="20.483528"
       y="102.96015"
       id="tspan74">FRONT</tspan>
  </text>
</svg>
