<?xml version="1.0" encoding="UTF-8" standalone="no"?>
<svg
   xmlns:dc="http://purl.org/dc/elements/1.1/"
   xmlns:cc="http://creativecommons.org/ns#"
   xmlns:rdf="http://www.w3.org/1999/02/22-rdf-syntax-ns#"
   xmlns:svg="http://www.w3.org/2000/svg"
   xmlns="http://www.w3.org/2000/svg"
   xmlns:sodipodi="http://sodipodi.sourceforge.net/DTD/sodipodi-0.dtd"
   xmlns:inkscape="http://www.inkscape.org/namespaces/inkscape"
   width="82"
   height="105"
   viewBox="0 0 82 105"
   version="1.1"
   id="svg16"
   sodipodi:docname="front_inactive.svg"
   inkscape:version="0.92.3 (2405546, 2018-03-11)">
  <metadata
     id="metadata22">
    <rdf:RDF>
      <cc:Work
         rdf:about="">
        <dc:format>image/svg+xml</dc:format>
        <dc:type
           rdf:resource="http://purl.org/dc/dcmitype/StillImage" />
        <dc:title>7B010900-3831-4979-A92B-FF0BA161351A</dc:title>
      </cc:Work>
    </rdf:RDF>
  </metadata>
  <defs
     id="defs20" />
  <sodipodi:namedview
     pagecolor="#000000"
     bordercolor="#666666"
     borderopacity="1"
     objecttolerance="10"
     gridtolerance="10"
     guidetolerance="10"
     inkscape:pageopacity="0"
     inkscape:pageshadow="2"
     inkscape:window-width="1920"
     inkscape:window-height="997"
     id="namedview18"
     showgrid="false"
     inkscape:zoom="5.1238659"
     inkscape:cx="8.5486802"
     inkscape:cy="55.610422"
     inkscape:window-x="0"
     inkscape:window-y="25"
     inkscape:window-maximized="1"
     inkscape:current-layer="svg16" />
  <!-- Generator: sketchtool 52.5 (67469) - http://www.bohemiancoding.com/sketch -->
  <title
     id="title2">7B010900-3831-4979-A92B-FF0BA161351A</title>
  <desc
     id="desc4">Created with sketchtool.</desc>
  <g
     id="2-container-3-forms"
     style="fill:none;fill-rule:evenodd;stroke:none;stroke-width:1"
     transform="translate(2.0280822,1.3633347)">
    <g
       id="14.Dry1_HLT_Door_Damfrm_fill-Copy"
       transform="translate(-473,-644)">
      <g
         id="Group-15"
         transform="translate(257,644)">
        <g
           id="Group-14">
          <g
             id="Group-10"
             transform="translate(216)">
            <circle
               id="Oval"
               cx="39"
               cy="39"
               r="39"
               style="fill:#ffffff;fill-opacity:0.38865823" />
            <g
               id="Group-8"
               transform="translate(16,15)"
               style="fill-rule:nonzero">
              <polygon
                 id="Shape"
                 transform="rotate(180,33.395847,29.22187)"
                 points="21.84628,21.900739 45.383531,14.74458 45.383531,39.333539 21.408163,43.699159 "
                 style="opacity:0.5;fill:#787878" />
              <path
                 d="m 44.992222,21.829501 c -0.0048,-0.04871 -0.01925,-0.09502 -0.04331,-0.138136 -0.02406,-0.04551 -0.05774,-0.08464 -0.09784,-0.116577 L 44.300921,21.133231 C 32.695839,9.0592284 26.885278,3.0219608 26.869239,3.0214285 26.853199,3.0208961 18.064646,5.8216794 0.50357812,11.423778 c -0.0152375,0.0096 -0.0224552,0.02475 -0.0352868,0.03593 -0.0192473,0.01677 -0.0376927,0.03354 -0.0529302,0.05509 -0.0160395,0.02156 -0.0256631,0.04551 -0.0360888,0.06947 -0.006416,0.01597 -0.0176434,0.02795 -0.0224552,0.04392 L 0.01425944,35.312635 c -0.05533613,0.19403 0.05533613,0.393648 0.24620567,0.455131 L 28.378552,48.981635 C 28.415442,48.992015 28.453937,49 28.494036,49 c 0.02727,0 0.05534,-0.0032 0.0826,-0.0088 L 46.91734,44.706195 c 0.02881,-0.0051 0.05035,-0.01759 0.06464,-0.03734 0.02144,-0.02963 0.0075,-0.05448 0.01796,-0.07684 0.007,-0.0149 -0.662291,-7.602415 -2.007724,-22.762529 z M 43.69062,20.642968 26.781824,7.0673 Z M 26.51637,6.8541073 19.062033,0.86874053 Z M 18.713976,0.58927437 17.979369,0 Z M 0.97451228,11.785174 26.311502,4.2275519 V 30.298124 L 0.61604595,35.22616 Z M 28.605138,48.760046 1.188985,35.796266 26.569289,30.682212 46.306655,44.502964 Z M 26.744757,30.222369 26.869239,3.8988831 44.566302,22.065421 46.678771,44.057459 Z"
                 id="path8"
                 transform="rotate(180,23.5,24.5)"
                 inkscape:connector-curvature="0"
                 style="opacity:0.8;fill:#000000" />
            </g>
          </g>
        </g>
      </g>
    </g>
  </g>
  <text
     y="-3.5276875"
     x="-117.32221"
     style="font-weight:bold;font-size:12px;font-family:Inter-Bold, Inter;letter-spacing:0.00375;opacity:0.5;fill:#ffffff"
     id="FRONT"
     font-size="12"
     font-weight="bold"
     letter-spacing="0.00375">
    <tspan
       x="18.677776"
       y="103.47231"
       id="tspan64">FRONT</tspan>
  </text>
</svg>
