<?xml version="1.0" encoding="UTF-8" standalone="no"?>
<svg
   xmlns:dc="http://purl.org/dc/elements/1.1/"
   xmlns:cc="http://creativecommons.org/ns#"
   xmlns:rdf="http://www.w3.org/1999/02/22-rdf-syntax-ns#"
   xmlns:svg="http://www.w3.org/2000/svg"
   xmlns="http://www.w3.org/2000/svg"
   xmlns:sodipodi="http://sodipodi.sourceforge.net/DTD/sodipodi-0.dtd"
   xmlns:inkscape="http://www.inkscape.org/namespaces/inkscape"
   width="82"
   height="105"
   viewBox="0 0 82 105"
   version="1.1"
   id="svg13"
   sodipodi:docname="left_active.svg"
   inkscape:version="0.92.3 (2405546, 2018-03-11)">
  <metadata
     id="metadata19">
    <rdf:RDF>
      <cc:Work
         rdf:about="">
        <dc:format>image/svg+xml</dc:format>
        <dc:type
           rdf:resource="http://purl.org/dc/dcmitype/StillImage" />
        <dc:title>C4F0DA69-5547-4C84-8FDE-27F96BC74A27 Screen_No_22</dc:title>
      </cc:Work>
    </rdf:RDF>
  </metadata>
  <defs
     id="defs17" />
  <sodipodi:namedview
     pagecolor="#000000"
     bordercolor="#666666"
     borderopacity="1"
     objecttolerance="10"
     gridtolerance="10"
     guidetolerance="10"
     inkscape:pageopacity="0"
     inkscape:pageshadow="2"
     inkscape:window-width="1920"
     inkscape:window-height="997"
     id="namedview15"
     showgrid="false"
     inkscape:zoom="11.672768"
     inkscape:cx="28.331103"
     inkscape:cy="67.439637"
     inkscape:window-x="0"
     inkscape:window-y="25"
     inkscape:window-maximized="1"
     inkscape:current-layer="svg13" />
  <g
     id="Health-survey"
     style="fill:none;fill-rule:evenodd;stroke:none;stroke-width:1"
     transform="translate(0.63065423,0.99084259)">
    <g
       id="all-active-sides"
       transform="translate(-687,-644)">
      <g
         id="Group-23-Copy"
         transform="translate(689,646)">
        <circle
           id="Oval"
           cx="39"
           cy="39"
           r="39"
           style="fill:#545961;fill-opacity:0.51999996;stroke:#ffffff;stroke-width:2.4000001" />
      </g>
    </g>
  </g>
  <g
     transform="translate(16.0713,12.214129)"
     style="fill:none;fill-rule:evenodd;stroke:none;stroke-width:1"
     id="Health-survey-3">
    <g
       style="fill-rule:nonzero"
       id="all-active-sides-6"
       transform="translate(-377,-658)">
      <g
         id="Group-2"
         transform="translate(365,644)">
        <g
           id="Group-16"
           transform="matrix(-1,0,0,1,66,14)">
          <g
             style="fill:#ffffff"
             id="noun_container_180474">
            <g
               id="Group">
              <path
                 inkscape:connector-curvature="0"
                 d="M 50.953176,22.26371 24.590539,0.74625927 c 7.94e-4,-0.004032 0.0071,-0.003226 0.0087,-0.006452 0.0016,-0.004032 -0.0032,-0.008065 -7.94e-4,-0.0112903 0.0048,-0.005645 0.01271,0 0.01906,-0.002419 0.0064,-0.002419 0.0079,-0.0137097 0.01509,-0.0112903 0.004,8.0645e-4 0.0032,0.007258 0.0064,0.008871 0.004,0.001613 0.0079,-0.003226 0.01112,-8.0646e-4 L 50.939676,22.237903 c 0.004,0.004 -7.94e-4,0.0097 7.95e-4,0.01452 0.004,0.0048 0.01191,0.0048 0.0127,0.01129 z M 24.654068,0.82287217 50.881706,22.287097 53.138382,45.077419 20.409618,29.006452 Z"
                 id="Shape" />
              <path
                 style="opacity:0.6"
                 inkscape:connector-curvature="0"
                 d="m 51.535853,22.53629 c -0.0048,-0.04919 -0.01906,-0.09597 -0.04288,-0.139516 -0.02382,-0.04597 -0.05718,-0.08548 -0.09688,-0.117742 L 50.851323,21.833064 24.569206,0.31693548 c -0.01747,-0.0104839 -0.03574,-0.0201613 -0.05479,-0.0290322 -0.02065,-0.008871 -0.03971,-0.0193548 -0.06115,-0.0241936 -0.02303,-0.005645 -0.04685,-0.004839 -0.07068,-0.005645 -0.02382,-8.0645e-4 -0.04685,-0.002419 -0.07068,8.0645e-4 -0.02144,0.004032 -0.04129,0.0120968 -0.06194,0.0193548 -0.02541,0.008871 -0.05003,0.0177419 -0.07306,0.0322581 -0.0056,0.003226 -0.01271,0.004032 -0.01747,0.008065 L 7.4829706,12.026613 c -0.015088,0.0097 -0.022235,0.025 -0.034941,0.03629 -0.019059,0.01694 -0.037324,0.03387 -0.052412,0.05565 -0.015882,0.02177 -0.025412,0.04597 -0.035735,0.07016 -0.00635,0.01613 -0.017471,0.02823 -0.022235,0.04435 L 0.11991176,38.020968 c -0.05479411,0.195967 0.0547941,0.39758 0.24379412,0.459677 L 35.084912,49.959677 c 0.03653,0.01048 0.07465,0.01855 0.114353,0.01855 0.027,0 0.05479,-0.0032 0.08179,-0.0089 l 18.348088,-4.174194 c 0.01747,-0.004 0.03177,-0.01613 0.04844,-0.02177 0.02382,-0.0089 0.04685,-0.01693 0.0675,-0.03064 0.02065,-0.0129 0.03732,-0.02984 0.054,-0.04597 0.01747,-0.01693 0.03415,-0.03226 0.04844,-0.05161 0.01429,-0.01935 0.02303,-0.04113 0.03335,-0.06371 0.01032,-0.02177 0.01985,-0.04194 0.02541,-0.06613 0.0064,-0.025 0.0064,-0.05 0.0071,-0.07581 0,-0.01774 0.0064,-0.03387 0.0048,-0.05242 z M 50.247,21.337903 33.503824,7.6266129 Z M 33.240971,7.4112903 25.859647,1.366129 Z M 25.515,1.083871 24.787588,0.48870968 Z M 8.0126471,12.570968 24.147529,1.2427419 20.148353,28.992742 0.96326471,37.756452 Z M 35.218323,49.209677 1.1625882,37.955645 20.265088,29.229839 52.805647,45.208064 Z M 20.409618,29.006452 24.423088,1.1596774 50.813206,22.771774 53.138382,45.077419 Z"
                 id="path10" />
            </g>
          </g>
        </g>
      </g>
    </g>
  </g>
  <g
     id="left-hs-finished-circle"
     visibility="hidden"
     transform="translate(0.63065423,0.99121519)">
    <ellipse
       cy="40.958984"
       cx="41.048367"
       id="green-elipse-seals"
       style="opacity:1;fill:#4e5359;fill-opacity:0.66666669;stroke:#7ed321;stroke-width:3.05207348"
       rx="38.839081"
       ry="39.095985" />
    <polyline
       points="663 485.597519 667.3505 490 681 478"
       id="tick-icon-seals"
       transform="matrix(1.0222476,0,0,1.0391379,-644.25721,-461.89711)"
       style="opacity:1;fill:#000000;fill-opacity:0;stroke:#ffffff;stroke-width:5;stroke-linecap:round;stroke-linejoin:round" />
  </g>
  <text
     y="-3.1138358"
     x="-108.04468"
     style="font-weight:bold;font-size:12px;font-family:Inter-Bold, Inter;letter-spacing:0.00375;opacity:0.5;fill:#ffffff"
     id="Left-Text"
     font-size="12"
     font-weight="bold"
     letter-spacing="0.00375">
    <tspan
       x="27.955326"
       y="103.88617"
       id="tspan64">LEFT</tspan>
  </text>
</svg>
