<?xml version="1.0" encoding="UTF-8" standalone="no"?>
<svg
   xmlns:dc="http://purl.org/dc/elements/1.1/"
   xmlns:cc="http://creativecommons.org/ns#"
   xmlns:rdf="http://www.w3.org/1999/02/22-rdf-syntax-ns#"
   xmlns:svg="http://www.w3.org/2000/svg"
   xmlns="http://www.w3.org/2000/svg"
   xmlns:sodipodi="http://sodipodi.sourceforge.net/DTD/sodipodi-0.dtd"
   xmlns:inkscape="http://www.inkscape.org/namespaces/inkscape"
   width="82"
   height="105"
   viewBox="0 0 82 105"
   version="1.1"
   id="svg23"
   sodipodi:docname="left_inactive.svg"
   inkscape:version="0.92.3 (2405546, 2018-03-11)">
  <metadata
     id="metadata29">
    <rdf:RDF>
      <cc:Work
         rdf:about="">
        <dc:format>image/svg+xml</dc:format>
        <dc:type
           rdf:resource="http://purl.org/dc/dcmitype/StillImage" />
        <dc:title>DF5BAC19-6F4B-4D20-A70E-FA297A8F4560</dc:title>
      </cc:Work>
    </rdf:RDF>
  </metadata>
  <defs
     id="defs27" />
  <sodipodi:namedview
     pagecolor="#000000"
     bordercolor="#666666"
     borderopacity="1"
     objecttolerance="10"
     gridtolerance="10"
     guidetolerance="10"
     inkscape:pageopacity="0"
     inkscape:pageshadow="2"
     inkscape:window-width="1920"
     inkscape:window-height="997"
     id="namedview25"
     showgrid="false"
     inkscape:zoom="5.5682993"
     inkscape:cx="35.825616"
     inkscape:cy="42.494513"
     inkscape:window-x="0"
     inkscape:window-y="25"
     inkscape:window-maximized="1"
     inkscape:current-layer="svg23" />
  <!-- Generator: sketchtool 52.5 (67469) - http://www.bohemiancoding.com/sketch -->
  <title
     id="title2">DF5BAC19-6F4B-4D20-A70E-FA297A8F4560</title>
  <desc
     id="desc4">Created with sketchtool.</desc>
  <g
     id="2-container-3-forms"
     style="fill:none;fill-rule:evenodd;stroke:none;stroke-width:1"
     transform="translate(2.2535396,1.528526)">
    <g
       id="14.Dry1_HLT_Door_Damfrm_fill-Copy"
       transform="translate(-365,-644)">
      <g
         id="Group-15"
         transform="translate(257,644)">
        <g
           id="Group-14">
          <g
             id="Group-7"
             transform="translate(108)">
            <g
               id="Group-6"
               transform="matrix(-1,0,0,1,78,0)">
              <circle
                 id="Oval"
                 cx="39"
                 cy="39"
                 r="39"
                 style="fill:#ffffff;fill-opacity:0.38865823" />
              <g
                 id="Group-16"
                 transform="translate(12,14)"
                 style="fill-rule:nonzero">
                <path
                   d="m 16.24084,15.712214 -0.420388,0.119552 0.219816,-1.178544 0.415339,-0.118373 0.766761,-4.203431 c 0.03581,-0.196342 0.201921,-0.3328535 0.387865,-0.331395 l 0.07044,0.0072 c 0.189177,0.03717 0.320707,0.209569 0.319302,0.402555 l -0.0069,0.07311 -0.695357,3.811989 0.585313,-0.166816 -0.287814,1.199023 -0.512366,0.145709 -1.304057,7.148922 c 0.155041,0.05177 0.268577,0.201167 0.271936,0.379634 0.0038,0.199792 -0.131824,0.368771 -0.3141,0.406939 l -0.07036,0.008 -0.03345,0.0057 -0.774646,4.246658 c -0.04029,0.220885 -0.245484,0.366047 -0.458308,0.324229 -0.189177,-0.03717 -0.320707,-0.20957 -0.319302,-0.402556 l 0.0069,-0.07311 0.721447,-3.955015 -0.40905,0.06961 c -0.216564,0.0044 -0.395553,-0.174258 -0.399784,-0.399024 -0.0038,-0.199791 0.131825,-0.36877 0.314101,-0.406939 l 0.07036,-0.008 0.578095,-0.09837 z"
                   id="Combined-Shape"
                   inkscape:connector-curvature="0"
                   style="fill:#878b90" />
                <path
                   d="m 11.132151,16.624994 -0.469766,0.11166 0.341384,-1.270581 0.433252,-0.09873 0.740318,-3.053957 c 0.04714,-0.194457 0.229853,-0.32302 0.427232,-0.312822 l 0.07447,0.01047 c 0.199156,0.04603 0.330826,0.224429 0.320382,0.417151 l -0.01072,0.07271 -0.644765,2.659782 0.523418,-0.119275 -0.303523,1.243287 -0.522475,0.124189 -2.0805015,8.582477 0.7158865,-0.130378 c 0.230197,-0.0044 0.420454,0.174258 0.424952,0.399023 0.004,0.199791 -0.140124,0.36877 -0.333875,0.406938 l -0.07479,0.008 -0.9393492,0.171074 -0.9310125,3.840609 c -0.053031,0.218764 -0.27765,0.354131 -0.5017003,0.302351 -0.1991559,-0.04603 -0.3308258,-0.224429 -0.3203816,-0.417151 l 0.010724,-0.07271 z"
                   id="path8"
                   inkscape:connector-curvature="0"
                   style="fill:#878b90" />
                <g
                   id="noun_container_180474">
                  <g
                     id="Group">
                    <path
                       d="M 50.953176,22.26371 24.590539,0.74625927 c 7.94e-4,-0.004032 0.0071,-0.003226 0.0087,-0.006452 0.0016,-0.004032 -0.0032,-0.008065 -7.94e-4,-0.0112903 0.0048,-0.005645 0.01271,0 0.01906,-0.002419 0.0064,-0.002419 0.0079,-0.0137097 0.01509,-0.0112903 0.004,8.0645e-4 0.0032,0.007258 0.0064,0.008871 0.004,0.001613 0.0079,-0.003226 0.01112,-8.0646e-4 L 50.939676,22.237903 c 0.004,0.004 -7.94e-4,0.0097 7.95e-4,0.01452 0.004,0.0048 0.01191,0.0048 0.0127,0.01129 z M 24.654068,0.82287217 50.881706,22.287097 53.138382,45.077419 20.409618,29.006452 Z"
                       id="Shape"
                       inkscape:connector-curvature="0"
                       style="opacity:0.5;fill:#787878" />
                    <path
                       d="m 51.535853,22.53629 c -0.0048,-0.04919 -0.01906,-0.09597 -0.04288,-0.139516 -0.02382,-0.04597 -0.05718,-0.08548 -0.09688,-0.117742 L 50.851323,21.833064 24.569206,0.31693548 c -0.01747,-0.0104839 -0.03574,-0.0201613 -0.05479,-0.0290322 -0.02065,-0.008871 -0.03971,-0.0193548 -0.06115,-0.0241936 -0.02303,-0.005645 -0.04685,-0.004839 -0.07068,-0.005645 -0.02382,-8.0645e-4 -0.04685,-0.002419 -0.07068,8.0645e-4 -0.02144,0.004032 -0.04129,0.0120968 -0.06194,0.0193548 -0.02541,0.008871 -0.05003,0.0177419 -0.07306,0.0322581 -0.0056,0.003226 -0.01271,0.004032 -0.01747,0.008065 L 7.4829706,12.026613 c -0.015088,0.0097 -0.022235,0.025 -0.034941,0.03629 -0.019059,0.01694 -0.037324,0.03387 -0.052412,0.05565 -0.015882,0.02177 -0.025412,0.04597 -0.035735,0.07016 -0.00635,0.01613 -0.017471,0.02823 -0.022235,0.04435 L 0.11991176,38.020968 c -0.05479411,0.195967 0.0547941,0.39758 0.24379412,0.459677 L 35.084912,49.959677 c 0.03653,0.01048 0.07465,0.01855 0.114353,0.01855 0.027,0 0.05479,-0.0032 0.08179,-0.0089 l 18.348088,-4.174194 c 0.01747,-0.004 0.03177,-0.01613 0.04844,-0.02177 0.02382,-0.0089 0.04685,-0.01693 0.0675,-0.03064 0.02065,-0.0129 0.03732,-0.02984 0.054,-0.04597 0.01747,-0.01693 0.03415,-0.03226 0.04844,-0.05161 0.01429,-0.01935 0.02303,-0.04113 0.03335,-0.06371 0.01032,-0.02177 0.01985,-0.04194 0.02541,-0.06613 0.0064,-0.025 0.0064,-0.05 0.0071,-0.07581 0,-0.01774 0.0064,-0.03387 0.0048,-0.05242 z M 50.247,21.337903 33.503824,7.6266129 Z M 33.240971,7.4112903 25.859647,1.366129 Z M 25.515,1.083871 24.787588,0.48870968 Z M 8.0126471,12.570968 24.147529,1.2427419 20.148353,28.992742 0.96326471,37.756452 Z M 35.218323,49.209677 1.1625882,37.955645 20.265088,29.229839 52.805647,45.208064 Z M 20.409618,29.006452 24.423088,1.1596774 50.813206,22.771774 53.138382,45.077419 Z"
                       id="path11"
                       inkscape:connector-curvature="0"
                       style="opacity:0.6;fill:#000000" />
                  </g>
                </g>
              </g>
            </g>
            <g
               id="Group-13"
               transform="matrix(-1,0,0,1,66,14)" />
          </g>
        </g>
      </g>
    </g>
  </g>
  <text
     y="-3.976861"
     x="-107.97933"
     style="font-weight:bold;font-size:12px;font-family:Inter-Bold, Inter;letter-spacing:0.00375;opacity:0.5;fill:#ffffff"
     id="Left"
     font-size="12"
     font-weight="bold"
     letter-spacing="0.00375">
    <tspan
       x="28.020668"
       y="103.02314"
       id="tspan64">LEFT</tspan>
  </text>
</svg>
