<?xml version="1.0" encoding="UTF-8"?>
<svg width="562px" height="510px" viewBox="0 0 562 510" version="1.1" xmlns="http://www.w3.org/2000/svg" xmlns:xlink="http://www.w3.org/1999/xlink">
    <defs>
        <filter x="0.0%" y="0.0%" width="100.0%" height="100.0%" filterUnits="objectBoundingBox" id="filter-1">
            <feGaussianBlur stdDeviation="0" in="SourceGraphic"></feGaussianBlur>
        </filter>
        <linearGradient x1="100%" y1="93.2893924%" x2="0%" y2="21.3187662%" id="linearGradient-2">
            <stop stop-color="#FFFFFF" offset="0%"></stop>
            <stop stop-color="#FFFFFF" offset="100%"></stop>
        </linearGradient>
    </defs>
    <g id="Reefer" stroke="none" stroke-width="1" fill="none" fill-rule="evenodd">
        <g id="7.Reefer_Tempfrm_Empty-Copy" transform="translate(0.000000, -145.000000)">
            <g id="Group-5" transform="translate(-65.000000, 145.000000)">
                <g id="Group-8">
                    <g id="view-finder-oval">
                        <ellipse id="Oval-Copy-21" fill-opacity="0.223120629" fill="#FFFFFF" opacity="0.422386533" filter="url(#filter-1)" transform="translate(306.122104, 302.689853) scale(-1, 1) rotate(-20.000000) translate(-306.122104, -302.689853) " cx="335" cy="288" rx="295" ry="143"></ellipse>
                    </g>
                    <g id="Group-6" transform="translate(31.000000, 0.000000)">
                        <g id="Containter" transform="translate(253.000000, 217.000000) scale(-1, 1) translate(-253.000000, -217.000000) ">
                            <polygon id="Fill-1466" fill="#B3B4B3" points="502.107198 179.315862 392.972597 117.139826 377.846686 126.249853 486.165678 188.883374"></polygon>
                            <polygon id="Fill-1543" fill="#666666" points="485.315837 188.883374 485.315837 55.7396995 99.5188135 279.11212 99.5188135 414.6582"></polygon>
                            <polygon id="Fill-1547" fill="#B3B4B3" points="505.639115 181.331724 501.457473 179.015066 99.5188135 414.6582 103.0168 416.89826"></polygon>
                            <polygon id="Fill-1548" fill="#747571" points="505.639115 198.532468 505.639115 181.331724 102.80029 416.843869 102.80029 433.46833"></polygon>
                            <polygon id="Fill-1549" fill="#D7DBCD" points="501.457473 197.290775 501.457473 188.034018 106.678583 417.540432 106.678583 426.863503"></polygon>
                            <polygon id="Fill-1550" fill="#8C8C8C" points="388.403664 0 2.93165797 223.151683 99.5188135 279.11212 485.315837 55.7396995"></polygon>
                            <polygon id="Fill-1551" fill="#484948" points="99.5188135 414.735641 99.5188135 431.831479 102.801973 433.468271 102.801973 416.843869"></polygon>
                            <polygon id="Fill-1551-Copy" fill="#484948" points="0.271423776 357.379039 0.271423776 375.068183 2.93165797 376.607516 2.93165797 358.795191"></polygon>
                            <g id="reflectors" transform="translate(106.678583, 195.299718)" fill="#EE9E40">
                                <polygon id="Fill-1566-Copy" points="344.767053 31.007105 344.767053 21.6840339 351.983869 17.5333696 351.983869 26.8396858"></polygon>
                                <polygon id="Fill-1566-Copy-2" points="312.782224 49.597947 312.782224 40.2748758 319.99904 36.1242115 319.99904 45.4305278"></polygon>
                                <polygon id="Fill-1566-Copy-3" points="280.797395 68.1887889 280.797395 58.8657178 288.014211 54.7150535 288.014211 64.0213697"></polygon>
                                <polygon id="Fill-1566-Copy-7" points="248.812565 86.7796309 248.812565 77.4565597 256.029381 73.3058954 256.029381 82.6122117"></polygon>
                                <polygon id="Fill-1566-Copy-6" points="218.488863 104.557699 218.488863 95.2346274 225.705679 91.0839631 225.705679 100.390279"></polygon>
                                <polygon id="Fill-1566-Copy-5" points="186.523254 123.03576 186.523254 113.712689 193.74007 109.562024 193.74007 118.868341"></polygon>
                                <polygon id="Fill-1566-Copy-4" points="154.555281 141.638388 154.555281 132.315317 161.772097 128.164652 161.772097 137.470968"></polygon>
                                <polygon id="Fill-1566-Copy-11" points="123.436756 159.768693 123.436756 150.445622 130.653572 146.294957 130.653572 155.601274"></polygon>
                                <polygon id="Fill-1566-Copy-10" points="93.1073279 177.299892 93.1073279 167.976821 100.324144 163.826156 100.324144 173.132473"></polygon>
                                <polygon id="Fill-1566-Copy-9" points="61.1710358 195.972694 61.1710358 186.649623 68.3878519 182.498959 68.3878519 191.805275"></polygon>
                                <polygon id="Fill-1566-Copy-8" points="29.2018762 214.58707 29.2018762 205.263998 36.4186924 201.113334 36.4186924 210.41965"></polygon>
                                <polygon id="Fill-1566-Copy-12" points="-5.46229728e-13 231.563785 -5.46229728e-13 222.240714 7.21681617 218.09005 7.21681617 227.396366"></polygon>
                            </g>
                            <g id="group-1" transform="translate(102.402091, 84.602138)">
                                <g id="groove-1" transform="translate(369.937391, 53.489707) rotate(2.000000) translate(-369.937391, -53.489707) translate(361.943710, 0.640999)">
                                    <polygon id="Fill-1596-Copy" fill="#333333" points="15.8408841 97.7819374 15.6919536 97.7162187 12.4272316 96.4050759 9.14066336 2.08896822 12.4335446 -1.27106353e-13"></polygon>
                                    <polygon id="Path-6" fill="#404040" transform="translate(9.752373, 101.024594) scale(-1, 1) translate(-9.752373, -101.024594) " points="3.6638625 97.7819374 7.07751508 96.4050759 15.8408841 101.645376 15.7015429 105.644112"></polygon>
                                    <polygon id="Path-2" fill="#575757" points="9.14066336 2.08896822 12.4272316 96.4050759 3.6638625 101.645376 0.388973515 7.66443172"></polygon>
                                </g>
                                <g id="groove-1-copy" transform="translate(349.319094, 65.116300) rotate(2.000000) translate(-349.319094, -65.116300) translate(341.325413, 12.267591)">
                                    <polygon id="Fill-1596-Copy" fill="#333333" points="15.8408841 97.7819374 15.6919536 97.7162187 12.4272316 96.4050759 9.14066336 2.08896822 12.4335446 -1.27106353e-13"></polygon>
                                    <polygon id="Path-6" fill="#404040" transform="translate(9.752373, 101.024594) scale(-1, 1) translate(-9.752373, -101.024594) " points="3.6638625 97.7819374 7.07751508 96.4050759 15.8408841 101.645376 15.7015429 105.644112"></polygon>
                                    <polygon id="Path-2" fill="#575757" points="9.14066336 2.08896822 12.4272316 96.4050759 3.6638625 101.645376 0.388973515 7.66443172"></polygon>
                                </g>
                                <g id="groove-1-copy-2" transform="translate(326.750547, 78.094117) rotate(2.000000) translate(-326.750547, -78.094117) translate(318.756866, 25.245408)">
                                    <polygon id="Fill-1596-Copy" fill="#333333" points="15.8408841 97.7819374 15.6919536 97.7162187 12.4272316 96.4050759 9.14066336 2.08896822 12.4335446 -1.27106353e-13"></polygon>
                                    <polygon id="Path-6" fill="#404040" transform="translate(9.752373, 101.024594) scale(-1, 1) translate(-9.752373, -101.024594) " points="3.6638625 97.7819374 7.07751508 96.4050759 15.8408841 101.645376 15.7015429 105.644112"></polygon>
                                    <polygon id="Path-2" fill="#575757" points="9.14066336 2.08896822 12.4272316 96.4050759 3.6638625 101.645376 0.388973515 7.66443172"></polygon>
                                </g>
                                <g id="groove-1-copy-3" transform="translate(304.226651, 91.071153) rotate(2.000000) translate(-304.226651, -91.071153) translate(296.232970, 38.222444)">
                                    <polygon id="Fill-1596-Copy" fill="#333333" points="15.8408841 97.7819374 15.6919536 97.7162187 12.4272316 96.4050759 9.14066336 2.08896822 12.4335446 -1.27106353e-13"></polygon>
                                    <polygon id="Path-6" fill="#404040" transform="translate(9.752373, 101.024594) scale(-1, 1) translate(-9.752373, -101.024594) " points="3.6638625 97.7819374 7.07751508 96.4050759 15.8408841 101.645376 15.7015429 105.644112"></polygon>
                                    <polygon id="Path-2" fill="#575757" points="9.14066336 2.08896822 12.4272316 96.4050759 3.6638625 101.645376 0.388973515 7.66443172"></polygon>
                                </g>
                                <g id="groove-1-copy-4" transform="translate(277.911563, 106.104835) rotate(2.000000) translate(-277.911563, -106.104835) translate(269.917882, 53.256126)">
                                    <polygon id="Fill-1596-Copy" fill="#333333" points="15.8408841 97.7819374 15.6919536 97.7162187 12.4272316 96.4050759 9.14066336 2.08896822 12.4335446 -1.27106353e-13"></polygon>
                                    <polygon id="Path-6" fill="#404040" transform="translate(9.752373, 101.024594) scale(-1, 1) translate(-9.752373, -101.024594) " points="3.6638625 97.7819374 7.07751508 96.4050759 15.8408841 101.645376 15.7015429 105.644112"></polygon>
                                    <polygon id="Path-2" fill="#575757" points="9.14066336 2.08896822 12.4272316 96.4050759 3.6638625 101.645376 0.388973515 7.66443172"></polygon>
                                </g>
                                <g id="groove-1-copy-5" transform="translate(250.407162, 122.463828) rotate(2.000000) translate(-250.407162, -122.463828) translate(242.413481, 69.615119)">
                                    <polygon id="Fill-1596-Copy" fill="#333333" points="15.8408841 97.7819374 15.6919536 97.7162187 12.4272316 96.4050759 9.14066336 2.08896822 12.4335446 -1.27106353e-13"></polygon>
                                    <polygon id="Path-6" fill="#404040" transform="translate(9.752373, 101.024594) scale(-1, 1) translate(-9.752373, -101.024594) " points="3.6638625 97.7819374 7.07751508 96.4050759 15.8408841 101.645376 15.7015429 105.644112"></polygon>
                                    <polygon id="Path-2" fill="#575757" points="9.14066336 2.08896822 12.4272316 96.4050759 3.6638625 101.645376 0.388973515 7.66443172"></polygon>
                                </g>
                                <g id="groove-1-copy-6" transform="translate(224.092074, 137.497510) rotate(2.000000) translate(-224.092074, -137.497510) translate(216.098393, 84.648801)">
                                    <polygon id="Fill-1596-Copy" fill="#333333" points="15.8408841 97.7819374 15.6919536 97.7162187 12.4272316 96.4050759 9.14066336 2.08896822 12.4335446 -1.27106353e-13"></polygon>
                                    <polygon id="Path-6" fill="#404040" transform="translate(9.752373, 101.024594) scale(-1, 1) translate(-9.752373, -101.024594) " points="3.6638625 97.7819374 7.07751508 96.4050759 15.8408841 101.645376 15.7015429 105.644112"></polygon>
                                    <polygon id="Path-2" fill="#575757" points="9.14066336 2.08896822 12.4272316 96.4050759 3.6638625 101.645376 0.388973515 7.66443172"></polygon>
                                </g>
                                <g id="groove-1-copy-7" transform="translate(197.776987, 152.531192) rotate(2.000000) translate(-197.776987, -152.531192) translate(189.783306, 99.682484)">
                                    <polygon id="Fill-1596-Copy" fill="#333333" points="15.8408841 97.7819374 15.6919536 97.7162187 12.4272316 96.4050759 9.14066336 2.08896822 12.4335446 -1.27106353e-13"></polygon>
                                    <polygon id="Path-6" fill="#404040" transform="translate(9.752373, 101.024594) scale(-1, 1) translate(-9.752373, -101.024594) " points="3.6638625 97.7819374 7.07751508 96.4050759 15.8408841 101.645376 15.7015429 105.644112"></polygon>
                                    <polygon id="Path-2" fill="#575757" points="9.14066336 2.08896822 12.4272316 96.4050759 3.6638625 101.645376 0.388973515 7.66443172"></polygon>
                                </g>
                                <g id="groove-1-copy-8" transform="translate(170.227935, 168.890966) rotate(2.000000) translate(-170.227935, -168.890966) translate(162.234254, 116.042257)">
                                    <polygon id="Fill-1596-Copy" fill="#333333" points="15.8408841 97.7819374 15.6919536 97.7162187 12.4272316 96.4050759 9.14066336 2.08896822 12.4335446 -1.27106353e-13"></polygon>
                                    <polygon id="Path-6" fill="#404040" transform="translate(9.752373, 101.024594) scale(-1, 1) translate(-9.752373, -101.024594) " points="3.6638625 97.7819374 7.07751508 96.4050759 15.8408841 101.645376 15.7015429 105.644112"></polygon>
                                    <polygon id="Path-2" fill="#575757" points="9.14066336 2.08896822 12.4272316 96.4050759 3.6638625 101.645376 0.388973515 7.66443172"></polygon>
                                </g>
                                <g id="groove-1-copy-9" transform="translate(143.912848, 183.924648) rotate(2.000000) translate(-143.912848, -183.924648) translate(135.919167, 131.075940)">
                                    <polygon id="Fill-1596-Copy" fill="#333333" points="15.8408841 97.7819374 15.6919536 97.7162187 12.4272316 96.4050759 9.14066336 2.08896822 12.4335446 -1.27106353e-13"></polygon>
                                    <polygon id="Path-6" fill="#404040" transform="translate(9.752373, 101.024594) scale(-1, 1) translate(-9.752373, -101.024594) " points="3.6638625 97.7819374 7.07751508 96.4050759 15.8408841 101.645376 15.7015429 105.644112"></polygon>
                                    <polygon id="Path-2" fill="#575757" points="9.14066336 2.08896822 12.4272316 96.4050759 3.6638625 101.645376 0.388973515 7.66443172"></polygon>
                                </g>
                                <g id="groove-1-copy-10" transform="translate(117.597760, 198.958330) rotate(2.000000) translate(-117.597760, -198.958330) translate(109.604079, 146.109622)">
                                    <polygon id="Fill-1596-Copy" fill="#333333" points="15.8408841 97.7819374 15.6919536 97.7162187 12.4272316 96.4050759 9.14066336 2.08896822 12.4335446 -1.27106353e-13"></polygon>
                                    <polygon id="Path-6" fill="#404040" transform="translate(9.752373, 101.024594) scale(-1, 1) translate(-9.752373, -101.024594) " points="3.6638625 97.7819374 7.07751508 96.4050759 15.8408841 101.645376 15.7015429 105.644112"></polygon>
                                    <polygon id="Path-2" fill="#575757" points="9.14066336 2.08896822 12.4272316 96.4050759 3.6638625 101.645376 0.388973515 7.66443172"></polygon>
                                </g>
                                <g id="groove-1-copy-11" transform="translate(90.048709, 215.318104) rotate(2.000000) translate(-90.048709, -215.318104) translate(82.055028, 162.469396)">
                                    <polygon id="Fill-1596-Copy" fill="#333333" points="15.8408841 97.7819374 15.6919536 97.7162187 12.4272316 96.4050759 9.14066336 2.08896822 12.4335446 -1.27106353e-13"></polygon>
                                    <polygon id="Path-6" fill="#404040" transform="translate(9.752373, 101.024594) scale(-1, 1) translate(-9.752373, -101.024594) " points="3.6638625 97.7819374 7.07751508 96.4050759 15.8408841 101.645376 15.7015429 105.644112"></polygon>
                                    <polygon id="Path-2" fill="#575757" points="9.14066336 2.08896822 12.4272316 96.4050759 3.6638625 101.645376 0.388973515 7.66443172"></polygon>
                                </g>
                                <g id="groove-1-copy-12" transform="translate(63.733621, 230.992850) rotate(2.000000) translate(-63.733621, -230.992850) translate(55.739940, 178.144142)">
                                    <polygon id="Fill-1596-Copy" fill="#333333" points="15.8408841 97.7819374 15.6919536 97.7162187 12.4272316 96.4050759 9.14066336 2.08896822 12.4335446 -1.27106353e-13"></polygon>
                                    <polygon id="Path-6" fill="#404040" transform="translate(9.752373, 101.024594) scale(-1, 1) translate(-9.752373, -101.024594) " points="3.6638625 97.7819374 7.07751508 96.4050759 15.8408841 101.645376 15.7015429 105.644112"></polygon>
                                    <polygon id="Path-2" fill="#575757" points="9.14066336 2.08896822 12.4272316 96.4050759 3.6638625 101.645376 0.388973515 7.66443172"></polygon>
                                </g>
                                <g id="groove-1-copy-13" transform="translate(37.463183, 246.025751) rotate(2.000000) translate(-37.463183, -246.025751) translate(29.469502, 193.177043)">
                                    <polygon id="Fill-1596-Copy" fill="#333333" points="15.8408841 97.7819374 15.6919536 97.7162187 12.4272316 96.4050759 9.14066336 2.08896822 12.4335446 -1.27106353e-13"></polygon>
                                    <polygon id="Path-6" fill="#404040" transform="translate(9.752373, 101.024594) scale(-1, 1) translate(-9.752373, -101.024594) " points="3.6638625 97.7819374 7.07751508 96.4050759 15.8408841 101.645376 15.7015429 105.644112"></polygon>
                                    <polygon id="Path-2" fill="#575757" points="9.14066336 2.08896822 12.4272316 96.4050759 3.6638625 101.645376 0.388973515 7.66443172"></polygon>
                                </g>
                                <g id="groove-1-copy-14" transform="translate(9.914132, 261.744462) rotate(2.000000) translate(-9.914132, -261.744462) translate(1.920451, 208.895753)">
                                    <polygon id="Fill-1596-Copy" fill="#333333" points="15.8408841 97.7819374 15.6919536 97.7162187 12.4272316 96.4050759 9.14066336 2.08896822 12.4335446 -1.27106353e-13"></polygon>
                                    <polygon id="Path-6" fill="#404040" transform="translate(9.752373, 101.024594) scale(-1, 1) translate(-9.752373, -101.024594) " points="3.6638625 97.7819374 7.07751508 96.4050759 15.8408841 101.645376 15.7015429 105.644112"></polygon>
                                    <polygon id="Path-2" fill="#575757" points="9.14066336 2.08896822 12.4272316 96.4050759 3.6638625 101.645376 0.388973515 7.66443172"></polygon>
                                </g>
                            </g>
                            <g id="groves-1-copy" transform="translate(243.716820, 139.050461) scale(-1, -1) translate(-243.716820, -139.050461) translate(14.697863, 3.725738)">
                                <g id="groove-1-copy-14" transform="translate(50.750476, 238.565692) rotate(-63.000000) translate(-50.750476, -238.565692) translate(41.957427, 186.517721)">
                                    <polygon id="Path-2" fill="#757575" points="16.8775068 8.11918013 11.1292478 104.027166 0.386770287 97.1126097 5.53026412 0.544538947"></polygon>
                                    <polygon id="Path-6" fill="#666666" transform="translate(5.804118, 99.997628) scale(-1, 1) translate(-5.804118, -99.997628) " points="0.478987868 104.027166 0.386770287 102.135462 8.98000749 95.9680894 11.2214654 97.1126097"></polygon>
                                    <polygon id="Fill-1596-Copy" fill="#626262" points="2.62822817 95.9680894 0.386770287 97.1126097 5.53026412 0.544538947 7.33399365 1.91189882"></polygon>
                                </g>
                                <g id="groove-1-copy-15" transform="translate(77.617732, 223.180167) rotate(-63.000000) translate(-77.617732, -223.180167) translate(68.824683, 171.132197)">
                                    <polygon id="Path-2" fill="#757575" points="16.8775068 8.11918013 11.1292478 104.027166 0.386770287 97.1126097 5.53026412 0.544538947"></polygon>
                                    <polygon id="Path-6" fill="#666666" transform="translate(5.804118, 99.997628) scale(-1, 1) translate(-5.804118, -99.997628) " points="0.478987868 104.027166 0.386770287 102.135462 8.98000749 95.9680894 11.2214654 97.1126097"></polygon>
                                    <polygon id="Fill-1596-Copy" fill="#626262" points="2.62822817 95.9680894 0.386770287 97.1126097 5.53026412 0.544538947 7.33399365 1.91189882"></polygon>
                                </g>
                                <g id="groove-1-copy-16" transform="translate(105.764382, 206.512516) rotate(-63.000000) translate(-105.764382, -206.512516) translate(96.971333, 154.464545)">
                                    <polygon id="Path-2" fill="#757575" points="16.8775068 8.11918013 11.1292478 104.027166 0.386770287 97.1126097 5.53026412 0.544538947"></polygon>
                                    <polygon id="Path-6" fill="#666666" transform="translate(5.804118, 99.997628) scale(-1, 1) translate(-5.804118, -99.997628) " points="0.478987868 104.027166 0.386770287 102.135462 8.98000749 95.9680894 11.2214654 97.1126097"></polygon>
                                    <polygon id="Fill-1596-Copy" fill="#626262" points="2.62822817 95.9680894 0.386770287 97.1126097 5.53026412 0.544538947 7.33399365 1.91189882"></polygon>
                                </g>
                                <g id="groove-1-copy-17" transform="translate(137.109515, 188.562737) rotate(-63.000000) translate(-137.109515, -188.562737) translate(128.316466, 136.514767)">
                                    <polygon id="Path-2" fill="#757575" points="16.8775068 8.11918013 11.1292478 104.027166 0.386770287 97.1126097 5.53026412 0.544538947"></polygon>
                                    <polygon id="Path-6" fill="#666666" transform="translate(5.804118, 99.997628) scale(-1, 1) translate(-5.804118, -99.997628) " points="0.478987868 104.027166 0.386770287 102.135462 8.98000749 95.9680894 11.2214654 97.1126097"></polygon>
                                    <polygon id="Fill-1596-Copy" fill="#626262" points="2.62822817 95.9680894 0.386770287 97.1126097 5.53026412 0.544538947 7.33399365 1.91189882"></polygon>
                                </g>
                                <g id="groove-1-copy-18" transform="translate(167.175254, 170.612959) rotate(-63.000000) translate(-167.175254, -170.612959) translate(158.382205, 118.564989)">
                                    <polygon id="Path-2" fill="#757575" points="16.8775068 8.11918013 11.1292478 104.027166 0.386770287 97.1126097 5.53026412 0.544538947"></polygon>
                                    <polygon id="Path-6" fill="#666666" transform="translate(5.804118, 99.997628) scale(-1, 1) translate(-5.804118, -99.997628) " points="0.478987868 104.027166 0.386770287 102.135462 8.98000749 95.9680894 11.2214654 97.1126097"></polygon>
                                    <polygon id="Fill-1596-Copy" fill="#626262" points="2.62822817 95.9680894 0.386770287 97.1126097 5.53026412 0.544538947 7.33399365 1.91189882"></polygon>
                                </g>
                                <g id="groove-1-copy-19" transform="translate(199.160084, 152.022117) rotate(-63.000000) translate(-199.160084, -152.022117) translate(190.367035, 99.974147)">
                                    <polygon id="Path-2" fill="#757575" points="16.8775068 8.11918013 11.1292478 104.027166 0.386770287 97.1126097 5.53026412 0.544538947"></polygon>
                                    <polygon id="Path-6" fill="#666666" transform="translate(5.804118, 99.997628) scale(-1, 1) translate(-5.804118, -99.997628) " points="0.478987868 104.027166 0.386770287 102.135462 8.98000749 95.9680894 11.2214654 97.1126097"></polygon>
                                    <polygon id="Fill-1596-Copy" fill="#626262" points="2.62822817 95.9680894 0.386770287 97.1126097 5.53026412 0.544538947 7.33399365 1.91189882"></polygon>
                                </g>
                                <g id="groove-1-copy-20" transform="translate(236.262486, 130.225958) rotate(-63.000000) translate(-236.262486, -130.225958) translate(227.469437, 78.177987)">
                                    <polygon id="Path-2" fill="#757575" points="16.8775068 8.11918013 11.1292478 104.027166 0.386770287 97.1126097 5.53026412 0.544538947"></polygon>
                                    <polygon id="Path-6" fill="#666666" transform="translate(5.804118, 99.997628) scale(-1, 1) translate(-5.804118, -99.997628) " points="0.478987868 104.027166 0.386770287 102.135462 8.98000749 95.9680894 11.2214654 97.1126097"></polygon>
                                    <polygon id="Fill-1596-Copy" fill="#626262" points="2.62822817 95.9680894 0.386770287 97.1126097 5.53026412 0.544538947 7.33399365 1.91189882"></polygon>
                                </g>
                                <g id="groove-1-copy-21" transform="translate(269.526708, 111.635116) rotate(-63.000000) translate(-269.526708, -111.635116) translate(260.733659, 59.587145)">
                                    <polygon id="Path-2" fill="#757575" points="16.8775068 8.11918013 11.1292478 104.027166 0.386770287 97.1126097 5.53026412 0.544538947"></polygon>
                                    <polygon id="Path-6" fill="#666666" transform="translate(5.804118, 99.997628) scale(-1, 1) translate(-5.804118, -99.997628) " points="0.478987868 104.027166 0.386770287 102.135462 8.98000749 95.9680894 11.2214654 97.1126097"></polygon>
                                    <polygon id="Fill-1596-Copy" fill="#626262" points="2.62822817 95.9680894 0.386770287 97.1126097 5.53026412 0.544538947 7.33399365 1.91189882"></polygon>
                                </g>
                                <g id="groove-1-copy-22" transform="translate(305.349717, 91.121083) rotate(-63.000000) translate(-305.349717, -91.121083) translate(296.556668, 39.073113)">
                                    <polygon id="Path-2" fill="#757575" points="16.8775068 8.11918013 11.1292478 104.027166 0.386770287 97.1126097 5.53026412 0.544538947"></polygon>
                                    <polygon id="Path-6" fill="#666666" transform="translate(5.804118, 99.997628) scale(-1, 1) translate(-5.804118, -99.997628) " points="0.478987868 104.027166 0.386770287 102.135462 8.98000749 95.9680894 11.2214654 97.1126097"></polygon>
                                    <polygon id="Fill-1596-Copy" fill="#626262" points="2.62822817 95.9680894 0.386770287 97.1126097 5.53026412 0.544538947 7.33399365 1.91189882"></polygon>
                                </g>
                                <g id="groove-1-copy-23" transform="translate(339.253636, 71.248114) rotate(-63.000000) translate(-339.253636, -71.248114) translate(330.460587, 19.200144)">
                                    <polygon id="Path-2" fill="#757575" points="16.8775068 8.11918013 11.1292478 104.027166 0.386770287 97.1126097 5.53026412 0.544538947"></polygon>
                                    <polygon id="Path-6" fill="#666666" transform="translate(5.804118, 99.997628) scale(-1, 1) translate(-5.804118, -99.997628) " points="0.478987868 104.027166 0.386770287 102.135462 8.98000749 95.9680894 11.2214654 97.1126097"></polygon>
                                    <polygon id="Fill-1596-Copy" fill="#626262" points="2.62822817 95.9680894 0.386770287 97.1126097 5.53026412 0.544538947 7.33399365 1.91189882"></polygon>
                                </g>
                                <g id="groove-1-copy-24" transform="translate(373.157555, 52.016209) rotate(-63.000000) translate(-373.157555, -52.016209) translate(364.364506, -0.031762)">
                                    <polygon id="Path-2" fill="#757575" points="16.8775068 8.11918013 11.1292478 104.027166 0.386770287 97.1126097 5.53026412 0.544538947"></polygon>
                                    <polygon id="Path-6" fill="#666666" transform="translate(5.804118, 99.997628) scale(-1, 1) translate(-5.804118, -99.997628) " points="0.478987868 104.027166 0.386770287 102.135462 8.98000749 95.9680894 11.2214654 97.1126097"></polygon>
                                    <polygon id="Fill-1596-Copy" fill="#626262" points="2.62822817 95.9680894 0.386770287 97.1126097 5.53026412 0.544538947 7.33399365 1.91189882"></polygon>
                                </g>
                                <g id="groove-1-copy-25" transform="translate(407.701171, 31.502176) rotate(-63.000000) translate(-407.701171, -31.502176) translate(398.908122, -20.545794)">
                                    <polygon id="Path-2" fill="#757575" points="16.8775068 8.11918013 11.1292478 104.027166 0.386770287 97.1126097 5.53026412 0.544538947"></polygon>
                                    <polygon id="Path-6" fill="#666666" transform="translate(5.804118, 99.997628) scale(-1, 1) translate(-5.804118, -99.997628) " points="0.478987868 104.027166 0.386770287 102.135462 8.98000749 95.9680894 11.2214654 97.1126097"></polygon>
                                    <polygon id="Fill-1596-Copy" fill="#626262" points="2.62822817 95.9680894 0.386770287 97.1126097 5.53026412 0.544538947 7.33399365 1.91189882"></polygon>
                                </g>
                            </g>
                            <polygon id="Path-65-Copy" fill="#424242" transform="translate(51.362163, 327.491581) scale(-1, 1) translate(-51.362163, -327.491581) " points="2.93165797 279.11212 99.7926675 223.151683 99.7926675 376.607516 3.205512 431.831479"></polygon>
                            <polygon id="Path-5" fill="#B3B4B3" points="2.93165797 358.795191 0.271423776 357.379039 2.93165797 356.045372"></polygon>
                        </g>
                        <polygon id="Path-7-Copy" fill="#747474" points="417.2831 291.580274 417.2831 403.149919 494.034414 358.973391 494.034414 248.339687"></polygon>
                        <g id="Group-2" transform="translate(414.523388, 254.502216)">
                            <path d="" id="Path-29" stroke="#979797" stroke-width="0.639999924"></path>
                            <path d="M17.9427309,50.946059 L18.7661928,60.6493174 C18.8259707,61.3537099 19.4454532,61.8762732 20.1498456,61.8164953 C20.3710412,61.7977236 20.5835522,61.7217476 20.766512,61.5960273 L33.7474258,52.6762317 C36.4551338,50.8156384 37.9274257,47.6223724 37.5840137,44.3550252 L36.6038612,35.0294975 C36.5299675,34.3264457 35.9001287,33.8164123 35.1970769,33.890306 C34.9874029,33.9123436 34.7864187,33.9858315 34.6119818,34.1042403 L21.8383972,42.7750216 C19.1583081,44.5942813 17.6688202,47.718435 17.9427309,50.946059 Z" id="Path-32" fill="#D8D8D8" transform="translate(27.771888, 47.852172) rotate(6.000000) translate(-27.771888, -47.852172) "></path>
                            <path d="M41.1340296,36.9883994 L41.9574916,46.6916578 C42.0172695,47.3960503 42.6367519,47.9186136 43.3411443,47.8588357 C43.56234,47.8400641 43.774851,47.764088 43.9578108,47.6383677 L56.9387246,38.7185721 C59.6464325,36.8579788 61.1187245,33.6647128 60.7753124,30.3973656 L59.79516,21.0718379 C59.7212663,20.3687861 59.0914275,19.8587527 58.3883757,19.9326464 C58.1787016,19.954684 57.9777174,20.0281719 57.8032805,20.1465807 L45.029696,28.817362 C42.3496068,30.6366217 40.860119,33.7607754 41.1340296,36.9883994 Z" id="Path-32-Copy" fill="#D8D8D8" transform="translate(50.963187, 33.894512) rotate(6.000000) translate(-50.963187, -33.894512) "></path>
                            <polygon id="Path-34" fill="#D8D8D8" points="79.5110254 104.471175 74.7123644 102.5848 2.75971215 143.467455 2.75971215 148.647704"></polygon>
                            <polygon id="Path-35" fill="#D8D8D8" points="73.7641555 96.6757064 6.6964694 135.905063 6.6964694 104.321987 73.7641555 64.7998406"></polygon>
                            <path d="M8.31527101,83.0455414 L8.31647218,99.1967511 C8.31652476,99.9036755 8.88964283,100.476708 9.59656722,100.476656 C9.8323309,100.476638 10.0635095,100.411506 10.264606,100.288442 L32.8688351,86.4554633 C35.5604077,84.8083172 37.1870933,81.8667603 37.1513208,78.7113881 L36.9612153,61.9428343 C36.9532014,61.2359553 36.3736662,60.6694133 35.6667872,60.6774272 C35.4245942,60.6801729 35.1881507,60.7515792 34.9849236,60.8833509 L12.4006515,75.5269181 C9.85279828,77.1789377 8.31504518,80.0089767 8.31527101,83.0455414 Z" id="Path-32-Copy-2" fill="#363535" transform="translate(22.733585, 80.576999) rotate(2.000000) translate(-22.733585, -80.576999) "></path>
                            <path d="M41.5794935,63.1725724 L41.5806947,79.3237822 C41.5807473,80.0307066 42.1538653,80.6037394 42.8607897,80.6036868 C43.0965534,80.6036693 43.327732,80.5385368 43.5288285,80.415473 L66.1330576,66.5824943 C68.8246302,64.9353482 70.4513158,61.9937913 70.4155433,58.8384191 L70.2254378,42.0698653 C70.2174239,41.3629864 69.6378887,40.7964443 68.9310097,40.8044582 C68.6888167,40.8072039 68.4523732,40.8786102 68.2491461,41.0103819 L45.6648741,55.6539491 C43.1170208,57.3059687 41.5792677,60.1360077 41.5794935,63.1725724 Z" id="Path-32-Copy-3" fill="#353636" transform="translate(55.997807, 60.704031) rotate(2.000000) translate(-55.997807, -60.704031) "></path>
                            <polygon id="Path-36" fill="#747474" points="5.61327939 92.0064886 16.1110443 72.8975863 7.33616599 69.8057624"></polygon>
                            <polygon id="Path-37" fill="#747474" points="74.16785 47.4718115 63.6903772 43.9128508 70.4738801 35.8593075"></polygon>
                            <polygon id="Path-33" stroke="#323232" stroke-width="0.639999924" points="4.33352603 142.173294 74.16785 102.422359 74.16785 45.548621 63.9696587 41.9896603 14.8312909 69.7083157 4.33352603 88.817218"></polygon>
                            <polygon id="Path-38" fill="#636363" points="73.7641555 96.6757064 63.1346551 93.6260181 63.1346551 71.0212383 73.7641555 64.7998406"></polygon>
                            <polygon id="Path-39" fill="#808080" points="63.1346551 93.6260181 6.6964694 125.616252 6.6964694 135.905063 73.7641555 96.6757064"></polygon>
                            <polygon id="Path-41" fill="#636363" points="25.5878635 86.4424391 32.5796043 82.558667 32.5796043 67.1935921 34.4128179 66.0295421 34.4128179 83.5811702 25.5878635 88.4045067"></polygon>
                            <polygon id="Path-40" stroke="#979797" stroke-width="0.5" points="25.5878635 71.3812889 34.4128179 66.0295421 34.4128179 83.5811702 25.5878635 88.4045067"></polygon>
                            <polyline id="Path-42" stroke="#979797" stroke-width="0.5" points="32.6106544 67.102024 32.6106544 82.6175209 25.5878635 86.5798023"></polyline>
                            <polygon id="Path-43" stroke="#979797" stroke-width="0.5" fill="#D8D8D8" points="31.6156999 69.572237 26.3563358 72.5985549 26.3563358 78.9398037 31.6156999 76.2194016"></polygon>
                            <g id="fan-" transform="translate(50.856506, 64.489620) rotate(2.000000) translate(-50.856506, -64.489620) translate(42.862825, 50.476705)">
                                <polygon id="Path-44" stroke="#8C8C8C" stroke-width="0.5" fill="#979797" points="0.327203719 9.78323269 0.327203719 27.7729626 14.9779299 18.7780977 14.9779299 -3.9217226e-14"></polygon>
                                <path d="M8.64552806,22.4077229 C12.7151092,20.1488915 14.952241,15.2430779 14.6926904,11.5420576 C14.4331399,7.84103716 10.3092037,4.73246956 6.88181177,6.39772133 C3.45441981,8.06297311 0.639696587,12.8444362 0.639696587,17.4894567 C0.639696587,22.1344772 4.57594697,24.6665543 8.64552806,22.4077229 Z" id="Oval" fill="#D8D8D8"></path>
                                <path d="M7.98348255,20.4524706 C10.8570401,18.8470705 12.7382169,15.2423151 12.528826,12.2370232 C12.3325664,9.42020011 9.24650791,7.27224822 6.85237254,8.44307898 C4.24737555,9.71702975 2.16908976,13.3832824 2.16908976,16.8454017 C2.16908976,20.3010508 5.03418157,22.1001872 7.98348255,20.4524706 Z" id="Oval-Copy" stroke="#979797" stroke-width="0.5"></path>
                                <path d="M7.53306484,19.2935879 C9.88371599,18.0026596 11.4233007,15.1026443 11.2522262,12.6890485 C11.0928785,10.4408994 8.58267264,8.72346466 6.63935682,9.65766349 C4.51034654,10.6811301 2.80878635,13.6317614 2.80878635,16.4160316 C2.80878635,19.1771676 5.13284154,20.6117401 7.53306484,19.2935879 Z" id="Oval-Copy-2" stroke="#979797" stroke-width="0.5"></path>
                                <path d="M7.35048535,18.1392048 C9.00752872,17.1649551 10.0974374,14.9670482 9.9764501,13.1396144 C9.86514023,11.4583521 8.12309783,10.182348 6.78990698,10.8684848 C5.29304103,11.6388582 4.08817952,13.8756586 4.08817952,15.9866616 C4.08817952,18.0567005 5.6901804,19.1153721 7.35048535,18.1392048 Z" id="Oval-Copy-3" stroke="#979797" stroke-width="0.5"></path>
                                <path d="M7.16063055,16.989828 C8.12781558,16.333692 8.77207979,14.8345904 8.7006179,13.5891463 C8.63664388,12.4742016 7.66221421,11.6506482 6.94761605,12.0750021 C6.07984008,12.5903184 5.36757269,14.1160603 5.36757269,15.5572916 C5.36757269,16.9382192 6.24758302,17.6092372 7.16063055,16.989828 Z" id="Oval-Copy-4" stroke="#979797" stroke-width="0.5" fill="#D8D8D8"></path>
                            </g>
                            <g id="buttons" transform="translate(26.867257, 78.209749)" fill="#D8D8D8">
                                <path d="M0.511757277,2.43563897 C0.794393017,2.29379688 1.02351455,1.94920001 1.02351455,1.66596033 C1.02351455,1.38272064 0.794393017,1.26809524 0.511757277,1.40993733 C0.229121537,1.55177942 0,1.89637629 0,2.17961598 C0,2.46285566 0.229121537,2.57748106 0.511757277,2.43563897 Z" id="Oval"></path>
                                <path d="M2.04702911,1.72760442 C2.32966485,1.58576233 2.55878638,1.24116547 2.55878638,0.957925781 C2.55878638,0.674686094 2.32966485,0.560060694 2.04702911,0.701902785 C1.76439337,0.843744875 1.53527183,1.18834174 1.53527183,1.47158143 C1.53527183,1.75482112 1.76439337,1.86944652 2.04702911,1.72760442 Z" id="Oval-Copy-7"></path>
                                <path d="M0.511757277,3.87659957 C0.794393017,3.73475748 1.02351455,3.39016061 1.02351455,3.10692092 C1.02351455,2.82368124 0.794393017,2.70905584 0.511757277,2.85089793 C0.229121537,2.99274002 0,3.33733689 0,3.62057657 C0,3.90381626 0.229121537,4.01844166 0.511757277,3.87659957 Z" id="Oval-Copy-5"></path>
                                <path d="M2.04702911,3.16856502 C2.32966485,3.02672293 2.55878638,2.68212606 2.55878638,2.39888638 C2.55878638,2.11564669 2.32966485,2.00102129 2.04702911,2.14286338 C1.76439337,2.28470547 1.53527183,2.62930234 1.53527183,2.91254203 C1.53527183,3.19578171 1.76439337,3.31040711 2.04702911,3.16856502 Z" id="Oval-Copy-8"></path>
                                <path d="M0.511757277,5.31756016 C0.794393017,5.17571807 1.02351455,4.83112121 1.02351455,4.54788152 C1.02351455,4.26464183 0.794393017,4.15001643 0.511757277,4.29185852 C0.229121537,4.43370062 0,4.77829748 0,5.06153717 C0,5.34477686 0.229121537,5.45940226 0.511757277,5.31756016 Z" id="Oval-Copy-6"></path>
                                <path d="M2.04702911,4.60952562 C2.32966485,4.46768353 2.55878638,4.12308666 2.55878638,3.83984697 C2.55878638,3.55660729 2.32966485,3.44198189 2.04702911,3.58382398 C1.76439337,3.72566607 1.53527183,4.07026293 1.53527183,4.35350262 C1.53527183,4.63674231 1.76439337,4.75136771 2.04702911,4.60952562 Z" id="Oval-Copy-9"></path>
                                <g id="Group" transform="translate(3.198483, 0.000000)">
                                    <path d="M0.319848293,1.2872361 C0.496495628,1.25567642 0.639696587,1.0865853 0.639696587,0.909560494 C0.639696587,0.732535692 0.496495628,0.614612908 0.319848293,0.646172583 C0.143200959,0.677732258 1.25087141e-11,0.846823386 1.25087141e-11,1.02384819 C1.25087141e-11,1.20087299 0.143200959,1.31879577 0.319848293,1.2872361 Z" id="Oval"></path>
                                    <path d="M0.95954488,0.646172583 C1.13619221,0.614612908 1.27939317,0.44552178 1.27939317,0.268496978 C1.27939317,0.0914721766 1.13619221,-0.0264506079 0.95954488,0.00510906728 C0.782897545,0.0366687424 0.639696587,0.20575987 0.639696587,0.382784672 C0.639696587,0.559809473 0.782897545,0.677732258 0.95954488,0.646172583 Z" id="Oval-Copy-11"></path>
                                    <path d="M1.59924147,1.2872361 C1.7758888,1.25567642 1.91908976,1.0865853 1.91908976,0.909560494 C1.91908976,0.732535692 1.7758888,0.614612908 1.59924147,0.646172583 C1.42259413,0.677732258 1.27939317,0.846823386 1.27939317,1.02384819 C1.27939317,1.20087299 1.42259413,1.31879577 1.59924147,1.2872361 Z" id="Oval-Copy-12"></path>
                                    <path d="M0.95954488,1.92829961 C1.13619221,1.89673994 1.27939317,1.72764881 1.27939317,1.55062401 C1.27939317,1.37359921 1.13619221,1.25567642 0.95954488,1.2872361 C0.782897545,1.31879577 0.639696587,1.4878869 0.639696587,1.6649117 C0.639696587,1.8419365 0.782897545,1.95985929 0.95954488,1.92829961 Z" id="Oval-Copy-10"></path>
                                </g>
                            </g>
                            <g id="bolts" transform="translate(0.000000, 45.582481)" fill="#D8D8D8">
                                <path d="M0.511757277,52.3716221 C0.794393017,52.2297801 1.02351455,51.8851832 1.02351455,51.6019435 C1.02351455,51.3187038 0.794393017,51.2040784 0.511757277,51.3459205 C0.229121537,51.4877626 0,51.8323595 0,52.1155992 C0,52.3988388 0.229121537,52.5134642 0.511757277,52.3716221 Z" id="Oval"></path>
                                <path d="M0.511757277,39.5503518 C0.794393017,39.4085097 1.02351455,39.0639129 1.02351455,38.7806732 C1.02351455,38.4974335 0.794393017,38.3828081 0.511757277,38.5246502 C0.229121537,38.6664923 0,39.0110892 0,39.2943288 C0,39.5775685 0.229121537,39.6921939 0.511757277,39.5503518 Z" id="Oval-Copy-13"></path>
                                <path d="M0.511757277,26.7290815 C0.794393017,26.5872394 1.02351455,26.2426426 1.02351455,25.9594029 C1.02351455,25.6761632 0.794393017,25.5615378 0.511757277,25.7033799 C0.229121537,25.845222 0,26.1898188 0,26.4730585 C0,26.7562982 0.229121537,26.8709236 0.511757277,26.7290815 Z" id="Oval-Copy-14"></path>
                                <path d="M0.511757277,13.9078112 C0.794393017,13.7659691 1.02351455,13.4213723 1.02351455,13.1381326 C1.02351455,12.8548929 0.794393017,12.7402675 0.511757277,12.8821096 C0.229121537,13.0239517 0,13.3685485 0,13.6517882 C0,13.9350279 0.229121537,14.0496533 0.511757277,13.9078112 Z" id="Oval-Copy-15"></path>
                                <path d="M0.511757277,1.08654091 C0.794393017,0.944698819 1.02351455,0.600101952 1.02351455,0.316862265 C1.02351455,0.0336225783 0.794393017,-0.0810028215 0.511757277,0.060839269 C0.229121537,0.20268136 0,0.547278226 0,0.830517913 C0,1.1137576 0.229121537,1.228383 0.511757277,1.08654091 Z" id="Oval-Copy-16"></path>
                                <path d="M0.511757277,103.656703 C0.794393017,103.514861 1.02351455,103.170264 1.02351455,102.887025 C1.02351455,102.603785 0.794393017,102.48916 0.511757277,102.631002 C0.229121537,102.772844 0,103.117441 0,103.40068 C0,103.68392 0.229121537,103.798545 0.511757277,103.656703 Z" id="Oval-Copy-20"></path>
                                <path d="M0.511757277,90.8354331 C0.794393017,90.693591 1.02351455,90.3489941 1.02351455,90.0657544 C1.02351455,89.7825147 0.794393017,89.6678893 0.511757277,89.8097314 C0.229121537,89.9515735 0,90.2961704 0,90.5794101 C0,90.8626498 0.229121537,90.9772752 0.511757277,90.8354331 Z" id="Oval-Copy-19"></path>
                                <path d="M0.511757277,78.0141628 C0.794393017,77.8723207 1.02351455,77.5277238 1.02351455,77.2444841 C1.02351455,76.9612444 0.794393017,76.846619 0.511757277,76.9884611 C0.229121537,77.1303032 0,77.4749001 0,77.7581398 C0,78.0413795 0.229121537,78.1560049 0.511757277,78.0141628 Z" id="Oval-Copy-18"></path>
                                <path d="M0.511757277,65.1928925 C0.794393017,65.0510504 1.02351455,64.7064535 1.02351455,64.4232138 C1.02351455,64.1399741 0.794393017,64.0253487 0.511757277,64.1671908 C0.229121537,64.3090329 0,64.6536298 0,64.9368695 C0,65.2201092 0.229121537,65.3347346 0.511757277,65.1928925 Z" id="Oval-Copy-17"></path>
                            </g>
                            <g id="bolts-copy" transform="translate(80.601770, 0.000000)" fill="#D8D8D8">
                                <path d="M0.511757277,52.3716221 C0.794393017,52.2297801 1.02351455,51.8851832 1.02351455,51.6019435 C1.02351455,51.3187038 0.794393017,51.2040784 0.511757277,51.3459205 C0.229121537,51.4877626 0,51.8323595 0,52.1155992 C0,52.3988388 0.229121537,52.5134642 0.511757277,52.3716221 Z" id="Oval"></path>
                                <path d="M0.511757277,39.5503518 C0.794393017,39.4085097 1.02351455,39.0639129 1.02351455,38.7806732 C1.02351455,38.4974335 0.794393017,38.3828081 0.511757277,38.5246502 C0.229121537,38.6664923 0,39.0110892 0,39.2943288 C0,39.5775685 0.229121537,39.6921939 0.511757277,39.5503518 Z" id="Oval-Copy-13"></path>
                                <path d="M0.511757277,26.7290815 C0.794393017,26.5872394 1.02351455,26.2426426 1.02351455,25.9594029 C1.02351455,25.6761632 0.794393017,25.5615378 0.511757277,25.7033799 C0.229121537,25.845222 0,26.1898188 0,26.4730585 C0,26.7562982 0.229121537,26.8709236 0.511757277,26.7290815 Z" id="Oval-Copy-14"></path>
                                <path d="M0.511757277,13.9078112 C0.794393017,13.7659691 1.02351455,13.4213723 1.02351455,13.1381326 C1.02351455,12.8548929 0.794393017,12.7402675 0.511757277,12.8821096 C0.229121537,13.0239517 0,13.3685485 0,13.6517882 C0,13.9350279 0.229121537,14.0496533 0.511757277,13.9078112 Z" id="Oval-Copy-15"></path>
                                <path d="M0.511757277,1.08654091 C0.794393017,0.944698819 1.02351455,0.600101952 1.02351455,0.316862265 C1.02351455,0.0336225783 0.794393017,-0.0810028215 0.511757277,0.060839269 C0.229121537,0.20268136 0,0.547278226 0,0.830517913 C0,1.1137576 0.229121537,1.228383 0.511757277,1.08654091 Z" id="Oval-Copy-16"></path>
                                <path d="M0.511757277,103.656703 C0.794393017,103.514861 1.02351455,103.170264 1.02351455,102.887025 C1.02351455,102.603785 0.794393017,102.48916 0.511757277,102.631002 C0.229121537,102.772844 0,103.117441 0,103.40068 C0,103.68392 0.229121537,103.798545 0.511757277,103.656703 Z" id="Oval-Copy-20"></path>
                                <path d="M0.511757277,90.8354331 C0.794393017,90.693591 1.02351455,90.3489941 1.02351455,90.0657544 C1.02351455,89.7825147 0.794393017,89.6678893 0.511757277,89.8097314 C0.229121537,89.9515735 0,90.2961704 0,90.5794101 C0,90.8626498 0.229121537,90.9772752 0.511757277,90.8354331 Z" id="Oval-Copy-19"></path>
                                <path d="M0.511757277,78.0141628 C0.794393017,77.8723207 1.02351455,77.5277238 1.02351455,77.2444841 C1.02351455,76.9612444 0.794393017,76.846619 0.511757277,76.9884611 C0.229121537,77.1303032 0,77.4749001 0,77.7581398 C0,78.0413795 0.229121537,78.1560049 0.511757277,78.0141628 Z" id="Oval-Copy-18"></path>
                                <path d="M0.511757277,65.1928925 C0.794393017,65.0510504 1.02351455,64.7064535 1.02351455,64.4232138 C1.02351455,64.1399741 0.794393017,64.0253487 0.511757277,64.1671908 C0.229121537,64.3090329 0,64.6536298 0,64.9368695 C0,65.2201092 0.229121537,65.3347346 0.511757277,65.1928925 Z" id="Oval-Copy-17"></path>
                            </g>
                        </g>
                    </g>
                </g>
                <text id="Temperature" font-family="Inter-SemiBold, Inter" font-size="13" font-weight="500" fill="#FFFFFF">
                    <tspan x="545" y="507">Temperature</tspan>
                </text>
                <g id="Group-7" transform="translate(562.000000, 434.000000)">
                    <circle id="Oval" stroke="#FFFFFF" stroke-width="3" fill="#9FA4AC" cx="25" cy="25" r="25"></circle>
                    <path d="M27.9260127,30.3200062 L27.9260127,29.0525868 L25.3315915,29.0525868 C24.8982907,29.0525868 24.546948,28.7842275 24.546948,28.4525869 C24.546948,28.1209462 24.8982907,27.8525869 25.3315915,27.8525869 L27.9260127,27.8525869 L27.9260127,24.8982902 L25.3315915,24.8982902 C24.8982907,24.8982902 24.546948,24.6299309 24.546948,24.2982902 C24.546948,23.9666496 24.8982907,23.6982903 25.3315915,23.6982903 L27.9260127,23.6982903 L27.9260127,20.7439936 L25.3315915,20.7439936 C24.8982907,20.7439936 24.546948,20.4756343 24.546948,20.1439936 C24.546948,19.812353 24.8982907,19.5439937 25.3315915,19.5439937 L27.9260127,19.5439937 L27.9260127,16.589697 L25.3315915,16.589697 C24.8982907,16.589697 24.546948,16.3213376 24.546948,15.989697 C24.546948,15.6580564 24.8982907,15.3896971 25.3315915,15.3896971 L27.9260127,15.3896971 L27.9260127,13.7840086 C27.9260127,13.0579954 27.6320186,12.343994 27.1160274,11.8159911 C26.5880245,11.2939941 25.892004,11 25.14801,11 C23.6120115,11 22.3700072,12.2480102 22.3700072,13.7840086 L22.3700072,30.3200062 C20.8999999,31.2620105 20,32.8939928 20,34.6579942 C20,37.4960189 22.3100218,39.7999983 25.14801,39.7999983 C27.9859981,39.7999983 30.290014,37.4960189 30.290014,34.6579942 C30.290014,32.8939928 29.39602,31.2620105 27.9260127,30.3200062 Z" id="Path" fill="#FFFFFF" fill-rule="nonzero"></path>
                </g>
                <path d="M490.415383,466.352438 C490.415383,466.352438 560.461687,420.437658 531.151521,338.833258" id="Path-3-Copy-3" stroke="url(#linearGradient-2)" stroke-width="2" stroke-linecap="round" stroke-linejoin="round" stroke-dasharray="5" transform="translate(514.367540, 402.592848) scale(-1, -1) rotate(-60.000000) translate(-514.367540, -402.592848) "></path>
            </g>
        </g>
    </g>
</svg>