<?xml version="1.0" encoding="UTF-8"?>
<svg width="590px" height="529px" viewBox="0 0 590 529" version="1.1" xmlns="http://www.w3.org/2000/svg" xmlns:xlink="http://www.w3.org/1999/xlink">
    <defs>
        <filter x="0.0%" y="0.0%" width="100.0%" height="100.0%" filterUnits="objectBoundingBox" id="filter-1">
            <feGaussianBlur stdDeviation="0" in="SourceGraphic"></feGaussianBlur>
        </filter>
        <circle id="path-2" cx="587" cy="459" r="25"></circle>
        <filter x="-137.0%" y="-133.0%" width="374.0%" height="374.0%" filterUnits="objectBoundingBox" id="filter-3">
            <feMorphology radius="1.5" operator="dilate" in="SourceAlpha" result="shadowSpreadOuter1"></feMorphology>
            <feOffset dx="0" dy="2" in="shadowSpreadOuter1" result="shadowOffsetOuter1"></feOffset>
            <feGaussianBlur stdDeviation="22" in="shadowOffsetOuter1" result="shadowBlurOuter1"></feGaussianBlur>
            <feComposite in="shadowBlurOuter1" in2="SourceAlpha" operator="out" result="shadowBlurOuter1"></feComposite>
            <feColorMatrix values="0 0 0 0 0.374122509   0 0 0 0 0.374122509   0 0 0 0 0.374122509  0 0 0 0.575529939 0" type="matrix" in="shadowBlurOuter1"></feColorMatrix>
        </filter>
        <circle id="path-4" cx="149.733468" cy="149.733468" r="149.733468"></circle>
    </defs>
    <g id="rfid-seal" stroke="none" stroke-width="1" fill="none" fill-rule="evenodd">
        <g id="11.Reefer_SSfrm_fill-Copy" transform="translate(0.000000, -145.000000)">
            <g id="Group-5" transform="translate(-65.000000, 145.000000)">
                <g id="Group-26-Copy" opacity="0.351981027">
                                        <g
             id="view-finder-oval">
            <ellipse
               id="Oval-Copy-21"
               transform="translate(306.122104, 302.689853) scale(-1, 1) rotate(-20.000000) translate(-306.122104, -302.689853) "
               cx="335"
               cy="288"
               rx="295"
               ry="143"
               filter="url(#filter-1)"
               fill-opacity="0.223120629"
               fill="#FFFFFF"
               opacity="0.422386533" />
          </g>
                    <g id="Group-25" transform="translate(31.000000, 0.000000)">
                        <g id="Containter" transform="translate(253.000000, 217.000000) scale(-1, 1) translate(-253.000000, -217.000000) ">
                            <polygon id="Fill-1466" fill="#B3B4B3" points="502.107198 179.315862 392.972597 117.139826 377.846686 126.249853 486.165678 188.883374"></polygon>
                            <polygon id="Fill-1543" fill="#4F4F4F" points="485.315837 188.883374 485.315837 55.7396995 99.5188135 279.11212 99.5188135 414.6582"></polygon>
                            <polygon id="Fill-1547" fill="#B3B4B3" points="505.639115 181.331724 501.457473 179.015066 99.5188135 414.6582 103.0168 416.89826"></polygon>
                            <polygon id="Fill-1548" fill="#747571" points="505.639115 198.532468 505.639115 181.331724 102.80029 416.843869 102.80029 433.46833"></polygon>
                            <polygon id="Fill-1549" fill="#D7DBCD" points="501.457473 197.290775 501.457473 188.034018 106.678583 417.540432 106.678583 426.863503"></polygon>
                            <polygon id="Fill-1550" fill="#8C8C8C" points="388.403664 0 2.93165797 223.151683 99.5188135 279.11212 485.315837 55.7396995"></polygon>
                            <polygon id="Fill-1551" fill="#484948" points="99.5188135 414.735641 99.5188135 431.831479 102.801973 433.468271 102.801973 416.843869"></polygon>
                            <polygon id="Fill-1551-Copy" fill="#484948" points="0.271423776 357.379039 0.271423776 375.068183 2.93165797 376.607516 2.93165797 358.795191"></polygon>
                            <g id="reflectors" transform="translate(106.678583, 195.299718)" fill="#EE9E40">
                                <polygon id="Fill-1566-Copy" points="344.767053 31.007105 344.767053 21.6840339 351.983869 17.5333696 351.983869 26.8396858"></polygon>
                                <polygon id="Fill-1566-Copy-2" points="312.782224 49.597947 312.782224 40.2748758 319.99904 36.1242115 319.99904 45.4305278"></polygon>
                                <polygon id="Fill-1566-Copy-3" points="280.797395 68.1887889 280.797395 58.8657178 288.014211 54.7150535 288.014211 64.0213697"></polygon>
                                <polygon id="Fill-1566-Copy-7" points="248.812565 86.7796309 248.812565 77.4565597 256.029381 73.3058954 256.029381 82.6122117"></polygon>
                                <polygon id="Fill-1566-Copy-6" points="218.488863 104.557699 218.488863 95.2346274 225.705679 91.0839631 225.705679 100.390279"></polygon>
                                <polygon id="Fill-1566-Copy-5" points="186.523254 123.03576 186.523254 113.712689 193.74007 109.562024 193.74007 118.868341"></polygon>
                                <polygon id="Fill-1566-Copy-4" points="154.555281 141.638388 154.555281 132.315317 161.772097 128.164652 161.772097 137.470968"></polygon>
                                <polygon id="Fill-1566-Copy-11" points="123.436756 159.768693 123.436756 150.445622 130.653572 146.294957 130.653572 155.601274"></polygon>
                                <polygon id="Fill-1566-Copy-10" points="93.1073279 177.299892 93.1073279 167.976821 100.324144 163.826156 100.324144 173.132473"></polygon>
                                <polygon id="Fill-1566-Copy-9" points="61.1710358 195.972694 61.1710358 186.649623 68.3878519 182.498959 68.3878519 191.805275"></polygon>
                                <polygon id="Fill-1566-Copy-8" points="29.2018762 214.58707 29.2018762 205.263998 36.4186924 201.113334 36.4186924 210.41965"></polygon>
                                <polygon id="Fill-1566-Copy-12" points="-5.46229728e-13 231.563785 -5.46229728e-13 222.240714 7.21681617 218.09005 7.21681617 227.396366"></polygon>
                            </g>
                            <g id="group-1" transform="translate(102.402091, 84.602138)">
                                <g id="groove-1" transform="translate(369.938556, 53.528804) rotate(2.000000) translate(-369.938556, -53.528804) translate(361.942349, 0.641064)">
                                    <polygon id="Fill-1596-Copy" fill="#333333" points="15.8408841 97.7819374 15.6919536 97.7162187 12.4272316 96.4050759 9.14066336 2.08896822 12.4335446 -1.27106353e-13"></polygon>
                                    <polygon id="Path-6" fill="#404040" transform="translate(9.752373, 101.024594) scale(-1, 1) translate(-9.752373, -101.024594) " points="3.6638625 97.7819374 7.07751508 96.4050759 15.8408841 101.645376 15.7015429 105.644112"></polygon>
                                    <polygon id="Path-2" fill="#575757" points="9.14066336 2.08896822 12.4272316 96.4050759 3.6638625 101.645376 0.388973515 7.66443172"></polygon>
                                </g>
                                <g id="groove-1-copy" transform="translate(349.320259, 65.155396) rotate(2.000000) translate(-349.320259, -65.155396) translate(341.324052, 12.267656)">
                                    <polygon id="Fill-1596-Copy" fill="#333333" points="15.8408841 97.7819374 15.6919536 97.7162187 12.4272316 96.4050759 9.14066336 2.08896822 12.4335446 -1.27106353e-13"></polygon>
                                    <polygon id="Path-6" fill="#404040" transform="translate(9.752373, 101.024594) scale(-1, 1) translate(-9.752373, -101.024594) " points="3.6638625 97.7819374 7.07751508 96.4050759 15.8408841 101.645376 15.7015429 105.644112"></polygon>
                                    <polygon id="Path-2" fill="#575757" points="9.14066336 2.08896822 12.4272316 96.4050759 3.6638625 101.645376 0.388973515 7.66443172"></polygon>
                                </g>
                                <g id="groove-1-copy-2" transform="translate(326.751712, 78.133213) rotate(2.000000) translate(-326.751712, -78.133213) translate(318.755505, 25.245473)">
                                    <polygon id="Fill-1596-Copy" fill="#333333" points="15.8408841 97.7819374 15.6919536 97.7162187 12.4272316 96.4050759 9.14066336 2.08896822 12.4335446 -1.27106353e-13"></polygon>
                                    <polygon id="Path-6" fill="#404040" transform="translate(9.752373, 101.024594) scale(-1, 1) translate(-9.752373, -101.024594) " points="3.6638625 97.7819374 7.07751508 96.4050759 15.8408841 101.645376 15.7015429 105.644112"></polygon>
                                    <polygon id="Path-2" fill="#575757" points="9.14066336 2.08896822 12.4272316 96.4050759 3.6638625 101.645376 0.388973515 7.66443172"></polygon>
                                </g>
                                <g id="groove-1-copy-3" transform="translate(304.227816, 91.110249) rotate(2.000000) translate(-304.227816, -91.110249) translate(296.231609, 38.222509)">
                                    <polygon id="Fill-1596-Copy" fill="#333333" points="15.8408841 97.7819374 15.6919536 97.7162187 12.4272316 96.4050759 9.14066336 2.08896822 12.4335446 -1.27106353e-13"></polygon>
                                    <polygon id="Path-6" fill="#404040" transform="translate(9.752373, 101.024594) scale(-1, 1) translate(-9.752373, -101.024594) " points="3.6638625 97.7819374 7.07751508 96.4050759 15.8408841 101.645376 15.7015429 105.644112"></polygon>
                                    <polygon id="Path-2" fill="#575757" points="9.14066336 2.08896822 12.4272316 96.4050759 3.6638625 101.645376 0.388973515 7.66443172"></polygon>
                                </g>
                                <g id="groove-1-copy-4" transform="translate(277.912728, 106.143931) rotate(2.000000) translate(-277.912728, -106.143931) translate(269.916521, 53.256191)">
                                    <polygon id="Fill-1596-Copy" fill="#333333" points="15.8408841 97.7819374 15.6919536 97.7162187 12.4272316 96.4050759 9.14066336 2.08896822 12.4335446 -1.27106353e-13"></polygon>
                                    <polygon id="Path-6" fill="#404040" transform="translate(9.752373, 101.024594) scale(-1, 1) translate(-9.752373, -101.024594) " points="3.6638625 97.7819374 7.07751508 96.4050759 15.8408841 101.645376 15.7015429 105.644112"></polygon>
                                    <polygon id="Path-2" fill="#575757" points="9.14066336 2.08896822 12.4272316 96.4050759 3.6638625 101.645376 0.388973515 7.66443172"></polygon>
                                </g>
                                <g id="groove-1-copy-5" transform="translate(250.408327, 122.502924) rotate(2.000000) translate(-250.408327, -122.502924) translate(242.412120, 69.615184)">
                                    <polygon id="Fill-1596-Copy" fill="#333333" points="15.8408841 97.7819374 15.6919536 97.7162187 12.4272316 96.4050759 9.14066336 2.08896822 12.4335446 -1.27106353e-13"></polygon>
                                    <polygon id="Path-6" fill="#404040" transform="translate(9.752373, 101.024594) scale(-1, 1) translate(-9.752373, -101.024594) " points="3.6638625 97.7819374 7.07751508 96.4050759 15.8408841 101.645376 15.7015429 105.644112"></polygon>
                                    <polygon id="Path-2" fill="#575757" points="9.14066336 2.08896822 12.4272316 96.4050759 3.6638625 101.645376 0.388973515 7.66443172"></polygon>
                                </g>
                                <g id="groove-1-copy-6" transform="translate(224.093239, 137.536606) rotate(2.000000) translate(-224.093239, -137.536606) translate(216.097032, 84.648866)">
                                    <polygon id="Fill-1596-Copy" fill="#333333" points="15.8408841 97.7819374 15.6919536 97.7162187 12.4272316 96.4050759 9.14066336 2.08896822 12.4335446 -1.27106353e-13"></polygon>
                                    <polygon id="Path-6" fill="#404040" transform="translate(9.752373, 101.024594) scale(-1, 1) translate(-9.752373, -101.024594) " points="3.6638625 97.7819374 7.07751508 96.4050759 15.8408841 101.645376 15.7015429 105.644112"></polygon>
                                    <polygon id="Path-2" fill="#575757" points="9.14066336 2.08896822 12.4272316 96.4050759 3.6638625 101.645376 0.388973515 7.66443172"></polygon>
                                </g>
                                <g id="groove-1-copy-7" transform="translate(197.778152, 152.570288) rotate(2.000000) translate(-197.778152, -152.570288) translate(189.781944, 99.682548)">
                                    <polygon id="Fill-1596-Copy" fill="#333333" points="15.8408841 97.7819374 15.6919536 97.7162187 12.4272316 96.4050759 9.14066336 2.08896822 12.4335446 -1.27106353e-13"></polygon>
                                    <polygon id="Path-6" fill="#404040" transform="translate(9.752373, 101.024594) scale(-1, 1) translate(-9.752373, -101.024594) " points="3.6638625 97.7819374 7.07751508 96.4050759 15.8408841 101.645376 15.7015429 105.644112"></polygon>
                                    <polygon id="Path-2" fill="#575757" points="9.14066336 2.08896822 12.4272316 96.4050759 3.6638625 101.645376 0.388973515 7.66443172"></polygon>
                                </g>
                                <g id="groove-1-copy-8" transform="translate(170.229100, 168.930062) rotate(2.000000) translate(-170.229100, -168.930062) translate(162.232893, 116.042322)">
                                    <polygon id="Fill-1596-Copy" fill="#333333" points="15.8408841 97.7819374 15.6919536 97.7162187 12.4272316 96.4050759 9.14066336 2.08896822 12.4335446 -1.27106353e-13"></polygon>
                                    <polygon id="Path-6" fill="#404040" transform="translate(9.752373, 101.024594) scale(-1, 1) translate(-9.752373, -101.024594) " points="3.6638625 97.7819374 7.07751508 96.4050759 15.8408841 101.645376 15.7015429 105.644112"></polygon>
                                    <polygon id="Path-2" fill="#575757" points="9.14066336 2.08896822 12.4272316 96.4050759 3.6638625 101.645376 0.388973515 7.66443172"></polygon>
                                </g>
                                <g id="groove-1-copy-9" transform="translate(143.914013, 183.963744) rotate(2.000000) translate(-143.914013, -183.963744) translate(135.917805, 131.076004)">
                                    <polygon id="Fill-1596-Copy" fill="#333333" points="15.8408841 97.7819374 15.6919536 97.7162187 12.4272316 96.4050759 9.14066336 2.08896822 12.4335446 -1.27106353e-13"></polygon>
                                    <polygon id="Path-6" fill="#404040" transform="translate(9.752373, 101.024594) scale(-1, 1) translate(-9.752373, -101.024594) " points="3.6638625 97.7819374 7.07751508 96.4050759 15.8408841 101.645376 15.7015429 105.644112"></polygon>
                                    <polygon id="Path-2" fill="#575757" points="9.14066336 2.08896822 12.4272316 96.4050759 3.6638625 101.645376 0.388973515 7.66443172"></polygon>
                                </g>
                                <g id="groove-1-copy-10" transform="translate(117.598925, 198.997426) rotate(2.000000) translate(-117.598925, -198.997426) translate(109.602718, 146.109686)">
                                    <polygon id="Fill-1596-Copy" fill="#333333" points="15.8408841 97.7819374 15.6919536 97.7162187 12.4272316 96.4050759 9.14066336 2.08896822 12.4335446 -1.27106353e-13"></polygon>
                                    <polygon id="Path-6" fill="#404040" transform="translate(9.752373, 101.024594) scale(-1, 1) translate(-9.752373, -101.024594) " points="3.6638625 97.7819374 7.07751508 96.4050759 15.8408841 101.645376 15.7015429 105.644112"></polygon>
                                    <polygon id="Path-2" fill="#575757" points="9.14066336 2.08896822 12.4272316 96.4050759 3.6638625 101.645376 0.388973515 7.66443172"></polygon>
                                </g>
                                <g id="groove-1-copy-11" transform="translate(90.049874, 215.357200) rotate(2.000000) translate(-90.049874, -215.357200) translate(82.053666, 162.469460)">
                                    <polygon id="Fill-1596-Copy" fill="#333333" points="15.8408841 97.7819374 15.6919536 97.7162187 12.4272316 96.4050759 9.14066336 2.08896822 12.4335446 -1.27106353e-13"></polygon>
                                    <polygon id="Path-6" fill="#404040" transform="translate(9.752373, 101.024594) scale(-1, 1) translate(-9.752373, -101.024594) " points="3.6638625 97.7819374 7.07751508 96.4050759 15.8408841 101.645376 15.7015429 105.644112"></polygon>
                                    <polygon id="Path-2" fill="#575757" points="9.14066336 2.08896822 12.4272316 96.4050759 3.6638625 101.645376 0.388973515 7.66443172"></polygon>
                                </g>
                                <g id="groove-1-copy-12" transform="translate(63.734786, 231.031946) rotate(2.000000) translate(-63.734786, -231.031946) translate(55.738579, 178.144206)">
                                    <polygon id="Fill-1596-Copy" fill="#333333" points="15.8408841 97.7819374 15.6919536 97.7162187 12.4272316 96.4050759 9.14066336 2.08896822 12.4335446 -1.27106353e-13"></polygon>
                                    <polygon id="Path-6" fill="#404040" transform="translate(9.752373, 101.024594) scale(-1, 1) translate(-9.752373, -101.024594) " points="3.6638625 97.7819374 7.07751508 96.4050759 15.8408841 101.645376 15.7015429 105.644112"></polygon>
                                    <polygon id="Path-2" fill="#575757" points="9.14066336 2.08896822 12.4272316 96.4050759 3.6638625 101.645376 0.388973515 7.66443172"></polygon>
                                </g>
                                <g id="groove-1-copy-13" transform="translate(37.464348, 246.064847) rotate(2.000000) translate(-37.464348, -246.064847) translate(29.468141, 193.177107)">
                                    <polygon id="Fill-1596-Copy" fill="#333333" points="15.8408841 97.7819374 15.6919536 97.7162187 12.4272316 96.4050759 9.14066336 2.08896822 12.4335446 -1.27106353e-13"></polygon>
                                    <polygon id="Path-6" fill="#404040" transform="translate(9.752373, 101.024594) scale(-1, 1) translate(-9.752373, -101.024594) " points="3.6638625 97.7819374 7.07751508 96.4050759 15.8408841 101.645376 15.7015429 105.644112"></polygon>
                                    <polygon id="Path-2" fill="#575757" points="9.14066336 2.08896822 12.4272316 96.4050759 3.6638625 101.645376 0.388973515 7.66443172"></polygon>
                                </g>
                                <g id="groove-1-copy-14" transform="translate(9.915297, 261.783558) rotate(2.000000) translate(-9.915297, -261.783558) translate(1.919090, 208.895818)">
                                    <polygon id="Fill-1596-Copy" fill="#333333" points="15.8408841 97.7819374 15.6919536 97.7162187 12.4272316 96.4050759 9.14066336 2.08896822 12.4335446 -1.27106353e-13"></polygon>
                                    <polygon id="Path-6" fill="#404040" transform="translate(9.752373, 101.024594) scale(-1, 1) translate(-9.752373, -101.024594) " points="3.6638625 97.7819374 7.07751508 96.4050759 15.8408841 101.645376 15.7015429 105.644112"></polygon>
                                    <polygon id="Path-2" fill="#575757" points="9.14066336 2.08896822 12.4272316 96.4050759 3.6638625 101.645376 0.388973515 7.66443172"></polygon>
                                </g>
                            </g>
                            <g id="groves-1-copy" transform="translate(243.404551, 139.110783) scale(-1, -1) translate(-243.404551, -139.110783) translate(14.073325, 3.846381)">
                                <g id="groove-1-copy-14" transform="translate(50.855879, 238.796160) rotate(-63.000000) translate(-50.855879, -238.796160) translate(42.219975, 186.549483)">
                                    <polygon id="Path-2" fill="#757575" points="16.8775068 8.11918013 11.1292478 104.027166 0.386770287 97.1126097 5.53026412 0.544538947"></polygon>
                                    <polygon id="Path-6" fill="#666666" transform="translate(5.804118, 99.997628) scale(-1, 1) translate(-5.804118, -99.997628) " points="0.478987868 104.027166 0.386770287 102.135462 8.98000749 95.9680894 11.2214654 97.1126097"></polygon>
                                    <polygon id="Fill-1596-Copy" fill="#626262" points="2.62822817 95.9680894 0.386770287 97.1126097 5.53026412 0.544538947 7.33399365 1.91189882"></polygon>
                                </g>
                                <g id="groove-1-copy-15" transform="translate(77.723135, 223.410635) rotate(-63.000000) translate(-77.723135, -223.410635) translate(69.087231, 171.163959)">
                                    <polygon id="Path-2" fill="#757575" points="16.8775068 8.11918013 11.1292478 104.027166 0.386770287 97.1126097 5.53026412 0.544538947"></polygon>
                                    <polygon id="Path-6" fill="#666666" transform="translate(5.804118, 99.997628) scale(-1, 1) translate(-5.804118, -99.997628) " points="0.478987868 104.027166 0.386770287 102.135462 8.98000749 95.9680894 11.2214654 97.1126097"></polygon>
                                    <polygon id="Fill-1596-Copy" fill="#626262" points="2.62822817 95.9680894 0.386770287 97.1126097 5.53026412 0.544538947 7.33399365 1.91189882"></polygon>
                                </g>
                                <g id="groove-1-copy-16" transform="translate(105.869785, 206.742984) rotate(-63.000000) translate(-105.869785, -206.742984) translate(97.233881, 154.496307)">
                                    <polygon id="Path-2" fill="#757575" points="16.8775068 8.11918013 11.1292478 104.027166 0.386770287 97.1126097 5.53026412 0.544538947"></polygon>
                                    <polygon id="Path-6" fill="#666666" transform="translate(5.804118, 99.997628) scale(-1, 1) translate(-5.804118, -99.997628) " points="0.478987868 104.027166 0.386770287 102.135462 8.98000749 95.9680894 11.2214654 97.1126097"></polygon>
                                    <polygon id="Fill-1596-Copy" fill="#626262" points="2.62822817 95.9680894 0.386770287 97.1126097 5.53026412 0.544538947 7.33399365 1.91189882"></polygon>
                                </g>
                                <g id="groove-1-copy-17" transform="translate(137.214918, 188.793205) rotate(-63.000000) translate(-137.214918, -188.793205) translate(128.579014, 136.546529)">
                                    <polygon id="Path-2" fill="#757575" points="16.8775068 8.11918013 11.1292478 104.027166 0.386770287 97.1126097 5.53026412 0.544538947"></polygon>
                                    <polygon id="Path-6" fill="#666666" transform="translate(5.804118, 99.997628) scale(-1, 1) translate(-5.804118, -99.997628) " points="0.478987868 104.027166 0.386770287 102.135462 8.98000749 95.9680894 11.2214654 97.1126097"></polygon>
                                    <polygon id="Fill-1596-Copy" fill="#626262" points="2.62822817 95.9680894 0.386770287 97.1126097 5.53026412 0.544538947 7.33399365 1.91189882"></polygon>
                                </g>
                                <g id="groove-1-copy-18" transform="translate(167.280657, 170.843427) rotate(-63.000000) translate(-167.280657, -170.843427) translate(158.644753, 118.596750)">
                                    <polygon id="Path-2" fill="#757575" points="16.8775068 8.11918013 11.1292478 104.027166 0.386770287 97.1126097 5.53026412 0.544538947"></polygon>
                                    <polygon id="Path-6" fill="#666666" transform="translate(5.804118, 99.997628) scale(-1, 1) translate(-5.804118, -99.997628) " points="0.478987868 104.027166 0.386770287 102.135462 8.98000749 95.9680894 11.2214654 97.1126097"></polygon>
                                    <polygon id="Fill-1596-Copy" fill="#626262" points="2.62822817 95.9680894 0.386770287 97.1126097 5.53026412 0.544538947 7.33399365 1.91189882"></polygon>
                                </g>
                                <g id="groove-1-copy-19" transform="translate(199.265487, 152.252585) rotate(-63.000000) translate(-199.265487, -152.252585) translate(190.629583, 100.005908)">
                                    <polygon id="Path-2" fill="#757575" points="16.8775068 8.11918013 11.1292478 104.027166 0.386770287 97.1126097 5.53026412 0.544538947"></polygon>
                                    <polygon id="Path-6" fill="#666666" transform="translate(5.804118, 99.997628) scale(-1, 1) translate(-5.804118, -99.997628) " points="0.478987868 104.027166 0.386770287 102.135462 8.98000749 95.9680894 11.2214654 97.1126097"></polygon>
                                    <polygon id="Fill-1596-Copy" fill="#626262" points="2.62822817 95.9680894 0.386770287 97.1126097 5.53026412 0.544538947 7.33399365 1.91189882"></polygon>
                                </g>
                                <g id="groove-1-copy-20" transform="translate(236.367889, 130.456425) rotate(-63.000000) translate(-236.367889, -130.456425) translate(227.731985, 78.209749)">
                                    <polygon id="Path-2" fill="#757575" points="16.8775068 8.11918013 11.1292478 104.027166 0.386770287 97.1126097 5.53026412 0.544538947"></polygon>
                                    <polygon id="Path-6" fill="#666666" transform="translate(5.804118, 99.997628) scale(-1, 1) translate(-5.804118, -99.997628) " points="0.478987868 104.027166 0.386770287 102.135462 8.98000749 95.9680894 11.2214654 97.1126097"></polygon>
                                    <polygon id="Fill-1596-Copy" fill="#626262" points="2.62822817 95.9680894 0.386770287 97.1126097 5.53026412 0.544538947 7.33399365 1.91189882"></polygon>
                                </g>
                                <g id="groove-1-copy-21" transform="translate(269.632111, 111.865583) rotate(-63.000000) translate(-269.632111, -111.865583) translate(260.996207, 59.618907)">
                                    <polygon id="Path-2" fill="#757575" points="16.8775068 8.11918013 11.1292478 104.027166 0.386770287 97.1126097 5.53026412 0.544538947"></polygon>
                                    <polygon id="Path-6" fill="#666666" transform="translate(5.804118, 99.997628) scale(-1, 1) translate(-5.804118, -99.997628) " points="0.478987868 104.027166 0.386770287 102.135462 8.98000749 95.9680894 11.2214654 97.1126097"></polygon>
                                    <polygon id="Fill-1596-Copy" fill="#626262" points="2.62822817 95.9680894 0.386770287 97.1126097 5.53026412 0.544538947 7.33399365 1.91189882"></polygon>
                                </g>
                                <g id="groove-1-copy-22" transform="translate(305.455120, 91.351551) rotate(-63.000000) translate(-305.455120, -91.351551) translate(296.819216, 39.104874)">
                                    <polygon id="Path-2" fill="#757575" points="16.8775068 8.11918013 11.1292478 104.027166 0.386770287 97.1126097 5.53026412 0.544538947"></polygon>
                                    <polygon id="Path-6" fill="#666666" transform="translate(5.804118, 99.997628) scale(-1, 1) translate(-5.804118, -99.997628) " points="0.478987868 104.027166 0.386770287 102.135462 8.98000749 95.9680894 11.2214654 97.1126097"></polygon>
                                    <polygon id="Fill-1596-Copy" fill="#626262" points="2.62822817 95.9680894 0.386770287 97.1126097 5.53026412 0.544538947 7.33399365 1.91189882"></polygon>
                                </g>
                                <g id="groove-1-copy-23" transform="translate(339.359039, 71.478582) rotate(-63.000000) translate(-339.359039, -71.478582) translate(330.723135, 19.231905)">
                                    <polygon id="Path-2" fill="#757575" points="16.8775068 8.11918013 11.1292478 104.027166 0.386770287 97.1126097 5.53026412 0.544538947"></polygon>
                                    <polygon id="Path-6" fill="#666666" transform="translate(5.804118, 99.997628) scale(-1, 1) translate(-5.804118, -99.997628) " points="0.478987868 104.027166 0.386770287 102.135462 8.98000749 95.9680894 11.2214654 97.1126097"></polygon>
                                    <polygon id="Fill-1596-Copy" fill="#626262" points="2.62822817 95.9680894 0.386770287 97.1126097 5.53026412 0.544538947 7.33399365 1.91189882"></polygon>
                                </g>
                                <g id="groove-1-copy-24" transform="translate(373.262958, 52.246677) rotate(-63.000000) translate(-373.262958, -52.246677) translate(364.627054, 0.000000)">
                                    <polygon id="Path-2" fill="#757575" points="16.8775068 8.11918013 11.1292478 104.027166 0.386770287 97.1126097 5.53026412 0.544538947"></polygon>
                                    <polygon id="Path-6" fill="#666666" transform="translate(5.804118, 99.997628) scale(-1, 1) translate(-5.804118, -99.997628) " points="0.478987868 104.027166 0.386770287 102.135462 8.98000749 95.9680894 11.2214654 97.1126097"></polygon>
                                    <polygon id="Fill-1596-Copy" fill="#626262" points="2.62822817 95.9680894 0.386770287 97.1126097 5.53026412 0.544538947 7.33399365 1.91189882"></polygon>
                                </g>
                                <g id="groove-1-copy-25" transform="translate(407.806574, 31.732644) rotate(-63.000000) translate(-407.806574, -31.732644) translate(399.170670, -20.514032)">
                                    <polygon id="Path-2" fill="#757575" points="16.8775068 8.11918013 11.1292478 104.027166 0.386770287 97.1126097 5.53026412 0.544538947"></polygon>
                                    <polygon id="Path-6" fill="#666666" transform="translate(5.804118, 99.997628) scale(-1, 1) translate(-5.804118, -99.997628) " points="0.478987868 104.027166 0.386770287 102.135462 8.98000749 95.9680894 11.2214654 97.1126097"></polygon>
                                    <polygon id="Fill-1596-Copy" fill="#626262" points="2.62822817 95.9680894 0.386770287 97.1126097 5.53026412 0.544538947 7.33399365 1.91189882"></polygon>
                                </g>
                            </g>
                            <polygon id="Path-65" fill="#666666" transform="translate(51.362163, 327.491581) scale(-1, 1) translate(-51.362163, -327.491581) " points="2.93165797 279.11212 99.7926675 223.151683 99.7926675 376.607516 3.205512 431.831479"></polygon>
                            <polygon id="Path-5" fill="#B3B4B3" points="2.93165797 358.795191 0.271423776 357.379039 2.93165797 356.045372"></polygon>
                            <g id="front-door-copy-3" transform="translate(255.238938, 231.423929) scale(-1, 1) translate(-255.238938, -231.423929) translate(10.874842, 55.772526)">
                                <g id="h-groove" transform="translate(408.412210, 247.904033)">
                                    <polygon id="Path-26" fill="#575757" points="0 21.2402562 37.5522548 0 37.5522548 10.8307249 0 32.0600812"></polygon>
                                    <polygon id="Path-27" fill="#333333" points="37.5522548 10.8307249 35.9924535 10.0457586 0 30.2035929 0 32.0600812"></polygon>
                                    <polygon id="Path-28" fill="#404040" points="37.5522548 10.8307249 37.5522548 0 35.9286918 1.03793864 35.9286918 10.0457586"></polygon>
                                </g>
                                <g id="h-groove-copy" transform="translate(450.632185, 226.107874)">
                                    <polygon id="Path-26" fill="#575757" points="0.271089179 19.7399847 34.9934685 0 34.9934685 10.8307249 0.271089179 30.5598096"></polygon>
                                    <polygon id="Path-27" fill="#333333" points="34.9934685 10.8307249 33.4336671 10.0457586 0.384795608 28.456548 0.384795608 30.3130364"></polygon>
                                    <polygon id="Path-28" fill="#404040" points="34.9934685 10.8307249 34.9934685 0 33.3699054 1.03793864 33.3699054 10.0457586"></polygon>
                                </g>
                                <g id="h-groove-copy-2" transform="translate(450.632185, 276.751891)">
                                    <polygon id="Path-26" fill="#575757" points="0.271089179 19.7399847 34.9934685 0 34.9934685 10.8307249 0.271089179 30.5598096"></polygon>
                                    <polygon id="Path-27" fill="#333333" points="34.9934685 10.8307249 33.4336671 10.0457586 0.382848765 28.592101 0.382848765 30.4485893"></polygon>
                                    <polygon id="Path-28" fill="#404040" points="34.9934685 10.8307249 34.9934685 0 33.3699054 1.03793864 33.3699054 10.0457586"></polygon>
                                </g>
                                <g id="h-groove-copy-4" transform="translate(408.412210, 299.189114)">
                                    <polygon id="Path-26" fill="#575757" points="0 21.2402562 37.5522548 0 37.5522548 10.8307249 0 32.0600812"></polygon>
                                    <polygon id="Path-27" fill="#333333" points="37.5522548 10.8307249 35.9924535 10.0457586 0 30.2035929 0 32.0600812"></polygon>
                                    <polygon id="Path-28" fill="#404040" points="37.5522548 10.8307249 37.5522548 0 35.9286918 1.03793864 35.9286918 10.0457586"></polygon>
                                </g>
                                <polygon id="Path-24" stroke="#4D4D4D" stroke-width="1.27999985" points="405.119827 240.398818 488.728192 192.640015 488.728192 302.364169 405.119827 350.935917"></polygon>
                                <path d="M448.427307,215.397341 L448.427307,325.660266" id="Path-25" stroke="#4D4D4D" stroke-width="1.27999985"></path>
                            </g>
                            <g id="front-door-copy-2" transform="translate(31.345133, 318.608567) scale(-1, 1) translate(-31.345133, -318.608567) translate(12.793932, 251.296898)"></g>
                        </g>
                        <g id="SEALS" transform="translate(408.126422, 259.630724)">
                            <g id="rod-1" transform="translate(14.713021, 10.257016)">
                                <g id="plate" transform="translate(0.000000, 126.930576)">
                                    <polygon id="Path-72" fill="#7A7A7A" points="1.06376364 6.18702941 0 5.62101032 0 12.3110719 1.06376364 12.9238971"></polygon>
                                    <polygon id="Path-71" fill="#ABABAB" points="1.06376364 6.18702941 1.06376364 12.9238971 10.5072149 7.55601081 10.5072149 0.80794517"></polygon>
                                    <polygon id="Path-73" fill="#969696" points="0 5.62101032 1.06376364 6.18702941 10.5072149 0.80794517 9.40643593 -5.68434189e-14"></polygon>
                                </g>
                                <g id="plate-copy" transform="translate(0.000000, 4.487445)">
                                    <polygon id="Path-72" fill="#7A7A7A" points="1.06376364 6.18702941 0 5.62101032 0 12.3110719 1.06376364 12.9238971"></polygon>
                                    <polygon id="Path-71" fill="#ABABAB" points="1.06376364 6.18702941 1.06376364 12.9238971 10.5072149 7.55601081 10.5072149 0.80794517"></polygon>
                                    <polygon id="Path-73" fill="#969696" points="0 5.62101032 1.06376364 6.18702941 10.5072149 0.80794517 9.40643593 -5.68434189e-14"></polygon>
                                </g>
                                <g id="rod" transform="translate(4.477876, 0.000000)">
                                    <polygon id="Path-68" fill="#E6E6E6" points="1.27939317 2.10670073 3.35104992 0.917315088 3.35104992 143.762551 1.27939317 144.880355"></polygon>
                                    <polygon id="Path-69" fill="#C7C7C7" points="1.27939317 2.10670073 0 1.64697012 0 144.140201 1.27939317 144.880355"></polygon>
                                    <polygon id="Path-70" fill="#B3B3B3" points="0 1.64697012 1.27939317 2.10670073 3.35104992 0.917315088 2.1558522 0.540241224"></polygon>
                                </g>
                            </g>
                            <g id="rod-1-copy" transform="translate(30.705436, 0.000000)">
                                <g id="plate" transform="translate(0.000000, 127.571640)">
                                    <polygon id="Path-72" fill="#7A7A7A" points="1.06376364 6.18702941 0 5.62101032 0 12.3110719 1.06376364 12.9238971"></polygon>
                                    <polygon id="Path-71" fill="#ABABAB" points="1.06376364 6.18702941 1.06376364 12.9238971 10.5072149 7.55601081 10.5072149 0.80794517"></polygon>
                                    <polygon id="Path-73" fill="#969696" points="0 5.62101032 1.06376364 6.18702941 10.5072149 0.80794517 9.40643593 -5.68434189e-14"></polygon>
                                </g>
                                <g id="plate-copy" transform="translate(0.000000, 5.128508)">
                                    <polygon id="Path-72" fill="#7A7A7A" points="1.06376364 6.18702941 0 5.62101032 0 12.3110719 1.06376364 12.9238971"></polygon>
                                    <polygon id="Path-71" fill="#ABABAB" points="1.06376364 6.18702941 1.06376364 12.9238971 10.5072149 7.55601081 10.5072149 0.80794517"></polygon>
                                    <polygon id="Path-73" fill="#969696" points="0 5.62101032 1.06376364 6.18702941 10.5072149 0.80794517 9.40643593 -5.68434189e-14"></polygon>
                                </g>
                                <g id="rod" transform="translate(4.477876, 0.000000)">
                                    <polygon id="Path-68" fill="#E6E6E6" points="1.27939317 2.10670073 3.35104992 0.917315088 3.35104992 143.762551 1.27939317 144.880355"></polygon>
                                    <polygon id="Path-69" fill="#C7C7C7" points="1.27939317 2.10670073 0 1.64697012 0 144.140201 1.27939317 144.880355"></polygon>
                                    <polygon id="Path-70" fill="#B3B3B3" points="0 1.64697012 1.27939317 2.10670073 3.35104992 0.917315088 2.1558522 0.540241224"></polygon>
                                </g>
                            </g>
                            <g id="HINGE" transform="translate(0.000000, 37.181684)">
                                <polygon id="Path-72" fill="#7A7A7A" points="1.06376364 6.18702941 0 5.62101032 0 9.30850146 1.06376364 9.92132671"></polygon>
                                <polygon id="Path-71" fill="#ABABAB" points="1.06376364 6.18702941 1.06376364 9.92132671 10.5072149 4.55344039 10.5072149 0.80794517"></polygon>
                                <polygon id="Path-73" fill="#969696" points="0 5.62101032 1.06376364 6.18702941 10.5072149 0.80794517 9.40643593 -5.68434189e-14"></polygon>
                            </g>
                            <g id="HINGE-Copy" transform="translate(0.000000, 134.623338)">
                                <polygon id="Path-72" fill="#7A7A7A" points="1.06376364 6.18702941 0 5.62101032 0 9.30850146 1.06376364 9.92132671"></polygon>
                                <polygon id="Path-71" fill="#ABABAB" points="1.06376364 6.18702941 1.06376364 9.92132671 10.5072149 4.55344039 10.5072149 0.80794517"></polygon>
                                <polygon id="Path-73" fill="#969696" points="0 5.62101032 1.06376364 6.18702941 10.5072149 0.80794517 9.40643593 -5.68434189e-14"></polygon>
                            </g>
                            <g id="HINGE-PLATES" transform="translate(26.273951, 116.452565)">
                                <path d="M10.2169745,1.67000349 L8.90936135,1.28212703 C4.24971571,4.58888883 1.41770646,6.82926619 0.413333603,8.0032591 C-0.241670571,8.72945694 -0.118192549,9.18915561 0.783767667,9.38235512" id="Path-75" fill="#D8D8D8"></path>
                                <path d="M10.1887545,1.67000349 C3.69814799,6.06150516 0.452844722,8.570132 0.452844722,9.19588402 C0.452844722,9.82163604 3.70755464,9.10603727 10.2169745,7.04908773 L10.1887545,1.67000349 Z" id="Path-74" fill="#E6E6E6"></path>
                                <path d="M6.6704233,0.541526561 L6.6704233,10.7985428" id="Path-80" stroke="#979797" stroke-width="0.639999924"></path>
                            </g>
                        </g>
                        <g id="SEALS-2" transform="translate(456.743363, 240.398818)">
                            <g id="rod-1-copy-3" transform="translate(0.000000, 8.974889)">
                                <g id="plate" transform="translate(0.000000, 127.571640)">
                                    <polygon id="Path-72" fill="#7A7A7A" points="1.06376364 6.18702941 0 5.62101032 0 12.3110719 1.06376364 12.9238971"></polygon>
                                    <polygon id="Path-71" fill="#ABABAB" points="1.06376364 6.18702941 1.06376364 12.9238971 10.5072149 7.55601081 10.5072149 0.80794517"></polygon>
                                    <polygon id="Path-73" fill="#969696" points="0 5.62101032 1.06376364 6.18702941 10.5072149 0.80794517 9.40643593 -5.68434189e-14"></polygon>
                                </g>
                                <g id="plate-copy" transform="translate(0.000000, 5.128508)">
                                    <polygon id="Path-72" fill="#7A7A7A" points="1.06376364 6.18702941 0 5.62101032 0 12.3110719 1.06376364 12.9238971"></polygon>
                                    <polygon id="Path-71" fill="#ABABAB" points="1.06376364 6.18702941 1.06376364 12.9238971 10.5072149 7.55601081 10.5072149 0.80794517"></polygon>
                                    <polygon id="Path-73" fill="#969696" points="0 5.62101032 1.06376364 6.18702941 10.5072149 0.80794517 9.40643593 -5.68434189e-14"></polygon>
                                </g>
                                <g id="rod" transform="translate(4.477876, 0.000000)">
                                    <polygon id="Path-68" fill="#E6E6E6" points="1.27939317 2.10670073 3.35104992 0.917315088 3.35104992 143.762551 1.27939317 144.880355"></polygon>
                                    <polygon id="Path-69" fill="#C7C7C7" points="1.27939317 2.10670073 0 1.64697012 0 144.140201 1.27939317 144.880355"></polygon>
                                    <polygon id="Path-70" fill="#B3B3B3" points="0 1.64697012 1.27939317 2.10670073 3.35104992 0.917315088 2.1558522 0.540241224"></polygon>
                                </g>
                            </g>
                            <g id="rod-1-copy-2" transform="translate(15.992415, 0.000000)">
                                <g id="plate" transform="translate(0.000000, 127.571640)">
                                    <polygon id="Path-72" fill="#7A7A7A" points="1.06376364 6.18702941 0 5.62101032 0 12.3110719 1.06376364 12.9238971"></polygon>
                                    <polygon id="Path-71" fill="#ABABAB" points="1.06376364 6.18702941 1.06376364 12.9238971 10.5072149 7.55601081 10.5072149 0.80794517"></polygon>
                                    <polygon id="Path-73" fill="#969696" points="0 5.62101032 1.06376364 6.18702941 10.5072149 0.80794517 9.40643593 -5.68434189e-14"></polygon>
                                </g>
                                <g id="plate-copy" transform="translate(0.000000, 5.128508)">
                                    <polygon id="Path-72" fill="#7A7A7A" points="1.06376364 6.18702941 0 5.62101032 0 12.3110719 1.06376364 12.9238971"></polygon>
                                    <polygon id="Path-71" fill="#ABABAB" points="1.06376364 6.18702941 1.06376364 12.9238971 10.5072149 7.55601081 10.5072149 0.80794517"></polygon>
                                    <polygon id="Path-73" fill="#969696" points="0 5.62101032 1.06376364 6.18702941 10.5072149 0.80794517 9.40643593 -5.68434189e-14"></polygon>
                                </g>
                                <g id="rod" transform="translate(4.477876, 0.000000)">
                                    <polygon id="Path-68" fill="#E6E6E6" points="1.27939317 2.10670073 3.35104992 0.917315088 3.35104992 143.762551 1.27939317 144.880355"></polygon>
                                    <polygon id="Path-69" fill="#C7C7C7" points="1.27939317 2.10670073 0 1.64697012 0 144.140201 1.27939317 144.880355"></polygon>
                                    <polygon id="Path-70" fill="#B3B3B3" points="0 1.64697012 1.27939317 2.10670073 3.35104992 0.917315088 2.1558522 0.540241224"></polygon>
                                </g>
                            </g>
                            <g id="HINGE-Copy-3" transform="translate(31.984829, 10.898080)">
                                <polygon id="Path-72" fill="#7A7A7A" points="1.06376364 6.18702941 0 5.62101032 0 9.30850146 1.06376364 9.92132671"></polygon>
                                <polygon id="Path-71" fill="#ABABAB" points="1.06376364 6.18702941 1.06376364 9.92132671 10.5072149 4.55344039 10.5072149 0.80794517"></polygon>
                                <polygon id="Path-73" fill="#969696" points="0 5.62101032 1.06376364 6.18702941 10.5072149 0.80794517 9.40643593 -5.68434189e-14"></polygon>
                            </g>
                            <g id="HINGE-Copy-2" transform="translate(31.984829, 108.339734)">
                                <polygon id="Path-72" fill="#7A7A7A" points="1.06376364 6.18702941 0 5.62101032 0 9.30850146 1.06376364 9.92132671"></polygon>
                                <polygon id="Path-71" fill="#ABABAB" points="1.06376364 6.18702941 1.06376364 9.92132671 10.5072149 4.55344039 10.5072149 0.80794517"></polygon>
                                <polygon id="Path-73" fill="#969696" points="0 5.62101032 1.06376364 6.18702941 10.5072149 0.80794517 9.40643593 -5.68434189e-14"></polygon>
                            </g>
                            <g id="HINGE-PLATES-Copy" transform="translate(11.514539, 117.955687)">
                                <path d="M10.2351454,0.369420283 L8.95575221,-1.26121336e-13 C4.26517933,3.3067618 1.41770646,5.54713916 0.413333603,6.72113207 C-0.241670571,7.44732991 -0.118192549,7.90702858 0.783767667,8.10022808 L10.2351454,0.369420283 Z" id="Path-75" fill="#D8D8D8"></path>
                                <path d="M10.2351454,0.369420283 C3.71361161,4.77322607 0.452844722,7.28800497 0.452844722,7.91375699 C0.452844722,8.53950901 3.72301826,7.81775818 10.2633653,5.74850453 L10.2351454,0.369420283 Z" id="Path-74" fill="#E6E6E6"></path>
                                <path d="M6.39696587,0 L6.39696587,8.97488922" id="Path-79" stroke="#979797" stroke-width="0.639999924"></path>
                            </g>
                            <g id="hinge-plate-2" transform="translate(7.651831, 95.337822)">
                                <path d="M9.00608878,3.77318188 C9.33965865,2.97963058 9.11782373,2.5046089 8.34058402,2.34811683 C7.08809562,2.16385081 4.36693274,2.48845448 0.177095376,3.32192784 L0.177095376,4.20082387 L9.00608878,3.77318188 Z" id="Path-77" fill="#D8D8D8"></path>
                                <path d="M0.177095376,4.20082387 C6.20624042,2.285125 9.25166525,1.96799996 9.31336986,3.24944874 C9.31336986,4.12193104 6.20891324,6.13695298 2.63788991e-13,9.29451455 L0.177095376,4.20082387 Z" id="Path-76" fill="#E6E6E6"></path>
                                <path d="M2.8553842,1.13686838e-13 L3.22301132,9.57356692" id="Path-78" stroke="#979797" stroke-width="0.639999924"></path>
                            </g>
                        </g>
                    </g>
                </g>
                <text id="Special-Stow" font-family="Inter-SemiBold, Inter" font-size="13" font-weight="500" fill="#FFFFFF">
                    <tspan x="546" y="507">Special Stow</tspan>
                </text>
                <g id="Oval-Copy-2">
                    <use fill="black" fill-opacity="1" filter="url(#filter-3)" xlink:href="#path-2"></use>
                    <use stroke="#FFFFFF" stroke-width="3" fill-opacity="0.1" fill="#FFFFFF" fill-rule="evenodd" xlink:href="#path-2"></use>
                </g>
                <path d="M507.110553,474.635754 C498.863083,421.603149 522.73323,390.253816 539.206767,380.742816" id="Path-3-Copy-2" stroke="#FFFFFF" stroke-width="2" stroke-linecap="round" stroke-linejoin="round" stroke-dasharray="5" transform="translate(522.316724, 427.689285) scale(-1, 1) rotate(-150.000000) translate(-522.316724, -427.689285) "></path>
                <g id="Group" transform="translate(574.000000, 445.000000)" fill="#FFFFFF">
                    <polygon id="Path" points="6.21463415 3.86666667 6.21463415 10.73 12.7463415 14.21 12.7463415 7.31444444 7.00731707 4.28555556"></polygon>
                    <polygon id="Path" points="19.7853659 3.86666667 18.9926829 4.28555556 13.2536585 7.31444444 13.2536585 14.21 19.7853659 10.73"></polygon>
                    <polygon id="Path" points="13 0 6.5 3.44777778 13 6.89555556 19.5 3.44777778"></polygon>
                    <path d="M8.62439024,15.1122222 L6.15121951,12.3088889 C5.70731707,11.7933333 5.04146341,11.6 4.37560976,11.7611111 L3.77317073,11.9222222 C3.58292683,11.9544444 3.42439024,12.0833333 3.32926829,12.2444444 C3.29756098,12.2766667 3.26585366,12.3411111 3.26585366,12.3733333 C3.20243902,12.6311111 3.23414634,12.8888889 3.42439024,13.05 L6.75365854,16.7877778 C6.75365854,16.7877778 6.75365854,16.7877778 6.75365854,16.7877778 C6.84878049,16.8844444 6.84878049,17.0455556 6.72195122,17.1422222 C6.65853659,17.1744444 6.62682927,17.2066667 6.56341463,17.2066667 C6.5,17.2066667 6.43658537,17.1744444 6.37317073,17.11 L3.04390244,13.4366667 C2.75853659,13.1144444 2.66341463,12.6633333 2.7902439,12.2444444 C2.85365854,12.0188889 2.9804878,11.8577778 3.10731707,11.6966667 L3.10731707,6.92777778 C3.10731707,6.15444444 2.69512195,5.44555556 2.02926829,5.09111111 L1.4902439,4.80111111 C0.856097561,4.44666667 0.0634146341,4.93 0.0634146341,5.63888889 L0.0634146341,14.2422222 L0.0634146341,15.4022222 C0.0634146341,17.2388889 1.4902439,19.9777778 3.23414634,20.88 C3.93170732,21.2344444 4.37560976,22.0077778 4.37560976,22.8133333 L4.37560976,29 L10.5902439,29 L10.5902439,21.17 L10.5902439,19.0111111 C10.5902439,17.4 9.79756098,15.9822222 8.62439024,15.1122222 Z" id="Path"></path>
                    <path d="M24.4780488,4.76888889 L23.9390244,5.05888889 C23.2731707,5.41333333 22.8609756,6.12222222 22.8609756,6.89555556 L22.8609756,11.6966667 C23.0195122,11.8255556 23.1146341,12.0188889 23.1780488,12.2444444 C23.304878,12.6633333 23.2097561,13.1144444 22.9243902,13.4366667 L19.6268293,17.1744444 C19.5634146,17.2388889 19.5,17.2711111 19.4365854,17.2711111 C19.3731707,17.2711111 19.3097561,17.2388889 19.2780488,17.2066667 C19.1829268,17.11 19.1829268,16.9488889 19.2463415,16.8522222 C19.2463415,16.8522222 19.2463415,16.8522222 19.2463415,16.8522222 L22.5756098,13.1144444 C22.7341463,12.9211111 22.797561,12.6633333 22.7341463,12.4377778 C22.702439,12.3733333 22.702439,12.3411111 22.6707317,12.3088889 C22.5756098,12.1477778 22.4170732,12.0188889 22.2268293,11.9866667 L21.6243902,11.8577778 C20.9902439,11.6966667 20.2926829,11.9222222 19.8487805,12.4055556 L17.3439024,15.1766667 C16.1390244,16.0466667 15.3780488,17.4644444 15.3780488,19.0433333 L15.3780488,21.2022222 L15.3780488,29 L21.5926829,29 L21.5926829,22.7811111 C21.5926829,21.9755556 22.004878,21.2022222 22.7341463,20.8477778 C24.4463415,19.9455556 25.904878,17.2066667 25.904878,15.37 L25.904878,14.21 L25.904878,5.63888889 C25.904878,4.89777778 25.1121951,4.41444444 24.4780488,4.76888889 Z" id="Path"></path>
                </g>
                <text id="Special-Stow" font-family="Inter-SemiBold, Inter" font-size="13" font-weight="500" fill="#FFFFFF">
                    <tspan x="546" y="507">Special Stow</tspan>
                </text>
                <path d="M507.110553,474.635754 C498.863083,421.603149 522.73323,390.253816 539.206767,380.742816" id="Path-3-Copy-2" stroke="#FFFFFF" stroke-width="2" stroke-linecap="round" stroke-linejoin="round" stroke-dasharray="5" transform="translate(522.316724, 427.689285) scale(-1, 1) rotate(-150.000000) translate(-522.316724, -427.689285) "></path>
                <circle id="Oval" fill="#292929" cx="428" cy="254" r="150"></circle>
                <g id="Group-18" transform="translate(279.000000, 106.000000)">
                    <g id="Group-11-Copy">
                        <g id="Group">
                            <mask id="mask-5" fill="white">
                                <use xlink:href="#path-4"></use>
                            </mask>
                            <g id="Mask"></g>
                            <g mask="url(#mask-5)">
                                <g transform="translate(0.000000, 15.674578)">
                                    <rect id="Rectangle" stroke="none" fill="#4C5357" fill-rule="evenodd" x="118.796801" y="0" width="72.5980449" height="212.645136" rx="18.1260799"></rect>
                                    <path d="M0.281458044,88.0385273 L308.808246,88.0385273 C329.52998,88.0385273 339.890847,95.8186525 339.890847,111.378903 C339.890847,126.939153 329.52998,134.719278 308.808246,134.719278 L0.281458044,134.719278 L0.281458044,88.0385273 Z" id="Path-47" stroke="none" fill="#4E5559" fill-rule="evenodd"></path>
                                    <g id="tag2" stroke="none" stroke-width="1" fill="none" fill-rule="evenodd" transform="translate(127.481658, 131.417335)">
                                        <rect id="Rectangle" fill="#424C50" x="3.85480496" y="10.5662179" width="46.8587381" height="7.92466344"></rect>
                                        <polygon id="Path-53" fill="#384247" points="50.7135431 10.5662179 46.8482402 5.76015732 6.06300036 5.76015732 3.85480496 10.5662179"></polygon>
                                        <path d="M15.910487,0 L15.910487,6.84241038 C19.9114595,8.48358857 23.8126856,9.30417767 27.6141651,9.30417767 C31.4156447,9.30417767 35.2142113,8.48358857 39.0098649,6.84241038 L39.0098649,0" id="Path-54" fill="#BD6135"></path>
                                        <g id="Group-4" transform="translate(0.000000, 43.035696)">
                                            <g id="Group-3" transform="translate(1.214876, 0.000000)" fill="#D8D8D8">
                                                <polyline id="Path-58" points="25.9523502 0 6.51792616 0 0 15.7388914 26.3992891 15.7388914"></polyline>
                                                <polyline id="Path-58" transform="translate(38.938951, 7.869446) scale(-1, 1) translate(-38.938951, -7.869446) " points="51.6880209 15.7388914 25.7393068 15.7388914 30.9376548 0 52.1385959 0"></polyline>
                                            </g>
                                            <g id="Group-3-Copy" transform="translate(26.700579, 54.238525) scale(-1, 1) translate(-26.700579, -54.238525) translate(0.047687, 15.188938)" fill="#F2F0F0">
                                                <polyline id="Path-59" transform="translate(38.938951, 39.195234) scale(-1, 1) translate(-38.938951, -39.195234) " points="51.6916571 0.549953161 25.7393068 0.549953161 25.7393068 77.8405146 52.1385959 77.8405146"></polyline>
                                                <polyline id="Path-59" points="27.1863885 0.66038862 0 0.549953161 0 77.8405146 26.3992891 77.8405146"></polyline>
                                            </g>
                                        </g>
                                        <g id="Group-2-Copy" transform="translate(10.667671, 48.821741)" fill="#D8D8D8" stroke="#979797" stroke-width="0.832999981">
                                            <path d="M16.4995542,0.50639265 C17.9197089,3.64516468 26.3192471,6.25840237 32.8192491,6.25840237" id="Path-56-Copy" transform="translate(24.659402, 3.382398) scale(-1, 1) translate(-24.659402, -3.382398) "></path>
                                            <path d="M0.63129289,0.309458979 C2.05144759,3.44823101 10.446494,6.25840237 16.9464945,6.25840237" id="Path-56"></path>
                                        </g>
                                        <g id="Group-2" transform="translate(11.327653, 35.613969)" fill="#C4C4C4">
                                            <path d="M4.58283414,1.98116586 C0.769136766,3.51569207 -0.664327021,5.32921252 0.28244278,7.42172721 C1.70259748,10.5604992 9.78651176,12.8622886 16.2865123,12.8622886" id="Path-56"></path>
                                            <path d="M32.0897989,2.92985064 L30.954825,1.57746916 L19.9287139,0.528245759 L10.0154905,1.32077724 C5.50003476,3.29556253 3.71569179,5.32921252 4.66246159,7.42172721 C6.0826163,10.5604992 14.1665306,12.8622886 20.6665311,12.8622886" id="Path-56-Copy" transform="translate(18.253052, 6.695267) scale(-1, 1) translate(-18.253052, -6.695267) "></path>
                                        </g>
                                        <path d="M15.910487,18.4908814 L15.910487,42.1270669 C20.0187938,44.3741308 23.9553897,45.4976627 27.7202745,45.4976627 C31.4851594,45.4976627 35.2483562,44.3741308 39.0098649,42.1270669 L39.0098649,18.4908814" id="Path-55" fill="#BD6135"></path>
                                        <path d="M11.3276528,42.1252092 L11.3276528,49.2909256" id="Path-57" stroke="#979797" stroke-width="0.832999981"></path>
                                        <path d="M43.4537386,42.1442544 L43.4537386,49.4821295" id="Path-57-Copy" stroke="#979797" stroke-width="0.832999981"></path>
                                    </g>
                                    <path d="M75.8979561,111.378903 L247.493335,111.378903" id="Path-52" stroke="#3C474D" stroke-width="5.33119996" fill="none" stroke-linecap="round"></path>
                                    <g id="clip" stroke="none" stroke-width="1" fill="none" fill-rule="evenodd" transform="translate(108.897067, 13.207772)">
                                        <path d="M46.0926464,121.511506 C39.9631083,121.472794 33.9577533,118.925903 28.0765813,113.870831 C19.2548234,106.288224 17.2334077,95.6619609 11.7735707,89.3715153 C6.31373367,83.0810698 1.51521814e-12,87.8730105 1.51521814e-12,81.5229414 C1.51545761e-12,77.289562 6.56445246,72.1282022 19.6933574,66.038862 L19.6933574,13.8611199 C19.6933574,6.20583476 25.8991921,-3.70103774e-16 33.5544773,-1.77635684e-15 L49.0829634,0" id="Path-48" fill="#424C50"></path>
                                        <path d="M88.9914912,121.511506 C82.8619531,121.472794 76.856598,118.925903 70.9754261,113.870831 C62.1536681,106.288224 60.1322524,95.6619609 54.6724154,89.3715153 C49.2125784,83.0810698 42.8988447,87.8730105 42.8988447,81.5229414 C42.8988447,77.289562 49.4632972,72.1282022 62.5922021,66.038862 L62.5922021,13.8611199 C62.5922021,6.20583476 68.7980369,-3.70103774e-16 76.453322,-1.77635684e-15 L91.9818081,0" id="Path-48-Copy" fill="#424C50" transform="translate(67.440326, 60.755753) scale(-1, 1) translate(-67.440326, -60.755753) "></path>
                                    </g>
                                    <g id="tag-1" stroke="none" stroke-width="1" fill="none" fill-rule="evenodd" transform="translate(131.582358, 73.963525)">
                                        <polyline id="Path-49" fill="#CF6A3A" points="23.6195751 6.75729258 1.52113696e-12 6.75729258 6.25803444 0 23.6195751 0"></polyline>
                                        <polyline id="Path-50" fill="#A8562F" points="23.0993779 6.75729258 1.51521814e-12 6.75729258 1.51521814e-12 18.4908814 23.6195751 18.4908814"></polyline>
                                        <polyline id="Path-51" fill="#BD6135" points="23.6195751 18.4908814 10.3138212 18.4908814 11.8097876 24.8452848 23.6195751 24.8452848"></polyline>
                                        <polyline id="Path-49-Copy" fill="#CF6A3A" transform="translate(34.909165, 3.378646) scale(-1, 1) translate(-34.909165, -3.378646) " points="46.7189531 6.75729258 23.0993779 6.75729258 29.3574124 0 46.7189531 0"></polyline>
                                        <polyline id="Path-50-Copy" fill="#A8562F" transform="translate(34.909165, 12.624087) scale(-1, 1) translate(-34.909165, -12.624087) " points="46.7189531 6.75729258 23.0993779 6.75729258 23.0993779 18.4908814 46.7189531 18.4908814"></polyline>
                                        <polyline id="Path-51-Copy" fill="#BD6135" transform="translate(30.166343, 21.668083) scale(-1, 1) translate(-30.166343, -21.668083) " points="36.8192196 18.4908814 23.5134657 18.4908814 25.0094321 24.8452848 36.8192196 24.8452848"></polyline>
                                    </g>
                                    <ellipse id="Oval" stroke="none" fill="#373F42" fill-rule="evenodd" cx="155.425814" cy="36.6515684" rx="16.1695646" ry="16.1795212"></ellipse>
                                </g>
                            </g>
                        </g>
                        <circle id="Oval-Copy-21" stroke="#FFFFFF" stroke-width="2.66559998" cx="149.733468" cy="149.733468" r="149.733468"></circle>
                    </g>
                    <g id="noun_QR-Code_1340286" transform="translate(145.000000, 253.000000)" fill="#000000" fill-rule="nonzero">
                        <g id="Group">
                            <g id="Path">
                                <polygon points="1.68000007 6.77565027 0 6.77565027 0 0 6.77565027 0 6.77565027 1.68000007 1.68000007 1.68000007"></polygon>
                                <polygon points="21.0000008 21.0000008 14.2243506 21.0000008 14.2243506 19.3200008 19.3200008 19.3200008 19.3200008 14.2243506 21.0000008 14.2243506"></polygon>
                            </g>
                            <g id="Path">
                                <polygon points="21.0000008 6.77565027 19.3200008 6.77565027 19.3200008 1.68000007 14.2243506 1.68000007 14.2243506 0 21.0000008 0"></polygon>
                                <polygon points="6.77565027 21.0000008 0 21.0000008 0 14.2243506 1.68000007 14.2243506 1.68000007 19.3200008 6.77565027 19.3200008"></polygon>
                            </g>
                        </g>
                        <polygon id="Path" points="17.6400007 17.6400007 9.66000038 17.6400007 9.66000038 11.3400005 3.36000013 11.3400005 3.36000013 9.66000038 11.3400005 9.66000038 11.3400005 15.9600006 17.6400007 15.9600006"></polygon>
                        <polygon id="Path" points="17.6400007 14.3194806 15.9600006 14.3194806 15.9600006 11.3400005 14.3194806 11.3400005 14.3194806 14.3194806 12.6394805 14.3194806 12.6394805 9.66000038 17.6400007 9.66000038"></polygon>
                        <path d="M8.36073033,8.36073033 L3.36000013,8.36073033 L3.36000013,3.36000013 L8.36073033,3.36000013 L8.36073033,8.36073033 Z M5.0400002,6.68073027 L6.68073027,6.68073027 L6.68073027,5.0400002 L5.0400002,5.0400002 L5.0400002,6.68073027 Z" id="Shape"></path>
                        <path d="M17.6400007,8.36073033 L12.6394805,8.36073033 L12.6394805,3.36000013 L17.6400007,3.36000013 L17.6400007,8.36073033 Z M14.3194806,6.68073027 L15.9600006,6.68073027 L15.9600006,5.0400002 L14.3192706,5.0400002 L14.3192706,6.68073027 L14.3194806,6.68073027 Z" id="Shape"></path>
                        <path d="M8.36073033,17.6400007 L3.36000013,17.6400007 L3.36000013,12.6394805 L8.36073033,12.6394805 L8.36073033,17.6400007 Z M5.0400002,15.9600006 L6.68073027,15.9600006 L6.68073027,14.3192706 L5.0400002,14.3192706 L5.0400002,15.9600006 Z" id="Shape"></path>
                        <rect id="Rectangle" x="9.66000038" y="3.36000013" width="1.68000007" height="5.0007302"></rect>
                    </g>
                </g>
            </g>
        </g>
    </g>
</svg>