<?xml version="1.0" encoding="UTF-8" standalone="no"?>
<svg
   xmlns:dc="http://purl.org/dc/elements/1.1/"
   xmlns:cc="http://creativecommons.org/ns#"
   xmlns:rdf="http://www.w3.org/1999/02/22-rdf-syntax-ns#"
   xmlns:svg="http://www.w3.org/2000/svg"
   xmlns="http://www.w3.org/2000/svg"
   xmlns:sodipodi="http://sodipodi.sourceforge.net/DTD/sodipodi-0.dtd"
   xmlns:inkscape="http://www.inkscape.org/namespaces/inkscape"
   width="84"
   height="105"
   viewBox="0 0 84 105"
   version="1.1"
   id="svg86"
   sodipodi:docname="right_active.svg"
   inkscape:version="0.92.3 (2405546, 2018-03-11)">
  <metadata
     id="metadata92">
    <rdf:RDF>
      <cc:Work
         rdf:about="">
        <dc:format>image/svg+xml</dc:format>
        <dc:type
           rdf:resource="http://purl.org/dc/dcmitype/StillImage" />
        <dc:title>FD3D96EF-54E6-45B1-BD7F-612631408C23</dc:title>
      </cc:Work>
    </rdf:RDF>
  </metadata>
  <defs
     id="defs90" />
  <sodipodi:namedview
     pagecolor="#000000"
     bordercolor="#666666"
     borderopacity="1"
     objecttolerance="10"
     gridtolerance="10"
     guidetolerance="10"
     inkscape:pageopacity="0"
     inkscape:pageshadow="2"
     inkscape:window-width="1920"
     inkscape:window-height="997"
     id="namedview88"
     showgrid="false"
     inkscape:zoom="8.1533581"
     inkscape:cx="35.492319"
     inkscape:cy="58.672184"
     inkscape:window-x="0"
     inkscape:window-y="25"
     inkscape:window-maximized="1"
     inkscape:current-layer="svg86" />
  <g
     id="Reefer"
     style="fill:none;fill-rule:evenodd;stroke:none;stroke-width:1"
     transform="translate(-0.125178,0.51479892)">
    <g
       id="19.Reefer_HLT_Right_AnoDam1_empty-Copy"
       transform="translate(-255,-642)">
      <g
         id="Group-13"
         transform="translate(257,644)">
        <g
           id="Group-15">
          <g
             id="Group-14">
            <g
               id="Group-3">
              <g
                 id="Group-17"
                 transform="translate(11,10)"
                 style="opacity:0.2;fill-rule:nonzero">
                <path
                   d="m 11.132151,16.624994 -0.469766,0.11166 0.341384,-1.270581 0.433252,-0.09873 0.740318,-3.053957 c 0.04714,-0.194457 0.229853,-0.32302 0.427232,-0.312822 l 0.07447,0.01047 c 0.199156,0.04603 0.330826,0.224429 0.320382,0.417151 l -0.01072,0.07271 -0.644765,2.659782 0.523418,-0.119275 -0.303523,1.243287 -0.522475,0.124189 -2.0805015,8.582477 0.7158865,-0.130378 c 0.230197,-0.0044 0.420454,0.174258 0.424952,0.399023 0.004,0.199791 -0.140124,0.36877 -0.333875,0.406938 l -0.07479,0.008 -0.9393492,0.171074 -0.9310125,3.840609 c -0.053031,0.218764 -0.27765,0.354131 -0.5017003,0.302351 -0.1991559,-0.04603 -0.3308258,-0.224429 -0.3203816,-0.417151 l 0.010724,-0.07271 z"
                   id="path12"
                   inkscape:connector-curvature="0"
                   style="fill:#595f66" />
              </g>
            </g>
            <g
               id="Group-7"
               transform="translate(108)">
              <g
                 id="Group-6"
                 transform="matrix(-1,0,0,1,78,0)">
                <g
                   id="Group-16"
                   transform="translate(12,14)"
                   style="opacity:0.5;fill-rule:nonzero">
                  <g
                     id="noun_container_180474">
                    <g
                       id="Group" />
                  </g>
                </g>
              </g>
            </g>
            <g
               id="Group-10"
               transform="translate(216)">
              <g
                 id="Group-8"
                 transform="translate(16,15)"
                 style="opacity:0.5;fill-rule:nonzero" />
            </g>
            <g
               id="Group-11"
               transform="translate(324)">
              <circle
                 id="circle39"
                 cx="-283.35025"
                 cy="39.165688"
                 r="39"
                 style="fill:#545961;fill-opacity:0.51819278;stroke:#ffffff;stroke-width:2.39999986" />
              <g
                 id="Group-2"
                 transform="translate(12,14)"
                 style="fill:#ffffff">
                <g
                   id="g45"
                   style="fill-rule:nonzero">
                  <g
                     id="g43">
                    <path
                       d="m -270.81441,22.701977 c -0.005,-0.04919 -0.0191,-0.09597 -0.0429,-0.139516 -0.0238,-0.04597 -0.0572,-0.08548 -0.0969,-0.117742 l -0.54477,-0.445968 -26.28212,-21.51612892 c -0.0175,-0.0104839 -0.0357,-0.0201613 -0.0548,-0.0290322 -0.0206,-0.008871 -0.0397,-0.0193548 -0.0611,-0.0241936 -0.023,-0.005645 -0.0469,-0.004839 -0.0707,-0.005645 -0.0238,-8.0645e-4 -0.0469,-0.002419 -0.0707,8.0645e-4 -0.0214,0.004032 -0.0413,0.0120968 -0.0619,0.0193548 -0.0254,0.008871 -0.05,0.0177419 -0.0731,0.0322581 -0.006,0.003226 -0.0127,0.004032 -0.0175,0.008065 L -314.86729,12.1923 c -0.0151,0.0097 -0.0222,0.025 -0.0349,0.03629 -0.0191,0.01694 -0.0373,0.03387 -0.0524,0.05565 -0.0159,0.02177 -0.0254,0.04597 -0.0357,0.07016 -0.006,0.01613 -0.0175,0.02823 -0.0222,0.04436 l -7.21773,25.787903 c -0.0548,0.195968 0.0548,0.397581 0.24379,0.459678 l 34.72121,11.479032 c 0.0365,0.01048 0.0747,0.01855 0.11435,0.01855 0.027,0 0.0548,-0.0032 0.0818,-0.0089 l 18.34808,-4.174193 c 0.0175,-0.004 0.0318,-0.01613 0.0485,-0.02177 0.0238,-0.0089 0.0469,-0.01694 0.0675,-0.03065 0.0206,-0.0129 0.0373,-0.02984 0.054,-0.04597 0.0175,-0.01694 0.0341,-0.03226 0.0484,-0.05161 0.0143,-0.01935 0.023,-0.04113 0.0333,-0.06371 0.0103,-0.02177 0.0199,-0.04194 0.0254,-0.06613 0.006,-0.025 0.006,-0.05 0.007,-0.07581 0,-0.01774 0.006,-0.03387 0.005,-0.05242 z m -1.28885,-1.198387 -16.74318,-13.7112905 z m -17.00603,-13.9266131 -7.38133,-6.0451613 z m -7.72597,-6.3274193 -0.72741,-0.59516132 z m -17.50236,11.4870964 16.13489,-11.3282255 -3.99918,27.7499995 -19.18509,8.76371 z m 27.20568,36.63871 -34.05573,-11.254032 19.1025,-8.725807 32.54055,15.978226 z m -14.8087,-20.203226 4.01347,-27.846774 26.39011,21.612097 2.32518,22.305645 z"
                       id="path41"
                       inkscape:connector-curvature="0" />
                  </g>
                </g>
                <polygon
                   id="Rectangle"
                   points="21.015616,28.725582 24.638344,2 50.207141,23.1102 52.56327,44.242601 "
                   transform="translate(-322.35026,0.1656866)" />
              </g>
            </g>
            <g
               id="Group-12"
               transform="translate(432,1)">
              <g
                 id="g58"
                 transform="matrix(1,0,0,-1,12,64)"
                 style="fill-rule:nonzero">
                <g
                   id="g56" />
              </g>
            </g>
            <g
               id="Group-4"
               transform="translate(239,96)"
               font-size="12"
               font-weight="bold"
               letter-spacing="0.00375"
               style="font-weight:bold;font-size:12px;font-family:Inter-Bold, Inter;letter-spacing:0.00375;opacity:0.5;fill:#ffffff" />
          </g>
        </g>
      </g>
    </g>
  </g>
  <g
     id="right-hs-finished-circle"
     visibility="hidden"
     transform="matrix(1.0163929,0,0,1.0130059,0.83003576,-0.07389857)"
     style="visibility:hidden">
    <ellipse
       cy="41.932194"
       cx="42.0569"
       id="green-elipse-seals"
       style="opacity:1;fill:#4e5359;fill-opacity:0.66666669;stroke:#7ed321;stroke-width:3.03265095"
       rx="38.803879"
       ry="38.635014" />
    <polyline
       points="663 485.597519 667.3505 490 681 478"
       id="tick-icon-seals"
       transform="matrix(1.013845,0,0,1.0406923,-639.12571,-460.96854)"
       style="opacity:1;fill:#000001;fill-opacity:0;stroke:#ffffff;stroke-width:5;stroke-linecap:round;stroke-linejoin:round" />
  </g>
  <text
     y="-5.973742"
     x="-326.9147"
     style="font-weight:bold;font-size:12px;font-family:Inter-Bold, Inter;letter-spacing:0.00375;opacity:0.5;fill:#ffffff"
     id="Right-Text"
     font-size="12"
     font-weight="bold"
     letter-spacing="0.00375">
    <tspan
       x="24.085308"
       y="103.02625"
       id="tspan71">RIGHT</tspan>
  </text>
</svg>
