<?xml version="1.0" encoding="UTF-8"?>
<svg width="590px" height="529px" viewBox="0 0 590 529" version="1.1" xmlns="http://www.w3.org/2000/svg" xmlns:xlink="http://www.w3.org/1999/xlink">
    <defs>
        <filter x="0.0%" y="0.0%" width="100.0%" height="100.0%" filterUnits="objectBoundingBox" id="filter-1">
            <feGaussianBlur stdDeviation="0" in="SourceGraphic"></feGaussianBlur>
        </filter>
        <circle id="path-2" cx="587" cy="459" r="25"></circle>
        <filter x="-137.0%" y="-133.0%" width="374.0%" height="374.0%" filterUnits="objectBoundingBox" id="filter-3">
            <feMorphology radius="1.5" operator="dilate" in="SourceAlpha" result="shadowSpreadOuter1"></feMorphology>
            <feOffset dx="0" dy="2" in="shadowSpreadOuter1" result="shadowOffsetOuter1"></feOffset>
            <feGaussianBlur stdDeviation="22" in="shadowOffsetOuter1" result="shadowBlurOuter1"></feGaussianBlur>
            <feComposite in="shadowBlurOuter1" in2="SourceAlpha" operator="out" result="shadowBlurOuter1"></feComposite>
            <feColorMatrix values="0 0 0 0 0.374122509   0 0 0 0 0.374122509   0 0 0 0 0.374122509  0 0 0 0.575529939 0" type="matrix" in="shadowBlurOuter1"></feColorMatrix>
        </filter>
    </defs>
    <g id="seals-main-container" stroke="none" stroke-width="1" fill="none" fill-rule="evenodd">
        <g id="10.Dry1_Sealfrm_Empty-Copy" transform="translate(0.000000, -145.000000)">
            <g id="Group-6" transform="translate(-65.000000, 145.000000)">
                <g id="Group-26-Copy">
                    <g id="view-finder-oval">
                        <ellipse id="Oval-Copy-21" fill-opacity="0.223120629" fill="#FFFFFF" opacity="0.422386533" filter="url(#filter-1)" transform="translate(306.122104, 302.689853) scale(-1, 1) rotate(-20.000000) translate(-306.122104, -302.689853) " cx="335" cy="288" rx="295" ry="143"></ellipse>
                    </g>
                    <g id="Group-25" transform="translate(31.000000, 0.000000)">
                        <g id="Containter" transform="translate(253.000000, 217.000000) scale(-1, 1) translate(-253.000000, -217.000000) ">
                            <polygon id="Fill-1466" fill="#B3B4B3" points="502.107198 179.315862 392.972597 117.139826 377.846686 126.249853 486.165678 188.883374"></polygon>
                            <polygon id="Fill-1543" fill="#4F4F4F" points="485.315837 188.883374 485.315837 55.7396995 99.5188135 279.11212 99.5188135 414.6582"></polygon>
                            <polygon id="Fill-1547" fill="#B3B4B3" points="505.639115 181.331724 501.457473 179.015066 99.5188135 414.6582 103.0168 416.89826"></polygon>
                            <polygon id="Fill-1548" fill="#747571" points="505.639115 198.532468 505.639115 181.331724 102.80029 416.843869 102.80029 433.46833"></polygon>
                            <polygon id="Fill-1549" fill="#D7DBCD" points="501.457473 197.290775 501.457473 188.034018 106.678583 417.540432 106.678583 426.863503"></polygon>
                            <polygon id="Fill-1550" fill="#8C8C8C" points="388.403664 0 2.93165797 223.151683 99.5188135 279.11212 485.315837 55.7396995"></polygon>
                            <polygon id="Fill-1551" fill="#484948" points="99.5188135 414.735641 99.5188135 431.831479 102.801973 433.468271 102.801973 416.843869"></polygon>
                            <polygon id="Fill-1551-Copy" fill="#484948" points="0.271423776 357.379039 0.271423776 375.068183 2.93165797 376.607516 2.93165797 358.795191"></polygon>
                            <g id="reflectors" transform="translate(106.678583, 195.299718)" fill="#EE9E40">
                                <polygon id="Fill-1566-Copy" points="344.767053 31.007105 344.767053 21.6840339 351.983869 17.5333696 351.983869 26.8396858"></polygon>
                                <polygon id="Fill-1566-Copy-2" points="312.782224 49.597947 312.782224 40.2748758 319.99904 36.1242115 319.99904 45.4305278"></polygon>
                                <polygon id="Fill-1566-Copy-3" points="280.797395 68.1887889 280.797395 58.8657178 288.014211 54.7150535 288.014211 64.0213697"></polygon>
                                <polygon id="Fill-1566-Copy-7" points="248.812565 86.7796309 248.812565 77.4565597 256.029381 73.3058954 256.029381 82.6122117"></polygon>
                                <polygon id="Fill-1566-Copy-6" points="218.488863 104.557699 218.488863 95.2346274 225.705679 91.0839631 225.705679 100.390279"></polygon>
                                <polygon id="Fill-1566-Copy-5" points="186.523254 123.03576 186.523254 113.712689 193.74007 109.562024 193.74007 118.868341"></polygon>
                                <polygon id="Fill-1566-Copy-4" points="154.555281 141.638388 154.555281 132.315317 161.772097 128.164652 161.772097 137.470968"></polygon>
                                <polygon id="Fill-1566-Copy-11" points="123.436756 159.768693 123.436756 150.445622 130.653572 146.294957 130.653572 155.601274"></polygon>
                                <polygon id="Fill-1566-Copy-10" points="93.1073279 177.299892 93.1073279 167.976821 100.324144 163.826156 100.324144 173.132473"></polygon>
                                <polygon id="Fill-1566-Copy-9" points="61.1710358 195.972694 61.1710358 186.649623 68.3878519 182.498959 68.3878519 191.805275"></polygon>
                                <polygon id="Fill-1566-Copy-8" points="29.2018762 214.58707 29.2018762 205.263998 36.4186924 201.113334 36.4186924 210.41965"></polygon>
                                <polygon id="Fill-1566-Copy-12" points="-5.46229728e-13 231.563785 -5.46229728e-13 222.240714 7.21681617 218.09005 7.21681617 227.396366"></polygon>
                            </g>
                            <g id="group-1" transform="translate(102.402091, 84.602138)">
                                <g id="groove-1" transform="translate(369.938556, 53.528804) rotate(2.000000) translate(-369.938556, -53.528804) translate(361.942349, 0.641064)">
                                    <polygon id="Fill-1596-Copy" fill="#333333" points="15.8408841 97.7819374 15.6919536 97.7162187 12.4272316 96.4050759 9.14066336 2.08896822 12.4335446 -1.27106353e-13"></polygon>
                                    <polygon id="Path-6" fill="#404040" transform="translate(9.752373, 101.024594) scale(-1, 1) translate(-9.752373, -101.024594) " points="3.6638625 97.7819374 7.07751508 96.4050759 15.8408841 101.645376 15.7015429 105.644112"></polygon>
                                    <polygon id="Path-2" fill="#575757" points="9.14066336 2.08896822 12.4272316 96.4050759 3.6638625 101.645376 0.388973515 7.66443172"></polygon>
                                </g>
                                <g id="groove-1-copy" transform="translate(349.320259, 65.155396) rotate(2.000000) translate(-349.320259, -65.155396) translate(341.324052, 12.267656)">
                                    <polygon id="Fill-1596-Copy" fill="#333333" points="15.8408841 97.7819374 15.6919536 97.7162187 12.4272316 96.4050759 9.14066336 2.08896822 12.4335446 -1.27106353e-13"></polygon>
                                    <polygon id="Path-6" fill="#404040" transform="translate(9.752373, 101.024594) scale(-1, 1) translate(-9.752373, -101.024594) " points="3.6638625 97.7819374 7.07751508 96.4050759 15.8408841 101.645376 15.7015429 105.644112"></polygon>
                                    <polygon id="Path-2" fill="#575757" points="9.14066336 2.08896822 12.4272316 96.4050759 3.6638625 101.645376 0.388973515 7.66443172"></polygon>
                                </g>
                                <g id="groove-1-copy-2" transform="translate(326.751712, 78.133213) rotate(2.000000) translate(-326.751712, -78.133213) translate(318.755505, 25.245473)">
                                    <polygon id="Fill-1596-Copy" fill="#333333" points="15.8408841 97.7819374 15.6919536 97.7162187 12.4272316 96.4050759 9.14066336 2.08896822 12.4335446 -1.27106353e-13"></polygon>
                                    <polygon id="Path-6" fill="#404040" transform="translate(9.752373, 101.024594) scale(-1, 1) translate(-9.752373, -101.024594) " points="3.6638625 97.7819374 7.07751508 96.4050759 15.8408841 101.645376 15.7015429 105.644112"></polygon>
                                    <polygon id="Path-2" fill="#575757" points="9.14066336 2.08896822 12.4272316 96.4050759 3.6638625 101.645376 0.388973515 7.66443172"></polygon>
                                </g>
                                <g id="groove-1-copy-3" transform="translate(304.227816, 91.110249) rotate(2.000000) translate(-304.227816, -91.110249) translate(296.231609, 38.222509)">
                                    <polygon id="Fill-1596-Copy" fill="#333333" points="15.8408841 97.7819374 15.6919536 97.7162187 12.4272316 96.4050759 9.14066336 2.08896822 12.4335446 -1.27106353e-13"></polygon>
                                    <polygon id="Path-6" fill="#404040" transform="translate(9.752373, 101.024594) scale(-1, 1) translate(-9.752373, -101.024594) " points="3.6638625 97.7819374 7.07751508 96.4050759 15.8408841 101.645376 15.7015429 105.644112"></polygon>
                                    <polygon id="Path-2" fill="#575757" points="9.14066336 2.08896822 12.4272316 96.4050759 3.6638625 101.645376 0.388973515 7.66443172"></polygon>
                                </g>
                                <g id="groove-1-copy-4" transform="translate(277.912728, 106.143931) rotate(2.000000) translate(-277.912728, -106.143931) translate(269.916521, 53.256191)">
                                    <polygon id="Fill-1596-Copy" fill="#333333" points="15.8408841 97.7819374 15.6919536 97.7162187 12.4272316 96.4050759 9.14066336 2.08896822 12.4335446 -1.27106353e-13"></polygon>
                                    <polygon id="Path-6" fill="#404040" transform="translate(9.752373, 101.024594) scale(-1, 1) translate(-9.752373, -101.024594) " points="3.6638625 97.7819374 7.07751508 96.4050759 15.8408841 101.645376 15.7015429 105.644112"></polygon>
                                    <polygon id="Path-2" fill="#575757" points="9.14066336 2.08896822 12.4272316 96.4050759 3.6638625 101.645376 0.388973515 7.66443172"></polygon>
                                </g>
                                <g id="groove-1-copy-5" transform="translate(250.408327, 122.502924) rotate(2.000000) translate(-250.408327, -122.502924) translate(242.412120, 69.615184)">
                                    <polygon id="Fill-1596-Copy" fill="#333333" points="15.8408841 97.7819374 15.6919536 97.7162187 12.4272316 96.4050759 9.14066336 2.08896822 12.4335446 -1.27106353e-13"></polygon>
                                    <polygon id="Path-6" fill="#404040" transform="translate(9.752373, 101.024594) scale(-1, 1) translate(-9.752373, -101.024594) " points="3.6638625 97.7819374 7.07751508 96.4050759 15.8408841 101.645376 15.7015429 105.644112"></polygon>
                                    <polygon id="Path-2" fill="#575757" points="9.14066336 2.08896822 12.4272316 96.4050759 3.6638625 101.645376 0.388973515 7.66443172"></polygon>
                                </g>
                                <g id="groove-1-copy-6" transform="translate(224.093239, 137.536606) rotate(2.000000) translate(-224.093239, -137.536606) translate(216.097032, 84.648866)">
                                    <polygon id="Fill-1596-Copy" fill="#333333" points="15.8408841 97.7819374 15.6919536 97.7162187 12.4272316 96.4050759 9.14066336 2.08896822 12.4335446 -1.27106353e-13"></polygon>
                                    <polygon id="Path-6" fill="#404040" transform="translate(9.752373, 101.024594) scale(-1, 1) translate(-9.752373, -101.024594) " points="3.6638625 97.7819374 7.07751508 96.4050759 15.8408841 101.645376 15.7015429 105.644112"></polygon>
                                    <polygon id="Path-2" fill="#575757" points="9.14066336 2.08896822 12.4272316 96.4050759 3.6638625 101.645376 0.388973515 7.66443172"></polygon>
                                </g>
                                <g id="groove-1-copy-7" transform="translate(197.778152, 152.570288) rotate(2.000000) translate(-197.778152, -152.570288) translate(189.781944, 99.682548)">
                                    <polygon id="Fill-1596-Copy" fill="#333333" points="15.8408841 97.7819374 15.6919536 97.7162187 12.4272316 96.4050759 9.14066336 2.08896822 12.4335446 -1.27106353e-13"></polygon>
                                    <polygon id="Path-6" fill="#404040" transform="translate(9.752373, 101.024594) scale(-1, 1) translate(-9.752373, -101.024594) " points="3.6638625 97.7819374 7.07751508 96.4050759 15.8408841 101.645376 15.7015429 105.644112"></polygon>
                                    <polygon id="Path-2" fill="#575757" points="9.14066336 2.08896822 12.4272316 96.4050759 3.6638625 101.645376 0.388973515 7.66443172"></polygon>
                                </g>
                                <g id="groove-1-copy-8" transform="translate(170.229100, 168.930062) rotate(2.000000) translate(-170.229100, -168.930062) translate(162.232893, 116.042322)">
                                    <polygon id="Fill-1596-Copy" fill="#333333" points="15.8408841 97.7819374 15.6919536 97.7162187 12.4272316 96.4050759 9.14066336 2.08896822 12.4335446 -1.27106353e-13"></polygon>
                                    <polygon id="Path-6" fill="#404040" transform="translate(9.752373, 101.024594) scale(-1, 1) translate(-9.752373, -101.024594) " points="3.6638625 97.7819374 7.07751508 96.4050759 15.8408841 101.645376 15.7015429 105.644112"></polygon>
                                    <polygon id="Path-2" fill="#575757" points="9.14066336 2.08896822 12.4272316 96.4050759 3.6638625 101.645376 0.388973515 7.66443172"></polygon>
                                </g>
                                <g id="groove-1-copy-9" transform="translate(143.914013, 183.963744) rotate(2.000000) translate(-143.914013, -183.963744) translate(135.917805, 131.076004)">
                                    <polygon id="Fill-1596-Copy" fill="#333333" points="15.8408841 97.7819374 15.6919536 97.7162187 12.4272316 96.4050759 9.14066336 2.08896822 12.4335446 -1.27106353e-13"></polygon>
                                    <polygon id="Path-6" fill="#404040" transform="translate(9.752373, 101.024594) scale(-1, 1) translate(-9.752373, -101.024594) " points="3.6638625 97.7819374 7.07751508 96.4050759 15.8408841 101.645376 15.7015429 105.644112"></polygon>
                                    <polygon id="Path-2" fill="#575757" points="9.14066336 2.08896822 12.4272316 96.4050759 3.6638625 101.645376 0.388973515 7.66443172"></polygon>
                                </g>
                                <g id="groove-1-copy-10" transform="translate(117.598925, 198.997426) rotate(2.000000) translate(-117.598925, -198.997426) translate(109.602718, 146.109686)">
                                    <polygon id="Fill-1596-Copy" fill="#333333" points="15.8408841 97.7819374 15.6919536 97.7162187 12.4272316 96.4050759 9.14066336 2.08896822 12.4335446 -1.27106353e-13"></polygon>
                                    <polygon id="Path-6" fill="#404040" transform="translate(9.752373, 101.024594) scale(-1, 1) translate(-9.752373, -101.024594) " points="3.6638625 97.7819374 7.07751508 96.4050759 15.8408841 101.645376 15.7015429 105.644112"></polygon>
                                    <polygon id="Path-2" fill="#575757" points="9.14066336 2.08896822 12.4272316 96.4050759 3.6638625 101.645376 0.388973515 7.66443172"></polygon>
                                </g>
                                <g id="groove-1-copy-11" transform="translate(90.049874, 215.357200) rotate(2.000000) translate(-90.049874, -215.357200) translate(82.053666, 162.469460)">
                                    <polygon id="Fill-1596-Copy" fill="#333333" points="15.8408841 97.7819374 15.6919536 97.7162187 12.4272316 96.4050759 9.14066336 2.08896822 12.4335446 -1.27106353e-13"></polygon>
                                    <polygon id="Path-6" fill="#404040" transform="translate(9.752373, 101.024594) scale(-1, 1) translate(-9.752373, -101.024594) " points="3.6638625 97.7819374 7.07751508 96.4050759 15.8408841 101.645376 15.7015429 105.644112"></polygon>
                                    <polygon id="Path-2" fill="#575757" points="9.14066336 2.08896822 12.4272316 96.4050759 3.6638625 101.645376 0.388973515 7.66443172"></polygon>
                                </g>
                                <g id="groove-1-copy-12" transform="translate(63.734786, 231.031946) rotate(2.000000) translate(-63.734786, -231.031946) translate(55.738579, 178.144206)">
                                    <polygon id="Fill-1596-Copy" fill="#333333" points="15.8408841 97.7819374 15.6919536 97.7162187 12.4272316 96.4050759 9.14066336 2.08896822 12.4335446 -1.27106353e-13"></polygon>
                                    <polygon id="Path-6" fill="#404040" transform="translate(9.752373, 101.024594) scale(-1, 1) translate(-9.752373, -101.024594) " points="3.6638625 97.7819374 7.07751508 96.4050759 15.8408841 101.645376 15.7015429 105.644112"></polygon>
                                    <polygon id="Path-2" fill="#575757" points="9.14066336 2.08896822 12.4272316 96.4050759 3.6638625 101.645376 0.388973515 7.66443172"></polygon>
                                </g>
                                <g id="groove-1-copy-13" transform="translate(37.464348, 246.064847) rotate(2.000000) translate(-37.464348, -246.064847) translate(29.468141, 193.177107)">
                                    <polygon id="Fill-1596-Copy" fill="#333333" points="15.8408841 97.7819374 15.6919536 97.7162187 12.4272316 96.4050759 9.14066336 2.08896822 12.4335446 -1.27106353e-13"></polygon>
                                    <polygon id="Path-6" fill="#404040" transform="translate(9.752373, 101.024594) scale(-1, 1) translate(-9.752373, -101.024594) " points="3.6638625 97.7819374 7.07751508 96.4050759 15.8408841 101.645376 15.7015429 105.644112"></polygon>
                                    <polygon id="Path-2" fill="#575757" points="9.14066336 2.08896822 12.4272316 96.4050759 3.6638625 101.645376 0.388973515 7.66443172"></polygon>
                                </g>
                                <g id="groove-1-copy-14" transform="translate(9.915297, 261.783558) rotate(2.000000) translate(-9.915297, -261.783558) translate(1.919090, 208.895818)">
                                    <polygon id="Fill-1596-Copy" fill="#333333" points="15.8408841 97.7819374 15.6919536 97.7162187 12.4272316 96.4050759 9.14066336 2.08896822 12.4335446 -1.27106353e-13"></polygon>
                                    <polygon id="Path-6" fill="#404040" transform="translate(9.752373, 101.024594) scale(-1, 1) translate(-9.752373, -101.024594) " points="3.6638625 97.7819374 7.07751508 96.4050759 15.8408841 101.645376 15.7015429 105.644112"></polygon>
                                    <polygon id="Path-2" fill="#575757" points="9.14066336 2.08896822 12.4272316 96.4050759 3.6638625 101.645376 0.388973515 7.66443172"></polygon>
                                </g>
                            </g>
                            <g id="groves-1-copy" transform="translate(243.404551, 139.110783) scale(-1, -1) translate(-243.404551, -139.110783) translate(14.073325, 3.846381)">
                                <g id="groove-1-copy-14" transform="translate(50.855879, 238.796160) rotate(-63.000000) translate(-50.855879, -238.796160) translate(42.219975, 186.549483)">
                                    <polygon id="Path-2" fill="#757575" points="16.8775068 8.11918013 11.1292478 104.027166 0.386770287 97.1126097 5.53026412 0.544538947"></polygon>
                                    <polygon id="Path-6" fill="#666666" transform="translate(5.804118, 99.997628) scale(-1, 1) translate(-5.804118, -99.997628) " points="0.478987868 104.027166 0.386770287 102.135462 8.98000749 95.9680894 11.2214654 97.1126097"></polygon>
                                    <polygon id="Fill-1596-Copy" fill="#626262" points="2.62822817 95.9680894 0.386770287 97.1126097 5.53026412 0.544538947 7.33399365 1.91189882"></polygon>
                                </g>
                                <g id="groove-1-copy-15" transform="translate(77.723135, 223.410635) rotate(-63.000000) translate(-77.723135, -223.410635) translate(69.087231, 171.163959)">
                                    <polygon id="Path-2" fill="#757575" points="16.8775068 8.11918013 11.1292478 104.027166 0.386770287 97.1126097 5.53026412 0.544538947"></polygon>
                                    <polygon id="Path-6" fill="#666666" transform="translate(5.804118, 99.997628) scale(-1, 1) translate(-5.804118, -99.997628) " points="0.478987868 104.027166 0.386770287 102.135462 8.98000749 95.9680894 11.2214654 97.1126097"></polygon>
                                    <polygon id="Fill-1596-Copy" fill="#626262" points="2.62822817 95.9680894 0.386770287 97.1126097 5.53026412 0.544538947 7.33399365 1.91189882"></polygon>
                                </g>
                                <g id="groove-1-copy-16" transform="translate(105.869785, 206.742984) rotate(-63.000000) translate(-105.869785, -206.742984) translate(97.233881, 154.496307)">
                                    <polygon id="Path-2" fill="#757575" points="16.8775068 8.11918013 11.1292478 104.027166 0.386770287 97.1126097 5.53026412 0.544538947"></polygon>
                                    <polygon id="Path-6" fill="#666666" transform="translate(5.804118, 99.997628) scale(-1, 1) translate(-5.804118, -99.997628) " points="0.478987868 104.027166 0.386770287 102.135462 8.98000749 95.9680894 11.2214654 97.1126097"></polygon>
                                    <polygon id="Fill-1596-Copy" fill="#626262" points="2.62822817 95.9680894 0.386770287 97.1126097 5.53026412 0.544538947 7.33399365 1.91189882"></polygon>
                                </g>
                                <g id="groove-1-copy-17" transform="translate(137.214918, 188.793205) rotate(-63.000000) translate(-137.214918, -188.793205) translate(128.579014, 136.546529)">
                                    <polygon id="Path-2" fill="#757575" points="16.8775068 8.11918013 11.1292478 104.027166 0.386770287 97.1126097 5.53026412 0.544538947"></polygon>
                                    <polygon id="Path-6" fill="#666666" transform="translate(5.804118, 99.997628) scale(-1, 1) translate(-5.804118, -99.997628) " points="0.478987868 104.027166 0.386770287 102.135462 8.98000749 95.9680894 11.2214654 97.1126097"></polygon>
                                    <polygon id="Fill-1596-Copy" fill="#626262" points="2.62822817 95.9680894 0.386770287 97.1126097 5.53026412 0.544538947 7.33399365 1.91189882"></polygon>
                                </g>
                                <g id="groove-1-copy-18" transform="translate(167.280657, 170.843427) rotate(-63.000000) translate(-167.280657, -170.843427) translate(158.644753, 118.596750)">
                                    <polygon id="Path-2" fill="#757575" points="16.8775068 8.11918013 11.1292478 104.027166 0.386770287 97.1126097 5.53026412 0.544538947"></polygon>
                                    <polygon id="Path-6" fill="#666666" transform="translate(5.804118, 99.997628) scale(-1, 1) translate(-5.804118, -99.997628) " points="0.478987868 104.027166 0.386770287 102.135462 8.98000749 95.9680894 11.2214654 97.1126097"></polygon>
                                    <polygon id="Fill-1596-Copy" fill="#626262" points="2.62822817 95.9680894 0.386770287 97.1126097 5.53026412 0.544538947 7.33399365 1.91189882"></polygon>
                                </g>
                                <g id="groove-1-copy-19" transform="translate(199.265487, 152.252585) rotate(-63.000000) translate(-199.265487, -152.252585) translate(190.629583, 100.005908)">
                                    <polygon id="Path-2" fill="#757575" points="16.8775068 8.11918013 11.1292478 104.027166 0.386770287 97.1126097 5.53026412 0.544538947"></polygon>
                                    <polygon id="Path-6" fill="#666666" transform="translate(5.804118, 99.997628) scale(-1, 1) translate(-5.804118, -99.997628) " points="0.478987868 104.027166 0.386770287 102.135462 8.98000749 95.9680894 11.2214654 97.1126097"></polygon>
                                    <polygon id="Fill-1596-Copy" fill="#626262" points="2.62822817 95.9680894 0.386770287 97.1126097 5.53026412 0.544538947 7.33399365 1.91189882"></polygon>
                                </g>
                                <g id="groove-1-copy-20" transform="translate(236.367889, 130.456425) rotate(-63.000000) translate(-236.367889, -130.456425) translate(227.731985, 78.209749)">
                                    <polygon id="Path-2" fill="#757575" points="16.8775068 8.11918013 11.1292478 104.027166 0.386770287 97.1126097 5.53026412 0.544538947"></polygon>
                                    <polygon id="Path-6" fill="#666666" transform="translate(5.804118, 99.997628) scale(-1, 1) translate(-5.804118, -99.997628) " points="0.478987868 104.027166 0.386770287 102.135462 8.98000749 95.9680894 11.2214654 97.1126097"></polygon>
                                    <polygon id="Fill-1596-Copy" fill="#626262" points="2.62822817 95.9680894 0.386770287 97.1126097 5.53026412 0.544538947 7.33399365 1.91189882"></polygon>
                                </g>
                                <g id="groove-1-copy-21" transform="translate(269.632111, 111.865583) rotate(-63.000000) translate(-269.632111, -111.865583) translate(260.996207, 59.618907)">
                                    <polygon id="Path-2" fill="#757575" points="16.8775068 8.11918013 11.1292478 104.027166 0.386770287 97.1126097 5.53026412 0.544538947"></polygon>
                                    <polygon id="Path-6" fill="#666666" transform="translate(5.804118, 99.997628) scale(-1, 1) translate(-5.804118, -99.997628) " points="0.478987868 104.027166 0.386770287 102.135462 8.98000749 95.9680894 11.2214654 97.1126097"></polygon>
                                    <polygon id="Fill-1596-Copy" fill="#626262" points="2.62822817 95.9680894 0.386770287 97.1126097 5.53026412 0.544538947 7.33399365 1.91189882"></polygon>
                                </g>
                                <g id="groove-1-copy-22" transform="translate(305.455120, 91.351551) rotate(-63.000000) translate(-305.455120, -91.351551) translate(296.819216, 39.104874)">
                                    <polygon id="Path-2" fill="#757575" points="16.8775068 8.11918013 11.1292478 104.027166 0.386770287 97.1126097 5.53026412 0.544538947"></polygon>
                                    <polygon id="Path-6" fill="#666666" transform="translate(5.804118, 99.997628) scale(-1, 1) translate(-5.804118, -99.997628) " points="0.478987868 104.027166 0.386770287 102.135462 8.98000749 95.9680894 11.2214654 97.1126097"></polygon>
                                    <polygon id="Fill-1596-Copy" fill="#626262" points="2.62822817 95.9680894 0.386770287 97.1126097 5.53026412 0.544538947 7.33399365 1.91189882"></polygon>
                                </g>
                                <g id="groove-1-copy-23" transform="translate(339.359039, 71.478582) rotate(-63.000000) translate(-339.359039, -71.478582) translate(330.723135, 19.231905)">
                                    <polygon id="Path-2" fill="#757575" points="16.8775068 8.11918013 11.1292478 104.027166 0.386770287 97.1126097 5.53026412 0.544538947"></polygon>
                                    <polygon id="Path-6" fill="#666666" transform="translate(5.804118, 99.997628) scale(-1, 1) translate(-5.804118, -99.997628) " points="0.478987868 104.027166 0.386770287 102.135462 8.98000749 95.9680894 11.2214654 97.1126097"></polygon>
                                    <polygon id="Fill-1596-Copy" fill="#626262" points="2.62822817 95.9680894 0.386770287 97.1126097 5.53026412 0.544538947 7.33399365 1.91189882"></polygon>
                                </g>
                                <g id="groove-1-copy-24" transform="translate(373.262958, 52.246677) rotate(-63.000000) translate(-373.262958, -52.246677) translate(364.627054, 0.000000)">
                                    <polygon id="Path-2" fill="#757575" points="16.8775068 8.11918013 11.1292478 104.027166 0.386770287 97.1126097 5.53026412 0.544538947"></polygon>
                                    <polygon id="Path-6" fill="#666666" transform="translate(5.804118, 99.997628) scale(-1, 1) translate(-5.804118, -99.997628) " points="0.478987868 104.027166 0.386770287 102.135462 8.98000749 95.9680894 11.2214654 97.1126097"></polygon>
                                    <polygon id="Fill-1596-Copy" fill="#626262" points="2.62822817 95.9680894 0.386770287 97.1126097 5.53026412 0.544538947 7.33399365 1.91189882"></polygon>
                                </g>
                                <g id="groove-1-copy-25" transform="translate(407.806574, 31.732644) rotate(-63.000000) translate(-407.806574, -31.732644) translate(399.170670, -20.514032)">
                                    <polygon id="Path-2" fill="#757575" points="16.8775068 8.11918013 11.1292478 104.027166 0.386770287 97.1126097 5.53026412 0.544538947"></polygon>
                                    <polygon id="Path-6" fill="#666666" transform="translate(5.804118, 99.997628) scale(-1, 1) translate(-5.804118, -99.997628) " points="0.478987868 104.027166 0.386770287 102.135462 8.98000749 95.9680894 11.2214654 97.1126097"></polygon>
                                    <polygon id="Fill-1596-Copy" fill="#626262" points="2.62822817 95.9680894 0.386770287 97.1126097 5.53026412 0.544538947 7.33399365 1.91189882"></polygon>
                                </g>
                            </g>
                            <polygon id="Path-65" fill="#666666" transform="translate(51.362163, 327.491581) scale(-1, 1) translate(-51.362163, -327.491581) " points="2.93165797 279.11212 99.7926675 223.151683 99.7926675 376.607516 3.205512 431.831479"></polygon>
                            <polygon id="Path-5" fill="#B3B4B3" points="2.93165797 358.795191 0.271423776 357.379039 2.93165797 356.045372"></polygon>
                            <g id="front-door-copy-3" transform="translate(255.238938, 231.423929) scale(-1, 1) translate(-255.238938, -231.423929) translate(10.874842, 55.772526)">
                                <g id="h-groove" transform="translate(408.412210, 247.904033)">
                                    <polygon id="Path-26" fill="#575757" points="0 21.2402562 37.5522548 0 37.5522548 10.8307249 0 32.0600812"></polygon>
                                    <polygon id="Path-27" fill="#333333" points="37.5522548 10.8307249 35.9924535 10.0457586 0 30.2035929 0 32.0600812"></polygon>
                                    <polygon id="Path-28" fill="#404040" points="37.5522548 10.8307249 37.5522548 0 35.9286918 1.03793864 35.9286918 10.0457586"></polygon>
                                </g>
                                <g id="h-groove-copy" transform="translate(450.632185, 226.107874)">
                                    <polygon id="Path-26" fill="#575757" points="0.271089179 19.7399847 34.9934685 0 34.9934685 10.8307249 0.271089179 30.5598096"></polygon>
                                    <polygon id="Path-27" fill="#333333" points="34.9934685 10.8307249 33.4336671 10.0457586 0.384795608 28.456548 0.384795608 30.3130364"></polygon>
                                    <polygon id="Path-28" fill="#404040" points="34.9934685 10.8307249 34.9934685 0 33.3699054 1.03793864 33.3699054 10.0457586"></polygon>
                                </g>
                                <g id="h-groove-copy-2" transform="translate(450.632185, 276.751891)">
                                    <polygon id="Path-26" fill="#575757" points="0.271089179 19.7399847 34.9934685 0 34.9934685 10.8307249 0.271089179 30.5598096"></polygon>
                                    <polygon id="Path-27" fill="#333333" points="34.9934685 10.8307249 33.4336671 10.0457586 0.382848765 28.592101 0.382848765 30.4485893"></polygon>
                                    <polygon id="Path-28" fill="#404040" points="34.9934685 10.8307249 34.9934685 0 33.3699054 1.03793864 33.3699054 10.0457586"></polygon>
                                </g>
                                <g id="h-groove-copy-4" transform="translate(408.412210, 299.189114)">
                                    <polygon id="Path-26" fill="#575757" points="0 21.2402562 37.5522548 0 37.5522548 10.8307249 0 32.0600812"></polygon>
                                    <polygon id="Path-27" fill="#333333" points="37.5522548 10.8307249 35.9924535 10.0457586 0 30.2035929 0 32.0600812"></polygon>
                                    <polygon id="Path-28" fill="#404040" points="37.5522548 10.8307249 37.5522548 0 35.9286918 1.03793864 35.9286918 10.0457586"></polygon>
                                </g>
                                <polygon id="Path-24" stroke="#4D4D4D" stroke-width="1.27999985" points="405.119827 240.398818 488.728192 192.640015 488.728192 302.364169 405.119827 350.935917"></polygon>
                                <path d="M448.427307,215.397341 L448.427307,325.660266" id="Path-25" stroke="#4D4D4D" stroke-width="1.27999985"></path>
                            </g>
                            <g id="front-door-copy-2" transform="translate(31.345133, 318.608567) scale(-1, 1) translate(-31.345133, -318.608567) translate(12.793932, 251.296898)"></g>
                        </g>
                        <g id="SEALS" transform="translate(408.126422, 259.630724)">
                            <g id="rod-1" transform="translate(14.713021, 10.257016)">
                                <g id="plate" transform="translate(0.000000, 126.930576)">
                                    <polygon id="Path-72" fill="#7A7A7A" points="1.06376364 6.18702941 0 5.62101032 0 12.3110719 1.06376364 12.9238971"></polygon>
                                    <polygon id="Path-71" fill="#ABABAB" points="1.06376364 6.18702941 1.06376364 12.9238971 10.5072149 7.55601081 10.5072149 0.80794517"></polygon>
                                    <polygon id="Path-73" fill="#969696" points="0 5.62101032 1.06376364 6.18702941 10.5072149 0.80794517 9.40643593 -5.68434189e-14"></polygon>
                                </g>
                                <g id="plate-copy" transform="translate(0.000000, 4.487445)">
                                    <polygon id="Path-72" fill="#7A7A7A" points="1.06376364 6.18702941 0 5.62101032 0 12.3110719 1.06376364 12.9238971"></polygon>
                                    <polygon id="Path-71" fill="#ABABAB" points="1.06376364 6.18702941 1.06376364 12.9238971 10.5072149 7.55601081 10.5072149 0.80794517"></polygon>
                                    <polygon id="Path-73" fill="#969696" points="0 5.62101032 1.06376364 6.18702941 10.5072149 0.80794517 9.40643593 -5.68434189e-14"></polygon>
                                </g>
                                <g id="rod" transform="translate(4.477876, 0.000000)">
                                    <polygon id="Path-68" fill="#E6E6E6" points="1.27939317 2.10670073 3.35104992 0.917315088 3.35104992 143.762551 1.27939317 144.880355"></polygon>
                                    <polygon id="Path-69" fill="#C7C7C7" points="1.27939317 2.10670073 0 1.64697012 0 144.140201 1.27939317 144.880355"></polygon>
                                    <polygon id="Path-70" fill="#B3B3B3" points="0 1.64697012 1.27939317 2.10670073 3.35104992 0.917315088 2.1558522 0.540241224"></polygon>
                                </g>
                            </g>
                            <g id="rod-1-copy" transform="translate(30.705436, 0.000000)">
                                <g id="plate" transform="translate(0.000000, 127.571640)">
                                    <polygon id="Path-72" fill="#7A7A7A" points="1.06376364 6.18702941 0 5.62101032 0 12.3110719 1.06376364 12.9238971"></polygon>
                                    <polygon id="Path-71" fill="#ABABAB" points="1.06376364 6.18702941 1.06376364 12.9238971 10.5072149 7.55601081 10.5072149 0.80794517"></polygon>
                                    <polygon id="Path-73" fill="#969696" points="0 5.62101032 1.06376364 6.18702941 10.5072149 0.80794517 9.40643593 -5.68434189e-14"></polygon>
                                </g>
                                <g id="plate-copy" transform="translate(0.000000, 5.128508)">
                                    <polygon id="Path-72" fill="#7A7A7A" points="1.06376364 6.18702941 0 5.62101032 0 12.3110719 1.06376364 12.9238971"></polygon>
                                    <polygon id="Path-71" fill="#ABABAB" points="1.06376364 6.18702941 1.06376364 12.9238971 10.5072149 7.55601081 10.5072149 0.80794517"></polygon>
                                    <polygon id="Path-73" fill="#969696" points="0 5.62101032 1.06376364 6.18702941 10.5072149 0.80794517 9.40643593 -5.68434189e-14"></polygon>
                                </g>
                                <g id="rod" transform="translate(4.477876, 0.000000)">
                                    <polygon id="Path-68" fill="#E6E6E6" points="1.27939317 2.10670073 3.35104992 0.917315088 3.35104992 143.762551 1.27939317 144.880355"></polygon>
                                    <polygon id="Path-69" fill="#C7C7C7" points="1.27939317 2.10670073 0 1.64697012 0 144.140201 1.27939317 144.880355"></polygon>
                                    <polygon id="Path-70" fill="#B3B3B3" points="0 1.64697012 1.27939317 2.10670073 3.35104992 0.917315088 2.1558522 0.540241224"></polygon>
                                </g>
                            </g>
                            <g id="HINGE" transform="translate(0.000000, 37.181684)">
                                <polygon id="Path-72" fill="#7A7A7A" points="1.06376364 6.18702941 0 5.62101032 0 9.30850146 1.06376364 9.92132671"></polygon>
                                <polygon id="Path-71" fill="#ABABAB" points="1.06376364 6.18702941 1.06376364 9.92132671 10.5072149 4.55344039 10.5072149 0.80794517"></polygon>
                                <polygon id="Path-73" fill="#969696" points="0 5.62101032 1.06376364 6.18702941 10.5072149 0.80794517 9.40643593 -5.68434189e-14"></polygon>
                            </g>
                            <g id="HINGE-Copy" transform="translate(0.000000, 134.623338)">
                                <polygon id="Path-72" fill="#7A7A7A" points="1.06376364 6.18702941 0 5.62101032 0 9.30850146 1.06376364 9.92132671"></polygon>
                                <polygon id="Path-71" fill="#ABABAB" points="1.06376364 6.18702941 1.06376364 9.92132671 10.5072149 4.55344039 10.5072149 0.80794517"></polygon>
                                <polygon id="Path-73" fill="#969696" points="0 5.62101032 1.06376364 6.18702941 10.5072149 0.80794517 9.40643593 -5.68434189e-14"></polygon>
                            </g>
                            <g id="HINGE-PLATES" transform="translate(26.273951, 116.452565)">
                                <path d="M10.2169745,1.67000349 L8.90936135,1.28212703 C4.24971571,4.58888883 1.41770646,6.82926619 0.413333603,8.0032591 C-0.241670571,8.72945694 -0.118192549,9.18915561 0.783767667,9.38235512" id="Path-75" fill="#D8D8D8"></path>
                                <path d="M10.1887545,1.67000349 C3.69814799,6.06150516 0.452844722,8.570132 0.452844722,9.19588402 C0.452844722,9.82163604 3.70755464,9.10603727 10.2169745,7.04908773 L10.1887545,1.67000349 Z" id="Path-74" fill="#E6E6E6"></path>
                                <path d="M6.6704233,0.541526561 L6.6704233,10.7985428" id="Path-80" stroke="#979797" stroke-width="0.639999924"></path>
                            </g>
                        </g>
                        <g id="SEALS-2" transform="translate(456.743363, 240.398818)">
                            <g id="rod-1-copy-3" transform="translate(0.000000, 8.974889)">
                                <g id="plate" transform="translate(0.000000, 127.571640)">
                                    <polygon id="Path-72" fill="#7A7A7A" points="1.06376364 6.18702941 0 5.62101032 0 12.3110719 1.06376364 12.9238971"></polygon>
                                    <polygon id="Path-71" fill="#ABABAB" points="1.06376364 6.18702941 1.06376364 12.9238971 10.5072149 7.55601081 10.5072149 0.80794517"></polygon>
                                    <polygon id="Path-73" fill="#969696" points="0 5.62101032 1.06376364 6.18702941 10.5072149 0.80794517 9.40643593 -5.68434189e-14"></polygon>
                                </g>
                                <g id="plate-copy" transform="translate(0.000000, 5.128508)">
                                    <polygon id="Path-72" fill="#7A7A7A" points="1.06376364 6.18702941 0 5.62101032 0 12.3110719 1.06376364 12.9238971"></polygon>
                                    <polygon id="Path-71" fill="#ABABAB" points="1.06376364 6.18702941 1.06376364 12.9238971 10.5072149 7.55601081 10.5072149 0.80794517"></polygon>
                                    <polygon id="Path-73" fill="#969696" points="0 5.62101032 1.06376364 6.18702941 10.5072149 0.80794517 9.40643593 -5.68434189e-14"></polygon>
                                </g>
                                <g id="rod" transform="translate(4.477876, 0.000000)">
                                    <polygon id="Path-68" fill="#E6E6E6" points="1.27939317 2.10670073 3.35104992 0.917315088 3.35104992 143.762551 1.27939317 144.880355"></polygon>
                                    <polygon id="Path-69" fill="#C7C7C7" points="1.27939317 2.10670073 0 1.64697012 0 144.140201 1.27939317 144.880355"></polygon>
                                    <polygon id="Path-70" fill="#B3B3B3" points="0 1.64697012 1.27939317 2.10670073 3.35104992 0.917315088 2.1558522 0.540241224"></polygon>
                                </g>
                            </g>
                            <g id="rod-1-copy-2" transform="translate(15.992415, 0.000000)">
                                <g id="plate" transform="translate(0.000000, 127.571640)">
                                    <polygon id="Path-72" fill="#7A7A7A" points="1.06376364 6.18702941 0 5.62101032 0 12.3110719 1.06376364 12.9238971"></polygon>
                                    <polygon id="Path-71" fill="#ABABAB" points="1.06376364 6.18702941 1.06376364 12.9238971 10.5072149 7.55601081 10.5072149 0.80794517"></polygon>
                                    <polygon id="Path-73" fill="#969696" points="0 5.62101032 1.06376364 6.18702941 10.5072149 0.80794517 9.40643593 -5.68434189e-14"></polygon>
                                </g>
                                <g id="plate-copy" transform="translate(0.000000, 5.128508)">
                                    <polygon id="Path-72" fill="#7A7A7A" points="1.06376364 6.18702941 0 5.62101032 0 12.3110719 1.06376364 12.9238971"></polygon>
                                    <polygon id="Path-71" fill="#ABABAB" points="1.06376364 6.18702941 1.06376364 12.9238971 10.5072149 7.55601081 10.5072149 0.80794517"></polygon>
                                    <polygon id="Path-73" fill="#969696" points="0 5.62101032 1.06376364 6.18702941 10.5072149 0.80794517 9.40643593 -5.68434189e-14"></polygon>
                                </g>
                                <g id="rod" transform="translate(4.477876, 0.000000)">
                                    <polygon id="Path-68" fill="#E6E6E6" points="1.27939317 2.10670073 3.35104992 0.917315088 3.35104992 143.762551 1.27939317 144.880355"></polygon>
                                    <polygon id="Path-69" fill="#C7C7C7" points="1.27939317 2.10670073 0 1.64697012 0 144.140201 1.27939317 144.880355"></polygon>
                                    <polygon id="Path-70" fill="#B3B3B3" points="0 1.64697012 1.27939317 2.10670073 3.35104992 0.917315088 2.1558522 0.540241224"></polygon>
                                </g>
                            </g>
                            <g id="HINGE-Copy-3" transform="translate(31.984829, 10.898080)">
                                <polygon id="Path-72" fill="#7A7A7A" points="1.06376364 6.18702941 0 5.62101032 0 9.30850146 1.06376364 9.92132671"></polygon>
                                <polygon id="Path-71" fill="#ABABAB" points="1.06376364 6.18702941 1.06376364 9.92132671 10.5072149 4.55344039 10.5072149 0.80794517"></polygon>
                                <polygon id="Path-73" fill="#969696" points="0 5.62101032 1.06376364 6.18702941 10.5072149 0.80794517 9.40643593 -5.68434189e-14"></polygon>
                            </g>
                            <g id="HINGE-Copy-2" transform="translate(31.984829, 108.339734)">
                                <polygon id="Path-72" fill="#7A7A7A" points="1.06376364 6.18702941 0 5.62101032 0 9.30850146 1.06376364 9.92132671"></polygon>
                                <polygon id="Path-71" fill="#ABABAB" points="1.06376364 6.18702941 1.06376364 9.92132671 10.5072149 4.55344039 10.5072149 0.80794517"></polygon>
                                <polygon id="Path-73" fill="#969696" points="0 5.62101032 1.06376364 6.18702941 10.5072149 0.80794517 9.40643593 -5.68434189e-14"></polygon>
                            </g>
                            <g id="HINGE-PLATES-Copy" transform="translate(11.514539, 117.955687)">
                                <path d="M10.2351454,0.369420283 L8.95575221,-1.26121336e-13 C4.26517933,3.3067618 1.41770646,5.54713916 0.413333603,6.72113207 C-0.241670571,7.44732991 -0.118192549,7.90702858 0.783767667,8.10022808 L10.2351454,0.369420283 Z" id="Path-75" fill="#D8D8D8"></path>
                                <path d="M10.2351454,0.369420283 C3.71361161,4.77322607 0.452844722,7.28800497 0.452844722,7.91375699 C0.452844722,8.53950901 3.72301826,7.81775818 10.2633653,5.74850453 L10.2351454,0.369420283 Z" id="Path-74" fill="#E6E6E6"></path>
                                <path d="M6.39696587,0 L6.39696587,8.97488922" id="Path-79" stroke="#979797" stroke-width="0.639999924"></path>
                            </g>
                            <g id="hinge-plate-2" transform="translate(7.651831, 95.337822)">
                                <path d="M9.00608878,3.77318188 C9.33965865,2.97963058 9.11782373,2.5046089 8.34058402,2.34811683 C7.08809562,2.16385081 4.36693274,2.48845448 0.177095376,3.32192784 L0.177095376,4.20082387 L9.00608878,3.77318188 Z" id="Path-77" fill="#D8D8D8"></path>
                                <path d="M0.177095376,4.20082387 C6.20624042,2.285125 9.25166525,1.96799996 9.31336986,3.24944874 C9.31336986,4.12193104 6.20891324,6.13695298 2.63788991e-13,9.29451455 L0.177095376,4.20082387 Z" id="Path-76" fill="#E6E6E6"></path>
                                <path d="M2.8553842,1.13686838e-13 L3.22301132,9.57356692" id="Path-78" stroke="#979797" stroke-width="0.639999924"></path>
                            </g>
                        </g>
                    </g>
                </g>
                <text id="Seals" font-family="Inter-SemiBold, Inter" font-size="13" font-weight="500" fill="#FFFFFF">
                    <tspan x="570" y="507">Seals</tspan>
                </text>
                <g id="Oval-Copy-2">
                    <use fill="black" fill-opacity="1" filter="url(#filter-3)" xlink:href="#path-2"></use>
                    <use stroke="#FFFFFF" stroke-width="3" fill-opacity="0.1" fill="#FFFFFF" fill-rule="evenodd" xlink:href="#path-2"></use>
                </g>
                <path d="M507.110553,474.635754 C498.863083,421.603149 522.73323,390.253816 539.206767,380.742816" id="Path-3-Copy-2" stroke="#FFFFFF" stroke-width="2" stroke-linecap="round" stroke-linejoin="round" stroke-dasharray="5" transform="translate(522.316724, 427.689285) scale(-1, 1) rotate(-150.000000) translate(-522.316724, -427.689285) "></path>
                <g id="Group-4" transform="translate(582.000000, 444.000000)" fill="#FFFFFF">
                    <path d="M2.14286904,30 L7.85713096,30 C8.05437469,30 8.21427233,29.8435209 8.21427233,29.6504941 L8.21427233,21.3729235 C8.21099305,20.673424 8.49544841,20.0020516 9.00355476,19.5100568 C9.64434458,18.8854719 10.0031488,18.035956 9.99997918,17.1508917 L9.99997918,9.33428673 C9.99801069,7.49360955 8.47373974,6.0019264 6.59285051,6 L3.40714949,6 C1.52626026,6.0019264 0.00198931131,7.49360955 2.08228053e-05,9.33428673 L2.0822805e-05,17.1508917 C-0.00314879942,18.035956 0.355655416,18.8854719 0.996445245,19.5100568 C1.50455159,20.0020516 1.78900695,20.673424 1.78572767,21.3729235 L1.78572767,29.6504941 C1.78572767,29.8435209 1.94562531,30 2.14286904,30 Z" id="Path" transform="translate(5.000000, 18.000000) rotate(-180.000000) translate(-5.000000, -18.000000) "></path>
                    <path d="M0,4.61111111 C0,4.82588851 0.159898304,5 0.357142857,5 L9.64285714,5 C9.8401017,5 10,4.82588851 10,4.61111111 C10,3.5372241 9.20050848,2.66666667 8.21428571,2.66666667 L7.14285714,2.66666667 L7.14285714,-1.27953204e-14 L2.85714286,-1.27953204e-14 L2.85714286,2.66666667 L1.78571429,2.66666667 C0.799491518,2.66666667 0,3.5372241 0,4.61111111 Z" id="Path" transform="translate(5.000000, 2.500000) rotate(-180.000000) translate(-5.000000, -2.500000) "></path>
                </g>
            </g>
        </g>
    </g>
</svg>