<?xml version="1.0" encoding="UTF-8"?>
<svg width="268px" height="268px" viewBox="0 0 268 268" version="1.1" xmlns="http://www.w3.org/2000/svg" xmlns:xlink="http://www.w3.org/1999/xlink">
    <!-- Generator: sketchtool 52.5 (67469) - http://www.bohemiancoding.com/sketch -->
    <title>F10206B6-07DF-4FC9-BD36-B465ABA4E338</title>
    <desc>Created with sketchtool.</desc>
    <defs>
        <circle id="path-1" cx="132.763675" cy="132.763675" r="132.763675"></circle>
    </defs>
    <g id="Landing-page" stroke="none" stroke-width="1" fill="none" fill-rule="evenodd">
        <g id="2.-VS_Special-Stow_active_Drop" transform="translate(-23.000000, -226.000000)">
            <g id="Group-18-Copy" transform="translate(24.000000, 227.000000)">
                <g id="Group-11-Copy">
                    <circle id="Oval-Copy-21" stroke="#FFFFFF" stroke-width="2" fill="#292929" cx="132.763675" cy="132.763675" r="132.763675"></circle>
                    <g id="Group">
                        <mask id="mask-2" fill="white">
                            <use xlink:href="#path-1"></use>
                        </mask>
                        <g id="Mask"></g>
                        <g mask="url(#mask-2)">
                            <g transform="translate(0.000000, 13.898126)">
                                <rect id="Rectangle" stroke="none" fill="#4C5357" fill-rule="evenodd" x="105.333163" y="0" width="64.3702665" height="188.545354" rx="18.1260799"></rect>
                                <path d="M0.249559466,78.0608276 L273.809978,78.0608276 C292.183249,78.0608276 301.369884,84.9592052 301.369884,98.7559606 C301.369884,112.552716 292.183249,119.451094 273.809978,119.451094 L0.249559466,119.451094 L0.249559466,78.0608276 Z" id="Path-47" stroke="none" fill="#4E5559" fill-rule="evenodd"></path>
                                <g id="tag2" stroke="none" stroke-width="1" fill="none" fill-rule="evenodd" transform="translate(113.033737, 116.523371)">
                                    <rect id="Rectangle" fill="#424C50" x="3.41792707" y="9.36871322" width="41.5480811" height="7.02653491"></rect>
                                    <polygon id="Path-53" fill="#384247" points="44.9660082 9.36871322 41.5387729 5.10733949 5.37586032 5.10733949 3.41792707 9.36871322"></polygon>
                                    <path d="M14.1072985,0 L14.1072985,6.0669372 C17.6548274,7.5221152 21.1139145,8.2497042 24.4845597,8.2497042 C27.855205,8.2497042 31.2232673,7.5221152 34.5887469,6.0669372 L34.5887469,0" id="Path-54" fill="#BD6135"></path>
                                    <g id="Group-4" transform="translate(0.000000, 38.158317)">
                                        <g id="Group-3" transform="translate(1.077190, 0.000000)" fill="#D8D8D8">
                                            <polyline id="Path-58" points="23.0110839 0 5.77922786 0 0 13.9551504 23.4073696 13.9551504"></polyline>
                                            <polyline id="Path-58" transform="translate(34.525870, 6.977575) scale(-1, 1) translate(-34.525870, -6.977575) " points="45.8300452 13.9551504 22.8221854 13.9551504 27.4313873 0 46.229555 0"></polyline>
                                        </g>
                                        <g id="Group-3-Copy" transform="translate(23.674514, 48.091492) scale(-1, 1) translate(-23.674514, -48.091492) translate(0.042282, 13.467525)" fill="#F2F0F0">
                                            <polyline id="Path-59" transform="translate(34.525870, 34.753107) scale(-1, 1) translate(-34.525870, -34.753107) " points="45.8332693 0.487625136 22.8221854 0.487625136 22.8221854 69.0185896 46.229555 69.0185896"></polyline>
                                            <polyline id="Path-59" points="24.1052645 0.585544576 0 0.487625136 0 69.0185896 23.4073696 69.0185896"></polyline>
                                        </g>
                                    </g>
                                    <g id="Group-2-Copy" transform="translate(9.458668, 43.288610)" fill="#D8D8D8" stroke="#979797" stroke-width="0.832999981">
                                        <path d="M14.6296047,0.449001483 C15.8888086,3.23204602 23.3363991,5.54911677 29.0997342,5.54911677" id="Path-56-Copy" transform="translate(21.864669, 2.999059) scale(-1, 1) translate(-21.864669, -2.999059) "></path>
                                        <path d="M0.559746362,0.274386961 C1.8189502,3.0574315 9.26255801,5.54911677 15.0258918,5.54911677" id="Path-56"></path>
                                    </g>
                                    <g id="Group-2" transform="translate(10.043852, 31.577719)" fill="#C4C4C4">
                                        <path d="M4.06344627,1.75663373 C0.681967933,3.11724697 -0.589036625,4.7252351 0.250432598,6.58059813 C1.50963643,9.36364267 8.67737376,11.4045625 14.4407076,11.4045625" id="Path-56"></path>
                                        <path d="M28.4529551,2.5978009 L27.4466115,1.39868932 L17.6701263,0.468377906 L8.88040158,1.17108915 C4.87669749,2.92206545 3.29458006,4.7252351 4.13404928,6.58059813 C5.39325312,9.36364267 12.5609904,11.4045625 18.3243242,11.4045625" id="Path-56-Copy" transform="translate(16.184373, 5.936470) scale(-1, 1) translate(-16.184373, -5.936470) "></path>
                                    </g>
                                    <path d="M14.1072985,16.3952481 L14.1072985,37.352666 C17.7499972,39.3450626 21.2404455,40.341261 24.5786434,40.341261 C27.9168414,40.341261 31.2535425,39.3450626 34.5887469,37.352666 L34.5887469,16.3952481" id="Path-55" fill="#BD6135"></path>
                                    <path d="M10.0438522,37.3510188 L10.0438522,43.7046207" id="Path-57" stroke="#979797" stroke-width="0.832999981"></path>
                                    <path d="M38.5289815,37.3679055 L38.5289815,43.8741549" id="Path-57-Copy" stroke="#979797" stroke-width="0.832999981"></path>
                                </g>
                                <path d="M67.2961877,98.7559606 L219.44409,98.7559606" id="Path-52" stroke="#3C474D" stroke-width="5.33119996" fill="none" stroke-linecap="round"></path>
                                <g id="clip" stroke="none" stroke-width="1" fill="none" fill-rule="evenodd" transform="translate(96.555400, 11.710892)">
                                    <path d="M40.8688132,107.740202 C35.4339561,107.705877 30.1092079,105.447634 24.8945688,100.96547 C17.0726101,94.2422255 15.2802881,84.820272 10.4392327,79.2427436 C5.59817718,73.6652152 1.51521814e-12,77.9140693 1.51521814e-12,72.2836747 C1.51543047e-12,68.5300783 5.82048118,63.9536726 17.4614435,58.5544576 L17.4614435,13.8611199 C17.4614435,6.20583476 23.6672783,4.95896674e-15 31.3225634,3.55271368e-15 L43.5202275,0" id="Path-48" fill="#424C50"></path>
                                    <path d="M78.9057889,107.740202 C73.4709317,107.705877 68.1461836,105.447634 62.9315444,100.96547 C55.1095857,94.2422255 53.3172638,84.820272 48.4762083,79.2427436 C43.6351529,73.6652152 38.0369757,77.9140693 38.0369757,72.2836747 C38.0369757,68.5300783 43.8574568,63.9536726 55.4984192,58.5544576 L55.4984192,13.8611199 C55.4984192,6.20583476 61.704254,8.51168042e-15 69.3595391,7.10542736e-15 L81.5572032,0" id="Path-48-Copy" fill="#424C50" transform="translate(59.797089, 53.870101) scale(-1, 1) translate(-59.797089, -53.870101) "></path>
                                </g>
                                <g id="tag-1" stroke="none" stroke-width="1" fill="none" fill-rule="evenodd" transform="translate(116.669690, 65.580993)">
                                    <polyline id="Path-49" fill="#CF6A3A" points="20.9426899 5.99146609 1.52113696e-12 5.99146609 5.54879054 0 20.9426899 0"></polyline>
                                    <polyline id="Path-50" fill="#A8562F" points="20.4814484 5.99146609 1.51521814e-12 5.99146609 1.51521814e-12 16.3952481 20.9426899 16.3952481"></polyline>
                                    <polyline id="Path-51" fill="#BD6135" points="20.9426899 16.3952481 9.14492143 16.3952481 10.471345 22.0294858 20.9426899 22.0294858"></polyline>
                                    <polyline id="Path-49-Copy" fill="#CF6A3A" transform="translate(30.952793, 2.995733) scale(-1, 1) translate(-30.952793, -2.995733) " points="41.4241384 5.99146609 20.4814484 5.99146609 26.030239 0 41.4241384 0"></polyline>
                                    <polyline id="Path-50-Copy" fill="#A8562F" transform="translate(30.952793, 11.193357) scale(-1, 1) translate(-30.952793, -11.193357) " points="41.4241384 5.99146609 20.4814484 5.99146609 20.4814484 16.3952481 41.4241384 16.3952481"></polyline>
                                    <polyline id="Path-51-Copy" fill="#BD6135" transform="translate(26.747491, 19.212367) scale(-1, 1) translate(-26.747491, -19.212367) " points="32.6463748 16.3952481 20.8486062 16.3952481 22.1750298 22.0294858 32.6463748 22.0294858"></polyline>
                                </g>
                                <ellipse id="Oval" stroke="none" fill="#373F42" fill-rule="evenodd" cx="137.810889" cy="32.497724" rx="14.3370139" ry="14.3458421"></ellipse>
                            </g>
                        </g>
                    </g>
                </g>
                <g id="noun_QR-Code_1340286" transform="translate(128.566667, 224.326667)" fill="#000000" fill-rule="nonzero">
                    <g id="Group">
                        <g id="Path">
                            <polygon points="1.48960006 6.00774324 0 6.00774324 0 0 6.00774324 0 6.00774324 1.48960006 1.48960006 1.48960006"></polygon>
                            <polygon points="18.6200007 18.6200007 12.6122575 18.6200007 12.6122575 17.1304007 17.1304007 17.1304007 17.1304007 12.6122575 18.6200007 12.6122575"></polygon>
                        </g>
                        <g id="Path">
                            <polygon points="18.6200007 6.00774324 17.1304007 6.00774324 17.1304007 1.48960006 12.6122575 1.48960006 12.6122575 0 18.6200007 0"></polygon>
                            <polygon points="6.00774324 18.6200007 0 18.6200007 0 12.6122575 1.48960006 12.6122575 1.48960006 17.1304007 6.00774324 17.1304007"></polygon>
                        </g>
                    </g>
                    <polygon id="Path" points="15.6408006 15.6408006 8.56520034 15.6408006 8.56520034 10.0548004 2.97920012 10.0548004 2.97920012 8.56520034 10.0548004 8.56520034 10.0548004 14.1512006 15.6408006 14.1512006"></polygon>
                    <polygon id="Path" points="15.6408006 12.6966061 14.1512006 12.6966061 14.1512006 10.0548004 12.6966061 10.0548004 12.6966061 12.6966061 11.207006 12.6966061 11.207006 8.56520034 15.6408006 8.56520034"></polygon>
                    <path d="M7.41318089,7.41318089 L2.97920012,7.41318089 L2.97920012,2.97920012 L7.41318089,2.97920012 L7.41318089,7.41318089 Z M4.46880018,5.92358084 L5.92358084,5.92358084 L5.92358084,4.46880018 L4.46880018,4.46880018 L4.46880018,5.92358084 Z" id="Shape"></path>
                    <path d="M15.6408006,7.41318089 L11.207006,7.41318089 L11.207006,2.97920012 L15.6408006,2.97920012 L15.6408006,7.41318089 Z M12.6966061,5.92358084 L14.1512006,5.92358084 L14.1512006,4.46880018 L12.6964199,4.46880018 L12.6964199,5.92358084 L12.6966061,5.92358084 Z" id="Shape"></path>
                    <path d="M7.41318089,15.6408006 L2.97920012,15.6408006 L2.97920012,11.207006 L7.41318089,11.207006 L7.41318089,15.6408006 Z M4.46880018,14.1512006 L5.92358084,14.1512006 L5.92358084,12.6964199 L4.46880018,12.6964199 L4.46880018,14.1512006 Z" id="Shape"></path>
                    <rect id="Rectangle" x="8.56520034" y="2.97920012" width="1.48960006" height="4.43398078"></rect>
                </g>
            </g>
        </g>
    </g>
</svg>