<?xml version="1.0" encoding="UTF-8" standalone="no"?>
<svg
   xmlns:dc="http://purl.org/dc/elements/1.1/"
   xmlns:cc="http://creativecommons.org/ns#"
   xmlns:rdf="http://www.w3.org/1999/02/22-rdf-syntax-ns#"
   xmlns:svg="http://www.w3.org/2000/svg"
   xmlns="http://www.w3.org/2000/svg"
   xmlns:xlink="http://www.w3.org/1999/xlink"
   xmlns:sodipodi="http://sodipodi.sourceforge.net/DTD/sodipodi-0.dtd"
   xmlns:inkscape="http://www.inkscape.org/namespaces/inkscape"
   inkscape:version="1.1-dev (ae55a4e461, 2020-04-06)"
   sodipodi:docname="special_stow_oneDoorOpen.svg"
   id="svg769"
   version="1.1"
   viewBox="0 0 269 269"
   height="269"
   width="269">
  <metadata
     id="metadata773">
    <rdf:RDF>
      <cc:Work
         rdf:about="">
        <dc:format>image/svg+xml</dc:format>
        <dc:type
           rdf:resource="http://purl.org/dc/dcmitype/StillImage" />
        <dc:title />
      </cc:Work>
    </rdf:RDF>
  </metadata>
  <sodipodi:namedview
     inkscape:current-layer="svg769"
     inkscape:window-maximized="1"
     inkscape:window-y="25"
     inkscape:window-x="0"
     inkscape:cy="214.59434"
     inkscape:cx="272.54245"
     inkscape:zoom="1.5012717"
     showgrid="false"
     id="namedview771"
     inkscape:window-height="1001"
     inkscape:window-width="1920"
     inkscape:pageshadow="2"
     inkscape:pageopacity="0"
     guidetolerance="10"
     gridtolerance="10"
     objecttolerance="10"
     borderopacity="1"
     bordercolor="#666666"
     pagecolor="#000000"
     width="269px" />
  <defs
     id="defs18">
    <filter
       id="filter-1"
       filterUnits="objectBoundingBox"
       height="1"
       width="1"
       y="0"
       x="0">
      <feGaussianBlur
         id="feGaussianBlur2"
         in="SourceGraphic"
         stdDeviation="0" />
    </filter>
    <circle
       r="25"
       cy="459"
       cx="587"
       id="path-2" />
    <filter
       id="filter-3"
       filterUnits="objectBoundingBox"
       height="3.74"
       width="3.74"
       y="-1.33"
       x="-1.37">
      <feMorphology
         id="feMorphology6"
         result="shadowSpreadOuter1"
         in="SourceAlpha"
         operator="dilate"
         radius="1.5" />
      <feOffset
         id="feOffset8"
         result="shadowOffsetOuter1"
         in="shadowSpreadOuter1"
         dy="2"
         dx="0" />
      <feGaussianBlur
         id="feGaussianBlur10"
         result="shadowBlurOuter1"
         in="shadowOffsetOuter1"
         stdDeviation="22" />
      <feComposite
         id="feComposite12"
         result="shadowBlurOuter1"
         operator="out"
         in2="SourceAlpha"
         in="shadowBlurOuter1" />
      <feColorMatrix
         id="feColorMatrix14"
         in="shadowBlurOuter1"
         type="matrix"
         values="0 0 0 0 0.374122509   0 0 0 0 0.374122509   0 0 0 0 0.374122509  0 0 0 0.575529939 0" />
    </filter>
    <ellipse
       ry="149.73347"
       rx="146.47839"
       cy="149.73347"
       cx="146.47839"
       id="path-4" />
  </defs>
  <g
     transform="matrix(0.88925081,0,0,0.88547264,-188.3611,-89.277958)"
     fill-rule="evenodd"
     fill="none"
     stroke-width="1"
     stroke="none"
     id="one-door-open">
    <g
       transform="translate(0,-145)"
       id="31.Dry2_SSfrm_fill-Copy">
      <g
         transform="translate(-65,145)"
         id="Group-6">
        <g
           id="Oval-Copy-2" />
        <g
           fill="#ffffff"
           transform="translate(574,445)"
           id="Group" />
        <g
           transform="translate(278,104)"
           id="Group-5">
          <circle
             r="150"
             cy="150"
             cx="150"
             fill="#444444"
             id="Oval" />
          <g
             id="Group-4">
            <g
               transform="translate(0.521739)"
               id="Group-20">
              <mask
                 fill="#ffffff"
                 id="mask-5">
                <use
                   height="100%"
                   width="100%"
                   y="0"
                   x="0"
                   id="use421"
                   xlink:href="#path-4" />
              </mask>
              <g
                 id="Mask" />
              <g
                 id="g759"
                 mask="url(#mask-5)">
                <g
                   id="g757"
                   transform="translate(-307.88924,-169.94542)">
                  <g
                     id="Components">
                    <polyline
                       points="533.941721 373.108116 482.532338 343.224261 435.498514 439.922613"
                       fill="#d8d8d8"
                       id="Path-30" />
                    <polygon
                       points="487.86552,249.71921 534.03417,235.93844 534.03417,373.15157 487.78306,346.25726 "
                       fill="#757d7f"
                       id="Path-31" />
                    <g
                       transform="matrix(-0.99939083,0.0348995,0.0348995,0.99939083,564.12265,0.84194042)"
                       id="g555">
                      <polygon
                         points="444.76637,90.998134 548.53249,158.30424 562.58326,149.19907 459.39282,82.772631 "
                         fill="#b3b4b3"
                         id="polygon427" />
                      <polygon
                         style="fill:#a2acae;fill-opacity:1"
                         points="138.97049,294.69728 143.71051,434.43625 547.03729,173.11262 542.28793,34.110599 "
                         fill="#A2ACAE"
                         id="polygon429" />
                      <polygon
                         points="143.08687,416.18393 143.71051,434.43625 562.58326,149.19907 558.90254,147.05655 "
                         fill="#b3b4b3"
                         id="polygon431" />
                      <polygon
                         style="fill:#80817d;fill-opacity:1"
                         points="146.49274,417.51807 147.13023,436.17595 563.1912,166.99211 562.58326,149.19907 "
                         fill="#80817D"
                         id="polygon433" />
                      <polygon
                         style="opacity:1;fill:#eff4f4;fill-opacity:1"
                         points="138.97049,294.69728 542.28793,34.110599 434.40149,0.2247068 38.269471,234.091 "
                         fill="#EFF4F4"
                         id="polygon437" />
                      <polygon
                         points="147.13199,436.17589 146.49274,417.46667 143.08687,416.18393 143.71051,434.43625 "
                         fill="#484948"
                         id="polygon439" />
                      <polygon
                         points="43.054032,371.49615 42.389878,352.05802 39.79242,351.19281 40.427058,369.76706 "
                         fill="#484948"
                         id="polygon441" />
                      <polygon
                         points="167.94294,408.44577 168.26877,417.98206 161.00504,422.66284 160.67943,413.13315 "
                         fill="#ee9e40"
                         id="Fill-1552" />
                      <polygon
                         points="194.88887,390.98914 195.21535,400.54455 187.95251,405.25136 187.62641,395.70729 "
                         fill="#ee9e40"
                         id="Fill-1553" />
                      <polygon
                         points="222.35279,373.22621 222.68085,382.82763 215.41782,387.53141 215.09028,377.94514 "
                         fill="#ee9e40"
                         id="Fill-1554" />
                      <polygon
                         points="249.35425,355.81127 249.68238,365.41461 242.08345,370.25363 241.75536,360.65104 "
                         fill="#ee9e40"
                         id="Fill-1555" />
                      <polygon
                         points="277.13818,337.79786 277.4678,347.44498 270.20271,352.08612 269.87566,342.5143 "
                         fill="#ee9e40"
                         id="Fill-1556" />
                      <polygon
                         points="304.6031,320.0643 304.9315,329.67567 297.66753,334.35194 297.33958,324.75355 "
                         fill="#ee9e40"
                         id="Fill-1557" />
                      <polygon
                         points="331.21795,302.81176 331.54796,312.4703 324.61524,316.94738 324.28487,307.27819 "
                         fill="#ee9e40"
                         id="Fill-1558" />
                      <polygon
                         points="359.38745,284.60534 359.71869,294.29994 352.11887,299.11273 351.79029,289.49596 "
                         fill="#ee9e40"
                         id="Fill-1559" />
                      <polygon
                         points="385.99857,267.31827 386.33261,277.0947 379.06861,281.76998 378.73384,271.97219 "
                         fill="#ee9e40"
                         id="Fill-1560" />
                      <polygon
                         points="406.54642,253.90808 413.81623,249.40524 414.14983,259.16874 406.88227,263.73771 "
                         fill="#ee9e40"
                         id="Fill-1561" />
                      <polygon
                         points="434.36932,235.98533 441.63582,231.38673 441.97078,241.1902 434.70286,245.74711 "
                         fill="#ee9e40"
                         id="Fill-1562" />
                      <polyline
                         points="468.324424 224.022097 461.060039 228.68394 460.727957 218.964725 467.992489 214.30719"
                         fill="#ee9e40"
                         id="Fill-1563" />
                      <g
                         transform="translate(455.42741,90.342797)"
                         id="g461">
                        <polygon
                           points="12.957383,-2.3795106e-13 16.508277,103.92584 16.353072,103.85599 12.950804,102.46247 9.525769,2.2202237 "
                           fill="#828c8d"
                           id="polygon455" />
                        <polygon
                           points="16.508277,108.03203 16.363065,112.28202 3.8182249,103.92584 7.3756982,102.46247 "
                           transform="matrix(-1,0,0,1,20.326502,0)"
                           fill="#ffffff"
                           id="polygon457" />
                        <polygon
                           points="3.8182249,108.03203 0.40536138,8.1460086 9.525769,2.2202237 12.950804,102.46247 "
                           fill="#98a1a4"
                           id="polygon459" />
                      </g>
                      <g
                         transform="translate(428.00364,107.68377)"
                         id="g469">
                        <polygon
                           points="12.957383,-2.3795106e-13 16.508277,103.92584 16.353072,103.85599 12.950804,102.46247 9.525769,2.2202237 "
                           fill="#828c8d"
                           id="polygon463" />
                        <polygon
                           points="16.508277,108.03203 16.363065,112.28202 3.8182249,103.92584 7.3756982,102.46247 "
                           transform="matrix(-1,0,0,1,20.326502,0)"
                           fill="#ffffff"
                           id="polygon465" />
                      </g>
                      <g
                         transform="translate(399.34045,127.79602)"
                         id="g477">
                        <polygon
                           points="12.957383,-2.3795106e-13 16.508277,103.92584 16.353072,103.85599 12.950804,102.46247 9.525769,2.2202237 "
                           fill="#828c8d"
                           id="polygon471" />
                        <polygon
                           points="16.508277,108.03203 16.363065,112.28202 3.8182249,103.92584 7.3756982,102.46247 "
                           transform="matrix(-1,0,0,1,20.326502,0)"
                           fill="#ffffff"
                           id="polygon473" />
                        <polygon
                           points="3.8182249,108.03203 0.40536138,8.1460086 9.525769,2.2202237 12.950804,102.46247 "
                           fill="#98a1a4"
                           id="polygon475" />
                      </g>
                      <g
                         transform="translate(371.91668,145.13699)"
                         id="g485">
                        <polygon
                           points="12.957383,-2.3795106e-13 16.508277,103.92584 16.353072,103.85599 12.950804,102.46247 9.525769,2.2202237 "
                           fill="#828c8d"
                           id="polygon479" />
                        <polygon
                           points="16.508277,108.03203 16.363065,112.28202 3.8182249,103.92584 7.3756982,102.46247 "
                           transform="matrix(-1,0,0,1,20.326502,0)"
                           fill="#ffffff"
                           id="polygon481" />
                        <polygon
                           points="3.8182249,108.03203 0.40536138,8.1460086 9.525769,2.2202237 12.950804,102.46247 "
                           fill="#98a1a4"
                           id="polygon483" />
                      </g>
                      <g
                         transform="translate(344.49291,162.47797)"
                         id="g493">
                        <polygon
                           points="12.957383,-2.3795106e-13 16.508277,103.92584 16.353072,103.85599 12.950804,102.46247 9.525769,2.2202237 "
                           fill="#828c8d"
                           id="polygon487" />
                        <polygon
                           points="16.508277,108.03203 16.363065,112.28202 3.8182249,103.92584 7.3756982,102.46247 "
                           transform="matrix(-1,0,0,1,20.326502,0)"
                           fill="#ffffff"
                           id="polygon489" />
                        <polygon
                           points="3.8182249,108.03203 0.40536138,8.1460086 9.525769,2.2202237 12.950804,102.46247 "
                           fill="#98a1a4"
                           id="polygon491" />
                      </g>
                      <g
                         transform="translate(315.78319,181.22836)"
                         id="g501">
                        <polygon
                           points="12.957383,-2.3795106e-13 16.508277,103.92584 16.353072,103.85599 12.950804,102.46247 9.525769,2.2202237 "
                           fill="#828c8d"
                           id="polygon495" />
                        <polygon
                           points="16.508277,108.03203 16.363065,112.28202 3.8182249,103.92584 7.3756982,102.46247 "
                           transform="matrix(-1,0,0,1,20.326502,0)"
                           fill="#ffffff"
                           id="polygon497" />
                      </g>
                      <g
                         transform="translate(288.35942,198.56933)"
                         id="g509">
                        <polygon
                           points="12.957383,-2.3795106e-13 16.508277,103.92584 16.353072,103.85599 12.950804,102.46247 9.525769,2.2202237 "
                           fill="#828c8d"
                           id="polygon503" />
                        <polygon
                           points="16.508277,108.03203 16.363065,112.28202 3.8182249,103.92584 7.3756982,102.46247 "
                           transform="matrix(-1,0,0,1,20.326502,0)"
                           fill="#ffffff"
                           id="polygon505" />
                        <polygon
                           points="3.8182249,108.03203 0.40536138,8.1460086 9.525769,2.2202237 12.950804,102.46247 "
                           fill="#98a1a4"
                           id="polygon507" />
                      </g>
                      <g
                         transform="translate(260.93565,215.91031)"
                         id="g517">
                        <polygon
                           points="12.957383,-2.3795106e-13 16.508277,103.92584 16.353072,103.85599 12.950804,102.46247 9.525769,2.2202237 "
                           fill="#828c8d"
                           id="polygon511" />
                        <polygon
                           points="16.508277,108.03203 16.363065,112.28202 3.8182249,103.92584 7.3756982,102.46247 "
                           transform="matrix(-1,0,0,1,20.326502,0)"
                           fill="#ffffff"
                           id="polygon513" />
                        <polygon
                           points="3.8182249,108.03203 0.40536138,8.1460086 9.525769,2.2202237 12.950804,102.46247 "
                           fill="#98a1a4"
                           id="polygon515" />
                      </g>
                      <g
                         transform="translate(232.22593,234.6607)"
                         id="g525">
                        <polygon
                           points="12.957383,-2.3795106e-13 16.508277,103.92584 16.353072,103.85599 12.950804,102.46247 9.525769,2.2202237 "
                           fill="#828c8d"
                           id="polygon519" />
                        <polygon
                           points="16.508277,108.03203 16.363065,112.28202 3.8182249,103.92584 7.3756982,102.46247 "
                           transform="matrix(-1,0,0,1,20.326502,0)"
                           fill="#ffffff"
                           id="polygon521" />
                        <polygon
                           points="3.8182249,108.03203 0.40536138,8.1460086 9.525769,2.2202237 12.950804,102.46247 "
                           fill="#98a1a4"
                           id="polygon523" />
                      </g>
                      <g
                         transform="translate(204.80216,252.00167)"
                         id="g533">
                        <polygon
                           points="12.957383,-2.3795106e-13 16.508277,103.92584 16.353072,103.85599 12.950804,102.46247 9.525769,2.2202237 "
                           fill="#828c8d"
                           id="polygon527" />
                        <polygon
                           points="16.508277,108.03203 16.363065,112.28202 3.8182249,103.92584 7.3756982,102.46247 "
                           transform="matrix(-1,0,0,1,20.326502,0)"
                           fill="#ffffff"
                           id="polygon529" />
                        <polygon
                           points="3.8182249,108.03203 0.40536138,8.1460086 9.525769,2.2202237 12.950804,102.46247 "
                           fill="#98a1a4"
                           id="polygon531" />
                      </g>
                      <g
                         transform="translate(177.42492,270.7045)"
                         id="g541">
                        <polygon
                           points="12.957383,-2.3795106e-13 16.508277,103.92584 16.353072,103.85599 12.950804,102.46247 9.525769,2.2202237 "
                           fill="#828c8d"
                           id="polygon535" />
                        <polygon
                           points="16.508277,108.03203 16.363065,112.28202 3.8182249,103.92584 7.3756982,102.46247 "
                           transform="matrix(-1,0,0,1,20.326502,0)"
                           fill="#ffffff"
                           id="polygon537" />
                        <polygon
                           points="3.8182249,108.03203 0.40536138,8.1460086 9.525769,2.2202237 12.950804,102.46247 "
                           fill="#98a1a4"
                           id="polygon539" />
                      </g>
                      <g
                         transform="translate(148.7152,289.45489)"
                         id="g549">
                        <polygon
                           points="12.957383,-2.3795106e-13 16.508277,103.92584 16.353072,103.85599 12.950804,102.46247 9.525769,2.2202237 "
                           fill="#828c8d"
                           id="polygon543" />
                        <polygon
                           points="16.508277,108.03203 16.363065,112.28202 3.8182249,103.92584 7.3756982,102.46247 "
                           transform="matrix(-1,0,0,1,20.326502,0)"
                           fill="#ffffff"
                           id="polygon545" />
                        <polygon
                           points="3.8182249,108.03203 0.40536138,8.1460086 9.525769,2.2202237 12.950804,102.46247 "
                           fill="#98a1a4"
                           id="polygon547" />
                      </g>
                      <polygon
                         points="39.79242,351.19281 42.165618,350.06287 42.231949,352.00423 "
                         fill="#b3b4b3"
                         id="polygon551" />
                      <polygon
                         points="90.191279,400.88413 143.71051,434.43625 138.93204,294.5826 85.457021,262.32419 "
                         fill="#828c8d"
                         id="Path-8" />
                      <polygon
                         points="0.1001628,371.17381 38.392233,400.60532 43.04579,262.32419 4.87646,234.091 "
                         transform="matrix(-1,0,0,1,43.14593,0)"
                         fill="#828c8d"
                         id="Path-8-Copy" />
                    </g>
                  </g>
                  <g
                     transform="translate(20.581764,47.848711)"
                     id="front-door">
                    <g
                       transform="translate(425.58093,259.35428)"
                       id="g564">
                      <polygon
                         points="39.130867,11.509555 7.5760907e-13,36.132465 7.5760907e-13,24.429057 39.130867,2.9594104e-14 "
                         fill="#757d7f"
                         id="polygon558" />
                      <polygon
                         points="7.5760907e-13,34.159619 7.5760907e-13,36.132465 39.130867,11.509555 37.505495,10.675389 "
                         fill="#a2acae"
                         id="polygon560" />
                      <polygon
                         points="37.439053,1.1029928 37.439053,10.675389 39.130867,11.509555 39.130867,0 "
                         fill="#a2acae"
                         id="polygon562" />
                    </g>
                    <g
                       transform="translate(425.58093,314.73426)"
                       id="g572">
                      <polygon
                         points="39.130867,11.509555 7.5760907e-13,36.132465 7.5760907e-13,24.429057 39.130867,2.9594104e-14 "
                         fill="#757d7f"
                         id="polygon566" />
                      <polygon
                         points="7.5760907e-13,34.159619 7.5760907e-13,36.132465 39.130867,11.509555 37.505495,10.675389 "
                         fill="#a2acae"
                         id="polygon568" />
                      <polygon
                         points="37.439053,1.1029928 37.439053,10.675389 39.130867,11.509555 39.130867,0 "
                         fill="#a2acae"
                         id="polygon570" />
                    </g>
                    <polygon
                       points="467.19572,345.42509 422.15015,375.3284 422.15015,257.6988 467.19572,227.53516 "
                       stroke-width="1.3328"
                       stroke="#4d4d4d"
                       id="polygon574" />
                    <g
                       transform="translate(0,12.262374)"
                       id="lock-bar">
                      <path
                         fill="#ffffff"
                         id="Path-9"
                         d="m 437.98715,230.76515 c 0,82.93607 0,125.25645 0,126.96116 0,2.55705 2.5546,2.55705 2.62751,-1.00855 0.0486,-2.37707 0.0486,-44.8727 0,-127.48689 -0.34441,-0.98311 -0.90739,-1.25168 -1.68892,-0.80571 -0.78153,0.44597 -1.09439,1.22596 -0.93859,2.33999 z" />
                      <path
                         fill="#ffffff"
                         id="Path-10"
                         d="m 438.76815,295.73242 -13.80167,9.16158 c -0.67768,0.50632 -1.01652,1.06802 -1.01652,1.6851 0,0.61707 0.33884,0.80242 1.01652,0.55603 l 13.80167,-9.13142 z" />
                      <path
                         stroke-linecap="round"
                         stroke-width="0.833"
                         stroke="#cbcbcb"
                         id="Path-10-Copy"
                         d="m 437.33574,296.46952 -12.31524,8.21936 c -0.89212,0.65885 -0.9865,1.31977 -0.94335,1.82701" />
                      <g
                         transform="translate(435.0682,241.16002)"
                         id="PLATE-1">
                        <path
                           fill="#ffffff"
                           id="Path-11-Copy"
                           d="M 1.0637373,3.6012991 5.8821786,0.62733178 c 0.3131918,-0.19330357 0.7237873,-0.096115 0.9170909,0.21707669 0.064929,0.10519863 0.099316,0.22638443 0.099316,0.35000703 v 6.8842337 c 0,0.2332594 -0.1219622,0.4495402 -0.3215637,0.5702429 L 1.7585806,11.562692 C 1.4436442,11.753139 1.0339493,11.652221 0.84350152,11.337285 0.78059669,11.233261 0.74734438,11.114013 0.74734438,10.992449 V 4.1683828 c 0,-0.2311015 0.11973332,-0.4457044 0.31639292,-0.5670837 z" />
                        <g
                           transform="translate(0,0.030181)"
                           id="shadow">
                          <path
                             stroke-linecap="round"
                             stroke-width="0.833"
                             stroke="#cbcbcb"
                             id="Path-15"
                             d="M 0.91252614,11.020468 V 4.1217666 c 0,-0.1616269 0.0836652,-0.3117365 0.22113046,-0.3967457 L 2.949366,2.6021773 C 4.0490767,2.6467493 4.8139514,2.5769253 5.24399,2.3927053 5.6740287,2.2084852 5.8633138,1.7030735 5.8118455,0.87647005 L 6.0082572,0.71861974" />
                          <path
                             fill="#cbcbcb"
                             id="Path-18"
                             d="m 0.66963624,11.059946 c -0.009867,0.08518 0.0290039,0.188519 0.11661296,0.310009 0.0876091,0.12149 0.2430487,0.202776 0.4663188,0.243858 C 1.205771,11.516523 1.1772,11.424211 1.166856,11.33688 c -0.010344,-0.08733 -0.010344,-0.179643 0,-0.276934 z" />
                          <path
                             fill="#cbcbcb"
                             id="Path-19"
                             d="m 5.8974979,0.49631174 c 0.2340883,-0.12193677 0.4456777,-0.12193677 0.6347683,0 0.2836358,0.18290516 0.3663195,0.53991056 0.3663195,0.62975556 0,0.089845 -0.00921,-0.20473335 -0.3095308,-0.33781719 C 6.479538,0.73566492 6.3499547,0.76722053 6.2003052,0.88291692 Z" />
                        </g>
                      </g>
                      <g
                         transform="translate(435.73479,335.17155)"
                         id="PLATE-2">
                        <path
                           fill="#ffffff"
                           id="path585"
                           d="M 0.39714931,3.6012991 5.2155907,0.62733178 c 0.3131917,-0.19330357 0.7237872,-0.096115 0.9170908,0.21707669 0.064929,0.10519863 0.099316,0.22638443 0.099316,0.35000703 v 6.8842337 c 0,0.2332594 -0.1219622,0.4495402 -0.3215637,0.5702429 L 1.0919926,11.562692 C 0.77705621,11.753139 0.36736134,11.652221 0.17691354,11.337285 0.1140087,11.233261 0.08075639,11.114013 0.08075639,10.992449 V 4.1683828 c 0,-0.2311015 0.11973332,-0.4457044 0.31639292,-0.5670837 z" />
                        <g
                           transform="translate(0,0.030181)"
                           id="g593">
                          <path
                             stroke-linecap="round"
                             opacity="0.499256"
                             stroke-width="0.833"
                             stroke="#979797"
                             id="path587"
                             d="M 0.24593815,11.020468 V 4.1217666 c 0,-0.1616269 0.0836652,-0.3117365 0.22113047,-0.3967457 L 2.282778,2.6021773 C 3.3824887,2.6467493 4.1473634,2.5769253 4.577402,2.3927053 5.0074407,2.2084852 5.1788478,1.9193517 5.0916234,1.5253045 5.0698288,1.2851504 5.0589315,1.1650734 5.0589315,1.1650734 c 0,0 -0.00539,-0.088319 -0.016166,-0.26495831 L 5.3416692,0.71861974" />
                          <path
                             fill="#cbcbcb"
                             id="path589"
                             d="m 0.08075639,11.059946 c -0.0029945,0.07511 0.03931276,0.173415 0.12692183,0.294905 0.0876091,0.12149 0.21370968,0.207811 0.37830183,0.258962 -0.0973404,-0.102219 -0.15118259,-0.196994 -0.16152646,-0.284325 -0.0103439,-0.08733 -0.016431,-0.177179 -0.0182615,-0.269542 z" />
                          <path
                             fill="#cbcbcb"
                             id="path591"
                             d="m 5.2851338,0.55301465 c 0.2357982,-0.0905067 0.4482426,-0.0747917 0.6373331,0.0471451 0.2836359,0.18290516 0.3095308,0.48690885 0.3095308,0.52590755 0,0.038999 -0.00921,-0.20473331 -0.3095308,-0.33781715 C 5.81295,0.73566492 5.6471001,0.76015343 5.4249174,0.86171564 Z" />
                        </g>
                      </g>
                      <g
                         transform="translate(435.78838,227.53516)"
                         id="PLATE-3">
                        <path
                           fill="#ffffff"
                           id="Path-12-Copy"
                           d="M 1.04806,6.6178746 5.4920601,3.8260765 C 5.6861576,3.704141 5.8039642,3.4910085 5.8039642,3.2617879 V 1.2058181 c 0,-0.36804254 -0.2983575,-0.66639998 -0.6664,-0.66639998 -0.1254493,0 -0.248351,0.0354101 -0.3545692,0.10215746 L 0.33899489,3.4341789 C 0.14493925,3.5561232 0.02716409,3.7692315 0.02716409,3.9984214 V 6.053586 c 0,0.3680426 0.29835744,0.6664 0.6664,0.6664 0.12541987,0 0.24829392,-0.035393 0.35449591,-0.1021114 z" />
                        <g
                           transform="translate(0,0.454295)"
                           id="SHADOW-2">
                          <path
                             stroke-linecap="round"
                             opacity="0.499256"
                             stroke-width="0.833"
                             stroke="#979797"
                             id="Path-15-Copy"
                             d="M 0.19031717,5.6508643 V 3.5272687 c 0,-0.160598 0.0826111,-0.3099031 0.21867472,-0.3952166 L 2.2152105,1.9995325 C 3.3027814,2.200687 4.0615861,2.2091543 4.4916248,2.0249343 4.9216634,1.8407143 5.006441,1.3839508 4.7459575,0.65464374 4.733407,0.63121482 4.7161739,0.60543946 4.6942581,0.57731767 4.6613843,0.535135 4.653164,0.50730982 4.653164,0.50730982 c 0,0 -0.00686,-0.009213 -0.020584,-0.0276391 L 4.9585657,0.27926457" />
                          <path
                             fill="#cbcbcb"
                             id="path598"
                             d="m 0.02716409,5.6708372 c 0.0072066,0.1261042 0.0546144,0.2499013 0.14222347,0.3713914 0.0876091,0.12149 0.24428785,0.1959681 0.47003633,0.2234343 C 0.54602102,6.2014253 0.47529139,6.119127 0.427235,6.018768 0.37917861,5.918409 0.35496514,5.8024321 0.35459459,5.6708372 Z" />
                          <path
                             fill="#cbcbcb"
                             id="path600"
                             d="M 4.8825659,0.1315927 C 5.0919184,0.03667787 5.29114,0.05018885 5.4802306,0.17212562 5.6693212,0.2940624 5.7713604,0.44067582 5.7863483,0.61196589 5.7701377,0.53214983 5.6619263,0.44788052 5.4617141,0.35915795 5.3521971,0.30657277 5.2057422,0.33361802 5.0223494,0.44029369 Z" />
                        </g>
                      </g>
                      <g
                         transform="translate(435.78838,351.52139)"
                         id="PLATE-3-Copy">
                        <path
                           fill="#ffffff"
                           id="path604"
                           d="M 1.04806,6.6178746 5.4920601,3.8260765 C 5.6861576,3.704141 5.8039642,3.4910085 5.8039642,3.2617879 V 1.2058181 c 0,-0.36804254 -0.2983575,-0.66639998 -0.6664,-0.66639998 -0.1254493,0 -0.248351,0.0354101 -0.3545692,0.10215746 L 0.33899489,3.4341789 C 0.14493925,3.5561232 0.02716409,3.7692315 0.02716409,3.9984214 V 6.053586 c 0,0.3680426 0.29835744,0.6664 0.6664,0.6664 0.12541987,0 0.24829392,-0.035393 0.35449591,-0.1021114 z" />
                        <g
                           transform="translate(0,0.454295)"
                           id="g612">
                          <path
                             stroke-linecap="round"
                             opacity="0.499256"
                             stroke-width="0.833"
                             stroke="#979797"
                             id="path606"
                             d="M 0.19031717,5.6508643 V 3.5272687 c 0,-0.160598 0.0826111,-0.3099031 0.21867472,-0.3952166 L 2.2152105,1.9995325 C 3.3027814,2.200687 4.0615861,2.2091543 4.4916248,2.0249343 4.9216634,1.8407143 5.0773104,1.2588244 4.9585657,0.27926457" />
                          <path
                             fill="#cbcbcb"
                             id="path608"
                             d="m 0.02716409,5.6708372 c 0.0072066,0.1261042 0.0546144,0.2499013 0.14222347,0.3713914 0.0876091,0.12149 0.24428785,0.1959681 0.47003633,0.2234343 C 0.54602102,6.2014253 0.47529139,6.119127 0.427235,6.018768 0.37917861,5.918409 0.35496514,5.8024321 0.35459459,5.6708372 Z" />
                          <path
                             fill="#cbcbcb"
                             id="path610"
                             d="M 4.8825659,0.1315927 C 5.0919184,0.03667787 5.29114,0.05018885 5.4802306,0.17212562 5.6693212,0.2940624 5.7713604,0.44067582 5.7863483,0.61196589 5.7701377,0.53214983 5.6619263,0.44788052 5.4617141,0.35915795 5.3521971,0.30657277 5.2057422,0.33361802 5.0223494,0.44029369 Z" />
                        </g>
                      </g>
                      <path
                         fill="#ffffff"
                         id="Path-13"
                         d="m 437.57122,295.12605 -1.07424,0.78835 c -0.42767,0.31386 -0.68032,0.81264 -0.68032,1.34312 v 3.79956 c 0,0.18402 0.14918,0.3332 0.3332,0.3332 0.0678,0 0.13405,-0.0207 0.1898,-0.0593 l 1.33169,-0.92292 c 0.26945,-0.18674 0.43021,-0.49374 0.43021,-0.82158 v -4.19177 c 0,-0.18402 -0.14918,-0.3332 -0.3332,-0.3332 -0.0709,0 -0.13997,0.0226 -0.19714,0.0646 z" />
                      <path
                         fill="#e6e6e6"
                         id="path616"
                         d="m 436.98472,299.3354 c 0.20864,0 0.297,-0.49678 0.297,-0.87302 0,-0.37624 -0.14511,-0.75919 -0.35375,-0.75919 -0.20864,0 -0.31284,0.52733 -0.31284,0.90357 0,0.37624 0.16096,0.72864 0.36959,0.72864 z" />
                      <g
                         transform="translate(426.50889,297.0027)"
                         id="g625">
                        <path
                           fill="#ffffff"
                           id="Path-14"
                           d="m 5.3133704,1.2124216 c 0,-0.5119332 -0.4860562,-0.87848697 -1.1829628,-0.61757294 C 3.6658031,0.76879135 3.3999806,1.3063953 3.3329399,2.2076604 v 6.3604301 c 0.2222195,0.4579309 0.6314317,0.58544 1.2276366,0.3825274 0.5962049,-0.2029126 0.8471362,-0.7078366 0.7527939,-1.514772 0,-3.8076607 0,-5.8821355 0,-6.2234243 z" />
                        <path
                           transform="matrix(-1,0,0,1,8.880486,0)"
                           fill="#e6e6e6"
                           id="path619"
                           d="m 4.4399803,2.8013342 c 0.1772322,0 0.2511559,-0.2084777 0.2511559,-0.33491 0,-0.1264323 -0.067461,-0.4034498 -0.2479246,-0.4034498 -0.1804635,0 -0.2538609,0.2287283 -0.2538609,0.4034498 0,0.1747215 0.073397,0.33491 0.2506296,0.33491 z" />
                        <path
                           transform="matrix(-1,0,0,1,8.880486,0)"
                           fill="#e6e6e6"
                           id="Oval-Copy-3"
                           d="m 4.4399803,8.2512781 c 0.1772322,0 0.2511559,-0.2084776 0.2511559,-0.3349099 0,-0.1264323 -0.067461,-0.4034498 -0.2479246,-0.4034498 -0.1804635,0 -0.2538609,0.2287283 -0.2538609,0.4034498 0,0.1747215 0.073397,0.3349099 0.2506296,0.3349099 z" />
                        <path
                           transform="rotate(-58,3.48166,5.456558)"
                           stroke-linecap="round"
                           stroke-width="0.833"
                           stroke="#cbcbcb"
                           id="Path-15-Copy-2"
                           d="m 0.69575103,7.2949382 c 0.0260953,-0.1029321 0.0641336,-0.1797118 0.0939643,-0.2320801 0.0177085,-0.031088 0.083605,-0.1013876 0.19768963,-0.2108998 l 4.244e-5,4.42e-5 C 1.01644,6.8241719 1.0489079,6.8002051 1.0840444,6.7806977 L 2.1635425,6.1813714 C 2.7362538,6.4224595 3.2412793,6.3971292 3.6786189,6.1053802 4.1159585,5.8136312 4.2846734,5.418173 4.1847636,4.9190056 L 6.2675681,3.6181774" />
                        <path
                           fill="#cbcbcb"
                           id="Path-11"
                           d="M 3.3102167,2.1013181 C 3.3311275,1.6921531 3.4119807,1.3612888 3.5527763,1.1087252 3.6935719,0.8561617 3.9016981,0.67892516 4.1771549,0.57701562 3.9604243,0.71519787 3.7894071,0.92326516 3.6641031,1.2012175 3.5387991,1.4791698 3.4779846,1.7853574 3.4816595,2.1197802 Z" />
                        <path
                           fill="#cbcbcb"
                           id="Path-12"
                           d="m 3.5214371,8.8683254 c 0.043974,0.031717 0.1089298,0.068938 0.1948673,0.1116625 0.085938,0.042725 0.1854148,0.064087 0.2984318,0.064087 C 3.919197,9.0006572 3.8455735,8.9568626 3.7938659,8.912691 3.7421583,8.8685195 3.6885283,8.8128199 3.6329759,8.7455923 Z" />
                      </g>
                      <g
                         transform="translate(435.28195,287.76748)"
                         id="plate-5">
                        <g
                           transform="rotate(-122,3.2838845,3.5505353)"
                           id="Group-Copy">
                          <path
                             fill="#ffffff"
                             id="path627"
                             d="M 2.5629472,1.2762772 C 2.6721004,0.72384044 2.3379707,0.36494532 1.5605582,0.19959181 0.98248491,0.0766372 0.60773661,0.31789498 0.43631334,0.92336513 L 0.26952357,6.7099258 C 0.34705435,7.322 0.73937163,7.6749255 1.4464754,7.7687025 2.1535792,7.8624794 2.4855606,7.4794872 2.4424196,6.6197258 Z" />
                          <path
                             transform="matrix(-1,0,0,1,2.676916,0)"
                             fill="#f2f2f2"
                             id="path629"
                             d="m 1.3380053,1.5737146 c 0.3048874,0 0.432056,-0.1923506 0.432056,-0.3090025 0,-0.116652 -0.1160513,-0.37224049 -0.4264973,-0.37224049 -0.3104461,0 -0.43670953,0.21103479 -0.43670953,0.37224049 0,0.1612057 0.12626343,0.3090025 0.43115083,0.3090025 z" />
                          <path
                             transform="matrix(-1,0,0,1,2.468686,0)"
                             fill="#f2f2f2"
                             id="path631"
                             d="m 1.2338899,7.1203729 c 0.3048874,0 0.4320561,-0.1923506 0.4320561,-0.3090026 0,-0.116652 -0.1160513,-0.3722404 -0.4264974,-0.3722404 -0.31044605,0 -0.4367095,0.2110347 -0.4367095,0.3722404 0,0.1612057 0.12626345,0.3090026 0.4311508,0.3090026 z" />
                        </g>
                        <g
                           transform="translate(0,2.442036)"
                           id="SHADOW-3">
                          <path
                             stroke-linecap="round"
                             stroke-width="0.833"
                             stroke="#cbcbcb"
                             id="path634"
                             d="M 0.83826979,3.9476356 C 0.86332176,3.8438837 0.90024367,3.7665973 0.92924212,3.7139053 0.94663783,3.6822962 1.0121246,3.6105464 1.1257024,3.498656 l -3.6e-5,-3.66e-5 c 0.025816,-0.025432 0.054507,-0.04777 0.085494,-0.066562 L 2.7212609,2.5162663 C 3.8643944,2.5731847 4.6083033,2.5098952 4.9529878,2.3263976 5.2976723,2.1429 5.4523138,1.7256721 5.4169123,1.0747137 V 0.84156421 L 6.3181639,0.26761544" />
                          <path
                             fill="#cbcbcb"
                             id="path636"
                             d="m 0.75887242,3.9281867 c -0.036216,0.1833326 -0.0236904,0.3511174 0.0375766,0.5033543 0.0919006,0.2283555 0.29344348,0.2283555 0.29344348,0.2283555 0,0 -0.10799446,-0.1150384 -0.15485276,-0.2818402 -0.0312389,-0.1112011 -0.0312389,-0.2676562 0,-0.4693653 z" />
                          <path
                             fill="#cbcbcb"
                             id="path638"
                             d="M 6.2603593,0.19874092 C 6.5542134,0.03562476 6.7821646,0.02295899 6.9442128,0.16074359 7.1872852,0.3674205 7.1549046,0.73464304 7.1214087,0.84207772 7.0879128,0.94951239 7.2795057,0.42200351 6.9112529,0.23709826 6.7888715,0.1754909 6.5911752,0.22148505 6.3181639,0.37508074 Z" />
                        </g>
                      </g>
                      <path
                         stroke-width="0.833"
                         stroke="#979797"
                         id="Path-16"
                         d="" />
                      <path
                         stroke-width="0.833"
                         stroke="#979797"
                         id="Path-17"
                         d="" />
                      <path
                         fill="#cbcbcb"
                         id="Path-20"
                         d="m 435.81666,297.68071 -0.27101,-0.21272 v -0.43419 c 0.0511,-0.34809 0.18617,-0.61436 0.40525,-0.79882 0.21908,-0.18445 0.74191,-0.59011 1.5685,-1.21696 0.0771,-0.0534 0.14929,-0.0632 0.21652,-0.0292 0.10085,0.051 0.2406,0.14349 0.25839,0.16294 0.0178,0.0195 -0.0888,-0.0413 -0.15939,-0.0547 -0.0706,-0.0134 -0.14191,0.0365 -0.16909,0.0547 -0.0272,0.0182 -1.25034,0.94818 -1.50589,1.1889 -0.25555,0.24073 -0.34328,0.70963 -0.34328,0.82571 0,0.0774 0,0.24882 0,0.5143 z" />
                      <path
                         fill="#d8d8d8"
                         id="Path-21"
                         d="m 437.83856,355.3819 c -0.37548,0 -1.10935,0.31324 -1.10935,1.14985 0,0.8366 1.26348,0.6284 1.58093,0.34793 0.14459,-0.12774 0.15954,-0.58773 0.14211,-0.81022 -0.0282,-0.3596 -0.38172,-0.68756 -0.61369,-0.68756 z" />
                      <path
                         transform="matrix(-0.9612617,0.27563736,0.27563736,0.9612617,767.1887,-107.82134)"
                         fill="#d8d8d8"
                         id="path646"
                         d="m 441.15396,354.0712 c 0,0 -0.63331,-0.56658 -0.55057,0.0195 0.0827,0.58611 0.79002,1.48295 0.80023,1.09036 0.0102,-0.3926 -0.24966,-1.10989 -0.24966,-1.10989 z" />
                      <path
                         fill="#cbcbcb"
                         id="Path-22"
                         d="m 423.911,306.5401 0.33222,-0.0242 c 0.0106,0.22025 0.06,0.37646 0.14802,0.46864 0.0881,0.0922 0.24814,0.15521 0.48026,0.18907 -0.35234,0.0911 -0.59693,0.0911 -0.73378,0 -0.13685,-0.0912 -0.21243,-0.30232 -0.22672,-0.6335 z" />
                      <path
                         fill="#cbcbcb"
                         id="Path-23"
                         d="m 436.13704,301.39024 c -0.17839,0 -0.29197,-0.009 -0.34073,-0.0268 -0.0488,-0.0179 -0.11358,-0.0822 -0.19445,-0.19282 v -1.07021 l 0.2148,-0.15504 v 1.15641 c 0.0188,0.0929 0.0592,0.16414 0.12103,0.21357 0.0618,0.0494 0.12828,0.0744 0.19935,0.0749 z" />
                    </g>
                    <g
                       transform="translate(18.664464)"
                       id="lock-bar-copy">
                      <path
                         fill="#ffffff"
                         id="path651"
                         d="m 437.98715,230.76515 c 0,82.93607 0,125.25645 0,126.96116 0,2.55705 2.5546,2.55705 2.62751,-1.00855 0.0486,-2.37707 0.0486,-44.8727 0,-127.48689 -0.34441,-0.98311 -0.90739,-1.25168 -1.68892,-0.80571 -0.78153,0.44597 -1.09439,1.22596 -0.93859,2.33999 z" />
                      <path
                         fill="#ffffff"
                         id="path653"
                         d="m 438.76815,295.73242 -13.80167,9.16158 c -0.67768,0.50632 -1.01652,1.06802 -1.01652,1.6851 0,0.61707 0.33884,0.80242 1.01652,0.55603 l 13.80167,-9.13142 z" />
                      <path
                         stroke-linecap="round"
                         stroke-width="0.833"
                         stroke="#cbcbcb"
                         id="path655"
                         d="m 437.33574,296.46952 -12.31524,8.21936 c -0.89212,0.65885 -0.9865,1.31977 -0.94335,1.82701" />
                      <g
                         transform="translate(435.0682,241.16002)"
                         id="g667">
                        <path
                           fill="#ffffff"
                           id="path657"
                           d="M 1.0637373,3.6012991 5.8821786,0.62733178 c 0.3131918,-0.19330357 0.7237873,-0.096115 0.9170909,0.21707669 0.064929,0.10519863 0.099316,0.22638443 0.099316,0.35000703 v 6.8842337 c 0,0.2332594 -0.1219622,0.4495402 -0.3215637,0.5702429 L 1.7585806,11.562692 C 1.4436442,11.753139 1.0339493,11.652221 0.84350152,11.337285 0.78059669,11.233261 0.74734438,11.114013 0.74734438,10.992449 V 4.1683828 c 0,-0.2311015 0.11973332,-0.4457044 0.31639292,-0.5670837 z" />
                        <g
                           transform="translate(0,0.030181)"
                           id="g665">
                          <path
                             stroke-linecap="round"
                             stroke-width="0.833"
                             stroke="#cbcbcb"
                             id="path659"
                             d="M 0.91252614,11.020468 V 4.1217666 c 0,-0.1616269 0.0836652,-0.3117365 0.22113046,-0.3967457 L 2.949366,2.6021773 C 4.0490767,2.6467493 4.8139514,2.5769253 5.24399,2.3927053 5.6740287,2.2084852 5.8633138,1.7030735 5.8118455,0.87647005 L 6.0082572,0.71861974" />
                          <path
                             fill="#cbcbcb"
                             id="path661"
                             d="m 0.66963624,11.059946 c -0.009867,0.08518 0.0290039,0.188519 0.11661296,0.310009 0.0876091,0.12149 0.2430487,0.202776 0.4663188,0.243858 C 1.205771,11.516523 1.1772,11.424211 1.166856,11.33688 c -0.010344,-0.08733 -0.010344,-0.179643 0,-0.276934 z" />
                          <path
                             fill="#cbcbcb"
                             id="path663"
                             d="m 5.8974979,0.49631174 c 0.2340883,-0.12193677 0.4456777,-0.12193677 0.6347683,0 0.2836358,0.18290516 0.3663195,0.53991056 0.3663195,0.62975556 0,0.089845 -0.00921,-0.20473335 -0.3095308,-0.33781719 C 6.479538,0.73566492 6.3499547,0.76722053 6.2003052,0.88291692 Z" />
                        </g>
                      </g>
                      <g
                         transform="translate(435.73479,335.17155)"
                         id="g679">
                        <path
                           fill="#ffffff"
                           id="path669"
                           d="M 0.39714931,3.6012991 5.2155907,0.62733178 c 0.3131917,-0.19330357 0.7237872,-0.096115 0.9170908,0.21707669 0.064929,0.10519863 0.099316,0.22638443 0.099316,0.35000703 v 6.8842337 c 0,0.2332594 -0.1219622,0.4495402 -0.3215637,0.5702429 L 1.0919926,11.562692 C 0.77705621,11.753139 0.36736134,11.652221 0.17691354,11.337285 0.1140087,11.233261 0.08075639,11.114013 0.08075639,10.992449 V 4.1683828 c 0,-0.2311015 0.11973332,-0.4457044 0.31639292,-0.5670837 z" />
                        <g
                           transform="translate(0,0.030181)"
                           id="g677">
                          <path
                             stroke-linecap="round"
                             opacity="0.499256"
                             stroke-width="0.833"
                             stroke="#979797"
                             id="path671"
                             d="M 0.24593815,11.020468 V 4.1217666 c 0,-0.1616269 0.0836652,-0.3117365 0.22113047,-0.3967457 L 2.282778,2.6021773 C 3.3824887,2.6467493 4.1473634,2.5769253 4.577402,2.3927053 5.0074407,2.2084852 5.1788478,1.9193517 5.0916234,1.5253045 5.0698288,1.2851504 5.0589315,1.1650734 5.0589315,1.1650734 c 0,0 -0.00539,-0.088319 -0.016166,-0.26495831 L 5.3416692,0.71861974" />
                          <path
                             fill="#cbcbcb"
                             id="path673"
                             d="m 0.08075639,11.059946 c -0.0029945,0.07511 0.03931276,0.173415 0.12692183,0.294905 0.0876091,0.12149 0.21370968,0.207811 0.37830183,0.258962 -0.0973404,-0.102219 -0.15118259,-0.196994 -0.16152646,-0.284325 -0.0103439,-0.08733 -0.016431,-0.177179 -0.0182615,-0.269542 z" />
                          <path
                             fill="#cbcbcb"
                             id="path675"
                             d="m 5.2851338,0.55301465 c 0.2357982,-0.0905067 0.4482426,-0.0747917 0.6373331,0.0471451 0.2836359,0.18290516 0.3095308,0.48690885 0.3095308,0.52590755 0,0.038999 -0.00921,-0.20473331 -0.3095308,-0.33781715 C 5.81295,0.73566492 5.6471001,0.76015343 5.4249174,0.86171564 Z" />
                        </g>
                      </g>
                      <g
                         transform="translate(435.78838,227.53516)"
                         id="g691">
                        <path
                           fill="#ffffff"
                           id="path681"
                           d="M 1.04806,6.6178746 5.4920601,3.8260765 C 5.6861576,3.704141 5.8039642,3.4910085 5.8039642,3.2617879 V 1.2058181 c 0,-0.36804254 -0.2983575,-0.66639998 -0.6664,-0.66639998 -0.1254493,0 -0.248351,0.0354101 -0.3545692,0.10215746 L 0.33899489,3.4341789 C 0.14493925,3.5561232 0.02716409,3.7692315 0.02716409,3.9984214 V 6.053586 c 0,0.3680426 0.29835744,0.6664 0.6664,0.6664 0.12541987,0 0.24829392,-0.035393 0.35449591,-0.1021114 z" />
                        <g
                           transform="translate(0,0.454295)"
                           id="g689">
                          <path
                             stroke-linecap="round"
                             opacity="0.499256"
                             stroke-width="0.833"
                             stroke="#979797"
                             id="path683"
                             d="M 0.19031717,5.6508643 V 3.5272687 c 0,-0.160598 0.0826111,-0.3099031 0.21867472,-0.3952166 L 2.2152105,1.9995325 C 3.3027814,2.200687 4.0615861,2.2091543 4.4916248,2.0249343 4.9216634,1.8407143 5.006441,1.3839508 4.7459575,0.65464374 4.733407,0.63121482 4.7161739,0.60543946 4.6942581,0.57731767 4.6613843,0.535135 4.653164,0.50730982 4.653164,0.50730982 c 0,0 -0.00686,-0.009213 -0.020584,-0.0276391 L 4.9585657,0.27926457" />
                          <path
                             fill="#cbcbcb"
                             id="path685"
                             d="m 0.02716409,5.6708372 c 0.0072066,0.1261042 0.0546144,0.2499013 0.14222347,0.3713914 0.0876091,0.12149 0.24428785,0.1959681 0.47003633,0.2234343 C 0.54602102,6.2014253 0.47529139,6.119127 0.427235,6.018768 0.37917861,5.918409 0.35496514,5.8024321 0.35459459,5.6708372 Z" />
                          <path
                             fill="#cbcbcb"
                             id="path687"
                             d="M 4.8825659,0.1315927 C 5.0919184,0.03667787 5.29114,0.05018885 5.4802306,0.17212562 5.6693212,0.2940624 5.7713604,0.44067582 5.7863483,0.61196589 5.7701377,0.53214983 5.6619263,0.44788052 5.4617141,0.35915795 5.3521971,0.30657277 5.2057422,0.33361802 5.0223494,0.44029369 Z" />
                        </g>
                      </g>
                      <g
                         transform="translate(435.78838,351.52139)"
                         id="g703">
                        <path
                           fill="#ffffff"
                           id="path693"
                           d="M 1.04806,6.6178746 5.4920601,3.8260765 C 5.6861576,3.704141 5.8039642,3.4910085 5.8039642,3.2617879 V 1.2058181 c 0,-0.36804254 -0.2983575,-0.66639998 -0.6664,-0.66639998 -0.1254493,0 -0.248351,0.0354101 -0.3545692,0.10215746 L 0.33899489,3.4341789 C 0.14493925,3.5561232 0.02716409,3.7692315 0.02716409,3.9984214 V 6.053586 c 0,0.3680426 0.29835744,0.6664 0.6664,0.6664 0.12541987,0 0.24829392,-0.035393 0.35449591,-0.1021114 z" />
                        <g
                           transform="translate(0,0.454295)"
                           id="g701">
                          <path
                             stroke-linecap="round"
                             opacity="0.499256"
                             stroke-width="0.833"
                             stroke="#979797"
                             id="path695"
                             d="M 0.19031717,5.6508643 V 3.5272687 c 0,-0.160598 0.0826111,-0.3099031 0.21867472,-0.3952166 L 2.2152105,1.9995325 C 3.3027814,2.200687 4.0615861,2.2091543 4.4916248,2.0249343 4.9216634,1.8407143 5.0773104,1.2588244 4.9585657,0.27926457" />
                          <path
                             fill="#cbcbcb"
                             id="path697"
                             d="m 0.02716409,5.6708372 c 0.0072066,0.1261042 0.0546144,0.2499013 0.14222347,0.3713914 0.0876091,0.12149 0.24428785,0.1959681 0.47003633,0.2234343 C 0.54602102,6.2014253 0.47529139,6.119127 0.427235,6.018768 0.37917861,5.918409 0.35496514,5.8024321 0.35459459,5.6708372 Z" />
                          <path
                             fill="#cbcbcb"
                             id="path699"
                             d="M 4.8825659,0.1315927 C 5.0919184,0.03667787 5.29114,0.05018885 5.4802306,0.17212562 5.6693212,0.2940624 5.7713604,0.44067582 5.7863483,0.61196589 5.7701377,0.53214983 5.6619263,0.44788052 5.4617141,0.35915795 5.3521971,0.30657277 5.2057422,0.33361802 5.0223494,0.44029369 Z" />
                        </g>
                      </g>
                      <path
                         fill="#ffffff"
                         id="path705"
                         d="m 437.57122,295.12605 -1.07424,0.78835 c -0.42767,0.31386 -0.68032,0.81264 -0.68032,1.34312 v 3.79956 c 0,0.18402 0.14918,0.3332 0.3332,0.3332 0.0678,0 0.13405,-0.0207 0.1898,-0.0593 l 1.33169,-0.92292 c 0.26945,-0.18674 0.43021,-0.49374 0.43021,-0.82158 v -4.19177 c 0,-0.18402 -0.14918,-0.3332 -0.3332,-0.3332 -0.0709,0 -0.13997,0.0226 -0.19714,0.0646 z" />
                      <path
                         fill="#e6e6e6"
                         id="path707"
                         d="m 436.98472,299.3354 c 0.20864,0 0.297,-0.49678 0.297,-0.87302 0,-0.37624 -0.14511,-0.75919 -0.35375,-0.75919 -0.20864,0 -0.31284,0.52733 -0.31284,0.90357 0,0.37624 0.16096,0.72864 0.36959,0.72864 z" />
                      <g
                         transform="translate(426.50889,297.0027)"
                         id="g721">
                        <path
                           fill="#ffffff"
                           id="path709"
                           d="m 5.3133704,1.2124216 c 0,-0.5119332 -0.4860562,-0.87848697 -1.1829628,-0.61757294 C 3.6658031,0.76879135 3.3999806,1.3063953 3.3329399,2.2076604 v 6.3604301 c 0.2222195,0.4579309 0.6314317,0.58544 1.2276366,0.3825274 0.5962049,-0.2029126 0.8471362,-0.7078366 0.7527939,-1.514772 0,-3.8076607 0,-5.8821355 0,-6.2234243 z" />
                        <path
                           transform="matrix(-1,0,0,1,8.880486,0)"
                           fill="#e6e6e6"
                           id="path711"
                           d="m 4.4399803,2.8013342 c 0.1772322,0 0.2511559,-0.2084777 0.2511559,-0.33491 0,-0.1264323 -0.067461,-0.4034498 -0.2479246,-0.4034498 -0.1804635,0 -0.2538609,0.2287283 -0.2538609,0.4034498 0,0.1747215 0.073397,0.33491 0.2506296,0.33491 z" />
                        <path
                           transform="matrix(-1,0,0,1,8.880486,0)"
                           fill="#e6e6e6"
                           id="path713"
                           d="m 4.4399803,8.2512781 c 0.1772322,0 0.2511559,-0.2084776 0.2511559,-0.3349099 0,-0.1264323 -0.067461,-0.4034498 -0.2479246,-0.4034498 -0.1804635,0 -0.2538609,0.2287283 -0.2538609,0.4034498 0,0.1747215 0.073397,0.3349099 0.2506296,0.3349099 z" />
                        <path
                           transform="rotate(-58,3.48166,5.456558)"
                           stroke-linecap="round"
                           stroke-width="0.833"
                           stroke="#cbcbcb"
                           id="path715"
                           d="m 0.69575103,7.2949382 c 0.0260953,-0.1029321 0.0641336,-0.1797118 0.0939643,-0.2320801 0.0177085,-0.031088 0.083605,-0.1013876 0.19768963,-0.2108998 l 4.244e-5,4.42e-5 C 1.01644,6.8241719 1.0489079,6.8002051 1.0840444,6.7806977 L 2.1635425,6.1813714 C 2.7362538,6.4224595 3.2412793,6.3971292 3.6786189,6.1053802 4.1159585,5.8136312 4.2846734,5.418173 4.1847636,4.9190056 L 6.2675681,3.6181774" />
                        <path
                           fill="#cbcbcb"
                           id="path717"
                           d="M 3.3102167,2.1013181 C 3.3311275,1.6921531 3.4119807,1.3612888 3.5527763,1.1087252 3.6935719,0.8561617 3.9016981,0.67892516 4.1771549,0.57701562 3.9604243,0.71519787 3.7894071,0.92326516 3.6641031,1.2012175 3.5387991,1.4791698 3.4779846,1.7853574 3.4816595,2.1197802 Z" />
                        <path
                           fill="#cbcbcb"
                           id="path719"
                           d="m 3.5214371,8.8683254 c 0.043974,0.031717 0.1089298,0.068938 0.1948673,0.1116625 0.085938,0.042725 0.1854148,0.064087 0.2984318,0.064087 C 3.919197,9.0006572 3.8455735,8.9568626 3.7938659,8.912691 3.7421583,8.8685195 3.6885283,8.8128199 3.6329759,8.7455923 Z" />
                      </g>
                      <g
                         transform="translate(435.28195,287.76748)"
                         id="g739">
                        <g
                           transform="rotate(-122,3.2838845,3.5505353)"
                           id="g729">
                          <path
                             fill="#ffffff"
                             id="path723"
                             d="M 2.5629472,1.2762772 C 2.6721004,0.72384044 2.3379707,0.36494532 1.5605582,0.19959181 0.98248491,0.0766372 0.60773661,0.31789498 0.43631334,0.92336513 L 0.26952357,6.7099258 C 0.34705435,7.322 0.73937163,7.6749255 1.4464754,7.7687025 2.1535792,7.8624794 2.4855606,7.4794872 2.4424196,6.6197258 Z" />
                          <path
                             transform="matrix(-1,0,0,1,2.676916,0)"
                             fill="#f2f2f2"
                             id="path725"
                             d="m 1.3380053,1.5737146 c 0.3048874,0 0.432056,-0.1923506 0.432056,-0.3090025 0,-0.116652 -0.1160513,-0.37224049 -0.4264973,-0.37224049 -0.3104461,0 -0.43670953,0.21103479 -0.43670953,0.37224049 0,0.1612057 0.12626343,0.3090025 0.43115083,0.3090025 z" />
                          <path
                             transform="matrix(-1,0,0,1,2.468686,0)"
                             fill="#f2f2f2"
                             id="path727"
                             d="m 1.2338899,7.1203729 c 0.3048874,0 0.4320561,-0.1923506 0.4320561,-0.3090026 0,-0.116652 -0.1160513,-0.3722404 -0.4264974,-0.3722404 -0.31044605,0 -0.4367095,0.2110347 -0.4367095,0.3722404 0,0.1612057 0.12626345,0.3090026 0.4311508,0.3090026 z" />
                        </g>
                        <g
                           transform="translate(0,2.442036)"
                           id="g737">
                          <path
                             stroke-linecap="round"
                             stroke-width="0.833"
                             stroke="#cbcbcb"
                             id="path731"
                             d="M 0.83826979,3.9476356 C 0.86332176,3.8438837 0.90024367,3.7665973 0.92924212,3.7139053 0.94663783,3.6822962 1.0121246,3.6105464 1.1257024,3.498656 l -3.6e-5,-3.66e-5 c 0.025816,-0.025432 0.054507,-0.04777 0.085494,-0.066562 L 2.7212609,2.5162663 C 3.8643944,2.5731847 4.6083033,2.5098952 4.9529878,2.3263976 5.2976723,2.1429 5.4523138,1.7256721 5.4169123,1.0747137 V 0.84156421 L 6.3181639,0.26761544" />
                          <path
                             fill="#cbcbcb"
                             id="path733"
                             d="m 0.75887242,3.9281867 c -0.036216,0.1833326 -0.0236904,0.3511174 0.0375766,0.5033543 0.0919006,0.2283555 0.29344348,0.2283555 0.29344348,0.2283555 0,0 -0.10799446,-0.1150384 -0.15485276,-0.2818402 -0.0312389,-0.1112011 -0.0312389,-0.2676562 0,-0.4693653 z" />
                          <path
                             fill="#cbcbcb"
                             id="path735"
                             d="M 6.2603593,0.19874092 C 6.5542134,0.03562476 6.7821646,0.02295899 6.9442128,0.16074359 7.1872852,0.3674205 7.1549046,0.73464304 7.1214087,0.84207772 7.0879128,0.94951239 7.2795057,0.42200351 6.9112529,0.23709826 6.7888715,0.1754909 6.5911752,0.22148505 6.3181639,0.37508074 Z" />
                        </g>
                      </g>
                      <path
                         stroke-width="0.833"
                         stroke="#979797"
                         id="path741"
                         d="" />
                      <path
                         stroke-width="0.833"
                         stroke="#979797"
                         id="path743"
                         d="" />
                      <path
                         fill="#cbcbcb"
                         id="path745"
                         d="m 435.81666,297.68071 -0.27101,-0.21272 v -0.43419 c 0.0511,-0.34809 0.18617,-0.61436 0.40525,-0.79882 0.21908,-0.18445 0.74191,-0.59011 1.5685,-1.21696 0.0771,-0.0534 0.14929,-0.0632 0.21652,-0.0292 0.10085,0.051 0.2406,0.14349 0.25839,0.16294 0.0178,0.0195 -0.0888,-0.0413 -0.15939,-0.0547 -0.0706,-0.0134 -0.14191,0.0365 -0.16909,0.0547 -0.0272,0.0182 -1.25034,0.94818 -1.50589,1.1889 -0.25555,0.24073 -0.34328,0.70963 -0.34328,0.82571 0,0.0774 0,0.24882 0,0.5143 z" />
                      <path
                         fill="#d8d8d8"
                         id="path747"
                         d="m 437.83856,355.3819 c -0.37548,0 -1.10935,0.31324 -1.10935,1.14985 0,0.8366 1.26348,0.6284 1.58093,0.34793 0.14459,-0.12774 0.15954,-0.58773 0.14211,-0.81022 -0.0282,-0.3596 -0.38172,-0.68756 -0.61369,-0.68756 z" />
                      <path
                         transform="matrix(-0.9612617,0.27563736,0.27563736,0.9612617,767.1887,-107.82134)"
                         fill="#d8d8d8"
                         id="path749"
                         d="m 441.15396,354.0712 c 0,0 -0.63331,-0.56658 -0.55057,0.0195 0.0827,0.58611 0.79002,1.48295 0.80023,1.09036 0.0102,-0.3926 -0.24966,-1.10989 -0.24966,-1.10989 z" />
                      <path
                         fill="#cbcbcb"
                         id="path751"
                         d="m 423.911,306.5401 0.33222,-0.0242 c 0.0106,0.22025 0.06,0.37646 0.14802,0.46864 0.0881,0.0922 0.24814,0.15521 0.48026,0.18907 -0.35234,0.0911 -0.59693,0.0911 -0.73378,0 -0.13685,-0.0912 -0.21243,-0.30232 -0.22672,-0.6335 z" />
                      <path
                         fill="#cbcbcb"
                         id="path753"
                         d="m 436.13704,301.39024 c -0.17839,0 -0.29197,-0.009 -0.34073,-0.0268 -0.0488,-0.0179 -0.11358,-0.0822 -0.19445,-0.19282 v -1.07021 l 0.2148,-0.15504 v 1.15641 c 0.0188,0.0929 0.0592,0.16414 0.12103,0.21357 0.0618,0.0494 0.12828,0.0744 0.19935,0.0749 z" />
                    </g>
                  </g>
                </g>
              </g>
            </g>
            <circle
               r="150"
               cy="150"
               cx="150.52174"
               stroke-width="2.6656"
               stroke="#ffffff"
               id="circle762" />
          </g>
        </g>
      </g>
    </g>
  </g>
</svg>
