<?xml version="1.0" encoding="UTF-8" standalone="no"?>
<svg
   xmlns:dc="http://purl.org/dc/elements/1.1/"
   xmlns:cc="http://creativecommons.org/ns#"
   xmlns:rdf="http://www.w3.org/1999/02/22-rdf-syntax-ns#"
   xmlns:svg="http://www.w3.org/2000/svg"
   xmlns="http://www.w3.org/2000/svg"
   xmlns:xlink="http://www.w3.org/1999/xlink"
   xmlns:sodipodi="http://sodipodi.sourceforge.net/DTD/sodipodi-0.dtd"
   xmlns:inkscape="http://www.inkscape.org/namespaces/inkscape"
   width="590px"
   height="529px"
   viewBox="0 0 590 529"
   version="1.1"
   id="svg419"
   sodipodi:docname="SpecialStowMain.svg"
   inkscape:version="0.92.3 (2405546, 2018-03-11)">
  <metadata
     id="metadata423">
    <rdf:RDF>
      <cc:Work
         rdf:about="">
        <dc:format>image/svg+xml</dc:format>
        <dc:type
           rdf:resource="http://purl.org/dc/dcmitype/StillImage" />
        <dc:title>D41C74F0-6BD1-45D5-B792-92C23E55B6A9</dc:title>
      </cc:Work>
    </rdf:RDF>
  </metadata>
  <sodipodi:namedview
     pagecolor="#000000"
     bordercolor="#666666"
     borderopacity="1"
     objecttolerance="10"
     gridtolerance="10"
     guidetolerance="10"
     inkscape:pageopacity="0"
     inkscape:pageshadow="2"
     inkscape:window-width="1920"
     inkscape:window-height="997"
     id="namedview421"
     showgrid="false"
     inkscape:zoom="4.2737753"
     inkscape:cx="514.78064"
     inkscape:cy="43.061998"
     inkscape:window-x="0"
     inkscape:window-y="25"
     inkscape:window-maximized="1"
     inkscape:current-layer="svg419" />
  <defs
     id="defs21">
    <filter
       x="0.0%"
       y="0.0%"
       width="100.0%"
       height="100.0%"
       filterUnits="objectBoundingBox"
       id="filter-1">
      <feGaussianBlur
         stdDeviation="0"
         in="SourceGraphic"
         id="feGaussianBlur6" />
    </filter>
    <circle
       id="path-2"
       cx="587"
       cy="459"
       r="25" />
    <filter
       x="-137.0%"
       y="-133.0%"
       width="374.0%"
       height="374.0%"
       filterUnits="objectBoundingBox"
       id="filter-3">
      <feMorphology
         radius="1.5"
         operator="dilate"
         in="SourceAlpha"
         result="shadowSpreadOuter1"
         id="feMorphology10" />
      <feOffset
         dx="0"
         dy="2"
         in="shadowSpreadOuter1"
         result="shadowOffsetOuter1"
         id="feOffset12" />
      <feGaussianBlur
         stdDeviation="22"
         in="shadowOffsetOuter1"
         result="shadowBlurOuter1"
         id="feGaussianBlur14" />
      <feComposite
         in="shadowBlurOuter1"
         in2="SourceAlpha"
         operator="out"
         result="shadowBlurOuter1"
         id="feComposite16" />
      <feColorMatrix
         values="0 0 0 0 0.374122509   0 0 0 0 0.374122509   0 0 0 0 0.374122509  0 0 0 0.575529939 0"
         type="matrix"
         in="shadowBlurOuter1"
         id="feColorMatrix18" />
    </filter>
  </defs>
  <g
     id="special-stow-main"
     stroke-width="1"
     stroke="none"
     fill-rule="evenodd"
     fill="none">
    <g
       id="10.Dry1_Sealfrm_Empty-Copy"
       transform="translate(0.000000, -145.000000)">
      <g
         id="Group-6"
         transform="translate(-65.000000, 145.000000)">
        <g
           id="Group-26-Copy">
          <g
             id="view-finder-oval">
            <ellipse
               id="Oval-Copy-21"
               transform="translate(306.122104, 302.689853) scale(-1, 1) rotate(-20.000000) translate(-306.122104, -302.689853) "
               cx="335"
               cy="288"
               rx="295"
               ry="143"
               filter="url(#filter-1)"
               fill-opacity="0.223120629"
               fill="#FFFFFF"
               opacity="0.422386533" />
          </g>
          <g
             id="Group-25"
             transform="translate(31.000000, 0.000000)">
            <g
               id="Containter"
               transform="translate(253.000000, 217.000000) scale(-1, 1) translate(-253.000000, -217.000000) ">
              <polygon
                 id="Fill-1466"
                 points="502.107198 179.315862 392.972597 117.139826 377.846686 126.249853 486.165678 188.883374"
                 fill="#B3B4B3" />
              <polygon
                 id="Fill-1543"
                 points="485.315837 188.883374 485.315837 55.7396995 99.5188135 279.11212 99.5188135 414.6582"
                 fill="#4F4F4F" />
              <polygon
                 id="Fill-1547"
                 points="505.639115 181.331724 501.457473 179.015066 99.5188135 414.6582 103.0168 416.89826"
                 fill="#B3B4B3" />
              <polygon
                 id="Fill-1548"
                 points="505.639115 198.532468 505.639115 181.331724 102.80029 416.843869 102.80029 433.46833"
                 fill="#747571" />
              <polygon
                 id="Fill-1549"
                 points="501.457473 197.290775 501.457473 188.034018 106.678583 417.540432 106.678583 426.863503"
                 fill="#D7DBCD" />
              <polygon
                 id="Fill-1550"
                 points="388.403664 0 2.93165797 223.151683 99.5188135 279.11212 485.315837 55.7396995"
                 fill="#8C8C8C" />
              <polygon
                 id="Fill-1551"
                 points="99.5188135 414.735641 99.5188135 431.831479 102.801973 433.468271 102.801973 416.843869"
                 fill="#484948" />
              <polygon
                 id="Fill-1551-Copy"
                 points="0.271423776 357.379039 0.271423776 375.068183 2.93165797 376.607516 2.93165797 358.795191"
                 fill="#484948" />
              <g
                 id="reflectors"
                 transform="translate(106.678583, 195.299718)"
                 fill="#EE9E40">
                <polygon
                   id="Fill-1566-Copy"
                   points="344.767053 31.007105 344.767053 21.6840339 351.983869 17.5333696 351.983869 26.8396858" />
                <polygon
                   id="Fill-1566-Copy-2"
                   points="312.782224 49.597947 312.782224 40.2748758 319.99904 36.1242115 319.99904 45.4305278" />
                <polygon
                   id="Fill-1566-Copy-3"
                   points="280.797395 68.1887889 280.797395 58.8657178 288.014211 54.7150535 288.014211 64.0213697" />
                <polygon
                   id="Fill-1566-Copy-7"
                   points="248.812565 86.7796309 248.812565 77.4565597 256.029381 73.3058954 256.029381 82.6122117" />
                <polygon
                   id="Fill-1566-Copy-6"
                   points="218.488863 104.557699 218.488863 95.2346274 225.705679 91.0839631 225.705679 100.390279" />
                <polygon
                   id="Fill-1566-Copy-5"
                   points="186.523254 123.03576 186.523254 113.712689 193.74007 109.562024 193.74007 118.868341" />
                <polygon
                   id="Fill-1566-Copy-4"
                   points="154.555281 141.638388 154.555281 132.315317 161.772097 128.164652 161.772097 137.470968" />
                <polygon
                   id="Fill-1566-Copy-11"
                   points="123.436756 159.768693 123.436756 150.445622 130.653572 146.294957 130.653572 155.601274" />
                <polygon
                   id="Fill-1566-Copy-10"
                   points="93.1073279 177.299892 93.1073279 167.976821 100.324144 163.826156 100.324144 173.132473" />
                <polygon
                   id="Fill-1566-Copy-9"
                   points="61.1710358 195.972694 61.1710358 186.649623 68.3878519 182.498959 68.3878519 191.805275" />
                <polygon
                   id="Fill-1566-Copy-8"
                   points="29.2018762 214.58707 29.2018762 205.263998 36.4186924 201.113334 36.4186924 210.41965" />
                <polygon
                   id="Fill-1566-Copy-12"
                   points="-5.46229728e-13 231.563785 -5.46229728e-13 222.240714 7.21681617 218.09005 7.21681617 227.396366" />
              </g>
              <g
                 id="group-1"
                 transform="translate(102.402091, 84.602138)">
                <g
                   id="groove-1"
                   transform="translate(369.938556, 53.528804) rotate(2.000000) translate(-369.938556, -53.528804) translate(361.942349, 0.641064)">
                  <polygon
                     id="Fill-1596-Copy"
                     points="15.8408841 97.7819374 15.6919536 97.7162187 12.4272316 96.4050759 9.14066336 2.08896822 12.4335446 -1.27106353e-13"
                     fill="#333333" />
                  <polygon
                     id="Path-6"
                     transform="translate(9.752373, 101.024594) scale(-1, 1) translate(-9.752373, -101.024594) "
                     points="3.6638625 97.7819374 7.07751508 96.4050759 15.8408841 101.645376 15.7015429 105.644112"
                     fill="#404040" />
                  <polygon
                     id="Path-2"
                     points="9.14066336 2.08896822 12.4272316 96.4050759 3.6638625 101.645376 0.388973515 7.66443172"
                     fill="#575757" />
                </g>
                <g
                   id="groove-1-copy"
                   transform="translate(349.320259, 65.155396) rotate(2.000000) translate(-349.320259, -65.155396) translate(341.324052, 12.267656)">
                  <polygon
                     id="polygon49"
                     points="15.8408841 97.7819374 15.6919536 97.7162187 12.4272316 96.4050759 9.14066336 2.08896822 12.4335446 -1.27106353e-13"
                     fill="#333333" />
                  <polygon
                     id="polygon51"
                     transform="translate(9.752373, 101.024594) scale(-1, 1) translate(-9.752373, -101.024594) "
                     points="3.6638625 97.7819374 7.07751508 96.4050759 15.8408841 101.645376 15.7015429 105.644112"
                     fill="#404040" />
                  <polygon
                     id="polygon53"
                     points="9.14066336 2.08896822 12.4272316 96.4050759 3.6638625 101.645376 0.388973515 7.66443172"
                     fill="#575757" />
                </g>
                <g
                   id="groove-1-copy-2"
                   transform="translate(326.751712, 78.133213) rotate(2.000000) translate(-326.751712, -78.133213) translate(318.755505, 25.245473)">
                  <polygon
                     id="polygon56"
                     points="15.8408841 97.7819374 15.6919536 97.7162187 12.4272316 96.4050759 9.14066336 2.08896822 12.4335446 -1.27106353e-13"
                     fill="#333333" />
                  <polygon
                     id="polygon58"
                     transform="translate(9.752373, 101.024594) scale(-1, 1) translate(-9.752373, -101.024594) "
                     points="3.6638625 97.7819374 7.07751508 96.4050759 15.8408841 101.645376 15.7015429 105.644112"
                     fill="#404040" />
                  <polygon
                     id="polygon60"
                     points="9.14066336 2.08896822 12.4272316 96.4050759 3.6638625 101.645376 0.388973515 7.66443172"
                     fill="#575757" />
                </g>
                <g
                   id="groove-1-copy-3"
                   transform="translate(304.227816, 91.110249) rotate(2.000000) translate(-304.227816, -91.110249) translate(296.231609, 38.222509)">
                  <polygon
                     id="polygon63"
                     points="15.8408841 97.7819374 15.6919536 97.7162187 12.4272316 96.4050759 9.14066336 2.08896822 12.4335446 -1.27106353e-13"
                     fill="#333333" />
                  <polygon
                     id="polygon65"
                     transform="translate(9.752373, 101.024594) scale(-1, 1) translate(-9.752373, -101.024594) "
                     points="3.6638625 97.7819374 7.07751508 96.4050759 15.8408841 101.645376 15.7015429 105.644112"
                     fill="#404040" />
                  <polygon
                     id="polygon67"
                     points="9.14066336 2.08896822 12.4272316 96.4050759 3.6638625 101.645376 0.388973515 7.66443172"
                     fill="#575757" />
                </g>
                <g
                   id="groove-1-copy-4"
                   transform="translate(277.912728, 106.143931) rotate(2.000000) translate(-277.912728, -106.143931) translate(269.916521, 53.256191)">
                  <polygon
                     id="polygon70"
                     points="15.8408841 97.7819374 15.6919536 97.7162187 12.4272316 96.4050759 9.14066336 2.08896822 12.4335446 -1.27106353e-13"
                     fill="#333333" />
                  <polygon
                     id="polygon72"
                     transform="translate(9.752373, 101.024594) scale(-1, 1) translate(-9.752373, -101.024594) "
                     points="3.6638625 97.7819374 7.07751508 96.4050759 15.8408841 101.645376 15.7015429 105.644112"
                     fill="#404040" />
                  <polygon
                     id="polygon74"
                     points="9.14066336 2.08896822 12.4272316 96.4050759 3.6638625 101.645376 0.388973515 7.66443172"
                     fill="#575757" />
                </g>
                <g
                   id="groove-1-copy-5"
                   transform="translate(250.408327, 122.502924) rotate(2.000000) translate(-250.408327, -122.502924) translate(242.412120, 69.615184)">
                  <polygon
                     id="polygon77"
                     points="15.8408841 97.7819374 15.6919536 97.7162187 12.4272316 96.4050759 9.14066336 2.08896822 12.4335446 -1.27106353e-13"
                     fill="#333333" />
                  <polygon
                     id="polygon79"
                     transform="translate(9.752373, 101.024594) scale(-1, 1) translate(-9.752373, -101.024594) "
                     points="3.6638625 97.7819374 7.07751508 96.4050759 15.8408841 101.645376 15.7015429 105.644112"
                     fill="#404040" />
                  <polygon
                     id="polygon81"
                     points="9.14066336 2.08896822 12.4272316 96.4050759 3.6638625 101.645376 0.388973515 7.66443172"
                     fill="#575757" />
                </g>
                <g
                   id="groove-1-copy-6"
                   transform="translate(224.093239, 137.536606) rotate(2.000000) translate(-224.093239, -137.536606) translate(216.097032, 84.648866)">
                  <polygon
                     id="polygon84"
                     points="15.8408841 97.7819374 15.6919536 97.7162187 12.4272316 96.4050759 9.14066336 2.08896822 12.4335446 -1.27106353e-13"
                     fill="#333333" />
                  <polygon
                     id="polygon86"
                     transform="translate(9.752373, 101.024594) scale(-1, 1) translate(-9.752373, -101.024594) "
                     points="3.6638625 97.7819374 7.07751508 96.4050759 15.8408841 101.645376 15.7015429 105.644112"
                     fill="#404040" />
                  <polygon
                     id="polygon88"
                     points="9.14066336 2.08896822 12.4272316 96.4050759 3.6638625 101.645376 0.388973515 7.66443172"
                     fill="#575757" />
                </g>
                <g
                   id="groove-1-copy-7"
                   transform="translate(197.778152, 152.570288) rotate(2.000000) translate(-197.778152, -152.570288) translate(189.781944, 99.682548)">
                  <polygon
                     id="polygon91"
                     points="15.8408841 97.7819374 15.6919536 97.7162187 12.4272316 96.4050759 9.14066336 2.08896822 12.4335446 -1.27106353e-13"
                     fill="#333333" />
                  <polygon
                     id="polygon93"
                     transform="translate(9.752373, 101.024594) scale(-1, 1) translate(-9.752373, -101.024594) "
                     points="3.6638625 97.7819374 7.07751508 96.4050759 15.8408841 101.645376 15.7015429 105.644112"
                     fill="#404040" />
                  <polygon
                     id="polygon95"
                     points="9.14066336 2.08896822 12.4272316 96.4050759 3.6638625 101.645376 0.388973515 7.66443172"
                     fill="#575757" />
                </g>
                <g
                   id="groove-1-copy-8"
                   transform="translate(170.229100, 168.930062) rotate(2.000000) translate(-170.229100, -168.930062) translate(162.232893, 116.042322)">
                  <polygon
                     id="polygon98"
                     points="15.8408841 97.7819374 15.6919536 97.7162187 12.4272316 96.4050759 9.14066336 2.08896822 12.4335446 -1.27106353e-13"
                     fill="#333333" />
                  <polygon
                     id="polygon100"
                     transform="translate(9.752373, 101.024594) scale(-1, 1) translate(-9.752373, -101.024594) "
                     points="3.6638625 97.7819374 7.07751508 96.4050759 15.8408841 101.645376 15.7015429 105.644112"
                     fill="#404040" />
                  <polygon
                     id="polygon102"
                     points="9.14066336 2.08896822 12.4272316 96.4050759 3.6638625 101.645376 0.388973515 7.66443172"
                     fill="#575757" />
                </g>
                <g
                   id="groove-1-copy-9"
                   transform="translate(143.914013, 183.963744) rotate(2.000000) translate(-143.914013, -183.963744) translate(135.917805, 131.076004)">
                  <polygon
                     id="polygon105"
                     points="15.8408841 97.7819374 15.6919536 97.7162187 12.4272316 96.4050759 9.14066336 2.08896822 12.4335446 -1.27106353e-13"
                     fill="#333333" />
                  <polygon
                     id="polygon107"
                     transform="translate(9.752373, 101.024594) scale(-1, 1) translate(-9.752373, -101.024594) "
                     points="3.6638625 97.7819374 7.07751508 96.4050759 15.8408841 101.645376 15.7015429 105.644112"
                     fill="#404040" />
                  <polygon
                     id="polygon109"
                     points="9.14066336 2.08896822 12.4272316 96.4050759 3.6638625 101.645376 0.388973515 7.66443172"
                     fill="#575757" />
                </g>
                <g
                   id="groove-1-copy-10"
                   transform="translate(117.598925, 198.997426) rotate(2.000000) translate(-117.598925, -198.997426) translate(109.602718, 146.109686)">
                  <polygon
                     id="polygon112"
                     points="15.8408841 97.7819374 15.6919536 97.7162187 12.4272316 96.4050759 9.14066336 2.08896822 12.4335446 -1.27106353e-13"
                     fill="#333333" />
                  <polygon
                     id="polygon114"
                     transform="translate(9.752373, 101.024594) scale(-1, 1) translate(-9.752373, -101.024594) "
                     points="3.6638625 97.7819374 7.07751508 96.4050759 15.8408841 101.645376 15.7015429 105.644112"
                     fill="#404040" />
                  <polygon
                     id="polygon116"
                     points="9.14066336 2.08896822 12.4272316 96.4050759 3.6638625 101.645376 0.388973515 7.66443172"
                     fill="#575757" />
                </g>
                <g
                   id="groove-1-copy-11"
                   transform="translate(90.049874, 215.357200) rotate(2.000000) translate(-90.049874, -215.357200) translate(82.053666, 162.469460)">
                  <polygon
                     id="polygon119"
                     points="15.8408841 97.7819374 15.6919536 97.7162187 12.4272316 96.4050759 9.14066336 2.08896822 12.4335446 -1.27106353e-13"
                     fill="#333333" />
                  <polygon
                     id="polygon121"
                     transform="translate(9.752373, 101.024594) scale(-1, 1) translate(-9.752373, -101.024594) "
                     points="3.6638625 97.7819374 7.07751508 96.4050759 15.8408841 101.645376 15.7015429 105.644112"
                     fill="#404040" />
                  <polygon
                     id="polygon123"
                     points="9.14066336 2.08896822 12.4272316 96.4050759 3.6638625 101.645376 0.388973515 7.66443172"
                     fill="#575757" />
                </g>
                <g
                   id="groove-1-copy-12"
                   transform="translate(63.734786, 231.031946) rotate(2.000000) translate(-63.734786, -231.031946) translate(55.738579, 178.144206)">
                  <polygon
                     id="polygon126"
                     points="15.8408841 97.7819374 15.6919536 97.7162187 12.4272316 96.4050759 9.14066336 2.08896822 12.4335446 -1.27106353e-13"
                     fill="#333333" />
                  <polygon
                     id="polygon128"
                     transform="translate(9.752373, 101.024594) scale(-1, 1) translate(-9.752373, -101.024594) "
                     points="3.6638625 97.7819374 7.07751508 96.4050759 15.8408841 101.645376 15.7015429 105.644112"
                     fill="#404040" />
                  <polygon
                     id="polygon130"
                     points="9.14066336 2.08896822 12.4272316 96.4050759 3.6638625 101.645376 0.388973515 7.66443172"
                     fill="#575757" />
                </g>
                <g
                   id="groove-1-copy-13"
                   transform="translate(37.464348, 246.064847) rotate(2.000000) translate(-37.464348, -246.064847) translate(29.468141, 193.177107)">
                  <polygon
                     id="polygon133"
                     points="15.8408841 97.7819374 15.6919536 97.7162187 12.4272316 96.4050759 9.14066336 2.08896822 12.4335446 -1.27106353e-13"
                     fill="#333333" />
                  <polygon
                     id="polygon135"
                     transform="translate(9.752373, 101.024594) scale(-1, 1) translate(-9.752373, -101.024594) "
                     points="3.6638625 97.7819374 7.07751508 96.4050759 15.8408841 101.645376 15.7015429 105.644112"
                     fill="#404040" />
                  <polygon
                     id="polygon137"
                     points="9.14066336 2.08896822 12.4272316 96.4050759 3.6638625 101.645376 0.388973515 7.66443172"
                     fill="#575757" />
                </g>
                <g
                   id="groove-1-copy-14"
                   transform="translate(9.915297, 261.783558) rotate(2.000000) translate(-9.915297, -261.783558) translate(1.919090, 208.895818)">
                  <polygon
                     id="polygon140"
                     points="15.8408841 97.7819374 15.6919536 97.7162187 12.4272316 96.4050759 9.14066336 2.08896822 12.4335446 -1.27106353e-13"
                     fill="#333333" />
                  <polygon
                     id="polygon142"
                     transform="translate(9.752373, 101.024594) scale(-1, 1) translate(-9.752373, -101.024594) "
                     points="3.6638625 97.7819374 7.07751508 96.4050759 15.8408841 101.645376 15.7015429 105.644112"
                     fill="#404040" />
                  <polygon
                     id="polygon144"
                     points="9.14066336 2.08896822 12.4272316 96.4050759 3.6638625 101.645376 0.388973515 7.66443172"
                     fill="#575757" />
                </g>
              </g>
              <g
                 id="groves-1-copy"
                 transform="translate(243.404551, 139.110783) scale(-1, -1) translate(-243.404551, -139.110783) translate(14.073325, 3.846381)">
                <g
                   id="g154"
                   transform="translate(50.855879, 238.796160) rotate(-63.000000) translate(-50.855879, -238.796160) translate(42.219975, 186.549483)">
                  <polygon
                     id="polygon148"
                     points="16.8775068 8.11918013 11.1292478 104.027166 0.386770287 97.1126097 5.53026412 0.544538947"
                     fill="#757575" />
                  <polygon
                     id="polygon150"
                     transform="translate(5.804118, 99.997628) scale(-1, 1) translate(-5.804118, -99.997628) "
                     points="0.478987868 104.027166 0.386770287 102.135462 8.98000749 95.9680894 11.2214654 97.1126097"
                     fill="#666666" />
                  <polygon
                     id="polygon152"
                     points="2.62822817 95.9680894 0.386770287 97.1126097 5.53026412 0.544538947 7.33399365 1.91189882"
                     fill="#626262" />
                </g>
                <g
                   id="groove-1-copy-15"
                   transform="translate(77.723135, 223.410635) rotate(-63.000000) translate(-77.723135, -223.410635) translate(69.087231, 171.163959)">
                  <polygon
                     id="polygon156"
                     points="16.8775068 8.11918013 11.1292478 104.027166 0.386770287 97.1126097 5.53026412 0.544538947"
                     fill="#757575" />
                  <polygon
                     id="polygon158"
                     transform="translate(5.804118, 99.997628) scale(-1, 1) translate(-5.804118, -99.997628) "
                     points="0.478987868 104.027166 0.386770287 102.135462 8.98000749 95.9680894 11.2214654 97.1126097"
                     fill="#666666" />
                  <polygon
                     id="polygon160"
                     points="2.62822817 95.9680894 0.386770287 97.1126097 5.53026412 0.544538947 7.33399365 1.91189882"
                     fill="#626262" />
                </g>
                <g
                   id="groove-1-copy-16"
                   transform="translate(105.869785, 206.742984) rotate(-63.000000) translate(-105.869785, -206.742984) translate(97.233881, 154.496307)">
                  <polygon
                     id="polygon163"
                     points="16.8775068 8.11918013 11.1292478 104.027166 0.386770287 97.1126097 5.53026412 0.544538947"
                     fill="#757575" />
                  <polygon
                     id="polygon165"
                     transform="translate(5.804118, 99.997628) scale(-1, 1) translate(-5.804118, -99.997628) "
                     points="0.478987868 104.027166 0.386770287 102.135462 8.98000749 95.9680894 11.2214654 97.1126097"
                     fill="#666666" />
                  <polygon
                     id="polygon167"
                     points="2.62822817 95.9680894 0.386770287 97.1126097 5.53026412 0.544538947 7.33399365 1.91189882"
                     fill="#626262" />
                </g>
                <g
                   id="groove-1-copy-17"
                   transform="translate(137.214918, 188.793205) rotate(-63.000000) translate(-137.214918, -188.793205) translate(128.579014, 136.546529)">
                  <polygon
                     id="polygon170"
                     points="16.8775068 8.11918013 11.1292478 104.027166 0.386770287 97.1126097 5.53026412 0.544538947"
                     fill="#757575" />
                  <polygon
                     id="polygon172"
                     transform="translate(5.804118, 99.997628) scale(-1, 1) translate(-5.804118, -99.997628) "
                     points="0.478987868 104.027166 0.386770287 102.135462 8.98000749 95.9680894 11.2214654 97.1126097"
                     fill="#666666" />
                  <polygon
                     id="polygon174"
                     points="2.62822817 95.9680894 0.386770287 97.1126097 5.53026412 0.544538947 7.33399365 1.91189882"
                     fill="#626262" />
                </g>
                <g
                   id="groove-1-copy-18"
                   transform="translate(167.280657, 170.843427) rotate(-63.000000) translate(-167.280657, -170.843427) translate(158.644753, 118.596750)">
                  <polygon
                     id="polygon177"
                     points="16.8775068 8.11918013 11.1292478 104.027166 0.386770287 97.1126097 5.53026412 0.544538947"
                     fill="#757575" />
                  <polygon
                     id="polygon179"
                     transform="translate(5.804118, 99.997628) scale(-1, 1) translate(-5.804118, -99.997628) "
                     points="0.478987868 104.027166 0.386770287 102.135462 8.98000749 95.9680894 11.2214654 97.1126097"
                     fill="#666666" />
                  <polygon
                     id="polygon181"
                     points="2.62822817 95.9680894 0.386770287 97.1126097 5.53026412 0.544538947 7.33399365 1.91189882"
                     fill="#626262" />
                </g>
                <g
                   id="groove-1-copy-19"
                   transform="translate(199.265487, 152.252585) rotate(-63.000000) translate(-199.265487, -152.252585) translate(190.629583, 100.005908)">
                  <polygon
                     id="polygon184"
                     points="16.8775068 8.11918013 11.1292478 104.027166 0.386770287 97.1126097 5.53026412 0.544538947"
                     fill="#757575" />
                  <polygon
                     id="polygon186"
                     transform="translate(5.804118, 99.997628) scale(-1, 1) translate(-5.804118, -99.997628) "
                     points="0.478987868 104.027166 0.386770287 102.135462 8.98000749 95.9680894 11.2214654 97.1126097"
                     fill="#666666" />
                  <polygon
                     id="polygon188"
                     points="2.62822817 95.9680894 0.386770287 97.1126097 5.53026412 0.544538947 7.33399365 1.91189882"
                     fill="#626262" />
                </g>
                <g
                   id="groove-1-copy-20"
                   transform="translate(236.367889, 130.456425) rotate(-63.000000) translate(-236.367889, -130.456425) translate(227.731985, 78.209749)">
                  <polygon
                     id="polygon191"
                     points="16.8775068 8.11918013 11.1292478 104.027166 0.386770287 97.1126097 5.53026412 0.544538947"
                     fill="#757575" />
                  <polygon
                     id="polygon193"
                     transform="translate(5.804118, 99.997628) scale(-1, 1) translate(-5.804118, -99.997628) "
                     points="0.478987868 104.027166 0.386770287 102.135462 8.98000749 95.9680894 11.2214654 97.1126097"
                     fill="#666666" />
                  <polygon
                     id="polygon195"
                     points="2.62822817 95.9680894 0.386770287 97.1126097 5.53026412 0.544538947 7.33399365 1.91189882"
                     fill="#626262" />
                </g>
                <g
                   id="groove-1-copy-21"
                   transform="translate(269.632111, 111.865583) rotate(-63.000000) translate(-269.632111, -111.865583) translate(260.996207, 59.618907)">
                  <polygon
                     id="polygon198"
                     points="16.8775068 8.11918013 11.1292478 104.027166 0.386770287 97.1126097 5.53026412 0.544538947"
                     fill="#757575" />
                  <polygon
                     id="polygon200"
                     transform="translate(5.804118, 99.997628) scale(-1, 1) translate(-5.804118, -99.997628) "
                     points="0.478987868 104.027166 0.386770287 102.135462 8.98000749 95.9680894 11.2214654 97.1126097"
                     fill="#666666" />
                  <polygon
                     id="polygon202"
                     points="2.62822817 95.9680894 0.386770287 97.1126097 5.53026412 0.544538947 7.33399365 1.91189882"
                     fill="#626262" />
                </g>
                <g
                   id="groove-1-copy-22"
                   transform="translate(305.455120, 91.351551) rotate(-63.000000) translate(-305.455120, -91.351551) translate(296.819216, 39.104874)">
                  <polygon
                     id="polygon205"
                     points="16.8775068 8.11918013 11.1292478 104.027166 0.386770287 97.1126097 5.53026412 0.544538947"
                     fill="#757575" />
                  <polygon
                     id="polygon207"
                     transform="translate(5.804118, 99.997628) scale(-1, 1) translate(-5.804118, -99.997628) "
                     points="0.478987868 104.027166 0.386770287 102.135462 8.98000749 95.9680894 11.2214654 97.1126097"
                     fill="#666666" />
                  <polygon
                     id="polygon209"
                     points="2.62822817 95.9680894 0.386770287 97.1126097 5.53026412 0.544538947 7.33399365 1.91189882"
                     fill="#626262" />
                </g>
                <g
                   id="groove-1-copy-23"
                   transform="translate(339.359039, 71.478582) rotate(-63.000000) translate(-339.359039, -71.478582) translate(330.723135, 19.231905)">
                  <polygon
                     id="polygon212"
                     points="16.8775068 8.11918013 11.1292478 104.027166 0.386770287 97.1126097 5.53026412 0.544538947"
                     fill="#757575" />
                  <polygon
                     id="polygon214"
                     transform="translate(5.804118, 99.997628) scale(-1, 1) translate(-5.804118, -99.997628) "
                     points="0.478987868 104.027166 0.386770287 102.135462 8.98000749 95.9680894 11.2214654 97.1126097"
                     fill="#666666" />
                  <polygon
                     id="polygon216"
                     points="2.62822817 95.9680894 0.386770287 97.1126097 5.53026412 0.544538947 7.33399365 1.91189882"
                     fill="#626262" />
                </g>
                <g
                   id="groove-1-copy-24"
                   transform="translate(373.262958, 52.246677) rotate(-63.000000) translate(-373.262958, -52.246677) translate(364.627054, 0.000000)">
                  <polygon
                     id="polygon219"
                     points="16.8775068 8.11918013 11.1292478 104.027166 0.386770287 97.1126097 5.53026412 0.544538947"
                     fill="#757575" />
                  <polygon
                     id="polygon221"
                     transform="translate(5.804118, 99.997628) scale(-1, 1) translate(-5.804118, -99.997628) "
                     points="0.478987868 104.027166 0.386770287 102.135462 8.98000749 95.9680894 11.2214654 97.1126097"
                     fill="#666666" />
                  <polygon
                     id="polygon223"
                     points="2.62822817 95.9680894 0.386770287 97.1126097 5.53026412 0.544538947 7.33399365 1.91189882"
                     fill="#626262" />
                </g>
                <g
                   id="groove-1-copy-25"
                   transform="translate(407.806574, 31.732644) rotate(-63.000000) translate(-407.806574, -31.732644) translate(399.170670, -20.514032)">
                  <polygon
                     id="polygon226"
                     points="16.8775068 8.11918013 11.1292478 104.027166 0.386770287 97.1126097 5.53026412 0.544538947"
                     fill="#757575" />
                  <polygon
                     id="polygon228"
                     transform="translate(5.804118, 99.997628) scale(-1, 1) translate(-5.804118, -99.997628) "
                     points="0.478987868 104.027166 0.386770287 102.135462 8.98000749 95.9680894 11.2214654 97.1126097"
                     fill="#666666" />
                  <polygon
                     id="polygon230"
                     points="2.62822817 95.9680894 0.386770287 97.1126097 5.53026412 0.544538947 7.33399365 1.91189882"
                     fill="#626262" />
                </g>
              </g>
              <polygon
                 id="Path-65"
                 transform="translate(51.362163, 327.491581) scale(-1, 1) translate(-51.362163, -327.491581) "
                 points="2.93165797 279.11212 99.7926675 223.151683 99.7926675 376.607516 3.205512 431.831479"
                 fill="#666666" />
              <polygon
                 id="Path-5"
                 points="2.93165797 358.795191 0.271423776 357.379039 2.93165797 356.045372"
                 fill="#B3B4B3" />
              <g
                 id="front-door-copy-3"
                 transform="translate(255.238938, 231.423929) scale(-1, 1) translate(-255.238938, -231.423929) translate(10.874842, 55.772526)">
                <g
                   id="h-groove"
                   transform="translate(408.412210, 247.904033)">
                  <polygon
                     id="Path-26"
                     points="0 21.2402562 37.5522548 0 37.5522548 10.8307249 0 32.0600812"
                     fill="#575757" />
                  <polygon
                     id="Path-27"
                     points="37.5522548 10.8307249 35.9924535 10.0457586 0 30.2035929 0 32.0600812"
                     fill="#333333" />
                  <polygon
                     id="Path-28"
                     points="37.5522548 10.8307249 37.5522548 0 35.9286918 1.03793864 35.9286918 10.0457586"
                     fill="#404040" />
                </g>
                <g
                   id="h-groove-copy"
                   transform="translate(450.632185, 226.107874)">
                  <polygon
                     id="polygon240"
                     points="0.271089179 19.7399847 34.9934685 0 34.9934685 10.8307249 0.271089179 30.5598096"
                     fill="#575757" />
                  <polygon
                     id="polygon242"
                     points="34.9934685 10.8307249 33.4336671 10.0457586 0.384795608 28.456548 0.384795608 30.3130364"
                     fill="#333333" />
                  <polygon
                     id="polygon244"
                     points="34.9934685 10.8307249 34.9934685 0 33.3699054 1.03793864 33.3699054 10.0457586"
                     fill="#404040" />
                </g>
                <g
                   id="h-groove-copy-2"
                   transform="translate(450.632185, 276.751891)">
                  <polygon
                     id="polygon247"
                     points="0.271089179 19.7399847 34.9934685 0 34.9934685 10.8307249 0.271089179 30.5598096"
                     fill="#575757" />
                  <polygon
                     id="polygon249"
                     points="34.9934685 10.8307249 33.4336671 10.0457586 0.382848765 28.592101 0.382848765 30.4485893"
                     fill="#333333" />
                  <polygon
                     id="polygon251"
                     points="34.9934685 10.8307249 34.9934685 0 33.3699054 1.03793864 33.3699054 10.0457586"
                     fill="#404040" />
                </g>
                <g
                   id="h-groove-copy-4"
                   transform="translate(408.412210, 299.189114)">
                  <polygon
                     id="polygon254"
                     points="0 21.2402562 37.5522548 0 37.5522548 10.8307249 0 32.0600812"
                     fill="#575757" />
                  <polygon
                     id="polygon256"
                     points="37.5522548 10.8307249 35.9924535 10.0457586 0 30.2035929 0 32.0600812"
                     fill="#333333" />
                  <polygon
                     id="polygon258"
                     points="37.5522548 10.8307249 37.5522548 0 35.9286918 1.03793864 35.9286918 10.0457586"
                     fill="#404040" />
                </g>
                <polygon
                   id="Path-24"
                   points="405.119827 240.398818 488.728192 192.640015 488.728192 302.364169 405.119827 350.935917"
                   stroke-width="1.27999985"
                   stroke="#4D4D4D" />
                <path
                   d="M448.427307,215.397341 L448.427307,325.660266"
                   id="Path-25"
                   stroke-width="1.27999985"
                   stroke="#4D4D4D" />
              </g>
              <g
                 id="front-door-copy-2"
                 transform="translate(31.345133, 318.608567) scale(-1, 1) translate(-31.345133, -318.608567) translate(12.793932, 251.296898)" />
            </g>
            <g
               id="SEALS"
               transform="translate(408.126422, 259.630724)">
              <g
                 id="rod-1"
                 transform="translate(14.713021, 10.257016)">
                <g
                   id="plate"
                   transform="translate(0.000000, 126.930576)">
                  <polygon
                     id="Path-72"
                     points="1.06376364 6.18702941 0 5.62101032 0 12.3110719 1.06376364 12.9238971"
                     fill="#7A7A7A" />
                  <polygon
                     id="Path-71"
                     points="1.06376364 6.18702941 1.06376364 12.9238971 10.5072149 7.55601081 10.5072149 0.80794517"
                     fill="#ABABAB" />
                  <polygon
                     id="Path-73"
                     points="0 5.62101032 1.06376364 6.18702941 10.5072149 0.80794517 9.40643593 -5.68434189e-14"
                     fill="#969696" />
                </g>
                <g
                   id="plate-copy"
                   transform="translate(0.000000, 4.487445)">
                  <polygon
                     id="polygon270"
                     points="1.06376364 6.18702941 0 5.62101032 0 12.3110719 1.06376364 12.9238971"
                     fill="#7A7A7A" />
                  <polygon
                     id="polygon272"
                     points="1.06376364 6.18702941 1.06376364 12.9238971 10.5072149 7.55601081 10.5072149 0.80794517"
                     fill="#ABABAB" />
                  <polygon
                     id="polygon274"
                     points="0 5.62101032 1.06376364 6.18702941 10.5072149 0.80794517 9.40643593 -5.68434189e-14"
                     fill="#969696" />
                </g>
                <g
                   id="rod"
                   transform="translate(4.477876, 0.000000)">
                  <polygon
                     id="Path-68"
                     points="1.27939317 2.10670073 3.35104992 0.917315088 3.35104992 143.762551 1.27939317 144.880355"
                     fill="#E6E6E6" />
                  <polygon
                     id="Path-69"
                     points="1.27939317 2.10670073 0 1.64697012 0 144.140201 1.27939317 144.880355"
                     fill="#C7C7C7" />
                  <polygon
                     id="Path-70"
                     points="0 1.64697012 1.27939317 2.10670073 3.35104992 0.917315088 2.1558522 0.540241224"
                     fill="#B3B3B3" />
                </g>
              </g>
              <g
                 id="rod-1-copy"
                 transform="translate(30.705436, 0.000000)">
                <g
                   id="g288"
                   transform="translate(0.000000, 127.571640)">
                  <polygon
                     id="polygon282"
                     points="1.06376364 6.18702941 0 5.62101032 0 12.3110719 1.06376364 12.9238971"
                     fill="#7A7A7A" />
                  <polygon
                     id="polygon284"
                     points="1.06376364 6.18702941 1.06376364 12.9238971 10.5072149 7.55601081 10.5072149 0.80794517"
                     fill="#ABABAB" />
                  <polygon
                     id="polygon286"
                     points="0 5.62101032 1.06376364 6.18702941 10.5072149 0.80794517 9.40643593 -5.68434189e-14"
                     fill="#969696" />
                </g>
                <g
                   id="g296"
                   transform="translate(0.000000, 5.128508)">
                  <polygon
                     id="polygon290"
                     points="1.06376364 6.18702941 0 5.62101032 0 12.3110719 1.06376364 12.9238971"
                     fill="#7A7A7A" />
                  <polygon
                     id="polygon292"
                     points="1.06376364 6.18702941 1.06376364 12.9238971 10.5072149 7.55601081 10.5072149 0.80794517"
                     fill="#ABABAB" />
                  <polygon
                     id="polygon294"
                     points="0 5.62101032 1.06376364 6.18702941 10.5072149 0.80794517 9.40643593 -5.68434189e-14"
                     fill="#969696" />
                </g>
                <g
                   id="g304"
                   transform="translate(4.477876, 0.000000)">
                  <polygon
                     id="polygon298"
                     points="1.27939317 2.10670073 3.35104992 0.917315088 3.35104992 143.762551 1.27939317 144.880355"
                     fill="#E6E6E6" />
                  <polygon
                     id="polygon300"
                     points="1.27939317 2.10670073 0 1.64697012 0 144.140201 1.27939317 144.880355"
                     fill="#C7C7C7" />
                  <polygon
                     id="polygon302"
                     points="0 1.64697012 1.27939317 2.10670073 3.35104992 0.917315088 2.1558522 0.540241224"
                     fill="#B3B3B3" />
                </g>
              </g>
              <g
                 id="HINGE"
                 transform="translate(0.000000, 37.181684)">
                <polygon
                   id="polygon307"
                   points="1.06376364 6.18702941 0 5.62101032 0 9.30850146 1.06376364 9.92132671"
                   fill="#7A7A7A" />
                <polygon
                   id="polygon309"
                   points="1.06376364 6.18702941 1.06376364 9.92132671 10.5072149 4.55344039 10.5072149 0.80794517"
                   fill="#ABABAB" />
                <polygon
                   id="polygon311"
                   points="0 5.62101032 1.06376364 6.18702941 10.5072149 0.80794517 9.40643593 -5.68434189e-14"
                   fill="#969696" />
              </g>
              <g
                 id="HINGE-Copy"
                 transform="translate(0.000000, 134.623338)">
                <polygon
                   id="polygon314"
                   points="1.06376364 6.18702941 0 5.62101032 0 9.30850146 1.06376364 9.92132671"
                   fill="#7A7A7A" />
                <polygon
                   id="polygon316"
                   points="1.06376364 6.18702941 1.06376364 9.92132671 10.5072149 4.55344039 10.5072149 0.80794517"
                   fill="#ABABAB" />
                <polygon
                   id="polygon318"
                   points="0 5.62101032 1.06376364 6.18702941 10.5072149 0.80794517 9.40643593 -5.68434189e-14"
                   fill="#969696" />
              </g>
              <g
                 id="HINGE-PLATES"
                 transform="translate(26.273951, 116.452565)">
                <path
                   d="M10.2169745,1.67000349 L8.90936135,1.28212703 C4.24971571,4.58888883 1.41770646,6.82926619 0.413333603,8.0032591 C-0.241670571,8.72945694 -0.118192549,9.18915561 0.783767667,9.38235512"
                   id="Path-75"
                   fill="#D8D8D8" />
                <path
                   d="M10.1887545,1.67000349 C3.69814799,6.06150516 0.452844722,8.570132 0.452844722,9.19588402 C0.452844722,9.82163604 3.70755464,9.10603727 10.2169745,7.04908773 L10.1887545,1.67000349 Z"
                   id="Path-74"
                   fill="#E6E6E6" />
                <path
                   d="M6.6704233,0.541526561 L6.6704233,10.7985428"
                   id="Path-80"
                   stroke-width="0.639999924"
                   stroke="#979797" />
              </g>
            </g>
            <g
               id="SEALS-2"
               transform="translate(456.743363, 240.398818)">
              <g
                 id="rod-1-copy-3"
                 transform="translate(0.000000, 8.974889)">
                <g
                   id="g332"
                   transform="translate(0.000000, 127.571640)">
                  <polygon
                     id="polygon326"
                     points="1.06376364 6.18702941 0 5.62101032 0 12.3110719 1.06376364 12.9238971"
                     fill="#7A7A7A" />
                  <polygon
                     id="polygon328"
                     points="1.06376364 6.18702941 1.06376364 12.9238971 10.5072149 7.55601081 10.5072149 0.80794517"
                     fill="#ABABAB" />
                  <polygon
                     id="polygon330"
                     points="0 5.62101032 1.06376364 6.18702941 10.5072149 0.80794517 9.40643593 -5.68434189e-14"
                     fill="#969696" />
                </g>
                <g
                   id="g340"
                   transform="translate(0.000000, 5.128508)">
                  <polygon
                     id="polygon334"
                     points="1.06376364 6.18702941 0 5.62101032 0 12.3110719 1.06376364 12.9238971"
                     fill="#7A7A7A" />
                  <polygon
                     id="polygon336"
                     points="1.06376364 6.18702941 1.06376364 12.9238971 10.5072149 7.55601081 10.5072149 0.80794517"
                     fill="#ABABAB" />
                  <polygon
                     id="polygon338"
                     points="0 5.62101032 1.06376364 6.18702941 10.5072149 0.80794517 9.40643593 -5.68434189e-14"
                     fill="#969696" />
                </g>
                <g
                   id="g348"
                   transform="translate(4.477876, 0.000000)">
                  <polygon
                     id="polygon342"
                     points="1.27939317 2.10670073 3.35104992 0.917315088 3.35104992 143.762551 1.27939317 144.880355"
                     fill="#E6E6E6" />
                  <polygon
                     id="polygon344"
                     points="1.27939317 2.10670073 0 1.64697012 0 144.140201 1.27939317 144.880355"
                     fill="#C7C7C7" />
                  <polygon
                     id="polygon346"
                     points="0 1.64697012 1.27939317 2.10670073 3.35104992 0.917315088 2.1558522 0.540241224"
                     fill="#B3B3B3" />
                </g>
              </g>
              <g
                 id="rod-1-copy-2"
                 transform="translate(15.992415, 0.000000)">
                <g
                   id="g357"
                   transform="translate(0.000000, 127.571640)">
                  <polygon
                     id="polygon351"
                     points="1.06376364 6.18702941 0 5.62101032 0 12.3110719 1.06376364 12.9238971"
                     fill="#7A7A7A" />
                  <polygon
                     id="polygon353"
                     points="1.06376364 6.18702941 1.06376364 12.9238971 10.5072149 7.55601081 10.5072149 0.80794517"
                     fill="#ABABAB" />
                  <polygon
                     id="polygon355"
                     points="0 5.62101032 1.06376364 6.18702941 10.5072149 0.80794517 9.40643593 -5.68434189e-14"
                     fill="#969696" />
                </g>
                <g
                   id="g365"
                   transform="translate(0.000000, 5.128508)">
                  <polygon
                     id="polygon359"
                     points="1.06376364 6.18702941 0 5.62101032 0 12.3110719 1.06376364 12.9238971"
                     fill="#7A7A7A" />
                  <polygon
                     id="polygon361"
                     points="1.06376364 6.18702941 1.06376364 12.9238971 10.5072149 7.55601081 10.5072149 0.80794517"
                     fill="#ABABAB" />
                  <polygon
                     id="polygon363"
                     points="0 5.62101032 1.06376364 6.18702941 10.5072149 0.80794517 9.40643593 -5.68434189e-14"
                     fill="#969696" />
                </g>
                <g
                   id="g373"
                   transform="translate(4.477876, 0.000000)">
                  <polygon
                     id="polygon367"
                     points="1.27939317 2.10670073 3.35104992 0.917315088 3.35104992 143.762551 1.27939317 144.880355"
                     fill="#E6E6E6" />
                  <polygon
                     id="polygon369"
                     points="1.27939317 2.10670073 0 1.64697012 0 144.140201 1.27939317 144.880355"
                     fill="#C7C7C7" />
                  <polygon
                     id="polygon371"
                     points="0 1.64697012 1.27939317 2.10670073 3.35104992 0.917315088 2.1558522 0.540241224"
                     fill="#B3B3B3" />
                </g>
              </g>
              <g
                 id="HINGE-Copy-3"
                 transform="translate(31.984829, 10.898080)">
                <polygon
                   id="polygon376"
                   points="1.06376364 6.18702941 0 5.62101032 0 9.30850146 1.06376364 9.92132671"
                   fill="#7A7A7A" />
                <polygon
                   id="polygon378"
                   points="1.06376364 6.18702941 1.06376364 9.92132671 10.5072149 4.55344039 10.5072149 0.80794517"
                   fill="#ABABAB" />
                <polygon
                   id="polygon380"
                   points="0 5.62101032 1.06376364 6.18702941 10.5072149 0.80794517 9.40643593 -5.68434189e-14"
                   fill="#969696" />
              </g>
              <g
                 id="HINGE-Copy-2"
                 transform="translate(31.984829, 108.339734)">
                <polygon
                   id="polygon383"
                   points="1.06376364 6.18702941 0 5.62101032 0 9.30850146 1.06376364 9.92132671"
                   fill="#7A7A7A" />
                <polygon
                   id="polygon385"
                   points="1.06376364 6.18702941 1.06376364 9.92132671 10.5072149 4.55344039 10.5072149 0.80794517"
                   fill="#ABABAB" />
                <polygon
                   id="polygon387"
                   points="0 5.62101032 1.06376364 6.18702941 10.5072149 0.80794517 9.40643593 -5.68434189e-14"
                   fill="#969696" />
              </g>
              <g
                 id="HINGE-PLATES-Copy"
                 transform="translate(11.514539, 117.955687)">
                <path
                   d="M10.2351454,0.369420283 L8.95575221,-1.26121336e-13 C4.26517933,3.3067618 1.41770646,5.54713916 0.413333603,6.72113207 C-0.241670571,7.44732991 -0.118192549,7.90702858 0.783767667,8.10022808 L10.2351454,0.369420283 Z"
                   id="path390"
                   fill="#D8D8D8" />
                <path
                   d="M10.2351454,0.369420283 C3.71361161,4.77322607 0.452844722,7.28800497 0.452844722,7.91375699 C0.452844722,8.53950901 3.72301826,7.81775818 10.2633653,5.74850453 L10.2351454,0.369420283 Z"
                   id="path392"
                   fill="#E6E6E6" />
                <path
                   d="M6.39696587,0 L6.39696587,8.97488922"
                   id="Path-79"
                   stroke-width="0.639999924"
                   stroke="#979797" />
              </g>
              <g
                 id="hinge-plate-2"
                 transform="translate(7.651831, 95.337822)">
                <path
                   d="M9.00608878,3.77318188 C9.33965865,2.97963058 9.11782373,2.5046089 8.34058402,2.34811683 C7.08809562,2.16385081 4.36693274,2.48845448 0.177095376,3.32192784 L0.177095376,4.20082387 L9.00608878,3.77318188 Z"
                   id="Path-77"
                   fill="#D8D8D8" />
                <path
                   d="M0.177095376,4.20082387 C6.20624042,2.285125 9.25166525,1.96799996 9.31336986,3.24944874 C9.31336986,4.12193104 6.20891324,6.13695298 2.63788991e-13,9.29451455 L0.177095376,4.20082387 Z"
                   id="Path-76"
                   fill="#E6E6E6" />
                <path
                   d="M2.8553842,1.13686838e-13 L3.22301132,9.57356692"
                   id="Path-78"
                   stroke-width="0.639999924"
                   stroke="#979797" />
              </g>
            </g>
          </g>
        </g>
        <text
           id="Seals"
           font-size="13"
           font-weight="500"
           x="-19.829699"
           y="-2.7529781"
           style="font-weight:500;font-size:13px;fill:#ffffff">
          <tspan
             x="550.17035"
             y="504.24704"
             id="tspan403">Special Stow</tspan>
        </text>
        <g
           id="Oval-Copy-2">
          <use
             xlink:href="#path-2"
             id="use406"
             filter="url(#filter-3)"
             fill-opacity="1"
             fill="black" />
          <use
             xlink:href="#path-2"
             id="use408"
             stroke-width="3"
             stroke="#FFFFFF"
             fill-rule="evenodd"
             fill-opacity="0.1"
             fill="#FFFFFF" />
        </g>
        <path
           d="M507.110553,474.635754 C498.863083,421.603149 522.73323,390.253816 539.206767,380.742816"
           id="Path-3-Copy-2"
           transform="translate(522.316724, 427.689285) scale(-1, 1) rotate(-150.000000) translate(-522.316724, -427.689285) "
           stroke-dasharray="5"
           stroke-linejoin="round"
           stroke-linecap="round"
           stroke-width="2"
           stroke="#FFFFFF" />
        <g
           style="fill:#ffffff"
           transform="translate(509.09046,443.63957)"
           id="special-stow-icon">
          <polygon
             points="12.746341,14.21 12.746341,7.3144444 7.0073171,4.2855556 6.2146342,3.8666667 6.2146342,10.73 "
             id="polygon422"
             transform="translate(64.813889,0.70195548)" />
          <polygon
             points="13.253659,7.3144444 13.253659,14.21 19.785366,10.73 19.785366,3.8666667 18.992683,4.2855556 "
             id="polygon424"
             transform="translate(64.813889,0.70195548)" />
          <polygon
             points="19.5,3.4477778 13,0 6.5,3.4477778 13,6.8955556 "
             id="polygon426"
             transform="translate(64.813889,0.70195548)" />
          <path
             inkscape:connector-curvature="0"
             id="path428"
             d="m 73.43828,15.814177 -2.473171,-2.803333 c -0.443902,-0.515556 -1.109756,-0.708889 -1.77561,-0.547778 l -0.602439,0.161111 c -0.190244,0.03222 -0.34878,0.161111 -0.443902,0.322222 -0.03171,0.03222 -0.06342,0.09667 -0.06342,0.128889 -0.06341,0.257778 -0.03171,0.515556 0.158536,0.676667 l 3.329269,3.737778 c 0,0 0,0 0,0 0.09512,0.09667 0.09512,0.257778 -0.03171,0.354444 -0.06342,0.03222 -0.09512,0.06444 -0.158537,0.06444 -0.06341,5e-6 -0.126829,-0.03222 -0.190244,-0.09666 l -3.329268,-3.673333 c -0.285366,-0.322223 -0.380488,-0.773334 -0.253659,-1.192223 0.06341,-0.225555 0.190244,-0.386666 0.317074,-0.547777 V 7.6297333 c 0,-0.7733334 -0.412196,-1.4822222 -1.078049,-1.8366667 l -0.539025,-0.29 C 65.669987,5.1486222 64.877304,5.6319555 64.877304,6.3408444 v 8.6033326 1.16 c 0,1.836667 1.426829,4.575556 3.170732,5.477778 0.697561,0.354444 1.141463,1.127778 1.141463,1.933333 v 6.186667 h 6.214634 v -7.83 -2.158889 c 0,-1.611111 -0.792683,-3.028889 -1.965853,-3.898889 z" />
          <path
             inkscape:connector-curvature="0"
             id="path430"
             d="m 89.291938,5.4708444 -0.539025,0.29 C 88.08706,6.1152888 87.674865,6.8241777 87.674865,7.5975111 v 4.8011109 c 0.158536,0.128889 0.253658,0.322222 0.317073,0.547777 0.126829,0.418889 0.03171,0.87 -0.253659,1.192223 l -3.297561,3.737777 c -0.06341,0.06444 -0.126829,0.09667 -0.190244,0.09667 -0.06341,0 -0.126829,-0.03222 -0.158536,-0.06444 -0.09512,-0.09667 -0.09512,-0.257778 -0.03171,-0.354445 0,0 0,0 0,0 l 3.329269,-3.737778 c 0.158536,-0.193333 0.221951,-0.451111 0.158536,-0.676666 -0.03171,-0.06444 -0.03171,-0.09667 -0.06341,-0.128889 -0.09512,-0.161111 -0.253659,-0.29 -0.443903,-0.322222 l -0.602441,-0.128896 c -0.634146,-0.161111 -1.331707,0.06444 -1.77561,0.547778 l -2.504878,2.771111 c -1.204878,0.87 -1.965853,2.287777 -1.965853,3.866666 v 2.158889 7.797778 h 6.214634 v -6.218889 c 0,-0.805555 0.412195,-1.578889 1.141463,-1.933333 1.712195,-0.902222 3.170732,-3.641111 3.170732,-5.477778 v -1.16 -8.5711106 c 0,-0.7411111 -0.792683,-1.2244445 -1.426829,-0.87 z" />
        </g>
        <g
           id="Group-4"
           transform="translate(582.000000, 444.000000)"
           fill="#FFFFFF" />
      </g>
    </g>
  </g>
</svg>
