<?xml version="1.0" encoding="UTF-8"?>
<svg width="82px" height="82px" viewBox="0 0 82 82" version="1.1" xmlns="http://www.w3.org/2000/svg" xmlns:xlink="http://www.w3.org/1999/xlink">
    <!-- Generator: sketchtool 52.5 (67469) - http://www.bohemiancoding.com/sketch -->
    <title>E523150C-23D8-45A3-952A-B8DED3A8769D</title>
    <desc>Created with sketchtool.</desc>
    <g id="Reefer" stroke="none" stroke-width="1" fill="none" fill-rule="evenodd">
        <g id="18.Reefer_HLT_Right_AnoDam_Start-Copy" transform="translate(-465.000000, -456.000000)">
            <g id="Group-19" transform="translate(467.000000, 458.000000)">
                <circle id="Oval" stroke="#FFFFFF" stroke-width="3" fill-opacity="0.232408217" fill="#343434" cx="39" cy="39" r="39"></circle>
                <g id="noun_tap_1793869" transform="translate(19.000000, 3.000000)" fill="#FFFFFF" fill-rule="nonzero">
                    <g id="Group">
                        <path d="M40.2402009,27.9006006 C40.2402009,25.4436006 38.2200009,23.4234005 35.7630008,23.4234005 C34.8348008,23.4234005 33.9066008,23.6964005 33.1968008,24.2424006 C32.5416007,22.6044005 30.9036007,21.4032005 29.0472007,21.4032005 C28.1190006,21.4032005 27.1908006,21.6762005 26.4810006,22.2222005 C25.8258006,20.5842005 24.1878005,19.3830004 22.3314005,19.3830004 C21.5124005,19.3830004 20.7480005,19.6014004 20.0928005,19.9836005 L20.0928005,9.66420022 C20.0928005,8.46300019 19.6014004,7.31640017 18.7824004,6.49740015 C17.9088004,5.67840013 16.8168004,5.18700012 15.6156004,5.18700012 C15.6156004,5.18700012 15.6156004,5.18700012 15.6156004,5.18700012 C13.1586003,5.18700012 11.1384003,7.20720016 11.1384003,9.66420022 L11.1384003,32.7600007 L8.02620018,29.6478007 C6.49740015,28.1190006 4.09500009,27.9006006 2.29320005,29.1018007 C1.25580003,29.8116007 0.546000012,30.9582007 0.327600007,32.2140007 C0.163800004,33.4698008 0.491400011,34.7802008 1.31040003,35.7630008 L10.5378002,46.9014011 C13.3224003,50.2320011 17.3628004,52.1976012 21.7308005,52.1976012 L27.4638006,52.1976012 C30.9036007,52.1976012 34.1250008,50.8872012 36.5820008,48.4302011 C38.9844009,46.027801 40.3494009,42.751801 40.3494009,39.3120009 L40.2402009,27.9006006 Z M34.8894008,46.7922011 C32.8692007,48.8124011 30.1938007,49.9044011 27.3546006,49.9044011 L21.6216005,49.9044011 C17.9634004,49.9044011 14.4690003,48.2664011 12.1212003,45.427201 L2.94840007,34.2888008 C2.51160006,33.7974008 2.34780005,33.1422008 2.45700006,32.4870007 C2.56620006,31.8318007 2.89380007,31.2858007 3.43980008,30.9036007 C3.82200009,30.6306007 4.2588001,30.5214007 4.75020011,30.5214007 C5.35080012,30.5214007 5.95140014,30.7398007 6.38820015,31.1766007 L10.1010002,34.8348008 C10.6470002,35.3808008 11.4660003,35.5446008 12.1758003,35.2170008 C12.8856003,34.9440008 13.3224003,34.2342008 13.3224003,33.4698008 L13.3224003,9.66420022 C13.3224003,8.40840019 14.3052003,7.42560017 15.5610004,7.42560017 C15.5610004,7.42560017 15.5610004,7.42560017 15.5610004,7.42560017 C16.1616004,7.42560017 16.7076004,7.64400017 17.1444004,8.08080018 C17.5812004,8.51760019 17.7996004,9.06360021 17.7996004,9.66420022 L17.7996004,26.0988006 C17.7996004,26.6994006 18.2910004,27.1908006 18.8916004,27.1908006 C19.4922004,27.1908006 19.9836005,26.6994006 19.9836005,26.0988006 L19.9836005,23.8602005 C19.9836005,22.6044005 20.9664005,21.6216005 22.2222005,21.6216005 C23.4780005,21.6216005 24.4608006,22.6044005 24.4608006,23.8602005 L24.4608006,28.1190006 C24.4608006,28.7196007 24.9522006,29.2110007 25.5528006,29.2110007 C26.1534006,29.2110007 26.6448006,28.7196007 26.6448006,28.1190006 L26.6448006,25.8804006 C26.6448006,24.6246006 27.6276006,23.6418005 28.8834007,23.6418005 C30.1392007,23.6418005 31.1220007,24.6246006 31.1220007,25.8804006 L31.1220007,30.1392007 C31.1220007,30.7398007 31.6134007,31.2312007 32.2140007,31.2312007 C32.8146007,31.2312007 33.3060008,30.7398007 33.3060008,30.1392007 L33.3060008,28.0644006 C33.3060008,28.0098006 33.3060008,27.9552006 33.3060008,27.9006006 C33.3060008,26.6448006 34.2888008,25.6620006 35.5446008,25.6620006 C36.8004008,25.6620006 37.7832009,26.6448006 37.7832009,27.9006006 L37.7832009,39.3120009 C38.0016009,42.096601 36.9096008,44.772001 34.8894008,46.7922011 Z" id="Shape"></path>
                        <path d="M7.26180016,10.8108002 C7.86240018,10.8108002 8.35380019,10.3194002 8.35380019,9.71880022 C8.35380019,5.78760013 11.5752003,2.56620006 15.5064004,2.56620006 C19.4376004,2.56620006 22.6590005,5.78760013 22.6590005,9.71880022 C22.6590005,10.3194002 23.1504005,10.8108002 23.7510005,10.8108002 C24.3516006,10.8108002 24.8430006,10.3194002 24.8430006,9.71880022 C24.8430006,4.5318001 20.6388005,0.327600007 15.4518004,0.327600007 C10.2648002,0.327600007 6.06060014,4.5318001 6.06060014,9.71880022 C6.11520014,10.2648002 6.66120015,10.8108002 7.26180016,10.8108002 Z" id="Path"></path>
                    </g>
                </g>
            </g>
        </g>
    </g>
</svg>