<?xml version="1.0" encoding="UTF-8" standalone="no"?>
<svg
   xmlns:dc="http://purl.org/dc/elements/1.1/"
   xmlns:cc="http://creativecommons.org/ns#"
   xmlns:rdf="http://www.w3.org/1999/02/22-rdf-syntax-ns#"
   xmlns:svg="http://www.w3.org/2000/svg"
   xmlns="http://www.w3.org/2000/svg"
   xmlns:sodipodi="http://sodipodi.sourceforge.net/DTD/sodipodi-0.dtd"
   xmlns:inkscape="http://www.inkscape.org/namespaces/inkscape"
   width="82"
   height="105"
   viewBox="0 0 82 105"
   version="1.1"
   id="svg17"
   sodipodi:docname="top_inactive.svg"
   inkscape:version="0.92.3 (2405546, 2018-03-11)">
  <metadata
     id="metadata23">
    <rdf:RDF>
      <cc:Work
         rdf:about="">
        <dc:format>image/svg+xml</dc:format>
        <dc:type
           rdf:resource="http://purl.org/dc/dcmitype/StillImage" />
        <dc:title>4024FD9B-4802-456A-B72E-941D66915E3D</dc:title>
      </cc:Work>
    </rdf:RDF>
  </metadata>
  <defs
     id="defs21" />
  <sodipodi:namedview
     pagecolor="#000000"
     bordercolor="#666666"
     borderopacity="1"
     objecttolerance="10"
     gridtolerance="10"
     guidetolerance="10"
     inkscape:pageopacity="0"
     inkscape:pageshadow="2"
     inkscape:window-width="1920"
     inkscape:window-height="997"
     id="namedview19"
     showgrid="false"
     inkscape:zoom="3.6231203"
     inkscape:cx="65.139312"
     inkscape:cy="83.961456"
     inkscape:window-x="0"
     inkscape:window-y="25"
     inkscape:window-maximized="1"
     inkscape:current-layer="svg17" />
  <!-- Generator: sketchtool 52.5 (67469) - http://www.bohemiancoding.com/sketch -->
  <title
     id="title2">4024FD9B-4802-456A-B72E-941D66915E3D</title>
  <desc
     id="desc4">Created with sketchtool.</desc>
  <g
     id="2-container-3-forms"
     style="fill:none;fill-rule:evenodd;stroke:none;stroke-width:1"
     transform="translate(1.8928549,2.0440683)">
    <g
       id="14.Dry1_HLT_Door_Damfrm_fill-Copy"
       transform="translate(-689,-645)">
      <g
         id="Group-15"
         transform="translate(257,644)">
        <g
           id="Group-14">
          <g
             id="Group-12"
             transform="translate(432,1)">
            <circle
               id="Oval"
               cx="39"
               cy="39"
               r="39"
               style="fill:#ffffff;fill-opacity:0.38865823" />
            <g
               id="noun_container_180474"
               transform="matrix(1,0,0,-1,12,64)"
               style="fill-rule:nonzero">
              <g
                 id="Group">
                <path
                   d="M 51.61051,44.175871 C 30.704033,34.217807 20.248676,29.239828 20.244441,29.241935 L 2.3880188,37.145161 C 2.38246,37.147532 35.245518,47.864306 35.2479,47.863516 46.155777,45.408247 51.60998,44.179032 51.61051,44.175871 Z"
                   id="Shape"
                   inkscape:connector-curvature="0"
                   style="opacity:0.5;fill:#787878" />
                <path
                   d="m 51.535853,22.085564 c -0.0048,-0.04821 -0.01906,-0.09405 -0.04288,-0.136725 -0.02382,-0.04505 -0.05718,-0.08377 -0.09688,-0.115387 L 50.851323,21.396403 24.569206,0.31059677 c -0.01747,-0.0102742 -0.03574,-0.0197581 -0.05479,-0.0284516 -0.02065,-0.008694 -0.03971,-0.0189677 -0.06115,-0.0237097 -0.02303,-0.005532 -0.04685,-0.004742 -0.07068,-0.005532 -0.02382,-7.9033e-4 -0.04685,-0.002371 -0.07068,7.9032e-4 -0.02144,0.003952 -0.04129,0.0118548 -0.06194,0.0189677 -0.02541,0.008694 -0.05003,0.0173871 -0.07306,0.0316129 -0.0056,0.003161 -0.01271,0.003952 -0.01747,0.007903 L 7.4829706,11.786081 c -0.015088,0.0095 -0.022235,0.0245 -0.034941,0.03556 -0.019059,0.0166 -0.037324,0.03319 -0.052412,0.05453 -0.015882,0.02134 -0.025412,0.04505 -0.035735,0.06876 -0.00635,0.01581 -0.017471,0.02766 -0.022235,0.04347 L 0.11991176,37.260548 c -0.05479411,0.192049 0.0547941,0.389629 0.24379412,0.450484 L 35.084912,48.960484 c 0.03653,0.01027 0.07465,0.01818 0.114353,0.01818 0.027,0 0.05479,-0.0032 0.08179,-0.0087 l 18.348088,-4.09071 c 0.01747,-0.004 0.03177,-0.01581 0.04844,-0.02134 0.02382,-0.0087 0.04685,-0.0166 0.0675,-0.03003 0.02065,-0.01264 0.03732,-0.02924 0.054,-0.04505 0.01747,-0.0166 0.03415,-0.03161 0.04844,-0.05058 0.01429,-0.01897 0.02303,-0.04031 0.03335,-0.06244 0.01032,-0.02134 0.01985,-0.0411 0.02541,-0.06481 0.0064,-0.0245 0.0064,-0.049 0.0071,-0.07429 0,-0.01739 0.0064,-0.03319 0.0048,-0.05137 z M 50.247,20.911145 33.503824,7.4740807 Z M 33.240971,7.2630645 25.859647,1.3388065 Z M 25.515,1.0621935 24.787588,0.47893548 Z M 8.0126471,12.319548 24.147529,1.2178871 20.148353,28.412887 0.96326471,37.001323 Z M 35.218323,48.225484 1.1625882,37.196532 20.265088,28.645242 52.805647,44.303903 Z M 20.409618,28.426323 24.423088,1.1364839 50.813206,22.316339 53.138382,44.175871 Z"
                   id="path8"
                   inkscape:connector-curvature="0"
                   style="opacity:0.8;fill:#000000" />
              </g>
            </g>
          </g>
        </g>
      </g>
    </g>
  </g>
  <text
     y="-4.6262946"
     x="-431.26093"
     style="font-weight:bold;font-size:12px;font-family:Inter-Bold, Inter;letter-spacing:0.00375;opacity:0.5;fill:#ffffff"
     id="Top"
     font-size="12"
     font-weight="bold"
     letter-spacing="0.00375">
    <tspan
       x="29.739056"
       y="103.3737"
       id="tspan74">TOP</tspan>
  </text>
</svg>
