<?xml version="1.0" encoding="UTF-8" standalone="no"?>
<svg
   xmlns:dc="http://purl.org/dc/elements/1.1/"
   xmlns:cc="http://creativecommons.org/ns#"
   xmlns:rdf="http://www.w3.org/1999/02/22-rdf-syntax-ns#"
   xmlns:svg="http://www.w3.org/2000/svg"
   xmlns="http://www.w3.org/2000/svg"
   xmlns:sodipodi="http://sodipodi.sourceforge.net/DTD/sodipodi-0.dtd"
   xmlns:inkscape="http://www.inkscape.org/namespaces/inkscape"
   width="83"
   height="105"
   viewBox="0 0 83 105"
   version="1.1"
   id="svg82"
   sodipodi:docname="top_active.svg"
   inkscape:version="0.92.3 (2405546, 2018-03-11)">
  <metadata
     id="metadata88">
    <rdf:RDF>
      <cc:Work
         rdf:about="">
        <dc:format>image/svg+xml</dc:format>
        <dc:type
           rdf:resource="http://purl.org/dc/dcmitype/StillImage" />
        <dc:title>DF083848-6794-4038-B576-3E9E82D7536B</dc:title>
      </cc:Work>
    </rdf:RDF>
  </metadata>
  <defs
     id="defs86" />
  <sodipodi:namedview
     pagecolor="#000000"
     bordercolor="#666666"
     borderopacity="1"
     objecttolerance="10"
     gridtolerance="10"
     guidetolerance="10"
     inkscape:pageopacity="0"
     inkscape:pageshadow="2"
     inkscape:window-width="1920"
     inkscape:window-height="997"
     id="namedview84"
     showgrid="false"
     inkscape:zoom="4.4130433"
     inkscape:cx="-18.286939"
     inkscape:cy="54.284624"
     inkscape:window-x="0"
     inkscape:window-y="25"
     inkscape:window-maximized="1"
     inkscape:current-layer="svg82" />
  <g
     id="Reefer"
     transform="translate(-431.27365,-1.4075491)"
     style="fill:none;fill-rule:evenodd;stroke:none;stroke-width:1">
    <g
       id="25.Reefer_HLT_Top_Damfrm_empty-Copy"
       transform="translate(-255,-642)">
      <g
         id="Group-5"
         transform="translate(257,644)">
        <g
           id="Group-3">
          <g
             id="Group-17"
             transform="translate(11,10)"
             style="opacity:0.2;fill-rule:nonzero" />
        </g>
        <g
           id="Group-7"
           transform="translate(108)">
          <g
             id="Group-6"
             transform="matrix(-1,0,0,1,78,0)">
            <g
               id="Group-16"
               transform="translate(12,14)"
               style="opacity:0.5;fill-rule:nonzero">
              <g
                 id="noun_container_180474">
                <g
                   id="Group" />
              </g>
            </g>
          </g>
        </g>
        <g
           id="Group-10"
           transform="translate(216)">
          <g
             id="Group-8"
             transform="translate(16,15)"
             style="opacity:0.5;fill-rule:nonzero" />
        </g>
        <g
           id="Group-11"
           transform="translate(324)">
          <g
             id="Group-2"
             transform="translate(12,14)"
             style="opacity:0.2;fill:#ffffff">
            <g
               id="g47"
               style="fill-rule:nonzero">
              <g
                 id="g45" />
            </g>
          </g>
        </g>
        <g
           id="Group-4"
           transform="translate(239,96)"
           font-size="12"
           font-weight="bold"
           letter-spacing="0.00375"
           style="font-weight:bold;font-size:12px;font-family:Inter-Bold, Inter;letter-spacing:0.00375;opacity:0.5;fill:#ffffff" />
        <g
           id="Group-23-Copy"
           transform="translate(432,2)">
          <circle
             id="circle72"
             cx="39"
             cy="39"
             r="39"
             style="fill:#545961;fill-opacity:0.51999996;stroke:#ffffff;stroke-width:2.4000001" />
          <path
             d="M 63.61051,31.07042 C 42.704033,21.112355 32.248677,16.134377 32.244441,16.136485 L 14.388019,24.03971 c -0.0056,0.0024 32.857499,10.719146 32.859881,10.718355 10.907877,-2.455269 16.36208,-3.684484 16.36261,-3.687645 z"
             id="path74"
             transform="matrix(1,0,0,-1,0,50.89455)"
             inkscape:connector-curvature="0"
             style="fill:#ffffff;fill-rule:nonzero" />
          <path
             d="m 63.535853,36.85526 c -0.0048,-0.04821 -0.01906,-0.09405 -0.04288,-0.136726 -0.02382,-0.04505 -0.05718,-0.08377 -0.09688,-0.115387 L 62.851323,36.166099 36.569206,15.080292 c -0.01747,-0.01027 -0.03574,-0.01976 -0.05479,-0.02845 -0.02065,-0.0087 -0.03971,-0.01897 -0.06115,-0.02371 -0.02303,-0.0055 -0.04685,-0.0047 -0.07068,-0.0055 -0.02382,-7.91e-4 -0.04685,-0.0024 -0.07068,7.9e-4 -0.02144,0.004 -0.04129,0.01186 -0.06194,0.01897 -0.02541,0.0087 -0.05003,0.01739 -0.07306,0.03161 -0.0056,0.0032 -0.01271,0.004 -0.01747,0.0079 l -16.67647,11.473903 c -0.01509,0.0095 -0.02224,0.0245 -0.03494,0.03556 -0.01906,0.0166 -0.03732,0.03319 -0.05241,0.05453 -0.01588,0.02134 -0.02541,0.04505 -0.03574,0.06876 -0.0064,0.01581 -0.01747,0.02766 -0.02223,0.04347 L 12.119911,52.03027 c -0.05479,0.192048 0.05479,0.389629 0.243794,0.450484 l 34.721206,11.249451 c 0.03653,0.01028 0.07465,0.01818 0.114353,0.01818 0.027,0 0.05479,-0.0032 0.08179,-0.0087 l 18.348088,-4.090709 c 0.01747,-0.004 0.03176,-0.01581 0.04844,-0.02134 0.02382,-0.0087 0.04685,-0.0166 0.0675,-0.03003 0.02065,-0.01264 0.03732,-0.02924 0.054,-0.04505 0.01747,-0.0166 0.03415,-0.03161 0.04844,-0.05058 0.01429,-0.01897 0.02303,-0.04031 0.03335,-0.06244 0.01032,-0.02134 0.01985,-0.0411 0.02541,-0.06481 0.0064,-0.0245 0.0064,-0.049 0.0071,-0.07429 0,-0.01739 0.0064,-0.03319 0.0048,-0.05137 z M 62.247,35.680841 45.503824,22.243776 Z M 45.240971,22.03276 37.859647,16.108502 Z M 37.515,15.831889 36.787588,15.248631 Z m -17.502353,11.257355 16.134882,-11.101661 -3.999176,27.195 -19.185088,8.588435 z m 27.205676,35.905935 -34.055735,-11.028951 19.1025,-8.551291 32.540559,15.658662 z m -14.808705,-19.799161 4.01347,-27.289839 26.390118,21.179855 2.325176,21.859532 z"
             id="path76"
             transform="matrix(1,0,0,-1,0,78.769696)"
             inkscape:connector-curvature="0"
             style="opacity:0.8;fill:#ffffff;fill-rule:nonzero" />
        </g>
      </g>
    </g>
  </g>
  <g
     id="top-hs-finished-circle"
     visibility="hidden"
     transform="matrix(1.0074963,0,0,1,-0.45577327,-0.24268312)"
     style="visibility:hidden;opacity:1">
    <ellipse
       cy="41.658779"
       cx="41.876198"
       id="green-elipse-seals"
       style="opacity:1;fill:#4e5359;fill-opacity:0.66666669;stroke:#7ed321;stroke-width:3.0388577"
       rx="38.592354"
       ry="39.005939" />
    <polyline
       points="663 485.597519 667.3505 490 681 478"
       id="tick-icon-seals"
       transform="matrix(1.0717506,0,0,1.0678112,-677.47136,-472.26111)"
       style="opacity:1;fill:#000000;fill-opacity:0.03589747;stroke:#ffffff;stroke-width:5;stroke-linecap:round;stroke-linejoin:round" />
  </g>
  <text
     y="-4.7717476"
     x="-431.77628"
     style="font-weight:bold;font-size:12px;font-family:Inter-Bold, Inter;letter-spacing:0.00375;opacity:0.5;fill:#ffffff"
     id="Top-Text"
     font-size="12"
     font-weight="bold"
     letter-spacing="0.00375">
    <tspan
       x="29.223724"
       y="103.22825"
       id="tspan74">TOP</tspan>
  </text>
</svg>
